<svg xmlns="http://www.w3.org/2000/svg" viewBox="0 0 976.06 629.87"><defs><style>.cls-1{fill:#e5e5e5;}.cls-2{fill:#bfbfbf;}.cls-3{fill:#fff;}.cls-4{fill:#84827e;}.cls-5{fill:#c0cb03;}.cls-6{fill:#1e3c4b;}</style></defs><g id="Layer_2" data-name="Layer 2"><g id="Layer_2-2" data-name="Layer 2"><g id="Layer_3" data-name="Layer 3"><path class="cls-1" d="M537.37,405.77q-10.77,12.09-22,24.4c66,73.65,132.7,147.79,179.42,199.7h25.07c51.25-55.48,124-134.87,176.07-194.53,28.07-32.15,54.54-61.57,80.15-89.88V314.07L783.76,529.72l-75.18-88.85L688.07,460,600.58,359.3,920.46,32.58l55.6,49.52V0H916.37q-21.18,21.53-48.49,50C736.64,187.1,628.53,303.47,537.37,405.77Z"/><path class="cls-1" d="M510.58,626.34q-2,1.71-4.07,3.53h34.32l34-31.34h17.78l29.64,31.34h37.56c-20.4-22.67-43.66-48.54-68.45-76.13C573.55,570.16,535.07,605.42,510.58,626.34Z"/><path class="cls-1" d="M257.22,0h-44.6L186.37,23.47,166.62,0H141.09c14.58,17.38,30.43,36.25,46.61,55.47C212.85,35.55,236.27,16.83,257.22,0Z"/><path class="cls-1" d="M480.26,430c-47.62-53.13-94.05-105.06-131.52-147.21C300.41,327,245.93,377,201.19,418.33,146,469.31,65.35,544.5,0,605.51v23.8L161.65,477.78,284.34,608.56l-21.18,21.31h21C335.57,579.75,411.81,503.88,480.26,430Z"/><path class="cls-1" d="M322.8,214.24c9.83,11.17,21.26,24.09,33.94,38.38,57.95-53,102.9-94,103.75-94.79l11.33,12.43c-.85.77-45.88,41.83-103.91,94.93,37,41.67,82.89,93,130,145.54q10.2-11.21,20.05-22.25C609.34,286,717.65,169.35,849.11,32Q865.67,14.72,880,0H648.08l-7.46,7.86,4.79,4.44L615.5,44.43,590.33,20,611.16,0H528.7L482.56,46l22.66,22.48L484.15,88.76,462.74,63.91,442.23,83.05,367,0h-2.33l41.81,45.8-5.13,4.61,62.93,67.28L355.77,217,235.3,76,335.38,0H298.65C272.11,21.42,240,47.17,204.44,75.36,251.67,131.4,298.85,187,322.8,214.24Z"/><path class="cls-1" d="M580.12,541.23c-26.53-29.52-54.53-60.71-82.45-91.85-60.35,65.1-126.45,131.47-176.33,180.49h16.09L450.21,518.33l63.11,70.18-44.11,41.36h12.24c6.25-5.81,12.42-11.38,18.21-16.31C524,592.74,562.47,557.51,580.12,541.23Z"/><path class="cls-1" d="M742.72,629.87H976.06V370.54c-21.68,24-44,49-67.49,75.86C859.82,502.21,793.12,575.21,742.72,629.87Z"/><path class="cls-1" d="M337.58,270.17c-12.82-14.44-24.37-27.5-34.28-38.76C279.15,204,231.56,147.86,184.05,91.48q-8.61,6.8-17.45,13.74C122.14,140.18,60,188.62,0,235.33v21.6l14.13-11.32,78.94,89.77L0,420.81v161.7C63.13,523.58,137.77,454,189.78,406,234.59,364.57,289.18,314.48,337.58,270.17Z"/><path class="cls-1" d="M167.31,71.6C146,46.22,125.18,21.48,107.17,0H62.75l56.18,62.43L61.52,107.08,69,114.6,0,163.09v39.32C54.89,159.68,110,116.64,150.55,84.8Z"/><polygon class="cls-2" points="600.58 359.3 688.07 460 708.58 440.87 783.76 529.72 976.06 314.07 976.06 82.09 920.47 32.58 600.58 359.3"/><polygon class="cls-2" points="615.5 44.43 645.41 12.3 640.62 7.86 648.08 0 611.16 0 590.33 19.99 615.5 44.43"/><polygon class="cls-2" points="462.74 63.91 484.15 88.76 505.21 68.45 482.56 45.97 528.7 0 367.04 0 442.23 83.05 462.74 63.91"/><polygon class="cls-2" points="355.77 217.02 464.32 117.69 401.39 50.41 406.52 45.8 364.71 0 335.38 0 235.3 76.04 355.77 217.02"/><polygon class="cls-2" points="14.13 245.61 0 256.93 0 420.81 93.07 335.38 14.13 245.61"/><polygon class="cls-2" points="61.52 107.08 118.93 62.43 62.75 0 0 0 0 163.09 69.03 114.6 61.52 107.08"/><polygon class="cls-2" points="212.62 0 166.62 0 186.37 23.47 212.62 0"/><polygon class="cls-2" points="161.65 477.78 0 629.31 0 629.87 263.16 629.87 284.34 608.55 161.65 477.78"/><polygon class="cls-2" points="450.21 518.33 337.43 629.87 469.21 629.87 513.32 588.51 450.21 518.33"/><polygon class="cls-2" points="574.84 598.53 540.83 629.87 622.25 629.87 592.61 598.53 574.84 598.53"/><path class="cls-3" d="M322.8,214.24C298.85,187,251.67,131.4,204.44,75.36q-10,7.94-20.39,16.12c47.51,56.38,95.1,112.5,119.25,139.93,9.91,11.26,21.46,24.32,34.28,38.76l19.16-17.55C344.06,238.33,332.63,225.41,322.8,214.24Z"/><path class="cls-3" d="M367.91,265.19l-19.17,17.55c37.47,42.15,83.9,94.08,131.52,147.21q8.92-9.65,17.66-19.22C450.8,358.15,405,306.86,367.91,265.19Z"/><path class="cls-3" d="M515.35,430.17q-8.73,9.57-17.68,19.21c27.92,31.14,55.92,62.33,82.45,91.85,5.74-5.29,9.29-8.59,9.44-8.72L601,544.83c-.14.13-3.77,3.5-9.63,8.91,24.79,27.59,48,53.46,68.45,76.13h35C648.05,578,581.38,503.82,515.35,430.17Z"/><path class="cls-3" d="M187.7,55.47c-16.18-19.22-32-38.09-46.61-55.47H107.17c18,21.48,38.78,46.22,60.14,71.6Q177.66,63.43,187.7,55.47Z"/><path class="cls-3" d="M497.67,449.38,480.26,430c-68.45,73.93-144.69,149.8-196,199.92h37.13C371.22,580.85,437.32,514.48,497.67,449.38Z"/><path class="cls-3" d="M518,388.48q-9.83,11-20.05,22.25,8.68,9.7,17.43,19.44,11.22-12.3,22-24.4C628.53,303.47,736.64,187.1,867.88,50q27.29-28.49,48.49-50H880q-14.37,14.76-30.91,32C717.65,169.35,609.34,286,518,388.48Z"/><path class="cls-3" d="M480.26,430l17.41,19.43q8.94-9.63,17.68-19.21-8.73-9.74-17.43-19.44Q489.19,420.3,480.26,430Z"/><path class="cls-3" d="M184.05,91.48q-8.4-10-16.74-19.88L150.55,84.8C110,116.64,54.89,159.68,0,202.41v32.92c60-46.71,122.14-95.15,166.6-130.11Q175.44,98.28,184.05,91.48Z"/><path class="cls-3" d="M204.44,75.36C240,47.17,272.11,21.42,298.65,0H257.22c-21,16.83-44.37,35.55-69.52,55.47Q196,65.38,204.44,75.36Z"/><path class="cls-3" d="M187.7,55.47q-10,8-20.39,16.13,8.33,9.9,16.74,19.88,10.37-8.17,20.39-16.12Q196.06,65.4,187.7,55.47Z"/><path class="cls-3" d="M895.91,435.34C843.8,495,771.09,574.39,719.84,629.87h22.88c50.4-54.66,117.1-127.66,165.85-183.47,23.46-26.87,45.81-51.84,67.49-75.86V345.46C950.45,373.77,924,403.19,895.91,435.34Z"/><path class="cls-3" d="M591.36,553.74q-5.58-6.19-11.24-12.51c-17.65,16.28-56.09,51.51-80.46,72.33-5.79,4.93-12,10.5-18.21,16.31h25.06q2.06-1.82,4.07-3.53C535.07,605.42,573.55,570.16,591.36,553.74Z"/><path class="cls-3" d="M601,544.83l-11.43-12.32c-.15.13-3.7,3.43-9.44,8.72q5.67,6.32,11.24,12.51C597.22,548.33,600.85,545,601,544.83Z"/><path class="cls-3" d="M348.74,282.74l-11.16-12.57c-48.4,44.31-103,94.4-147.8,135.81C137.77,454,63.13,523.58,0,582.51v23c65.35-61,146-136.2,201.19-187.18C245.93,377,300.41,327,348.74,282.74Z"/><path class="cls-3" d="M471.82,170.26l-11.33-12.43c-.85.78-45.8,41.76-103.75,94.79l11.17,12.57C425.94,212.09,471,171,471.82,170.26Z"/><path class="cls-3" d="M356.74,252.62l-19.16,17.55,11.16,12.57,19.17-17.55Z"/><polygon class="cls-2" points="713.59 608.55 748.45 568 731.02 547.5 739.56 533.82 681.24 470.49 664.38 487.35 641.59 460 604.57 494.18 713.59 608.55"/><path class="cls-4" d="M562.3,315.83l-59,64.66L398.94,263.38l94.1-84.3,13.67,14.35-11.16,10.26L540.66,254,523.57,273Zm-62.42-23.29,15.49-16.4-34.75-39-14.46,15Z"/><polygon class="cls-5" points="438.31 307.56 457.01 328.54 473.87 312.75 455.29 292.58 438.31 307.56"/><polygon class="cls-2" points="715.18 143.08 687.84 172.7 590.33 86.58 619.49 55.82 715.18 143.08"/><polygon class="cls-2" points="613.62 45.63 502.89 152.77 461.71 110.39 570.73 5.3 613.62 45.63"/><polygon class="cls-2" points="20.05 244.47 97.06 328.54 115.06 312.82 108.22 305.3 136.25 281.15 130.32 273.63 166.09 244.47 104.75 175.58 20.05 244.47"/><polygon class="cls-2" points="106.4 174.3 175.32 118.93 307.13 269.31 246.29 322.62 179.08 247.89 174.75 251.42 106.4 174.3"/><polygon class="cls-2" points="151.74 413.07 231.25 335.38 171.56 274.77 115.74 325.13 122.81 333.56 97.06 356.57 151.74 413.07"/><polygon class="cls-2" points="311.68 470.71 407.37 383.68 443.37 422.64 442.23 442.46 362.03 527.22 311.68 470.71"/><polygon class="cls-2" points="249.48 531.32 309.18 475.95 359.53 529.72 303.02 588.5 249.48 531.32"/><polygon class="cls-2" points="452.66 518.33 482.22 487 502.04 487.86 540.49 532.23 542.54 554.33 512.29 585.09 452.66 518.33"/><path class="cls-6" d="M579.71,169.26h11.4c7.89,0,11.39,4.3,11.39,10.19s-3.5,10.24-11.39,10.24h-4.22v8.56h-7.18ZM591.24,183c3.06,0,4-1.5,4-3.59s-.93-3.54-4-3.54h-4.35V183Z"/><path class="cls-6" d="M280,398.12h11.39c7.89,0,11.4,4.3,11.4,10.2s-3.51,10.24-11.4,10.24H287.2v8.55H280Zm11.53,13.79c3.05,0,4-1.51,4-3.59s-.94-3.55-4-3.55H287.2v7.14Z"/><path class="cls-6" d="M584.64,415.55H596c7.89,0,11.39,4.3,11.39,10.2S603.92,436,596,436h-4.21v8.56h-7.18Zm11.53,13.79c3.05,0,4-1.51,4-3.59s-.93-3.55-4-3.55h-4.35v7.14Z"/><path class="cls-6" d="M718.15,29.68h11.4c7.89,0,11.39,4.3,11.39,10.19s-3.5,10.24-11.39,10.24h-4.22v8.56h-7.18Zm11.53,13.78c3.06,0,4-1.5,4-3.59s-.93-3.54-4-3.54h-4.35v7.13Z"/><path d="M291.15,187.23l5,5.85-1.82,1.56L291,190.75l-1.29,1.11,2.72,3.18-1.58,1.35-2.72-3.19-1.41,1.21,3.32,3.89-1.82,1.55-5-5.84Z"/><path d="M294.08,202.08a2.5,2.5,0,0,1,2.94-.38l0,0a2.25,2.25,0,0,1,.83-2.41c1.33-1.14,3.07-.89,4.42.68s1.32,3.34,0,4.48a2.31,2.31,0,0,1-2.51.45l0,0a2.53,2.53,0,0,1-.84,2.85c-1.47,1.26-3.4.94-4.85-.76S292.6,203.34,294.08,202.08Zm3.48,3.71a1.18,1.18,0,0,0,.09-1.84l0,0a1.27,1.27,0,1,0-.07,1.86Zm1.6-3.13a1,1,0,1,0,.08-1.43.91.91,0,0,0-.08,1.43Z"/><path d="M299.85,208.67l5.74-4.91,1.56,1.81L305,207.39l2.42,2.83-1.64,1.4-2.42-2.84-2,1.7c-.63.54-.58,1-.24,1.4s.79.52,1.42,0l.18-.15,1.55,1.81-.18.16a3.3,3.3,0,1,1-4.29-5Z"/><path d="M311.28,209.41l1.56,1.82L309.58,214a2.3,2.3,0,0,1,2.07.81c1.08,1.26,1.38,3.32-.81,5.2l-3.1,2.65-1.55-1.82,3.1-2.65c.94-.81.95-1.61.37-2.28a1.5,1.5,0,0,0-2.32,0l-3.1,2.65-1.55-1.82Z"/><path d="M313.67,224.87l1.63,1.91c-.49.43-.55,1,.1,1.76s1.23.8,1.73.37.12-1.15-.37-2c-.76-1.3-1.72-3,.2-4.62,1.51-1.28,3.54-1.06,5,.65a3.42,3.42,0,0,1-.07,5l-1.57-1.84a1.31,1.31,0,0,0-1.67-2c-.52.44-.12,1.15.38,2,.76,1.32,1.73,3-.2,4.63-1.57,1.35-3.58,1-5.11-.78S312.16,226.22,313.67,224.87Z"/><path d="M319.62,231.78l5.74-4.9,1.55,1.81-2.12,1.81,2.43,2.84-1.64,1.39-2.42-2.83-2,1.7c-.64.54-.58,1-.24,1.39s.79.53,1.41,0l.19-.16,1.55,1.82-.18.16a3.3,3.3,0,1,1-4.29-5Z"/><path d="M596.13,321.45c-2.11-1.82-2-3.86-.61-5.46a3.25,3.25,0,0,1,3-1.24,3.3,3.3,0,0,1,.8-3.12c1.38-1.6,3.38-2,5.49-.19l5,4.3-1.68,2-5-4.31c-.91-.79-1.62-.63-2.13,0s-.57,1.31.34,2.1l5,4.31-1.69,2-5-4.31c-.92-.79-1.64-.61-2.14,0s-.57,1.32.35,2.11l5,4.31-1.68,2Z"/><path d="M607.7,312.26a4,4,0,0,1-.44-6,4,4,0,0,1,5.94-.41l2.92,2.52L614.68,310l-1-.85a2.5,2.5,0,0,1-.44,2.83A3.83,3.83,0,0,1,607.7,312.26Zm3.88-4.64a1.82,1.82,0,1,0,.26,2.62A1.78,1.78,0,0,0,611.58,307.62Z"/><path d="M614.21,304.68a4,4,0,0,1-.46-5.93,4,4,0,0,1,6-.46,3.83,3.83,0,0,1,.57,5.54,2.62,2.62,0,0,1-2.27,1l3.2,2.76-1.56,1.81Zm3.88-4.61a1.82,1.82,0,1,0,.26,2.62A1.78,1.78,0,0,0,618.09,300.07Z"/><path d="M615.06,292.28l1.56-1.81,8.57,7.39-1.57,1.81Z"/><path d="M623.18,294.16a4.22,4.22,0,0,1,5.51-6.38l.5.43-3.88,4.5a1.64,1.64,0,0,0,2.16-.45,1.67,1.67,0,0,0,.54-1.51l1.62-1.87a4,4,0,0,1-.54,4.77A4,4,0,0,1,623.18,294.16Zm3.26-5.08a1.66,1.66,0,0,0-2,.56,1.61,1.61,0,0,0-.23,2.05Z"/><path d="M630.68,282.22c-2.15-1.85-2.41-4.2-.48-6.45s4.32-2.35,6.47-.5l4.58,4-1.68,1.95-2.24-1.93-2.67,3.08,2.25,1.94-1.65,1.91Zm5-4.43-.66-.56c-1.08-.94-2.05-1-3,.12s-.76,2,.32,3l.65.56Z"/><path d="M636,273.29l1.67-1.94,5.37,2.34-3.1-5,1.64-1.89,4.11,7.27-1.89,2.2Z"/><path d="M644.74,269.16a4.22,4.22,0,0,1,5.51-6.38l.5.43-3.88,4.5a1.64,1.64,0,0,0,2.16-.45,1.67,1.67,0,0,0,.54-1.51l1.62-1.87a4,4,0,0,1-.54,4.77A4,4,0,0,1,644.74,269.16Zm3.26-5.08a1.66,1.66,0,0,0-2,.56,1.61,1.61,0,0,0-.23,2.05Z"/><path d="M847.15,504.6l-4.89-4.42,1.73-1.91,4.89,4.42c.9.81,1.61.66,2.13.08s.6-1.3-.29-2.12l-4.9-4.42,1.73-1.91,4.9,4.42c.9.81,1.62.65,2.13.08s.6-1.3-.3-2.11l-4.89-4.42,1.73-1.92,4.89,4.42c2.07,1.87,1.9,3.91.49,5.47a3.62,3.62,0,0,0-3.86,4.28C851.23,506.1,849.22,506.47,847.15,504.6Z"/><path d="M856.86,493.83a4.05,4.05,0,0,1-.29-6,4,4,0,0,1,5.94-.28l2.86,2.59-1.47,1.63-1-.88a2.52,2.52,0,0,1-.51,2.83A3.84,3.84,0,0,1,856.86,493.83Zm4-4.56a1.82,1.82,0,1,0,.2,2.63A1.76,1.76,0,0,0,860.85,489.27Z"/><path d="M858.2,481.21l1.6-1.77,8.39,7.58-1.6,1.77Z"/><path d="M861.19,477.9l1.6-1.77,8.39,7.58-1.6,1.77Z"/><path d="M872.77,477.36l1.69-1.87c.49.44,1.06.42,1.73-.32s.64-1.32.15-1.76-1.16,0-1.93.62c-1.19.92-2.72,2.09-4.6.39-1.47-1.32-1.51-3.37,0-5a3.43,3.43,0,0,1,5-.57l-1.63,1.8a1.11,1.11,0,0,0-1.67.23,1.1,1.1,0,0,0-.07,1.67c.51.46,1.16,0,1.94-.62,1.21-.93,2.74-2.11,4.62-.41,1.53,1.39,1.46,3.43-.12,5.17S874.31,478.68,872.77,477.36Z"/><path d="M878.87,470.57l-5.6-5.06,1.6-1.78,2.07,1.87,2.5-2.76,1.59,1.44-2.5,2.77,1.94,1.75c.62.55,1.06.44,1.41.05s.42-.85-.19-1.4l-.18-.16,1.6-1.77.18.16a3.3,3.3,0,1,1-4.42,4.89Z"/><path d="M64.12,170.08l2-1.55c.4.51,1,.59,1.76,0s.85-1.19.45-1.7-1.15-.18-2,.28c-1.33.7-3,1.59-4.6-.4-1.22-1.55-.91-3.58.86-5a3.42,3.42,0,0,1,5,.28l-1.91,1.5a1.31,1.31,0,0,0-2,1.58c.42.54,1.15.17,2-.29,1.35-.71,3.06-1.61,4.62.39,1.28,1.63.86,3.62-1,5.07S65.41,171.64,64.12,170.08Z"/><path d="M70.33,155.88l2-1.6,5,6.32,3.87-3,1.48,1.88-5.9,4.63Z"/><path d="M80.92,155.81a4.24,4.24,0,1,1,5.89.64A4,4,0,0,1,80.92,155.81Zm4.76-3.74a1.82,1.82,0,1,0-.25,2.63A1.77,1.77,0,0,0,85.68,152.07Z"/><path d="M89.26,151.22l1.86-1.45c.27.31.63.29,1.15-.11s.6-.8.4-1.07-.81-.09-1.45.27c-1,.54-2.53,1.43-3.7-.06-1-1.25-.68-2.91.86-4.12s3.2-1.06,4.11,0l-1.83,1.44a.75.75,0,0,0-1,.08c-.47.36-.47.75-.27,1s.79.07,1.43-.29c1-.58,2.54-1.41,3.69,0,1,1.28.62,3-1,4.21S90.22,152.39,89.26,151.22Z"/><path d="M96.62,140.79c-1.75-2.23-1.55-4.59.78-6.42s4.69-1.47,6.44.76l3.74,4.76-2,1.59-1.83-2.33-3.21,2.52,1.83,2.33-2,1.55Zm5.72-3.39-.53-.68c-.88-1.13-1.83-1.33-3-.46s-1.14,1.85-.26,3l.53.67Z"/><path d="M106.32,135.69c-1.63-2.08-1.24-4.11.59-5.55s3.89-1.34,5.53.75L115,134.1l-1.88,1.47-2.52-3.21c-.77-1-1.57-1-2.27-.46s-.85,1.34-.09,2.31l2.52,3.21-1.88,1.48Z"/><path d="M116.58,133.8l1.91-1.5a1.61,1.61,0,0,0,1.71-.42c.92-.71,1.12-1.49.17-2.7l-.28-.36a2.65,2.65,0,0,1-1.14,2.24,3.71,3.71,0,0,1-5.45-.82,4.06,4.06,0,0,1,.78-5.88,4,4,0,0,1,5.91.73l2,2.55c1.86,2.37,1.09,4.46-.7,5.86C119.92,134.74,118.15,135,116.58,133.8Zm1.69-7.3a1.82,1.82,0,1,0-2.86,2.24,1.82,1.82,0,0,0,2.86-2.24Z"/><path d="M121.12,124.26a4,4,0,0,1,.78-5.87,4,4,0,0,1,5.85.67l.41.52-4.67,3.67a1.63,1.63,0,0,0,2.2,0,1.67,1.67,0,0,0,.83-1.37l1.94-1.53A4,4,0,0,1,127,124.9,4,4,0,0,1,121.12,124.26Zm4.18-4.35a1.66,1.66,0,0,0-2.08.15,1.62,1.62,0,0,0-.63,2Z"/><path d="M124.37,112.33l1.88-1.47,7,8.9-1.88,1.47Z"/><path d="M132,115.74a4.06,4.06,0,0,1,.78-5.88,4,4,0,0,1,5.85.67l.42.53-4.68,3.67a1.64,1.64,0,0,0,2.21,0,1.66,1.66,0,0,0,.82-1.38l1.94-1.52a3.94,3.94,0,0,1-1.45,4.58A4,4,0,0,1,132,115.74Zm4.18-4.36a1.66,1.66,0,0,0-2.08.16,1.63,1.63,0,0,0-.63,2Z"/><path d="M140.29,111.18l1.86-1.45c.26.31.63.29,1.14-.12s.61-.8.4-1.06-.8-.1-1.45.27c-1,.54-2.52,1.43-3.69-.06-1-1.25-.68-2.91.86-4.12s3.19-1.07,4.11,0l-1.83,1.44a.75.75,0,0,0-1,.08c-.47.36-.47.75-.27,1s.79.07,1.43-.3c1-.57,2.54-1.4,3.69.06,1,1.28.62,3-1,4.21S141.25,112.35,140.29,111.18Z"/><path d="M149.25,103.28l2-1.56c.41.52,1,.6,1.76,0s.85-1.19.45-1.71-1.15-.17-2,.28c-1.33.7-3,1.6-4.6-.39-1.22-1.56-.91-3.58.86-5a3.42,3.42,0,0,1,5,.28l-1.91,1.5a1.31,1.31,0,0,0-2,1.58c.43.54,1.15.17,2-.29,1.35-.71,3.06-1.61,4.62.39,1.28,1.62.86,3.62-1,5.07S150.54,104.84,149.25,103.28Z"/><path d="M156.41,97.62l-4.66-5.94,1.88-1.47,1.72,2.19,2.93-2.3,1.33,1.69-2.93,2.3,1.61,2.06c.51.65,1,.61,1.38.29s.56-.76.05-1.42l-.15-.18,1.88-1.48.15.19a3.3,3.3,0,1,1-5.19,4.07Z"/><path d="M257.59,358.17l1.85-1.71c.44.48,1,.51,1.75-.17s.75-1.26.3-1.74-1.16-.07-2,.45c-1.27.81-2.89,1.84-4.62,0-1.34-1.45-1.2-3.5.45-5a3.42,3.42,0,0,1,5-.13l-1.77,1.65a1.31,1.31,0,0,0-1.9,1.75c.46.5,1.16.07,2-.46,1.28-.82,2.91-1.86,4.63,0,1.41,1.52,1.16,3.54-.57,5.14S259,359.62,257.59,358.17Z"/><path d="M263.52,351.62a4,4,0,0,1,.24-6,4,4,0,0,1,5.94.24l2.62,2.83-1.61,1.49-.89-1a2.5,2.5,0,0,1-.75,2.77A3.84,3.84,0,0,1,263.52,351.62Zm4.37-4.19a1.82,1.82,0,1,0,0,2.64A1.78,1.78,0,0,0,267.89,347.43Z"/><path d="M270.69,344.64c-1.8-1.94-1.58-4,.12-5.58s3.76-1.66,5.57.29l2.78,3L277.41,344l-2.78-3c-.84-.91-1.64-.88-2.3-.27s-.74,1.4.11,2.31l2.78,3-1.76,1.62Z"/><path d="M278.19,339l-5.14-5.53,1.75-1.63,1.89,2,2.74-2.54,1.46,1.58-2.73,2.54,1.78,1.91c.56.61,1,.53,1.4.18s.49-.81-.07-1.42l-.17-.17,1.75-1.63.17.18a3.3,3.3,0,1,1-4.83,4.49Z"/><path d="M283.06,333.34a4.21,4.21,0,0,1,6.17-5.74l.46.49-4.35,4.05a1.63,1.63,0,0,0,2.19-.22,1.67,1.67,0,0,0,.71-1.43l1.8-1.69a4,4,0,0,1-1.06,4.69A4,4,0,0,1,283.06,333.34Zm3.8-4.69a1.66,1.66,0,0,0-2.06.33,1.62,1.62,0,0,0-.46,2Z"/><path d="M289.91,327a4.21,4.21,0,0,1,6.17-5.74l.46.49-4.36,4a1.63,1.63,0,0,0,2.2-.21,1.69,1.69,0,0,0,.7-1.44l1.81-1.68a3.94,3.94,0,0,1-1.06,4.68A4,4,0,0,1,289.91,327Zm3.8-4.69a1.66,1.66,0,0,0-2.06.33,1.61,1.61,0,0,0-.46,2Z"/><path d="M300.48,318.33l1.84-1.72c.45.48,1,.51,1.76-.17s.74-1.26.3-1.73-1.16-.08-2,.44c-1.27.81-2.9,1.84-4.62,0-1.35-1.45-1.2-3.49.44-5a3.43,3.43,0,0,1,5-.14l-1.77,1.65a1.11,1.11,0,0,0-1.69.09c-.67.63-.59,1.26-.22,1.66s1.16.07,2-.46c1.28-.82,2.91-1.85,4.64,0,1.4,1.52,1.15,3.54-.58,5.14S301.89,319.78,300.48,318.33Z"/><path d="M307.14,312.09,302,306.56l1.75-1.63,1.9,2.05,2.73-2.54,1.47,1.57-2.74,2.54,1.78,1.91c.57.61,1,.54,1.41.18s.49-.8-.08-1.41l-.16-.18,1.75-1.62.16.17a3.3,3.3,0,1,1-4.83,4.49Z"/></g></g></g></svg>