<svg xmlns="http://www.w3.org/2000/svg" width="24.335" height="31.748" viewBox="0 0 24.335 31.748">
  <g id="组件_7_1" data-name="组件 7 1" transform="translate(-866.41 -3799.209)">
    <g id="联合_1" data-name="联合 1">
      <path id="Path_18" data-name="Path 18" d="M883.509,3830.139c-.1.048-.206.092-.31.132-.1.057-.211.112-.321.163a5.572,5.572,0,0,1-7.406-2.7l-8.538-18.309a5.572,5.572,0,0,1,2.7-7.406c.109-.051.219-.1.331-.142q.145-.08.3-.153l4.419-2.06a4.876,4.876,0,0,1,6.481,2.358l.883,1.894a4.877,4.877,0,0,1-2.359,6.481l3.239,6.945a4.875,4.875,0,0,1,6.48,2.358l.883,1.894a4.878,4.878,0,0,1-2.358,6.481Z" fill="none"/>
      <path id="Path_19" data-name="Path 19" d="M886.75,3825.554a2.092,2.092,0,0,0,1.011-2.778l-.883-1.893a2.092,2.092,0,0,0-2.777-1.012l-2.525,1.178-1.178-2.526-3.238-6.944-1.178-2.525,2.525-1.178a2.092,2.092,0,0,0,1.011-2.778l-.883-1.893a2.092,2.092,0,0,0-2.778-1.011l-4.419,2.06c-.043.021-.087.043-.129.066l-.162.09-.173.067c-.056.022-.112.046-.167.072a2.79,2.79,0,0,0-1.348,3.7L878,3826.561a2.79,2.79,0,0,0,3.7,1.348c.056-.026.111-.054.162-.082l.161-.088.171-.066c.047-.018.093-.038.137-.059l4.419-2.06m1.178,2.525-4.419,2.061c-.1.048-.206.092-.31.132q-.157.086-.321.162a5.572,5.572,0,0,1-7.406-2.7l-8.538-18.31a5.573,5.573,0,0,1,2.7-7.406c.11-.051.221-.1.332-.141s.2-.1.3-.153l4.419-2.061a4.876,4.876,0,0,1,6.48,2.359l.883,1.894a4.875,4.875,0,0,1-2.358,6.48l3.239,6.945a4.877,4.877,0,0,1,6.48,2.359l.883,1.894A4.876,4.876,0,0,1,887.928,3828.079Z" fill="#afafaf"/>
    </g>
  </g>
</svg>
