<svg xmlns="http://www.w3.org/2000/svg" viewBox="0 0 364.24 255.19"><defs><style>.cls-1{fill:#fecb00;}.cls-2{fill:#fff;}</style></defs><g id="Layer_2" data-name="Layer 2"><g id="Layer_2-2" data-name="Layer 2"><g id="Layer_3" data-name="Layer 3"><path class="cls-1" d="M188.41,204.26c-43.66,13.26-149.42,3-173.22-32.45C-15.07,126.68,9,74.17,10.44,71.15,41.39,7.27,130.63,1.9,153.46.53,161,.07,307.5-9.87,350,81.2c3.88,8.31,23.79,45.43,8.6,78-18.53,39.74-73.16,65.69-148.74,45.6l.63,50.38Z"/><path class="cls-2" d="M78.05,84.62a5.23,5.23,0,0,1-2.42-.54,5.51,5.51,0,0,1-1.78-1.43,6.37,6.37,0,0,1-1.12-2,7.66,7.66,0,0,1-.37-2.39,7.55,7.55,0,0,1,.68-3.1,9.39,9.39,0,0,1,1.89-2.81,9.69,9.69,0,0,1,2.86-2,8.15,8.15,0,0,1,3.6-.79,6.07,6.07,0,0,1,3.4.89,4.17,4.17,0,0,1,1.76,2.36L83,75a2,2,0,0,0-.32-.9,2,2,0,0,0-.59-.57,2.46,2.46,0,0,0-.75-.3,4.11,4.11,0,0,0-.77-.08,3.19,3.19,0,0,0-1.72.46,4.39,4.39,0,0,0-1.25,1.18,5.51,5.51,0,0,0-.76,1.56A5.37,5.37,0,0,0,76.54,78a4.47,4.47,0,0,0,.14,1.17,3,3,0,0,0,.44,1,2.1,2.1,0,0,0,.74.65,2.14,2.14,0,0,0,1,.24,4,4,0,0,0,.81-.09,3.57,3.57,0,0,0,.84-.31,3.74,3.74,0,0,0,.77-.57,3.27,3.27,0,0,0,.64-.85l2.92,2a5.34,5.34,0,0,1-1.27,1.47,7.7,7.7,0,0,1-1.72,1.09,9.5,9.5,0,0,1-1.94.68A8.79,8.79,0,0,1,78.05,84.62Z"/><path class="cls-2" d="M89.76,84.7a4.07,4.07,0,0,1-1.64-.32,3.43,3.43,0,0,1-1.23-.92,4,4,0,0,1-.77-1.4,6.09,6.09,0,0,1-.26-1.81,7.6,7.6,0,0,1,.48-2.7,7.74,7.74,0,0,1,1.3-2.24,6.28,6.28,0,0,1,1.9-1.52,5,5,0,0,1,2.28-.55,3.09,3.09,0,0,1,1.74.48,2.38,2.38,0,0,1,1,1.36l.34-1.55h4l-1.41,6.55a2.86,2.86,0,0,0-.06.51q0,.52.57.54l-.72,3.36a9,9,0,0,1-1.7.21,2.67,2.67,0,0,1-1.49-.36,1.38,1.38,0,0,1-.55-1.26,1.19,1.19,0,0,1,0-.31,4.67,4.67,0,0,1-3.79,1.93Zm1.81-3.36a1.73,1.73,0,0,0,1-.28,5.31,5.31,0,0,0,1-.85l.42-2a2.17,2.17,0,0,0-.51-1.18,1.29,1.29,0,0,0-1-.45,1.64,1.64,0,0,0-.86.25,3.14,3.14,0,0,0-.76.66,3.24,3.24,0,0,0-.53.95,3.42,3.42,0,0,0-.2,1.14,2,2,0,0,0,.39,1.27A1.38,1.38,0,0,0,91.57,81.34Z"/><path class="cls-2" d="M102.05,84.7a2.94,2.94,0,0,1-2-.58,2.07,2.07,0,0,1-.68-1.67c0-.15,0-.3,0-.46s0-.31.09-.48l2.62-12.35h4L103.77,80.1a2,2,0,0,0-.06.46c0,.54.25.8.76.8a2.2,2.2,0,0,0,.52-.08,2.83,2.83,0,0,0,.57-.23L105.43,84a7.88,7.88,0,0,1-1.68.52A8.19,8.19,0,0,1,102.05,84.7Z"/><path class="cls-2" d="M109.3,84.7a3,3,0,0,1-2-.58,2.06,2.06,0,0,1-.67-1.67c0-.15,0-.3,0-.46a3,3,0,0,1,.08-.48l2.63-12.35h4L111,80.1a2.06,2.06,0,0,0-.07.46c0,.54.26.8.76.8a2.27,2.27,0,0,0,.53-.08,3,3,0,0,0,.56-.23L112.68,84a9.2,9.2,0,0,1-3.38.71Z"/><path class="cls-2" d="M121.22,84.7A2.6,2.6,0,0,1,119.3,84a2.64,2.64,0,0,1-.66-1.94,7.06,7.06,0,0,1,.17-1.39l1.55-7.26h4L123,79.81a3.15,3.15,0,0,0-.07.57c0,.64.27,1,.8,1a2,2,0,0,0,.82-.21,3.42,3.42,0,0,0,1.07-.92l1.45-6.76h4l-1.41,6.63a2.86,2.86,0,0,0-.06.51q0,.52.57.54l-.72,3.36a9.11,9.11,0,0,1-1.72.21,2.87,2.87,0,0,1-1.48-.34,1.3,1.3,0,0,1-.58-1.19,1.23,1.23,0,0,1,0-.2.75.75,0,0,1,0-.2,5.75,5.75,0,0,1-2,1.48A6.37,6.37,0,0,1,121.22,84.7Z"/><path class="cls-2" d="M135.44,84.7a7.28,7.28,0,0,1-2.61-.47,4.59,4.59,0,0,1-2-1.38l1.85-2.39a7.67,7.67,0,0,0,1.67,1.07,3.79,3.79,0,0,0,1.56.38.83.83,0,0,0,.59-.17.64.64,0,0,0,.17-.46.57.57,0,0,0-.25-.44,3.1,3.1,0,0,0-.93-.44,16.08,16.08,0,0,1-1.53-.59,5.72,5.72,0,0,1-1-.61,2.13,2.13,0,0,1-.6-.69,2,2,0,0,1-.19-.86,3.84,3.84,0,0,1,.41-1.74,4.48,4.48,0,0,1,1.13-1.4,5.41,5.41,0,0,1,1.66-1,5.82,5.82,0,0,1,2-.35,6.82,6.82,0,0,1,2.14.32,4.52,4.52,0,0,1,1.87,1.28l-2,2.39a11,11,0,0,0-1.45-.94A2.47,2.47,0,0,0,136.8,76a.89.89,0,0,0-.56.17.63.63,0,0,0-.21.5.52.52,0,0,0,.28.45,5.19,5.19,0,0,0,1,.41,7.2,7.2,0,0,1,2.59,1.2,2.1,2.1,0,0,1,.77,1.68,4.09,4.09,0,0,1-.38,1.76,3.83,3.83,0,0,1-1.07,1.36,5,5,0,0,1-1.66.89A6.87,6.87,0,0,1,135.44,84.7Z"/><path class="cls-2" d="M148.1,77.73h-1.28l.65-3h1.28l.26-1.2a6.36,6.36,0,0,1,.67-1.88,5.42,5.42,0,0,1,1.11-1.45,4.59,4.59,0,0,1,1.44-.92A4.25,4.25,0,0,1,153.9,69a7.39,7.39,0,0,1,2.83.63l-1.3,3a3.1,3.1,0,0,0-.67-.21,3,3,0,0,0-.67-.09c-.58,0-.93.36-1.07,1.07l-.3,1.35H155l-.65,3h-2.25L149.7,89h-4Z"/><path class="cls-2" d="M159.44,84.7a5.38,5.38,0,0,1-2.09-.37,4.1,4.1,0,0,1-1.48-1,4,4,0,0,1-.87-1.47,5.47,5.47,0,0,1-.28-1.77,6.84,6.84,0,0,1,1.91-4.72,6.91,6.91,0,0,1,2.25-1.56,7.33,7.33,0,0,1,3-.58,5.58,5.58,0,0,1,2.09.36,4.25,4.25,0,0,1,1.48,1,4.08,4.08,0,0,1,.87,1.46,5.38,5.38,0,0,1,.28,1.77,6.84,6.84,0,0,1-1.92,4.73,7,7,0,0,1-2.26,1.55A7.11,7.11,0,0,1,159.44,84.7Zm.72-3.36a1.86,1.86,0,0,0,.88-.23,2.29,2.29,0,0,0,.73-.63,3.06,3.06,0,0,0,.5-1,4,4,0,0,0,.18-1.21,2.14,2.14,0,0,0-.34-1.26,1.09,1.09,0,0,0-1-.46,1.75,1.75,0,0,0-.88.23,2.29,2.29,0,0,0-.73.63,3,3,0,0,0-.5,1,3.93,3.93,0,0,0-.17,1.21,2.14,2.14,0,0,0,.33,1.26A1.11,1.11,0,0,0,160.16,81.34Z"/><path class="cls-2" d="M169.1,73.45h3.66l-.47,2.1a6.35,6.35,0,0,1,1.76-1.72,3.61,3.61,0,0,1,1.9-.59h.31a.34.34,0,0,1,.15,0l-.76,3.59a7.69,7.69,0,0,0-2,.25,3.17,3.17,0,0,0-1.51.84l-1.39,6.55h-4Z"/><path class="cls-2" d="M184,84.72a4.9,4.9,0,0,1-1-.11,2.37,2.37,0,0,1-.85-.39,1.74,1.74,0,0,1-.57-.69,2.49,2.49,0,0,1-.2-1c0-.16,0-.31,0-.47a3.55,3.55,0,0,1,.09-.5l1.07-5.06h-1.28l.65-3h1.28l.73-3.47h4l-.73,3.47h2l-.63,3h-2l-.78,3.65,0,.2a1.15,1.15,0,0,0,0,.18c0,.41.21.61.63.61a2.94,2.94,0,0,0,.64-.09,7.68,7.68,0,0,0,.81-.27v3.15a15.53,15.53,0,0,1-1.9.6A7.78,7.78,0,0,1,184,84.72Z"/><path class="cls-2" d="M192,69.16h4l-1.26,5.92a4.9,4.9,0,0,1,1.72-1.37,4.74,4.74,0,0,1,2.1-.47,3.43,3.43,0,0,1,1.29.2,1.86,1.86,0,0,1,.81.54,1.93,1.93,0,0,1,.41.79,3.37,3.37,0,0,1,.12.9,5.39,5.39,0,0,1-.06.8c0,.27-.08.52-.13.76l-1.53,7.26h-4l1.33-6.21a3.07,3.07,0,0,0,.06-.57,1,1,0,0,0-.24-.76.88.88,0,0,0-.62-.23,1,1,0,0,0-.41.12,2.9,2.9,0,0,0-.51.31,3.56,3.56,0,0,0-.54.5,4,4,0,0,0-.47.65l-1.32,6.19h-4Z"/><path class="cls-2" d="M206.56,84.7a5.54,5.54,0,0,1-1.95-.33,4.28,4.28,0,0,1-1.5-1,4.19,4.19,0,0,1-1-1.47,5.14,5.14,0,0,1-.34-1.93,6.28,6.28,0,0,1,.57-2.65,6.76,6.76,0,0,1,1.55-2.16,7.18,7.18,0,0,1,2.32-1.45,7.71,7.71,0,0,1,2.85-.52,5.1,5.1,0,0,1,3.14.85,2.8,2.8,0,0,1,1.12,2.36,3,3,0,0,1-1.71,2.81,10.74,10.74,0,0,1-5.07.95H206a2.06,2.06,0,0,0,.3,1.27,1.3,1.3,0,0,0,1,.37,2.29,2.29,0,0,0,2.06-1.14l3.13,1a6.13,6.13,0,0,1-1.12,1.22,8.18,8.18,0,0,1-1.45.94,7.62,7.62,0,0,1-1.65.61A7.31,7.31,0,0,1,206.56,84.7Zm1.83-8.63a1.65,1.65,0,0,0-1.12.47,3.63,3.63,0,0,0-.85,1.27h.14a8.33,8.33,0,0,0,2.26-.2c.43-.13.64-.37.64-.72a.71.71,0,0,0-.29-.59A1.27,1.27,0,0,0,208.39,76.07Z"/><path class="cls-2" d="M224.75,69.16l-1.11,2.75h1.09L224,75.27h-4.16l.73-3.46L222,69.16Zm4.83,0-1.11,2.75h1.09l-.71,3.36h-4.16l.73-3.46,1.43-2.65Z"/><path class="cls-2" d="M234.07,84.7a5.42,5.42,0,0,1-2.09-.37,4.19,4.19,0,0,1-1.48-1,4,4,0,0,1-.87-1.47,5.47,5.47,0,0,1-.28-1.77,6.84,6.84,0,0,1,1.91-4.72,7.13,7.13,0,0,1,2.25-1.56,7.33,7.33,0,0,1,3-.58,5.54,5.54,0,0,1,2.09.36,4.25,4.25,0,0,1,1.48,1,4.08,4.08,0,0,1,.87,1.46,5.39,5.39,0,0,1,.29,1.77,6.7,6.7,0,0,1-.5,2.52,6.57,6.57,0,0,1-1.43,2.21,7.11,7.11,0,0,1-2.25,1.55A7.19,7.19,0,0,1,234.07,84.7Zm.72-3.36a1.83,1.83,0,0,0,.88-.23,2.33,2.33,0,0,0,.74-.63,3,3,0,0,0,.49-1,4,4,0,0,0,.18-1.21,2.07,2.07,0,0,0-.34-1.26,1.09,1.09,0,0,0-.94-.46,1.76,1.76,0,0,0-.89.23,2.29,2.29,0,0,0-.73.63,2.76,2.76,0,0,0-.49,1,3.93,3.93,0,0,0-.18,1.21,2.14,2.14,0,0,0,.33,1.26A1.11,1.11,0,0,0,234.79,81.34Z"/><path class="cls-2" d="M243.71,73.45h3.47l-.36,1.65a5.34,5.34,0,0,1,1.65-1.38,4.47,4.47,0,0,1,2.11-.48,3.71,3.71,0,0,1,1.59.33,3.59,3.59,0,0,1,1.19.93,4.19,4.19,0,0,1,.76,1.4,6,6,0,0,1,.26,1.79,7.6,7.6,0,0,1-.48,2.7,7.51,7.51,0,0,1-1.3,2.22,6.46,6.46,0,0,1-1.88,1.52,4.6,4.6,0,0,1-2.2.57,3.42,3.42,0,0,1-1.86-.47,2.23,2.23,0,0,1-.95-1.38L244.41,89h-4Zm4.14,7.89a1.64,1.64,0,0,0,.86-.25,3.14,3.14,0,0,0,.76-.66,3.17,3.17,0,0,0,.53-1,3.09,3.09,0,0,0,.2-1.13,1.93,1.93,0,0,0-.39-1.27,1.35,1.35,0,0,0-1.12-.47,1.71,1.71,0,0,0-.93.28,4.47,4.47,0,0,0-1,.85l-.42,1.91a2.37,2.37,0,0,0,.51,1.22A1.25,1.25,0,0,0,247.85,81.34Z"/><path class="cls-2" d="M259.76,84.7a5.56,5.56,0,0,1-2-.33,4.46,4.46,0,0,1-1.5-1,4.19,4.19,0,0,1-1-1.47A5.14,5.14,0,0,1,255,80a6.28,6.28,0,0,1,.57-2.65,6.91,6.91,0,0,1,1.55-2.16,7.18,7.18,0,0,1,2.32-1.45,7.71,7.71,0,0,1,2.85-.52,5.1,5.1,0,0,1,3.14.85,2.77,2.77,0,0,1,1.12,2.36,3,3,0,0,1-1.71,2.81,10.74,10.74,0,0,1-5.07.95h-.61a2.06,2.06,0,0,0,.3,1.27,1.31,1.31,0,0,0,1,.37,2.29,2.29,0,0,0,2.06-1.14l3.13,1a6.13,6.13,0,0,1-1.12,1.22,7.83,7.83,0,0,1-1.45.94,7.62,7.62,0,0,1-1.65.61A7.29,7.29,0,0,1,259.76,84.7Zm1.82-8.63a1.65,1.65,0,0,0-1.12.47,3.63,3.63,0,0,0-.85,1.27h.15a8.29,8.29,0,0,0,2.25-.2c.43-.13.64-.37.64-.72a.71.71,0,0,0-.29-.59A1.25,1.25,0,0,0,261.58,76.07Z"/><path class="cls-2" d="M268.76,73.45h3.6L272,75.08a4.66,4.66,0,0,1,1.84-1.37,6.06,6.06,0,0,1,2.46-.47,3.2,3.2,0,0,1,1.25.21,1.91,1.91,0,0,1,.78.56,2,2,0,0,1,.39.81,4,4,0,0,1,.1.91,5,5,0,0,1-.05.78c0,.25-.07.49-.11.72l-1.54,7.26h-4l1.33-6.21a3.05,3.05,0,0,0,.06-.55,1.06,1.06,0,0,0-.24-.77.8.8,0,0,0-.58-.24,1.8,1.8,0,0,0-1,.44,3.74,3.74,0,0,0-1,1.14l-1.33,6.19h-4Z"/><path class="cls-2" d="M77.07,113.5a7.32,7.32,0,0,1-2.61-.47,4.59,4.59,0,0,1-2-1.38l1.85-2.39A7.67,7.67,0,0,0,76,110.33a3.79,3.79,0,0,0,1.56.38.83.83,0,0,0,.59-.17.64.64,0,0,0,.17-.46.57.57,0,0,0-.25-.44,3.1,3.1,0,0,0-.93-.44,16.08,16.08,0,0,1-1.53-.59,6.08,6.08,0,0,1-1-.61,2.13,2.13,0,0,1-.6-.69,2,2,0,0,1-.18-.86,3.83,3.83,0,0,1,.4-1.74,4.48,4.48,0,0,1,1.13-1.4,5.41,5.41,0,0,1,1.66-1,5.82,5.82,0,0,1,2-.35,6.82,6.82,0,0,1,2.14.32A4.52,4.52,0,0,1,83,103.61L81,106a11,11,0,0,0-1.45-.94,2.46,2.46,0,0,0-1.13-.29.9.9,0,0,0-.57.17.63.63,0,0,0-.21.5.52.52,0,0,0,.28.45,5.19,5.19,0,0,0,1,.41,7.2,7.2,0,0,1,2.59,1.2,2.07,2.07,0,0,1,.77,1.68,4.09,4.09,0,0,1-.38,1.76,3.83,3.83,0,0,1-1.07,1.36,5,5,0,0,1-1.66.89A6.87,6.87,0,0,1,77.07,113.5Z"/><path class="cls-2" d="M88.14,113.5a5.56,5.56,0,0,1-2-.33,4.46,4.46,0,0,1-1.5-1,4.19,4.19,0,0,1-1-1.47,5.14,5.14,0,0,1-.34-1.93,6.28,6.28,0,0,1,.57-2.65A6.91,6.91,0,0,1,85.51,104a7.18,7.18,0,0,1,2.32-1.45,7.71,7.71,0,0,1,2.85-.52,5.1,5.1,0,0,1,3.14.85,2.77,2.77,0,0,1,1.12,2.36,3,3,0,0,1-1.71,2.81,10.74,10.74,0,0,1-5.07,1h-.61a2.06,2.06,0,0,0,.3,1.27,1.31,1.31,0,0,0,1,.37A2.29,2.29,0,0,0,91,109.51l3.13,1A6.13,6.13,0,0,1,93,111.74a7.83,7.83,0,0,1-1.45.94,7.62,7.62,0,0,1-1.65.61A7.23,7.23,0,0,1,88.14,113.5ZM90,104.87a1.65,1.65,0,0,0-1.12.47,3.63,3.63,0,0,0-.85,1.27h.15a8.24,8.24,0,0,0,2.25-.2c.43-.13.65-.37.65-.72a.72.72,0,0,0-.3-.59A1.23,1.23,0,0,0,90,104.87Z"/><path class="cls-2" d="M99.14,113.5a7.32,7.32,0,0,1-2.61-.47,4.59,4.59,0,0,1-2-1.38l1.85-2.39a7.67,7.67,0,0,0,1.67,1.07,3.79,3.79,0,0,0,1.56.38.81.81,0,0,0,.59-.17.64.64,0,0,0,.17-.46.57.57,0,0,0-.25-.44,3.1,3.1,0,0,0-.93-.44,16.08,16.08,0,0,1-1.53-.59,6.08,6.08,0,0,1-1-.61,2.13,2.13,0,0,1-.6-.69,2,2,0,0,1-.18-.86,3.83,3.83,0,0,1,.4-1.74,4.48,4.48,0,0,1,1.13-1.4,5.41,5.41,0,0,1,1.66-1,5.82,5.82,0,0,1,2-.35,6.93,6.93,0,0,1,2.15.32,4.56,4.56,0,0,1,1.86,1.28l-2,2.39a11,11,0,0,0-1.45-.94,2.46,2.46,0,0,0-1.13-.29.9.9,0,0,0-.57.17.63.63,0,0,0-.21.5.52.52,0,0,0,.28.45,5.19,5.19,0,0,0,1,.41,7.2,7.2,0,0,1,2.59,1.2,2.07,2.07,0,0,1,.77,1.68,4.09,4.09,0,0,1-.38,1.76,3.83,3.83,0,0,1-1.07,1.36,5,5,0,0,1-1.66.89A6.83,6.83,0,0,1,99.14,113.5Z"/><path class="cls-2" d="M109.37,113.5a4.08,4.08,0,0,1-1.65-.32,3.62,3.62,0,0,1-1.23-.92,4,4,0,0,1-.77-1.4,6.09,6.09,0,0,1-.26-1.81,7.6,7.6,0,0,1,.48-2.7,7.77,7.77,0,0,1,1.31-2.24,6.16,6.16,0,0,1,1.9-1.52,4.92,4.92,0,0,1,2.28-.55,3.05,3.05,0,0,1,1.73.48,2.4,2.4,0,0,1,1,1.36l.33-1.55h4l-1.41,6.55a2.86,2.86,0,0,0-.06.51q0,.52.57.54l-.72,3.36a9,9,0,0,1-1.7.21,2.69,2.69,0,0,1-1.49-.36,1.38,1.38,0,0,1-.54-1.26,1.28,1.28,0,0,1,0-.31,4.67,4.67,0,0,1-3.78,1.93Zm1.8-3.36a1.73,1.73,0,0,0,1-.28,5.31,5.31,0,0,0,1-.85l.43-2a2.25,2.25,0,0,0-.52-1.18,1.28,1.28,0,0,0-1-.45,1.64,1.64,0,0,0-.86.25,2.92,2.92,0,0,0-.75.66,3.05,3.05,0,0,0-.54,1,3.42,3.42,0,0,0-.2,1.14,2,2,0,0,0,.39,1.27A1.38,1.38,0,0,0,111.17,110.14Z"/><path class="cls-2" d="M120.9,102.25h3.59l-.36,1.63a4.66,4.66,0,0,1,1.84-1.37,5.67,5.67,0,0,1,2.3-.47,3.77,3.77,0,0,1,1.15.15,2.23,2.23,0,0,1,.75.42,1.67,1.67,0,0,1,.42.61,2.89,2.89,0,0,1,.18.73,5,5,0,0,1,1.81-1.41,5.24,5.24,0,0,1,2.26-.5,3.09,3.09,0,0,1,1.23.21,2,2,0,0,1,.75.54,1.85,1.85,0,0,1,.39.78,3.82,3.82,0,0,1,.11.9q0,.19,0,.57a9.8,9.8,0,0,1-.16,1l-1.55,7.26h-4l1.32-6.21a3.58,3.58,0,0,0,.06-.61,1.1,1.1,0,0,0-.2-.72.61.61,0,0,0-.47-.23,1,1,0,0,0-.47.13,2.56,2.56,0,0,0-.53.33,3.93,3.93,0,0,0-.5.5,3.42,3.42,0,0,0-.43.62l-1.31,6.19h-4l1.32-6.21a3.58,3.58,0,0,0,.06-.61,1.1,1.1,0,0,0-.2-.72.64.64,0,0,0-.49-.23,1,1,0,0,0-.47.13,2.56,2.56,0,0,0-.53.33,3,3,0,0,0-.5.51,3.43,3.43,0,0,0-.41.61l-1.33,6.19h-4Z"/><path class="cls-2" d="M142.74,113.5a5.56,5.56,0,0,1-2-.33,4.28,4.28,0,0,1-1.5-1,4.19,4.19,0,0,1-.95-1.47,5.14,5.14,0,0,1-.34-1.93,6.28,6.28,0,0,1,.57-2.65,6.76,6.76,0,0,1,1.55-2.16,7.18,7.18,0,0,1,2.32-1.45,7.71,7.71,0,0,1,2.85-.52,5.1,5.1,0,0,1,3.14.85,2.77,2.77,0,0,1,1.12,2.36,3,3,0,0,1-1.71,2.81,10.74,10.74,0,0,1-5.07,1h-.61a2.06,2.06,0,0,0,.3,1.27,1.31,1.31,0,0,0,1,.37,2.29,2.29,0,0,0,2.06-1.14l3.13,1a6.13,6.13,0,0,1-1.12,1.22,8.18,8.18,0,0,1-1.45.94,7.62,7.62,0,0,1-1.65.61A7.29,7.29,0,0,1,142.74,113.5Zm1.82-8.63a1.65,1.65,0,0,0-1.12.47,3.63,3.63,0,0,0-.85,1.27h.15a8.29,8.29,0,0,0,2.25-.2c.43-.13.64-.37.64-.72a.71.71,0,0,0-.29-.59A1.25,1.25,0,0,0,144.56,104.87Z"/><path class="cls-2" d="M152,102.77l1.11-2.75H152l.71-3.36h4.16l-.74,3.46-1.42,2.65Zm4.83,0,1.11-2.75h-1.09l.71-3.36h4.16l-.74,3.46-1.42,2.65Z"/><path class="cls-2" d="M170,113.5a5.2,5.2,0,0,1-2.09-.38,4,4,0,0,1-2.36-2.47,5.29,5.29,0,0,1-.29-1.79,6.5,6.5,0,0,1,.5-2.51,6.66,6.66,0,0,1,1.45-2.18,7.37,7.37,0,0,1,2.27-1.55,7.24,7.24,0,0,1,3-.58,5,5,0,0,1,3.06.84A4.05,4.05,0,0,1,177,105l-4.14,1.17a1.18,1.18,0,0,0-1.16-.81,1.74,1.74,0,0,0-.85.22,2.24,2.24,0,0,0-.73.62,3,3,0,0,0-.52,1,4,4,0,0,0-.19,1.23,2.07,2.07,0,0,0,.35,1.26,1.1,1.1,0,0,0,.94.46,2,2,0,0,0,1.49-.82l3.63,1.18a7.52,7.52,0,0,1-2.42,2.16A6.72,6.72,0,0,1,170,113.5Z"/><path class="cls-2" d="M181.63,113.5a5.35,5.35,0,0,1-2.09-.37,4,4,0,0,1-1.48-1,3.91,3.91,0,0,1-.87-1.47,5.47,5.47,0,0,1-.29-1.77,7,7,0,0,1,1.91-4.72,7.13,7.13,0,0,1,2.25-1.56,7.33,7.33,0,0,1,3-.58,5.54,5.54,0,0,1,2.09.36,4.16,4.16,0,0,1,1.48,1,4,4,0,0,1,.87,1.46,5.39,5.39,0,0,1,.29,1.77,6.7,6.7,0,0,1-.5,2.52,6.54,6.54,0,0,1-1.42,2.21,7.27,7.27,0,0,1-2.26,1.55A7.14,7.14,0,0,1,181.63,113.5Zm.71-3.36a1.83,1.83,0,0,0,.88-.23,2.33,2.33,0,0,0,.74-.63,3,3,0,0,0,.49-1,4,4,0,0,0,.18-1.21,2.07,2.07,0,0,0-.34-1.26,1.08,1.08,0,0,0-.94-.46,1.73,1.73,0,0,0-.88.23,2.33,2.33,0,0,0-.74.63,2.94,2.94,0,0,0-.49.95,3.93,3.93,0,0,0-.18,1.21,2.07,2.07,0,0,0,.34,1.26A1.08,1.08,0,0,0,182.34,110.14Z"/><path class="cls-2" d="M193.32,113.5a4.07,4.07,0,0,1-1.64-.32,3.43,3.43,0,0,1-1.23-.92,3.89,3.89,0,0,1-.77-1.4,6.09,6.09,0,0,1-.26-1.81,7.6,7.6,0,0,1,.48-2.7,7.74,7.74,0,0,1,1.3-2.24,6.28,6.28,0,0,1,1.9-1.52,4.92,4.92,0,0,1,2.28-.55,3.05,3.05,0,0,1,1.73.48,2.35,2.35,0,0,1,1,1.36L199.35,98h4L201,108.88a2.86,2.86,0,0,0-.06.51c0,.35.19.53.56.54l-.71,3.36a9.12,9.12,0,0,1-1.7.21,3,3,0,0,1-1.48-.33,1.25,1.25,0,0,1-.58-1.18,1.48,1.48,0,0,1,0-.21l0-.21a4.66,4.66,0,0,1-1.75,1.47A4.76,4.76,0,0,1,193.32,113.5Zm1.81-3.36a1.67,1.67,0,0,0,.94-.28,5,5,0,0,0,1-.85l.42-2a2.17,2.17,0,0,0-.51-1.18,1.29,1.29,0,0,0-1-.45,1.64,1.64,0,0,0-.86.25,3.14,3.14,0,0,0-.76.66,3.24,3.24,0,0,0-.53,1,3.19,3.19,0,0,0-.2,1.14,2,2,0,0,0,.39,1.27A1.36,1.36,0,0,0,195.13,110.14Z"/><path class="cls-2" d="M207.71,113.5a5.46,5.46,0,0,1-2-.33,4.41,4.41,0,0,1-1.51-1,4.19,4.19,0,0,1-.95-1.47,5.14,5.14,0,0,1-.34-1.93,6.28,6.28,0,0,1,.57-2.65,7.08,7.08,0,0,1,1.55-2.16,7.18,7.18,0,0,1,2.32-1.45,7.71,7.71,0,0,1,2.85-.52,5.1,5.1,0,0,1,3.14.85,2.77,2.77,0,0,1,1.12,2.36,3,3,0,0,1-1.71,2.81,10.74,10.74,0,0,1-5.07,1h-.61a2,2,0,0,0,.31,1.27,1.28,1.28,0,0,0,1,.37,2.27,2.27,0,0,0,2.05-1.14l3.13,1a6.13,6.13,0,0,1-1.12,1.22,7.83,7.83,0,0,1-1.45.94,7.62,7.62,0,0,1-1.65.61A7.23,7.23,0,0,1,207.71,113.5Zm1.83-8.63a1.67,1.67,0,0,0-1.13.47,3.77,3.77,0,0,0-.85,1.27h.15a8.38,8.38,0,0,0,2.26-.2c.42-.13.64-.37.64-.72a.72.72,0,0,0-.3-.59A1.22,1.22,0,0,0,209.54,104.87Z"/><path class="cls-2" d="M224.26,113.5a5.35,5.35,0,0,1-2.09-.37,4,4,0,0,1-1.48-1,3.93,3.93,0,0,1-.88-1.47,5.75,5.75,0,0,1-.28-1.77,6.84,6.84,0,0,1,1.91-4.72,7.13,7.13,0,0,1,2.25-1.56,7.33,7.33,0,0,1,3-.58,5.54,5.54,0,0,1,2.09.36,4.16,4.16,0,0,1,1.48,1,4.08,4.08,0,0,1,.87,1.46,5.39,5.39,0,0,1,.29,1.77,7,7,0,0,1-1.92,4.73,7.27,7.27,0,0,1-2.26,1.55A7.14,7.14,0,0,1,224.26,113.5Zm.71-3.36a1.83,1.83,0,0,0,.88-.23,2.33,2.33,0,0,0,.74-.63,3,3,0,0,0,.49-1,4,4,0,0,0,.18-1.21,2.07,2.07,0,0,0-.34-1.26,1.09,1.09,0,0,0-.94-.46,1.73,1.73,0,0,0-.88.23,2.33,2.33,0,0,0-.74.63,2.94,2.94,0,0,0-.49.95,3.93,3.93,0,0,0-.18,1.21,2.14,2.14,0,0,0,.33,1.26A1.11,1.11,0,0,0,225,110.14Z"/><path class="cls-2" d="M233.71,106.53h-1.28l.65-3h1.28l.25-1.2a6.66,6.66,0,0,1,.67-1.88A5.63,5.63,0,0,1,236.39,99a4.83,4.83,0,0,1,1.44-.92,4.29,4.29,0,0,1,1.67-.33,7.44,7.44,0,0,1,2.84.63l-1.31,3a2.93,2.93,0,0,0-.67-.21,2.88,2.88,0,0,0-.67-.09c-.57,0-.93.36-1.07,1.07l-.29,1.35h2.26l-.65,3H237.7l-2.4,11.23h-4Z"/><path class="cls-2" d="M248.47,113.52a4.9,4.9,0,0,1-1.05-.11,2.37,2.37,0,0,1-.85-.39,1.74,1.74,0,0,1-.57-.69,2.49,2.49,0,0,1-.2-1c0-.16,0-.31,0-.47a3.55,3.55,0,0,1,.09-.5l1.07-5.06H245.7l.65-3h1.28l.73-3.47h4l-.73,3.47h2l-.63,3h-2l-.78,3.65,0,.2a1.15,1.15,0,0,0,0,.18c0,.41.21.61.63.61a2.94,2.94,0,0,0,.64-.09,7.68,7.68,0,0,0,.81-.27v3.15a15.53,15.53,0,0,1-1.9.6A7.78,7.78,0,0,1,248.47,113.52Z"/><path class="cls-2" d="M256.49,98h4l-1.26,5.92a4.9,4.9,0,0,1,1.72-1.37A4.74,4.74,0,0,1,263,102a3.43,3.43,0,0,1,1.29.2,1.86,1.86,0,0,1,.81.54,1.93,1.93,0,0,1,.41.79,3.37,3.37,0,0,1,.12.9,7.16,7.16,0,0,1-.05.8c0,.27-.09.52-.14.76L264,113.29h-4l1.32-6.21a3.07,3.07,0,0,0,.06-.57,1,1,0,0,0-.24-.76.88.88,0,0,0-.62-.23,1,1,0,0,0-.41.12,2.9,2.9,0,0,0-.51.31,3.56,3.56,0,0,0-.54.5,4,4,0,0,0-.47.65l-1.32,6.19h-4Z"/><path class="cls-2" d="M271.09,113.5a5.56,5.56,0,0,1-2-.33,4.28,4.28,0,0,1-1.5-1,4.19,4.19,0,0,1-.95-1.47,5.14,5.14,0,0,1-.34-1.93,6.28,6.28,0,0,1,.57-2.65,6.76,6.76,0,0,1,1.55-2.16,7.18,7.18,0,0,1,2.32-1.45,7.71,7.71,0,0,1,2.85-.52,5.1,5.1,0,0,1,3.14.85,2.8,2.8,0,0,1,1.12,2.36,3,3,0,0,1-1.71,2.81,10.74,10.74,0,0,1-5.07,1h-.61a2.06,2.06,0,0,0,.3,1.27,1.31,1.31,0,0,0,1,.37,2.29,2.29,0,0,0,2.06-1.14l3.13,1a6.13,6.13,0,0,1-1.12,1.22,8.18,8.18,0,0,1-1.45.94,7.62,7.62,0,0,1-1.65.61A7.29,7.29,0,0,1,271.09,113.5Zm1.82-8.63a1.65,1.65,0,0,0-1.12.47,3.63,3.63,0,0,0-.85,1.27h.15a8.29,8.29,0,0,0,2.25-.2c.43-.13.64-.37.64-.72a.71.71,0,0,0-.29-.59A1.27,1.27,0,0,0,272.91,104.87Z"/><path class="cls-2" d="M83.35,142.3a2.7,2.7,0,0,1-2.92-1.93l-.36,1.72H76.61l3.25-15.33h4l-1.26,5.92a4.24,4.24,0,0,1,1.53-1.35,4.15,4.15,0,0,1,2-.49,3.18,3.18,0,0,1,2.62,1.23,4.4,4.4,0,0,1,.68,1.41,6.74,6.74,0,0,1,.23,1.79,7.42,7.42,0,0,1-1.9,5,6.56,6.56,0,0,1-2,1.51A5.41,5.41,0,0,1,83.35,142.3ZM83,138.94a2.07,2.07,0,0,0,1-.22,2.5,2.5,0,0,0,.77-.61,2.85,2.85,0,0,0,.54-.91,3.25,3.25,0,0,0,.2-1.14,2.34,2.34,0,0,0-.36-1.33,1.09,1.09,0,0,0-1-.53,2,2,0,0,0-1.16.45,3.71,3.71,0,0,0-1,1.18l-.42,2a3.06,3.06,0,0,0,.61.85A1.24,1.24,0,0,0,83,138.94Z"/><path class="cls-2" d="M92.88,142.3a2.6,2.6,0,0,1-1.92-.66,2.64,2.64,0,0,1-.66-1.94,7.06,7.06,0,0,1,.17-1.39L92,131.05h4l-1.34,6.36a3.15,3.15,0,0,0-.07.57c0,.64.27,1,.8,1a2,2,0,0,0,.82-.21,3.42,3.42,0,0,0,1.07-.92l1.45-6.76h4l-1.41,6.63a2.86,2.86,0,0,0-.06.51q0,.52.57.54l-.72,3.36a9.11,9.11,0,0,1-1.72.21,2.87,2.87,0,0,1-1.48-.34,1.3,1.3,0,0,1-.58-1.19,1.23,1.23,0,0,1,0-.2.75.75,0,0,1,0-.2,5.75,5.75,0,0,1-2,1.48A6.37,6.37,0,0,1,92.88,142.3Z"/><path class="cls-2" d="M105.1,131.05h4l-2.35,11h-4Zm.91-4.29h4l-.72,3.36h-4Z"/><path class="cls-2" d="M111.87,142.3a3,3,0,0,1-2-.58,2.06,2.06,0,0,1-.67-1.67c0-.15,0-.3,0-.46a3,3,0,0,1,.08-.48l2.63-12.35h4l-2.33,10.94a2,2,0,0,0-.06.46c0,.54.25.8.75.8a2.2,2.2,0,0,0,.53-.08,3,3,0,0,0,.56-.23l-.12,2.94a9.2,9.2,0,0,1-3.38.71Z"/><path class="cls-2" d="M120.39,142.3a4.15,4.15,0,0,1-1.65-.32,3.49,3.49,0,0,1-1.22-.92,3.89,3.89,0,0,1-.77-1.4,5.78,5.78,0,0,1-.26-1.81,7.6,7.6,0,0,1,.48-2.7,7.74,7.74,0,0,1,1.3-2.24,6.28,6.28,0,0,1,1.9-1.52,4.92,4.92,0,0,1,2.28-.55,3.05,3.05,0,0,1,1.73.48,2.35,2.35,0,0,1,1,1.36l1.26-5.92h4l-2.33,10.92a2.86,2.86,0,0,0-.06.51c0,.35.19.53.56.54l-.71,3.36a9.12,9.12,0,0,1-1.7.21,3,3,0,0,1-1.48-.33,1.25,1.25,0,0,1-.58-1.18,1.48,1.48,0,0,1,0-.21l0-.21a4.66,4.66,0,0,1-1.75,1.47A4.76,4.76,0,0,1,120.39,142.3Zm1.81-3.36a1.67,1.67,0,0,0,.94-.28,5,5,0,0,0,1-.85l.42-2a2.17,2.17,0,0,0-.51-1.18,1.29,1.29,0,0,0-1-.45,1.64,1.64,0,0,0-.86.25,3.14,3.14,0,0,0-.76.66,3.24,3.24,0,0,0-.53.95,3.19,3.19,0,0,0-.2,1.14,2,2,0,0,0,.39,1.27A1.36,1.36,0,0,0,122.2,138.94Z"/><path class="cls-2" d="M131.9,131.05h4l-2.35,11h-4Zm.9-4.29h4l-.71,3.36h-4Z"/><path class="cls-2" d="M137.91,131.05h3.59l-.36,1.63a4.66,4.66,0,0,1,1.84-1.37,6.11,6.11,0,0,1,2.47-.47,3.23,3.23,0,0,1,1.25.21,2,2,0,0,1,.77.56,2,2,0,0,1,.39.81,4,4,0,0,1,.11.91,4.93,4.93,0,0,1-.06.78c0,.25-.07.49-.11.72l-1.54,7.26h-4l1.33-6.21a3.05,3.05,0,0,0,.06-.55,1.06,1.06,0,0,0-.24-.77.78.78,0,0,0-.58-.24,1.8,1.8,0,0,0-1,.44,3.74,3.74,0,0,0-1,1.14l-1.32,6.19h-4Z"/><path class="cls-2" d="M151.85,146.77a6.5,6.5,0,0,1-2.8-.54,4.94,4.94,0,0,1-1.9-1.58l2.56-2.18a3.64,3.64,0,0,0,1.15,1,3.4,3.4,0,0,0,1.6.38,3.77,3.77,0,0,0,1-.14,2.61,2.61,0,0,0,.9-.48,3.08,3.08,0,0,0,.73-.85,4,4,0,0,0,.46-1.26l.14-.71a3.64,3.64,0,0,1-1.54,1.3,4.67,4.67,0,0,1-1.94.42,3.44,3.44,0,0,1-1.5-.32,3.28,3.28,0,0,1-1.12-.9,3.81,3.81,0,0,1-.68-1.35,6.25,6.25,0,0,1-.23-1.71,7.43,7.43,0,0,1,.5-2.72,7.15,7.15,0,0,1,1.37-2.22,6.5,6.5,0,0,1,2-1.49,5.61,5.61,0,0,1,2.41-.54,3.38,3.38,0,0,1,1.86.47,2.5,2.5,0,0,1,1,1.37l.35-1.63h3.47l-2.14,10a6.94,6.94,0,0,1-1,2.36,6.66,6.66,0,0,1-1.69,1.78,8.07,8.07,0,0,1-2.29,1.15A9.05,9.05,0,0,1,151.85,146.77Zm2.48-7.83a1.73,1.73,0,0,0,.95-.28,4.47,4.47,0,0,0,1-.85l.42-2a2.08,2.08,0,0,0-.52-1.19,1.31,1.31,0,0,0-1-.44,1.58,1.58,0,0,0-.85.25,3.12,3.12,0,0,0-.75.67,3.43,3.43,0,0,0-.53,1,3,3,0,0,0-.2,1.12,1.89,1.89,0,0,0,.4,1.26A1.33,1.33,0,0,0,154.33,138.94Z"/><path class="cls-2" d="M168.15,135.33h-1.28l.65-3h1.28l.25-1.2a6.66,6.66,0,0,1,.67-1.88,5.63,5.63,0,0,1,1.11-1.45,4.83,4.83,0,0,1,1.44-.92,4.29,4.29,0,0,1,1.67-.33,7.44,7.44,0,0,1,2.84.63l-1.31,3a2.93,2.93,0,0,0-.67-.21,2.88,2.88,0,0,0-.67-.09c-.57,0-.93.36-1.07,1.07l-.29,1.35H175l-.65,3h-2.24l-2.4,11.23h-4Z"/><path class="cls-2" d="M176.63,131.05h3.65l-.46,2.1a6.22,6.22,0,0,1,1.76-1.72,3.61,3.61,0,0,1,1.9-.59h.31a.34.34,0,0,1,.15,0l-.76,3.59a7.69,7.69,0,0,0-2,.25,3.26,3.26,0,0,0-1.52.84l-1.38,6.55h-4Z"/><path class="cls-2" d="M188.05,142.3a5.42,5.42,0,0,1-2.09-.37,4.19,4.19,0,0,1-1.48-1,4,4,0,0,1-.87-1.47,5.47,5.47,0,0,1-.28-1.77,6.84,6.84,0,0,1,1.91-4.72,7,7,0,0,1,2.25-1.56,7.33,7.33,0,0,1,3-.58,5.58,5.58,0,0,1,2.09.36,4.25,4.25,0,0,1,1.48,1,4.08,4.08,0,0,1,.87,1.46,5.39,5.39,0,0,1,.29,1.77,6.7,6.7,0,0,1-.5,2.52,6.57,6.57,0,0,1-1.43,2.21,7.11,7.11,0,0,1-2.25,1.55A7.19,7.19,0,0,1,188.05,142.3Zm.72-3.36a1.83,1.83,0,0,0,.88-.23,2.33,2.33,0,0,0,.74-.63,3.27,3.27,0,0,0,.49-1,4,4,0,0,0,.18-1.21,2.14,2.14,0,0,0-.34-1.26,1.09,1.09,0,0,0-.94-.46,1.76,1.76,0,0,0-.89.23,2.29,2.29,0,0,0-.73.63,2.76,2.76,0,0,0-.49.95,3.93,3.93,0,0,0-.18,1.21,2.14,2.14,0,0,0,.33,1.26A1.11,1.11,0,0,0,188.77,138.94Z"/><path class="cls-2" d="M197.71,131.05h3.59l-.35,1.63a4.66,4.66,0,0,1,1.84-1.37,6.06,6.06,0,0,1,2.46-.47,3.2,3.2,0,0,1,1.25.21,1.91,1.91,0,0,1,.78.56,2,2,0,0,1,.39.81,4,4,0,0,1,.1.91,5,5,0,0,1-.05.78c0,.25-.07.49-.12.72l-1.53,7.26h-4l1.32-6.21a2.43,2.43,0,0,0,.07-.55,1.06,1.06,0,0,0-.24-.77.82.82,0,0,0-.58-.24,1.8,1.8,0,0,0-1,.44,3.91,3.91,0,0,0-1,1.14l-1.32,6.19h-4Z"/><path class="cls-2" d="M211.93,142.32a4.9,4.9,0,0,1-1.05-.11,2.37,2.37,0,0,1-.85-.39,1.92,1.92,0,0,1-.57-.69,2.49,2.49,0,0,1-.2-1c0-.16,0-.31,0-.47s.05-.32.09-.5l1.07-5.06h-1.28l.65-3h1.28l.74-3.47h4l-.74,3.47h2l-.63,3h-2l-.78,3.65,0,.2a1.15,1.15,0,0,0,0,.18c0,.41.21.61.63.61a2.94,2.94,0,0,0,.64-.09,7.68,7.68,0,0,0,.81-.27v3.15a15.53,15.53,0,0,1-1.9.6A7.78,7.78,0,0,1,211.93,142.32Z"/><path class="cls-2" d="M225.77,142.3a4.08,4.08,0,0,1-1.65-.32,3.62,3.62,0,0,1-1.23-.92,4,4,0,0,1-.76-1.4,5.78,5.78,0,0,1-.27-1.81,7.39,7.39,0,0,1,.49-2.7,7.52,7.52,0,0,1,1.3-2.24,6.16,6.16,0,0,1,1.9-1.52,4.92,4.92,0,0,1,2.28-.55,3.05,3.05,0,0,1,1.73.48,2.4,2.4,0,0,1,1,1.36l1.26-5.92h4l-2.33,10.92a2.26,2.26,0,0,0-.07.51q0,.52.57.54l-.71,3.36a9.11,9.11,0,0,1-1.71.21,3,3,0,0,1-1.48-.33,1.26,1.26,0,0,1-.57-1.18,1.48,1.48,0,0,1,0-.21,1.52,1.52,0,0,1,0-.21,4.66,4.66,0,0,1-1.75,1.47A4.76,4.76,0,0,1,225.77,142.3Zm1.81-3.36a1.69,1.69,0,0,0,.94-.28,5.33,5.33,0,0,0,1-.85l.42-2a2.18,2.18,0,0,0-.52-1.18,1.27,1.27,0,0,0-1-.45,1.65,1.65,0,0,0-.87.25,2.92,2.92,0,0,0-.75.66,3.26,3.26,0,0,0-.54.95,3.42,3.42,0,0,0-.2,1.14,2,2,0,0,0,.39,1.27A1.4,1.4,0,0,0,227.58,138.94Z"/><path class="cls-2" d="M240.13,142.3a5.42,5.42,0,0,1-2.09-.37,4.1,4.1,0,0,1-1.48-1,4,4,0,0,1-.87-1.47,5.47,5.47,0,0,1-.28-1.77,6.84,6.84,0,0,1,1.91-4.72,6.91,6.91,0,0,1,2.25-1.56,7.33,7.33,0,0,1,3-.58,5.58,5.58,0,0,1,2.09.36,4.25,4.25,0,0,1,1.48,1,4.08,4.08,0,0,1,.87,1.46,5.38,5.38,0,0,1,.28,1.77,6.69,6.69,0,0,1-.49,2.52,6.57,6.57,0,0,1-1.43,2.21,7,7,0,0,1-2.26,1.55A7.11,7.11,0,0,1,240.13,142.3Zm.72-3.36a1.86,1.86,0,0,0,.88-.23,2.29,2.29,0,0,0,.73-.63,3.06,3.06,0,0,0,.5-1,4,4,0,0,0,.18-1.21,2.14,2.14,0,0,0-.34-1.26,1.09,1.09,0,0,0-1-.46,1.75,1.75,0,0,0-.88.23,2.29,2.29,0,0,0-.73.63,3,3,0,0,0-.5.95,4.26,4.26,0,0,0-.17,1.21,2.14,2.14,0,0,0,.33,1.26A1.11,1.11,0,0,0,240.85,138.94Z"/><path class="cls-2" d="M252.65,142.3a5.35,5.35,0,0,1-2.09-.37,3.94,3.94,0,0,1-2.35-2.46,5.47,5.47,0,0,1-.29-1.77,6.78,6.78,0,0,1,.5-2.52,6.9,6.9,0,0,1,1.41-2.2,7.13,7.13,0,0,1,2.25-1.56,7.33,7.33,0,0,1,3-.58,5.54,5.54,0,0,1,2.09.36,4.16,4.16,0,0,1,1.48,1,4,4,0,0,1,.88,1.46,5.38,5.38,0,0,1,.28,1.77,6.89,6.89,0,0,1-.49,2.52,6.73,6.73,0,0,1-1.43,2.21,7.27,7.27,0,0,1-2.26,1.55A7.14,7.14,0,0,1,252.65,142.3Zm.71-3.36a1.83,1.83,0,0,0,.88-.23,2.33,2.33,0,0,0,.74-.63,3,3,0,0,0,.49-1,4,4,0,0,0,.18-1.21,2.14,2.14,0,0,0-.33-1.26,1.11,1.11,0,0,0-.95-.46,1.73,1.73,0,0,0-.88.23,2.33,2.33,0,0,0-.74.63,2.94,2.94,0,0,0-.49.95,3.93,3.93,0,0,0-.18,1.21,2.07,2.07,0,0,0,.34,1.26A1.09,1.09,0,0,0,253.36,138.94Z"/><path class="cls-2" d="M262.31,131.05H266l-.46,2.1a6.32,6.32,0,0,1,1.75-1.72,3.63,3.63,0,0,1,1.9-.59h.32a.39.39,0,0,1,.15,0l-.76,3.59a7.76,7.76,0,0,0-2,.25,3.22,3.22,0,0,0-1.51.84L264,142.09h-4Z"/><path class="cls-2" d="M268.59,142.09l.82-3.86h3.23l-.82,3.86Z"/></g></g></g></svg>