<?xml version="1.0" standalone="no"?>
<!DOCTYPE svg PUBLIC "-//W3C//DTD SVG 1.1//EN" "http://www.w3.org/Graphics/SVG/1.1/DTD/svg11.dtd" >
<svg>
<metadata>
Created by FontForge 20090622 at Mon Jul 13 02:06:01 2020
 By deploy user
Copyright 2015 Google Inc. All Rights Reserved.
</metadata>
<defs>
<font id="AvrileSerif-BlackItalic" horiz-adv-x="0" >
  <font-face 
    font-family="Avrile Serif Black"
    font-weight="900"
    font-style="italic"
    font-stretch="normal"
    units-per-em="1000"
    panose-1="2 2 10 2 6 5 5 9 2 4"
    ascent="800"
    descent="-200"
    x-height="536"
    cap-height="714"
    bbox="-737 -389 2797 1080"
    underline-thickness="50"
    underline-position="-175"
    slope="-12"
    unicode-range="U+000D-U+FFFD"
  />
<missing-glyph horiz-adv-x="426" 
d="M18 0v714h392v-714h-392zM63 46h300v622h-300v-622z" />
    <glyph glyph-name="f_f" unicode="ff" horiz-adv-x="815" 
d="M-75 -240q-15 0 -34.5 2.5t-29.5 5.5l15 67q8 -2 21.5 -4.5t24.5 -2.5q33 0 55.5 13t39.5 48.5t31 101.5l98 469h-91l13 55l96 21l10 37q26 89 87 137t179 48q52 0 93 -13.5t65 -34.5q66 60 191 60q87 0 132.5 -28.5t45.5 -68.5q0 -33 -35.5 -53t-103.5 -20
q0 38 -9.5 69.5t-35.5 31.5q-25 0 -39.5 -25t-24.5 -76l-13 -64h137l-16 -76h-138l-92 -439q-17 -81 -54 -132.5t-84.5 -79.5t-96 -38.5t-89.5 -10.5q-15 0 -34.5 2.5t-29.5 5.5l15 67q8 -2 21.5 -4.5t24.5 -2.5q33 0 55.5 13t39.5 48.5t31 101.5l98 469h-153l-92 -438
q-17 -82 -54 -133.5t-84.5 -79.5t-96 -38.5t-89.5 -10.5zM511 536v0h1l9 35q5 18 10 34q-16 -1 -35 -1q0 37 -15 61.5t-40 24.5q-26 0 -41.5 -21.5t-21.5 -50.5l-20 -82h153z" />
    <glyph glyph-name="fi" unicode="fi" horiz-adv-x="754" 
d="M-75 -240q-15 0 -34.5 2.5t-29.5 5.5l15 67q8 -2 21.5 -4.5t24.5 -2.5q33 0 55.5 13t39.5 48.5t31 101.5l98 469h-91l13 55l96 21l7 24q32 110 112.5 160t222.5 50q118 0 178 -32t60 -77q0 -37 -51 -59.5t-149 -22.5q0 31 -6 58.5t-19.5 45.5t-37.5 18q-42 0 -72.5 -36
t-44.5 -101l-6 -28h343l-69 -328l-10.5 -50t-3.5 -35t10.5 -29.5t26.5 -10.5q15 0 24 4.5t25 15.5l29 -37q-26 -30 -62.5 -53t-104.5 -23q-70 0 -107 27t-37 82q0 14 2 34t9 57l56 270h-148l-92 -437q-17 -82 -54 -134t-84.5 -80t-96 -38.5t-89.5 -10.5z" />
    <glyph glyph-name="fl" unicode="fl" horiz-adv-x="796" 
d="M-75 -240q-15 0 -34.5 2.5t-29.5 5.5l15 67q8 -2 21.5 -4.5t24.5 -2.5q33 0 55.5 13t39.5 48.5t31 101.5l98 469h-91l13 55l96 21l7 24q32 110 108 160t194 50q60 0 95.5 -9t66.5 -21l75 20h60l-121 -552l-8 -36.5t-4 -23.5t-1 -25q0 -40 36 -40q15 0 24.5 4.5t25.5 15.5
l28 -37q-25 -30 -61.5 -53t-104.5 -23q-70 0 -108 27t-38 82q0 9 0.5 18.5t3 26t8.5 46.5l83 392q0 31 -3 58t-14 44t-35 17q-42 0 -73.5 -36t-43.5 -101l-6 -28h117l-13 -76h-121l-91 -432q-18 -85 -55.5 -138t-84.5 -81t-95.5 -38.5t-89.5 -10.5z" />
    <glyph glyph-name="f_f_i" unicode="ffi" horiz-adv-x="1101" 
d="M-75 -240q-15 0 -34.5 2.5t-29.5 5.5l15 67q8 -2 21.5 -4.5t24.5 -2.5q33 0 55.5 13t39.5 48.5t31 101.5l98 469h-91l13 55l96 21l10 37q26 89 87 137t179 48q55 0 97.5 -15t65.5 -38q42 35 103.5 50t146.5 15q119 0 178.5 -32t59.5 -77q0 -37 -50.5 -59.5t-149.5 -22.5
q0 31 -6 58.5t-19.5 45.5t-36.5 18q-42 0 -72.5 -36t-44.5 -101l-6 -28h343l-70 -328l-8 -36.5t-4 -23.5t-1 -25q0 -40 36 -40q15 0 24.5 4.5t25.5 15.5l28 -37q-25 -30 -61.5 -53t-104.5 -23q-70 0 -107 27t-37 82q0 14 1.5 33t9.5 58l56 270h-148l-89 -418
q-19 -89 -57 -144.5t-85.5 -85.5t-96 -41t-89.5 -11q-15 0 -34 2.5t-29 5.5l14 67q8 -2 21.5 -4.5t24.5 -2.5q33 0 56 13t40 48.5t30 101.5l98 469h-152l-92 -438q-17 -82 -54 -133.5t-84.5 -79.5t-96 -38.5t-89.5 -10.5zM358 536h153l1 5q9 35 20 64q-16 -1 -36 -1
q0 37 -15 61.5t-40 24.5q-26 0 -41.5 -21.5t-21.5 -50.5z" />
    <glyph glyph-name="f_f_l" unicode="ffl" horiz-adv-x="1144" 
d="M-75 -240q-15 0 -34.5 2.5t-29.5 5.5l15 67q8 -2 21.5 -4.5t24.5 -2.5q33 0 55.5 13t39.5 48.5t31 101.5l98 469h-91l13 55l96 21l10 37q26 89 87 137t179 48q56 0 99 -15t65 -39q46 40 102.5 53t117.5 13q55 0 92.5 -9t65.5 -21l75 20h60l-121 -552l-8 -36.5t-4 -23.5
t-1 -25q0 -40 36 -40q16 0 25 4.5t25 15.5l28 -37q-25 -30 -61.5 -53t-104.5 -23q-70 0 -107.5 27t-37.5 82v18.5t2.5 26t8.5 46.5l83 392q1 31 -4 58t-19 44t-40 17q-37 0 -65 -36t-40 -101l-6 -28h116l-13 -76h-120l-89 -418q-19 -89 -57 -144.5t-85.5 -85.5t-96 -41
t-89.5 -11q-15 0 -34 2.5t-29 5.5l14 67q8 -2 21.5 -4.5t24.5 -2.5q33 0 56 13t40 48.5t30 101.5l98 469h-152l-92 -438q-17 -82 -54 -133.5t-84.5 -79.5t-96 -38.5t-89.5 -10.5zM358 536h152l2 7q10 34 23 62q-18 -1 -39 -1q0 37 -13.5 61.5t-39.5 24.5q-27 0 -43 -21.5
t-22 -50.5z" />
    <glyph glyph-name=".notdef" horiz-adv-x="426" 
d="M18 0v714h392v-714h-392zM63 46h300v622h-300v-622z" />
    <glyph glyph-name=".null" 
 />
    <glyph glyph-name="nonmarkingreturn" horiz-adv-x="333" 
 />
    <glyph glyph-name="NULL" 
 />
    <glyph glyph-name="NULL" 
 />
    <glyph glyph-name="CR" unicode="&#xd;" horiz-adv-x="260" 
 />
    <glyph glyph-name="space" unicode=" " horiz-adv-x="260" 
 />
    <glyph glyph-name="exclam" unicode="!" horiz-adv-x="441" 
d="M166 238l51 476h217l-183 -476h-85zM185 -8q-42 0 -68.5 19.5t-26.5 60.5q0 45 28 72.5t74 27.5q41 0 68 -19.5t27 -60.5q0 -37 -15.5 -59t-38.5 -31.5t-48 -9.5z" />
    <glyph glyph-name="quotedbl" unicode="&#x22;" horiz-adv-x="548" 
d="M132 410l27 304h193l-139 -304h-81zM373 410l27 304h192l-138 -304h-81z" />
    <glyph glyph-name="numbersign" unicode="#" horiz-adv-x="559" 
d="M59 0l59 198h-86l7 76h100l51 170h-101l10 78h115l54 192h80l-55 -192h109l56 192h79l-56 -192h89l-10 -78h-103l-50 -170h102l-7 -76h-118l-57 -198h-79l57 198h-108l-59 -198h-79zM217 274h110l52 170h-110z" />
    <glyph glyph-name="dollar" unicode="$" horiz-adv-x="559" 
d="M185 -79l25 118q-95 8 -139.5 41.5t-44.5 91.5q0 42 30 69t106 27q0 -73 17.5 -106t45.5 -49l40 189q-80 44 -119 87.5t-39 108.5q0 87 64 138t177 53l16 71h60l-17 -74q87 -7 127.5 -36.5t40.5 -76.5q0 -40 -28.5 -64.5t-108.5 -24.5q0 35 -13.5 71t-33.5 56l-35 -165
l32 -17q70 -36 102 -85t32 -114q0 -86 -65 -138.5t-188 -53.5l-24 -117h-60zM302 481l30 142q-25 -3 -47.5 -17t-22.5 -49q0 -27 10.5 -43.5t29.5 -32.5zM282 101q37 -3 62 18.5t25 57.5q0 21 -8 41.5t-43 49.5z" />
    <glyph glyph-name="percent" unicode="%" horiz-adv-x="935" 
d="M226 279q-68 0 -109 36.5t-41 100.5q0 51 14.5 105t44 100.5t76 75t110.5 28.5q80 0 117 -41.5t37 -100.5q0 -46 -14.5 -98.5t-45 -99.5t-77.5 -76.5t-112 -29.5zM208 0l492 714h78l-489 -714h-81zM243 338q22 0 40 18.5t31.5 48.5t23 64.5t14 66.5t4.5 54q0 34 -8 53.5
t-29 20.5q-22 0 -40 -19t-31.5 -48.5t-23 -64t-14 -66t-4.5 -53.5q0 -33 9 -54t28 -21zM662 -11q-68 0 -109 36t-41 100q0 51 14.5 105t44 100.5t76 75t110.5 28.5q80 0 117 -41.5t37 -100.5q0 -46 -14.5 -98.5t-45 -99t-77.5 -76t-112 -29.5zM678 47q22 0 40 19t31.5 49
t23 64.5t14 66.5t4.5 54q0 33 -8 52.5t-29 20.5q-22 0 -40 -19t-31.5 -48.5t-23 -64t-14 -66t-4.5 -53.5q0 -33 9 -54t28 -21z" />
    <glyph glyph-name="ampersand" unicode="&#x26;" horiz-adv-x="844" 
d="M278 -10q-127 0 -186 53.5t-59 135.5q0 67 31 108.5t82.5 68t110.5 47.5q-22 38 -34 76t-12 73q0 86 61 129t171 43q95 0 139.5 -37.5t44.5 -92.5q0 -38 -14.5 -69.5t-53 -59.5t-110.5 -59l111 -140q14 32 23 64t15 62l8 38h215l-12 -61h-9q-34 0 -65 -11t-54 -56
l-29.5 -53.5t-35.5 -58.5l69 -89q14 -19 38.5 -29.5t51.5 -10.5h5l-12 -61h-221l-43 59q-42 -31 -98 -50t-128 -19zM413 460q45 22 64.5 48.5t19.5 66.5q0 81 -56 81q-34 0 -50 -25.5t-16 -69.5q0 -29 10 -52.5t28 -48.5zM325 65q39 0 73 15.5t62 40.5l-158 218
q-46 -31 -66 -68t-20 -80q0 -54 28.5 -90t80.5 -36z" />
    <glyph glyph-name="quotesingle" unicode="'" horiz-adv-x="322" 
d="M150 410l10 304h192l-121 -304h-81z" />
    <glyph glyph-name="parenleft" unicode="(" horiz-adv-x="440" 
d="M308 -147q-94 29 -152.5 79t-86 115t-27.5 139q0 95 28 189.5t85 177.5t143 143t202 85l-10 -76q-61 -34 -104 -88.5t-71.5 -120t-44.5 -132t-23 -125.5t-7 -100q0 -60 18.5 -117t64.5 -92z" />
    <glyph glyph-name="parenright" unicode=")" horiz-adv-x="440" 
d="M-41 -139l10 76q61 34 104 88.5t71.5 119.5t45 131.5t23 125.5t6.5 100q0 60 -18 117.5t-64 91.5l15 77q94 -28 152 -78.5t85.5 -115.5t27.5 -139q0 -94 -28 -188.5t-84.5 -177.5t-143 -143t-202.5 -85z" />
    <glyph glyph-name="asterisk" unicode="*" horiz-adv-x="628" 
d="M398 347l-127 27l72 156l-165 -82l-28 122l151 4l-137 61l75 105l118 -145l-2 170l128 -27l-75 -150l165 79l27 -124l-148 -1l136 -64l-76 -101l-120 140z" />
    <glyph glyph-name="plus" unicode="+" horiz-adv-x="569" 
d="M244 135v183h-184v79h184v183h80v-183h185v-79h-185v-183h-80z" />
    <glyph glyph-name="comma" unicode="," horiz-adv-x="344" 
d="M-7 -155l16 61q104 26 104 83q0 17 -7.5 27.5t-17.5 19.5t-17.5 22.5t-7.5 36.5q0 35 25.5 55.5t59.5 20.5q39 0 66 -25t27 -72q0 -82 -63 -144t-185 -85z" />
    <glyph glyph-name="hyphen" unicode="-" horiz-adv-x="310" 
d="M7 209l28 127h260l-28 -127h-260z" />
    <glyph glyph-name="period" unicode="." horiz-adv-x="344" 
d="M135 -8q-42 0 -68.5 19.5t-26.5 60.5q0 45 28 72.5t74 27.5q41 0 68 -19.5t27 -60.5q0 -37 -15.5 -59t-38.5 -31.5t-48 -9.5z" />
    <glyph glyph-name="slash" unicode="/" horiz-adv-x="288" 
d="M-111 -121l437 881h89l-437 -881h-89z" />
    <glyph glyph-name="zero" unicode="0" horiz-adv-x="559" 
d="M251 -11q-98 0 -158.5 62t-60.5 180q0 62 13 130.5t39.5 133t67 116.5t95.5 83t125 31q60 0 108.5 -24t77 -74.5t28.5 -130.5q0 -61 -12.5 -130t-38.5 -135.5t-65.5 -121.5t-94 -87.5t-124.5 -32.5zM255 67q30 0 56.5 33t48 86.5t36.5 116.5t23.5 125t8.5 111
q0 109 -58 109q-28 0 -54 -32.5t-47.5 -85t-37 -115.5t-24.5 -125t-9 -112q0 -55 16 -83t41 -28z" />
    <glyph glyph-name="one" unicode="1" horiz-adv-x="559" 
d="M41 0l13 61h64q36 0 54.5 16t24.5 44l76 361l14 61t16 61h-4q-45 -49 -77 -76.5t-64 -27.5q-21 0 -37.5 22.5t-16.5 66.5q35 9 76.5 24.5t98.5 52.5l81 52h147l-125 -589q-1 -6 -4.5 -19.5t-3.5 -20.5q0 -19 22.5 -23.5t54.5 -4.5h46l-13 -61h-443z" />
    <glyph glyph-name="two" unicode="2" horiz-adv-x="559" 
d="M-18 0l21 119l232 186q69 56 105.5 99t50.5 81t14 79q0 39 -14 64t-40 25q-38 0 -61 -51t-24 -131q-63 0 -105 25t-42 77q0 65 63 108t183 43q109 0 169 -36t60 -98q0 -40 -15 -74.5t-50 -71.5t-94.5 -83.5t-148.5 -110.5l-165 -118h233q34 0 54 13t32.5 33t21.5 41l7 20
h72l-56 -239h-503z" />
    <glyph glyph-name="three" unicode="3" horiz-adv-x="559" 
d="M221 -10q-83 0 -132 21.5t-70.5 52.5t-21.5 59q0 41 34 67t101 26q0 -68 27 -105.5t79 -37.5q26 0 51.5 16.5t43 49.5t17.5 82q0 54 -38 83.5t-109 29.5h-43l10 70h32q59 0 104.5 21t71 59.5t25.5 88.5q0 35 -12.5 58.5t-47.5 23.5q-29 0 -48.5 -21t-31 -54.5
t-17.5 -73.5q-60 0 -101 13.5t-41 50.5q0 41 35.5 76t95.5 56.5t133 21.5q99 0 159.5 -37.5t60.5 -105.5q0 -46 -22.5 -90.5t-67 -77t-111.5 -44.5q69 -7 109.5 -43t40.5 -101q0 -66 -28.5 -111.5t-75.5 -72.5t-102.5 -39t-109.5 -12z" />
    <glyph glyph-name="four" unicode="4" horiz-adv-x="559" 
d="M123 0l12 61h18q17 0 36.5 3t36 18t23.5 51l10 46h-255l18 77l356 458h179l-99 -462h89l-15 -73h-89l-10 -45q-1 -6 -2.5 -17t-1.5 -16q0 -25 16.5 -32.5t44.5 -7.5h15l-13 -61h-369zM235 433l-140 -181h180l36 166l20.5 91t26.5 100l-39 -59l-44 -64t-40 -53z" />
    <glyph glyph-name="five" unicode="5" horiz-adv-x="559" 
d="M213 -10q-73 0 -118 17.5t-66 47.5t-21 65q0 37 25.5 65t80.5 28q1 -31 9.5 -64t32 -55.5t67.5 -22.5q57 0 90.5 43t33.5 129q0 62 -32.5 92t-82.5 30q-34 0 -57.5 -7t-41.5 -15l-48 31l98 340h411l-31 -205h-75q1 13 2 28t1 21q0 12 -10.5 19t-40.5 7h-212l-48 -161
q20 5 45.5 10.5t64.5 5.5q109 0 174.5 -48.5t65.5 -140.5q0 -74 -37 -133t-108 -93t-172 -34z" />
    <glyph glyph-name="six" unicode="6" horiz-adv-x="559" 
d="M264 -10q-61 0 -112 27t-81 80.5t-30 134.5q0 93 27 181t78 158.5t124 111.5t165 41q86 0 131 -33.5t45 -79.5q0 -43 -40.5 -67.5t-112.5 -24.5q0 35 -3.5 66.5t-14.5 51.5t-35 20q-56 0 -98.5 -64.5t-69.5 -200.5q23 19 57.5 34t87.5 15q58 0 95.5 -24.5t55.5 -65
t18 -89.5q0 -70 -31.5 -132t-95 -101t-160.5 -39zM284 62q29 0 50 25.5t33 68.5t12 97q0 58 -15 89t-47 31q-27 0 -52 -15.5t-42 -32.5q-6 -36 -8.5 -65.5t-2.5 -55.5q0 -74 19.5 -108t52.5 -34z" />
    <glyph glyph-name="seven" unicode="7" horiz-adv-x="559" 
d="M101 0l403 584h-255q-55 0 -69 -51l-14 -50h-75l49 231h492l-14 -81l-421 -633h-96z" />
    <glyph glyph-name="eight" unicode="8" horiz-adv-x="559" 
d="M270 -10q-75 0 -132.5 22t-90 61t-32.5 89q0 56 26.5 92t71 60.5t98.5 45.5q-40 32 -67 77.5t-27 103.5q0 47 26 89t84 68t153 26q99 0 155.5 -41.5t56.5 -104.5q0 -50 -21.5 -85.5t-59.5 -62t-87 -50.5q52 -30 86.5 -73.5t34.5 -104.5q0 -73 -35 -120t-96.5 -69.5
t-143.5 -22.5zM356 421q45 28 64 66.5t19 83.5q0 38 -17 63.5t-49 25.5q-36 0 -61.5 -31t-25.5 -84q0 -76 70 -124zM270 55q44 0 76.5 29t32.5 87q0 45 -25 79t-72 63q-49 -22 -76 -61t-27 -95q0 -48 24 -75t67 -27z" />
    <glyph glyph-name="nine" unicode="9" horiz-adv-x="559" 
d="M181 -10q-79 0 -120 32t-41 81q0 37 24.5 57t67.5 20q1 -27 9 -54t26 -45t47 -18q71 0 114.5 72t80.5 208q-25 -26 -60 -47t-85 -21q-82 0 -127 46.5t-45 119.5q0 63 24 114.5t66 89.5t96.5 58.5t115.5 20.5q95 0 150.5 -51t55.5 -146q0 -60 -14 -132t-44 -143.5
t-77 -130.5t-112.5 -95t-151.5 -36zM302 360q32 1 55 23.5t37 48.5q6 23 10 52.5t4 48.5q0 61 -17 88t-43 27q-30 0 -54 -29t-37.5 -74t-13.5 -93q0 -46 16 -69.5t43 -22.5z" />
    <glyph glyph-name="colon" unicode=":" horiz-adv-x="411" 
d="M234 361q-42 0 -68.5 20t-26.5 60q0 45 28 72.5t74 27.5q41 0 68 -19.5t27 -60.5q0 -37 -15.5 -59t-38.5 -31.5t-48 -9.5zM148 -8q-42 0 -68.5 19.5t-26.5 60.5q0 45 28 72.5t74 27.5q41 0 68 -19.5t27 -60.5q0 -37 -15.5 -59t-38.5 -31.5t-48 -9.5z" />
    <glyph glyph-name="semicolon" unicode=";" horiz-adv-x="411" 
d="M234 361q-42 0 -68.5 20t-26.5 60q0 45 28 72.5t74 27.5q41 0 68 -19.5t27 -60.5q0 -37 -15.5 -59t-38.5 -31.5t-48 -9.5zM-13 -155l16 61q103 26 103 83q0 17 -7.5 27.5t-17 19.5t-17 22.5t-7.5 36.5q0 35 25.5 55.5t59.5 20.5q39 0 66 -25t27 -72q0 -82 -63 -144
t-185 -85z" />
    <glyph glyph-name="less" unicode="&#x3c;" horiz-adv-x="569" 
d="M509 90l-449 245v45l449 246v-87l-332 -182l332 -180v-87z" />
    <glyph glyph-name="equal" unicode="=" horiz-adv-x="569" 
d="M57 424v78h456v-78h-456zM57 212v78h456v-78h-456z" />
    <glyph glyph-name="greater" unicode="&#x3e;" horiz-adv-x="569" 
d="M60 90v87l332 180l-332 182v87l449 -246v-45z" />
    <glyph glyph-name="question" unicode="?" horiz-adv-x="561" 
d="M195 238l-16 116q58 21 100.5 46.5t66 62.5t23.5 93q0 47 -15.5 73t-38.5 26q-24 0 -39.5 -21.5t-24 -55.5t-11.5 -72q-161 0 -161 89q0 37 31 66t88 46t133 17q110 0 173 -40t63 -126q0 -58 -33 -103t-89.5 -78.5t-128.5 -59.5l-35 -79h-86zM214 -8q-42 0 -68.5 19.5
t-26.5 60.5q0 45 28 72.5t74 27.5q41 0 68 -19.5t27 -60.5q0 -37 -15.5 -59t-38.5 -31.5t-48 -9.5z" />
    <glyph glyph-name="at" unicode="@" horiz-adv-x="921" 
d="M437 -142q-82 0 -155.5 25t-131 75.5t-90.5 126.5t-33 178q0 96 36.5 178.5t103 143.5t155.5 95t194 34q118 0 199 -43t122.5 -115.5t41.5 -163.5q0 -101 -30.5 -171.5t-79.5 -107t-104 -36.5q-44 0 -76 20.5t-50 75.5h-7q-21 -39 -54 -67.5t-86 -28.5q-43 0 -80 18.5
t-59 56.5t-22 96q0 40 15.5 88.5t48.5 92.5t86.5 72t128.5 28q36 0 62.5 -9t42.5 -21l43 21h24l-35 -246q-3 -16 -5 -39.5t-2 -29.5q0 -30 6.5 -44t15.5 -18t16 -4q25 0 49 27.5t40 82t16 134.5q0 95 -36 157t-97.5 92.5t-140.5 30.5q-70 0 -136 -28.5t-119 -82t-84 -129.5
t-31 -172q0 -123 42.5 -198.5t114 -110t158.5 -34.5q75 0 144 25.5t118 59.5l25 -39q-52 -42 -132 -69t-172 -27zM431 139q25 0 40 16.5t24.5 42.5t14.5 54l41 204q-6 14 -21.5 20.5t-29.5 6.5q-33 0 -56.5 -26.5t-38.5 -66t-22 -80t-7 -69.5q0 -47 15 -74.5t40 -27.5z" />
    <glyph glyph-name="A" unicode="A" horiz-adv-x="788" 
d="M-44 0l14 61h22q27 0 43 16t43 62l332 575h181l76 -567q5 -31 18 -58.5t44 -27.5h22l-13 -61h-373l13 61h23q32 0 50.5 8t18.5 27q0 8 -0.5 15.5t-1.5 15.5l-11 105h-231l-42 -79q-19 -35 -19 -56q0 -36 56 -36h18l-13 -61h-270zM355 473l-92 -172h187l-16 163l-7 75
t-4 67q-9 -24 -18 -42.5t-20.5 -39z" />
    <glyph glyph-name="B" unicode="B" horiz-adv-x="700" 
d="M-25 0l13 61h13q30 0 55.5 9t32.5 42l100 475q7 28 7 36q0 19 -19 24.5t-52 5.5h-13l12 61h348q234 0 234 -155q0 -79 -47 -122t-116 -59l-1 -4q54 -10 88 -48.5t34 -101.5q0 -109 -73 -166.5t-215 -57.5h-401zM351 409h41q54 0 77.5 39.5t23.5 107.5q0 89 -61 89h-33z
M279 69h48q72 0 101.5 42.5t29.5 123.5q0 104 -74 104h-48z" />
    <glyph glyph-name="C" unicode="C" horiz-adv-x="698" 
d="M394 -10q-153 0 -238 71t-85 199q0 90 33 174.5t94 151.5t146.5 106t190.5 39q108 0 158 -33t50 -83q0 -55 -49.5 -81.5t-123.5 -26.5q0 21 -2.5 47.5t-10.5 50t-22.5 39t-38.5 15.5q-41 0 -75 -24.5t-60.5 -65.5t-44.5 -91t-27.5 -102.5t-9.5 -99.5q0 -188 169 -188
q68 0 110 28.5t67 62.5q6 -4 13 -14t7 -21q0 -38 -30.5 -73.5t-87 -58t-133.5 -22.5z" />
    <glyph glyph-name="D" unicode="D" horiz-adv-x="800" 
d="M-26 0l13 61h15q29 0 54.5 9t32.5 42l98 466q4 16 6.5 27.5t2.5 17.5q0 18 -18 24t-53 6h-13l13 61h349q149 0 233 -69.5t84 -202.5q0 -89 -29 -169t-85 -141.5t-137.5 -96.5t-186.5 -35h-379zM279 70h16q90 0 154 48.5t97.5 133.5t33.5 196q0 101 -44 149t-120 48h-17z
" />
    <glyph glyph-name="E" unicode="E" horiz-adv-x="661" 
d="M-25 0l13 61h13q31 0 56.5 10.5t32.5 44.5l102 478q2 8 3.5 16t1.5 14q0 17 -20 23t-52 6h-13l12 61h572l-37 -194h-85q1 5 2 18l2 25.5t1 14.5q0 28 -16 47.5t-55 19.5h-107l-50 -238h216l-15 -68h-217l-57 -270h133q47 0 74 24.5t39 57.5l16 43h85l-48 -194h-602z" />
    <glyph glyph-name="F" unicode="F" horiz-adv-x="644" 
d="M-25 0l13 61h13q31 0 57 10t32 45l94 442l8 34.5t4 29.5q0 20 -20 25.5t-51 5.5h-13l12 61h584l-37 -194h-85q2 17 3.5 35.5t1.5 22.5q0 29 -16.5 48t-58.5 19h-115l-55 -261h234l-14 -67h-234l-43 -196q-3 -14 -5 -21t-2 -14q0 -16 18 -20.5t43 -4.5h14l-14 -61h-368z
" />
    <glyph glyph-name="G" unicode="G" horiz-adv-x="849" 
d="M390 -10q-157 0 -238 72t-81 196q0 97 34 181.5t97.5 148.5t151.5 100t197 36q81 0 135.5 -19t82.5 -48t28 -60q0 -32 -23.5 -55t-62.5 -35.5t-88 -12.5q0 66 -25 112t-78 46q-52 0 -96.5 -32.5t-77.5 -89.5t-51.5 -129t-18.5 -152q0 -81 28 -132t92 -51q18 0 37 4t34 10
l33 140q4 16 5.5 25.5t1.5 12.5q0 19 -19 24.5t-53 5.5h-16l13 61h382l-12 -61h-5q-35 0 -62 -9t-34 -44l-42 -199q-67 -23 -129 -34.5t-140 -11.5z" />
    <glyph glyph-name="H" unicode="H" horiz-adv-x="838" 
d="M-25 0l13 61h13q30 0 55.5 9t32.5 42l100 473q5 19 6.5 28.5t1.5 11.5q0 8 -3.5 14t-18.5 10t-50 4h-13l12 61h375l-12 -61h-13q-29 0 -53 -9t-31 -44l-39 -193h213l41 185q6 27 6 33q0 10 -10 19t-54 9h-13l12 61h375l-12 -61h-13q-31 0 -58 -9t-34 -44l-101 -479
q-2 -13 -3.5 -20t-1.5 -10q0 -6 4 -13t19.5 -12t48.5 -5h13l-13 -61h-375l14 61h13q27 0 50.5 9.5t30.5 43.5l47 224h-214l-47 -220l-3.5 -17t-1.5 -10q0 -15 12 -22.5t52 -7.5h13l-13 -61h-373z" />
    <glyph glyph-name="I" unicode="I" horiz-adv-x="426" 
d="M-25 0l13 61h13q30 0 55.5 9t32.5 42l103 473q4 18 4.5 26.5t0.5 11.5q0 20 -20 25t-52 5h-13l12 61h385l-12 -61h-13q-33 0 -58.5 -9t-33.5 -44l-98 -457q-4 -19 -7 -31t-3 -21q0 -19 21.5 -24.5t52.5 -5.5h13l-13 -61h-383z" />
    <glyph glyph-name="J" unicode="J" horiz-adv-x="433" 
d="M-68 -240q-30 0 -51 3t-41 8l14 62q14 -4 32 -6.5t33 -2.5q35 0 63 14.5t50 52.5t37 110l128 603q4 12 4 19q0 20 -20 25t-52 5h-13l12 61h385l-12 -61h-13q-33 0 -59.5 -9t-34.5 -44l-125 -599q-18 -91 -69 -144t-121 -75t-147 -22z" />
    <glyph glyph-name="K" unicode="K" horiz-adv-x="771" 
d="M-25 0l13 61h13q30 0 55.5 9t32.5 42l100 473q5 19 6.5 27t1.5 11q0 20 -20 25t-52 5h-13l12 61h375l-12 -61h-13q-29 0 -53 -9t-31 -44l-42 -208l163 136q41 35 51 59.5t10 37.5t-9.5 21t-34.5 8l13 60h306l-13 -60q-43 0 -80.5 -16.5t-85.5 -58.5l-147 -127l114 -273
q19 -45 31.5 -70.5t27 -36.5t36.5 -11h3l-11 -61h-80q-54 0 -89 7.5t-59.5 26t-43 52t-39.5 85.5l-56 149l-27 -19l-39 -184q-2 -10 -3.5 -16.5t-1.5 -9.5q0 -19 21.5 -24.5t52.5 -5.5h13l-13 -61h-383z" />
    <glyph glyph-name="L" unicode="L" horiz-adv-x="677" 
d="M-25 0l12 61h13q31 0 56.5 9t32.5 42l101 473l5 22t2 16q0 20 -20 25t-52 5h-13l13 61h384l-12 -61h-13q-33 0 -60 -10t-34 -46l-110 -528h145q41 0 67 11t44 38t34 74l13 37h72l-57 -229h-623z" />
    <glyph glyph-name="M" unicode="M" horiz-adv-x="962" 
d="M-25 0l12 61h13q31 0 57 10.5t33 44.5l100 469l5.5 26t1.5 12q0 20 -20 25t-52 5h-13l13 61h317l54 -424l214 424h337l-12 -61h-13q-31 0 -57.5 -9t-34.5 -44l-101 -480q-2 -12 -3.5 -19t-1.5 -10q0 -19 20.5 -24.5t51.5 -5.5h13l-13 -61h-396l13 61h20q22 0 43.5 4
t37.5 17t20 39l100 476l-306 -597h-80l-70 597l-101 -473q-6 -30 -6 -33q0 -19 19.5 -24.5t44.5 -5.5h6l-13 -61h-253z" />
    <glyph glyph-name="N" unicode="N" horiz-adv-x="806" 
d="M-25 0l12 61h13q31 0 56.5 9t32.5 42l101 473q3 15 5 24t2 14q0 20 -20 25t-52 5h-13l13 61h251l246 -484l76 360l4 18.5t2 14.5q0 20 -19.5 25t-43.5 5h-6l12 61h253l-13 -61h-13q-30 0 -55.5 -9t-32.5 -42l-127 -602h-112l-281 551l-89 -427q-6 -30 -6 -33
q0 -19 20 -24.5t44 -5.5h6l-13 -61h-253z" />
    <glyph glyph-name="O" unicode="O" horiz-adv-x="829" 
d="M363 -11q-83 0 -149 31.5t-104.5 93.5t-38.5 152q0 58 18 121t54 123t89.5 108.5t124.5 77.5t159 29q77 0 143 -29t106 -89.5t40 -156.5q0 -55 -17.5 -118t-52 -123.5t-87.5 -110.5t-124 -79.5t-161 -29.5zM393 63q44 0 78 27t59.5 72t42 99t24.5 108.5t8 100.5
q0 95 -34 138.5t-85 43.5q-44 0 -78 -27t-59.5 -72t-42 -99t-24.5 -108.5t-8 -100.5q0 -95 35 -138.5t84 -43.5z" />
    <glyph glyph-name="P" unicode="P" horiz-adv-x="695" 
d="M-25 0l12 61h13q31 0 56.5 9t32.5 42l101 473q7 31 7 38q0 20 -20 25t-52 5h-13l13 61h308q127 0 201 -50t74 -146q0 -39 -12 -82t-44.5 -81t-93 -62t-156.5 -24h-78l-33 -142l-5 -22t-2 -14q0 -19 21.5 -24.5t52.5 -5.5h33l-13 -61h-403zM338 335h34q72 0 101.5 50
t29.5 128q0 72 -25.5 103t-56.5 31h-14z" />
    <glyph glyph-name="Q" unicode="Q" horiz-adv-x="820" 
d="M504 -240q-38 0 -77 10.5t-72.5 36.5t-55.5 72.5t-25 119.5q-91 22 -148 89t-57 178q0 58 18 121t54 123t89.5 108.5t124.5 77.5t159 29q77 0 143 -29t106 -89.5t40 -156.5q0 -58 -19.5 -125t-59 -131t-99 -114t-139.5 -75q4 -78 19 -116.5t34.5 -51.5t38.5 -13
q5 0 9 0.5t8 1.5l10 -48q-31 -12 -53 -15t-48 -3zM391 63q44 0 78 27t59.5 72t42 99t24.5 108.5t8 100.5q0 95 -34 138.5t-85 43.5q-44 0 -78 -27t-59.5 -72t-42 -99t-24.5 -108.5t-8 -100.5q0 -95 35 -138.5t84 -43.5z" />
    <glyph glyph-name="R" unicode="R" horiz-adv-x="739" 
d="M-25 0l12 61h13q31 0 57 10.5t33 44.5l100 469q7 35 7 38q0 20 -20 25t-52 5h-13l13 61h364q245 0 245 -165q0 -66 -26.5 -107.5t-66.5 -64t-80 -32.5l67 -165q26 -69 47.5 -94t51.5 -25h6l-13 -61h-18q-75 0 -127.5 8t-84.5 32t-48 72l-66 194h-47l-36 -166
q-5 -22 -7 -33t-2 -16q0 -19 21.5 -24.5t52.5 -5.5h33l-13 -61h-403zM341 372h51q53 0 89 37t36 122q0 65 -18 90.5t-56 25.5h-38z" />
    <glyph glyph-name="S" unicode="S" horiz-adv-x="617" 
d="M284 -10q-134 0 -199.5 41.5t-65.5 106.5q0 54 43 80.5t116 26.5q0 -72 18.5 -112t48 -56.5t62.5 -16.5q46 0 70.5 26t24.5 58q0 27 -10.5 47.5t-37 41t-73.5 45.5q-89 48 -129.5 99.5t-40.5 127.5q0 66 34.5 115t96.5 76.5t146 27.5q125 0 181.5 -34t56.5 -81
q0 -48 -35 -74t-118 -26q0 32 -9 65.5t-31 57t-61 23.5q-37 0 -64 -21t-27 -65q0 -34 15.5 -55t47 -38.5l77.5 -42.5q77 -38 112.5 -91t35.5 -119q0 -74 -35.5 -126t-99.5 -79.5t-150 -27.5z" />
    <glyph glyph-name="T" unicode="T" horiz-adv-x="682" 
d="M113 0l12 61h6q30 0 56 10.5t33 44.5l109 529h-68q-48 0 -69 -22.5t-38 -73.5l-14 -43h-78l49 208h665l-37 -208h-78q0 3 2 17t3.5 31t3 30.5t1.5 15.5q0 26 -17.5 35.5t-55.5 9.5h-67l-110 -517q-7 -31 -7 -37q0 -19 21.5 -24.5t52.5 -5.5h6l-13 -61h-368z" />
    <glyph glyph-name="U" unicode="U" horiz-adv-x="760" 
d="M354 -10q-122 0 -187.5 45.5t-65.5 127.5q0 16 3.5 44t7.5 45l72 333q5 19 6.5 27t1.5 11q0 20 -20 25t-52 5h-13l12 61h387l-13 -61h-13q-33 0 -59.5 -9t-33.5 -41l-77 -351q-3 -11 -7.5 -36t-4.5 -46q0 -101 108 -101q57 0 91 24.5t53 67t30 97.5l72 334q2 10 3 19
t1 12q0 20 -20 25t-52 5h-13l12 61h272l-13 -61h-13q-32 0 -58.5 -9t-32.5 -44l-77 -368q-26 -121 -100.5 -181.5t-206.5 -60.5z" />
    <glyph glyph-name="V" unicode="V" horiz-adv-x="722" 
d="M248 0l-83 609q-4 30 -23.5 37t-41.5 7h-13l12 61h373l-13 -61h-23q-32 0 -50.5 -4t-18.5 -28q0 -8 0.5 -17.5t1.5 -16.5l27 -219q2 -13 3 -37l2 -50.5t1 -49v-32.5l25 58t38 78l139 250q10 17 13.5 28t3.5 19q0 14 -15 17.5t-44 3.5h-23l11 61h271l-12 -61h-28
q-19 0 -31 -3.5t-22.5 -16t-26.5 -39.5l-333 -594h-120z" />
    <glyph glyph-name="W" unicode="W" horiz-adv-x="1083" 
d="M218 0l-56 609q-3 30 -23 37t-42 7h-13l12 61h368l-12 -61h-23q-32 0 -50.5 -4t-18.5 -28q0 -8 0.5 -19.5t1.5 -31.5l15 -197q1 -6 2.5 -27t3 -47.5t2.5 -51.5t1 -40q6 23 16.5 43.5l29.5 55.5l218 401h74l75 -344l17 -87t9 -72q5 22 16 52l23.5 61.5t23.5 56.5l89 211
q12 26 12 51q0 12 -12.5 14.5t-41.5 2.5h-23l12 61h273l-12 -61h-28q-29 0 -45 -14t-36 -55l-269 -584h-130l-87 420l-224 -420h-148z" />
    <glyph glyph-name="X" unicode="X" horiz-adv-x="785" 
d="M-37 0l13 61h14q30 0 54 16t64 56l220 220l-114 249q-16 38 -32.5 44.5t-45.5 6.5h-7l13 61h375l-12 -61h-23q-47 0 -47 -28q0 -10 4 -24.5t14 -35.5l50 -110l113 115q12 12 22 27t10 31q0 25 -48 25h-3l13 61h243l-12 -61h-9q-29 0 -52 -14t-61 -54l-188 -191l126 -280
q14 -31 32 -42t37 -11h13l-13 -61h-374l12 61h18q30 0 41 9t11 26q0 14 -6.5 34.5t-21.5 54.5l-48 105l-134 -132q-19 -18 -29.5 -34.5t-10.5 -30.5t9 -23t38 -9h8l-13 -61h-263z" />
    <glyph glyph-name="Y" unicode="Y" horiz-adv-x="743" 
d="M115 0l12 61h30q31 0 55.5 11.5t31.5 45.5l22 106l-102 376q-8 30 -19.5 41.5t-40.5 11.5h-13l12 61h366l-12 -61h-42q-24 0 -33.5 -8.5t-9.5 -22.5q0 -6 3 -25t9 -45l29 -146l12 -66t8 -63q7 19 27 55t45 73l102 151q6 11 15 31.5t9 37.5q0 14 -16 21t-54 7h-9l14 61
h273l-13 -61h-19q-15 0 -26.5 -3.5t-23.5 -15.5t-30 -38l-259 -373l-23 -105q-3 -13 -4 -18.5t-1 -8.5q0 -19 21.5 -24.5t52.5 -5.5h25l-13 -61h-411z" />
    <glyph glyph-name="Z" unicode="Z" horiz-adv-x="711" 
d="M9 0l10 57l485 588h-150q-45 0 -77 -17.5t-46 -73.5l-19 -69h-87l54 229h580l-11 -58l-487 -587h161q31 0 60.5 10t54 38t39.5 81l8 31h87l-52 -229h-610z" />
    <glyph glyph-name="bracketleft" unicode="[" horiz-adv-x="454" 
d="M33 -128l189 888h317l-13 -61h-43q-32 0 -60 -12.5t-38 -59.5l-130 -619q-1 -8 -2 -12.5t-1 -10.5q0 -34 20.5 -43t46.5 -9h43l-12 -61h-317z" />
    <glyph glyph-name="backslash" unicode="\" horiz-adv-x="288" 
d="M167 -121l-63 881h79l62 -881h-78z" />
    <glyph glyph-name="bracketright" unicode="]" horiz-adv-x="454" 
d="M-58 -128l13 61h43q33 0 60 12.5t37 59.5l130 619q2 8 2 12.5v10.5q0 35 -20 43.5t-46 8.5h-43l12 61h317l-189 -888h-316z" />
    <glyph glyph-name="asciicircum" unicode="^" horiz-adv-x="569" 
d="M37 239l222 475h49l222 -475h-86l-161 353l-160 -353h-86z" />
    <glyph glyph-name="underscore" unicode="_" horiz-adv-x="459" 
d="M-91 -142l13 59h468l-13 -59h-468z" />
    <glyph glyph-name="grave" unicode="`" horiz-adv-x="375" 
d="M332 606q-26 11 -54.5 30.5t-55.5 42.5t-47.5 43.5t-30.5 33.5l3 10h182q8 -26 23 -56t31 -54.5t27 -36.5l-3 -13h-75z" />
    <glyph glyph-name="a" unicode="a" horiz-adv-x="728" 
d="M191 -10q-49 0 -83.5 24t-52 65.5t-17.5 93.5q0 47 13.5 98.5t40 100t66 88t91 63t115.5 23.5q28 0 58.5 -5.5t57 -13.5t42.5 -15l60 23h69l-65 -306q-2 -11 -6.5 -30t-8 -38.5t-3.5 -32.5q0 -24 10.5 -35.5t25.5 -11.5q13 0 22 5l22 12l25 -48q-18 -13 -41 -27
t-54 -23.5t-75 -9.5q-50 0 -81.5 20.5t-31.5 64.5q0 7 1 19.5t4 28.5h-8q-25 -42 -49 -72t-57.5 -45.5t-89.5 -15.5zM274 83q26 0 52.5 30t48 77.5t31.5 97.5l34 158q-9 11 -23.5 16.5t-31.5 5.5q-31 0 -56.5 -20t-44.5 -53t-31.5 -72.5t-19 -78.5t-6.5 -70
q0 -54 13.5 -72.5t33.5 -18.5z" />
    <glyph glyph-name="b" unicode="b" horiz-adv-x="668" 
d="M291 -10q-44 0 -79 11t-55 25l-66 -29h-74l129 605q5 25 7.5 39t2.5 27q0 15 -5.5 23t-34.5 8h-34l12 61h280l-35 -164q-3 -15 -12.5 -43l-21 -59.5l-21.5 -57t-14 -36.5h5q37 77 81.5 111.5t114.5 34.5q67 0 113.5 -46t46.5 -135q0 -61 -23 -126.5t-67 -122t-107 -91.5
t-143 -35zM284 68q32 0 57 20t43.5 52.5t31.5 70.5t19 75t6 66q0 56 -13.5 78.5t-32.5 22.5q-24 0 -45 -21t-38 -52t-28 -60.5t-15 -47.5l-40 -182q9 -9 23 -15.5t32 -6.5z" />
    <glyph glyph-name="c" unicode="c" horiz-adv-x="558" 
d="M283 -10q-68 0 -123.5 23t-88.5 68.5t-33 115.5q0 56 22.5 116.5t66.5 113.5t110 86t153 33q89 0 128.5 -33t39.5 -80q0 -22 -13.5 -44t-45 -36.5t-87.5 -14.5q0 57 -18.5 98t-51.5 41q-26 0 -47.5 -28.5t-36.5 -73t-23 -91.5t-8 -85q0 -58 28 -90.5t82 -32.5t85 28
t52 61q8 -8 13.5 -23t5.5 -35q0 -29 -22.5 -56t-68.5 -44t-119 -17z" />
    <glyph glyph-name="d" unicode="d" horiz-adv-x="728" 
d="M197 -10q-57 0 -92 26t-51 68t-16 89t13.5 98.5t39.5 100t64 88t87.5 63t109.5 23.5q29 0 56 -7t46 -18q2 13 6 34t6 30l8 34q3 14 5 26.5t2 23.5q0 13 -7 21.5t-43 8.5h-24l11 61h281l-116 -545l-10 -52t-5 -42q0 -21 10 -30.5t26 -9.5q13 0 25 6.5l19 10.5l25 -46
q-29 -23 -68.5 -42.5t-101.5 -19.5q-49 0 -81 20t-32 67q0 17 2 29t3 17h-6q-40 -77 -84.5 -105t-107.5 -28zM274 83q26 0 52.5 30t47.5 77t32 98l34 158q-10 10 -27.5 16t-31.5 6q-30 0 -54 -20.5t-43 -53.5t-31.5 -72.5t-19 -78t-6.5 -69.5q0 -53 13.5 -72t33.5 -19z" />
    <glyph glyph-name="e" unicode="e" horiz-adv-x="566" 
d="M282 -10q-66 0 -121.5 22.5t-89 68.5t-33.5 116q0 56 23.5 117t70.5 113.5t116 85.5t159 33q77 0 120.5 -32t43.5 -88q0 -55 -39.5 -101.5t-107.5 -75t-156 -28.5h-39q-1 -9 -1.5 -18.5t-0.5 -16.5q0 -53 26.5 -81.5t81.5 -28.5q50 0 88.5 27.5t59.5 59.5q15 -15 15 -48
q0 -28 -23 -57t-70.5 -48.5t-122.5 -19.5zM234 286h8q43 0 78 16t56 44.5t21 67.5q0 29 -11.5 46t-31.5 17q-28 0 -53.5 -29t-43 -72.5t-23.5 -89.5z" />
    <glyph glyph-name="f" unicode="f" horiz-adv-x="467" 
d="M-75 -240q-15 0 -34.5 2.5t-29.5 5.5l15 67q8 -2 21.5 -4.5t24.5 -2.5q33 0 55.5 13t39.5 48.5t31 101.5l98 469h-91l13 55l96 21l9 35q26 101 89.5 150t178.5 49q87 0 132.5 -28.5t45.5 -68.5q0 -33 -35.5 -53t-103.5 -20q0 38 -9.5 69.5t-35.5 31.5q-25 0 -39.5 -25
t-24.5 -76l-13 -64h137l-16 -76h-138l-92 -439q-17 -81 -54 -132.5t-84.5 -79.5t-96 -38.5t-89.5 -10.5z" />
    <glyph glyph-name="g" unicode="g" horiz-adv-x="598" 
d="M170 -240q-90 0 -144 16.5t-77.5 44.5t-23.5 64q0 31 22.5 54.5t59 39t76.5 22.5q-19 11 -36 31.5t-17 52.5t29.5 62.5t87.5 64.5q-33 17 -51.5 47.5t-18.5 73.5q0 35 16 72t49 69t82.5 52t116.5 20q35 0 66 -7.5t54 -24.5q25 28 54 47t66 19q34 0 50.5 -17.5t16.5 -40.5
q0 -27 -14 -52.5t-53 -25.5q0 48 -40 48q-13 0 -23 -3t-21 -11q11 -13 19 -36.5t8 -45.5q0 -51 -26 -98.5t-81.5 -78t-142.5 -30.5q-6 0 -19.5 0.5t-26.5 1.5t-19 2q-24 -11 -33.5 -23t-9.5 -23q0 -17 16 -22.5t40 -7.5l124 -12q73 -6 114 -39.5t41 -99.5q0 -61 -40 -107.5
t-114 -72.5t-177 -26zM271 260q28 0 48 24t30.5 59.5t10.5 71.5q0 57 -43 57q-26 0 -46.5 -23.5t-31.5 -59t-11 -70.5q0 -31 11 -45t32 -14zM183 -172q80 0 119 23.5t39 53.5q0 26 -21.5 38.5t-75.5 16.5l-83 7q-37 -6 -63 -29t-26 -48q0 -15 9 -29.5t33 -23.5t69 -9z" />
    <glyph glyph-name="h" unicode="h" horiz-adv-x="698" 
d="M507 -10q-67 0 -103.5 29t-36.5 80q0 19 3.5 45t10.5 58l17 80q5 19 10.5 51t5.5 56q0 18 -6 37t-28 19q-23 0 -43 -21.5t-37 -55t-29 -68.5t-18 -62l-57 -238h-192l133 625l4 20.5t2 18.5q0 15 -6.5 25t-39.5 10h-25l11 61h283l-53 -247q-3 -14 -8.5 -35t-10.5 -35h2
q41 54 89.5 79t105.5 25q48 0 75.5 -16.5t39 -43.5t11.5 -58q0 -26 -6.5 -57.5l-11.5 -57.5l-20 -99l-10.5 -48.5t-4.5 -41.5q0 -42 35 -42q16 0 27 6t28 17l29 -38q-24 -29 -67 -53.5t-109 -24.5z" />
    <glyph glyph-name="i" unicode="i" horiz-adv-x="391" 
d="M241 619q-39 0 -66.5 16.5t-27.5 50.5q0 35 17 55t43.5 28t56.5 8q38 0 68 -15.5t30 -53.5q0 -28 -17.5 -48t-45 -30.5t-58.5 -10.5zM207 -10q-70 0 -108 27t-38 82q0 14 3 39t13 72l35 167q4 17 7 33.5t3 31.5q0 18 -9 25.5t-38 7.5h-22l11 61h278l-70 -328
q-7 -34 -10 -50.5t-3 -34.5q0 -40 36 -40q15 0 25.5 4.5t24.5 15.5l28 -37q-25 -30 -61.5 -53t-104.5 -23z" />
    <glyph glyph-name="j" unicode="j" horiz-adv-x="373" 
d="M240 619q-39 0 -66.5 16.5t-27.5 50.5q0 35 17 55t43.5 28t56.5 8q38 0 68 -15.5t30 -53.5q0 -43 -31 -66t-90 -23zM-11 -240q-43 0 -71.5 4t-57.5 11l14 56q7 -2 20.5 -4.5t23.5 -2.5q30 0 49.5 14.5t34 51t28.5 102.5l81 385l7 32t3 26q0 20 -9 30t-38 10h-21l11 61
h277l-116 -544q-17 -89 -55 -139.5t-85.5 -71.5t-95.5 -21z" />
    <glyph glyph-name="k" unicode="k" horiz-adv-x="618" 
d="M530 -5q-89 -1 -136 21t-72 77l-55 125l-27 -18l-44 -200h-192l133 625l4 22.5t2 19.5q0 20 -8 26t-32 6h-31l12 61h282l-64 -288l-13.5 -60.5l-7 -31.5l-4.5 -20.5t-6 -25.5l-12 -47l131 120q26 24 30.5 33.5t4.5 14.5q0 10 -10 17.5t-39 7.5l11 56h274l-10 -56
q-34 0 -72.5 -17.5t-85.5 -61.5l-74 -68l75 -162q24 -52 41.5 -76t32 -31.5t29.5 -7.5l-13 -61h-54z" />
    <glyph glyph-name="l" unicode="l" horiz-adv-x="391" 
d="M178 -10q-70 0 -107.5 28.5t-37.5 83.5q0 19 3.5 43.5t13.5 71.5l85 402q3 13 5.5 26.5t2.5 22.5q0 14 -6 22.5t-35 8.5h-27l12 61h278l-122 -552q-7 -34 -9.5 -50.5t-2.5 -34.5q0 -40 36 -40q12 0 23 4.5t27 15.5l28 -37q-25 -30 -62 -53t-105 -23z" />
    <glyph glyph-name="m" unicode="m" horiz-adv-x="1023" 
d="M832 -8q-67 0 -103.5 28t-36.5 85q0 20 3.5 43.5t10.5 56.5l17 82l10 52t6 55q0 18 -3.5 37t-22.5 19q-17 0 -34 -17t-32 -43.5t-27 -56t-20 -54.5t-10 -38l-8 -51q-5 -34 -12 -87.5t-11 -102.5h-200q4 34 10.5 74t14 79l13.5 69l13 64q10 47 12 74t2 32q0 17 -3 35
t-20 18q-20 0 -39 -20.5t-35 -52.5t-28 -65.5t-18 -59.5l-57 -247h-192l84 395q2 12 5 25.5t3 24.5q0 17 -8 23.5t-33 6.5h-25l9 61h267l-14 -84h5q43 56 88.5 75t97.5 19q63 0 87 -30.5t27 -79.5v-5h3q35 60 82.5 87.5t112.5 27.5q46 0 71.5 -16.5t36.5 -42t11 -53.5
q0 -26 -6.5 -57t-11.5 -58l-21 -102l-9 -47.5t-4 -41.5q0 -43 34 -43q16 0 27.5 6t27.5 17l29 -38q-24 -29 -67 -53.5t-109 -24.5z" />
    <glyph glyph-name="n" unicode="n" horiz-adv-x="726" 
d="M535 -10q-67 0 -103.5 30t-36.5 81q0 19 3.5 44t10.5 57l16 80q4 19 9.5 51t5.5 56q0 18 -5.5 37t-28.5 19q-22 0 -43 -24t-39 -60.5t-31.5 -76t-20.5 -70.5l-48 -214h-192l84 395q3 12 5.5 26.5t2.5 24.5q0 13 -6 21t-35 8h-25l11 61h247l1 -93h3q41 56 86.5 79.5
t109.5 23.5q49 0 77 -16.5t39.5 -43t11.5 -57.5q0 -26 -6.5 -57.5l-11.5 -57.5l-19 -99q-5 -27 -9.5 -48.5t-4.5 -41.5q0 -42 34 -42q23 0 55 23l29 -38q-24 -29 -67 -53.5t-109 -24.5z" />
    <glyph glyph-name="o" unicode="o" horiz-adv-x="650" 
d="M265 -10q-100 0 -163.5 53t-63.5 159q0 57 21 117.5t64.5 111.5t109 83t155.5 32q61 0 111.5 -22t81 -68.5t30.5 -121.5q0 -55 -20.5 -115t-62.5 -112t-107.5 -84.5t-155.5 -32.5zM288 77q27 0 48.5 21.5t38 56.5t27.5 75.5t16.5 79t5.5 67.5q0 47 -16 68.5t-44 21.5
q-31 0 -56 -30t-43 -76.5t-28 -96.5t-10 -90q0 -51 16 -74t45 -23z" />
    <glyph glyph-name="p" unicode="p" horiz-adv-x="657" 
d="M-47 -240l138 641q2 12 4 22.5t2 17.5q0 17 -6 25.5t-35 8.5h-25l11 61h241l-27 -133h8q25 44 51 76t60 49.5t84 17.5q70 0 115 -46.5t45 -134.5q0 -64 -20 -130t-59.5 -121.5t-99.5 -89.5t-140 -34q-30 0 -57.5 6.5t-47.5 16.5q-1 -8 -3 -22t-5 -26l-14 -71
q-3 -16 -4 -24.5t-1 -16.5q0 -19 11 -25.5t39 -6.5h47l-9 -61h-303zM283 68q35 0 63 29t47 73.5t29 93t10 88.5q0 38 -10 69.5t-38 31.5q-22 0 -43 -19t-39 -49t-30.5 -63t-17.5 -61l-36 -171q9 -7 27.5 -14.5t37.5 -7.5z" />
    <glyph glyph-name="q" unicode="q" horiz-adv-x="683" 
d="M323 -240l38 200l10.5 51.5l13.5 64.5t10 47h-6q-26 -45 -52 -74.5t-59.5 -44t-81.5 -14.5q-71 0 -114.5 46.5t-43.5 136.5q0 63 22 128.5t63 121t99 89.5t130 34q57 0 101 -12.5t72 -24.5l66 37h61l-136 -645q-3 -13 -5.5 -26.5t-2.5 -21.5q0 -32 47 -32h44l-12 -61
h-264zM274 83q20 0 40 18.5t38 49t32 67t20 72.5l36 156q-7 9 -21.5 15.5t-35.5 6.5q-31 0 -56.5 -20.5t-44 -53t-31 -71t-18.5 -76t-6 -65.5q0 -55 13.5 -77t33.5 -22z" />
    <glyph glyph-name="r" unicode="r" horiz-adv-x="612" 
d="M32 0l84 393l5.5 28t2.5 28q0 11 -6 18.5t-27 7.5h-29l12 61h254l-21 -132h1q39 80 82 111t107 31q122 0 122 -92q0 -60 -38 -88t-106 -28q0 53 -11 83.5t-37 30.5q-29 0 -60.5 -39t-59 -104t-45.5 -143l-38 -166h-192z" />
    <glyph glyph-name="s" unicode="s" horiz-adv-x="551" 
d="M218 -10q-94 0 -150.5 28.5t-56.5 79.5q0 34 19.5 56t51 32.5t68.5 10.5q0 -36 9 -67.5t29 -51t53 -19.5q38 0 61.5 17t23.5 45q0 34 -28.5 50t-78.5 40q-72 35 -110 73.5t-38 95.5q0 80 66.5 123t183.5 43q77 0 121.5 -12.5t63 -33.5t18.5 -47q0 -46 -38.5 -66
t-106.5 -20q0 27 -6 53.5t-22 44t-45 17.5q-34 0 -51.5 -17t-17.5 -40q0 -32 27.5 -47.5t78.5 -38.5q83 -37 113.5 -76t30.5 -92q0 -87 -66 -134t-203 -47z" />
    <glyph glyph-name="t" unicode="t" horiz-adv-x="453" 
d="M207 -10q-39 0 -72.5 13.5t-53.5 40t-20 65.5q0 18 3 40.5t7 41.5l60 269h-78l12 59q29 0 69.5 13.5t85 44.5t84.5 82h66l-26 -123h121l-15 -76h-123l-59 -260q-5 -24 -7 -39t-2 -29q0 -21 13.5 -33.5t34.5 -12.5q20 0 39.5 8.5t35.5 20.5l28 -39q-35 -34 -82.5 -60
t-120.5 -26z" />
    <glyph glyph-name="u" unicode="u" horiz-adv-x="728" 
d="M536 -10q-55 0 -85 13t-41.5 34t-11.5 46q0 20 5 37h-8q-30 -38 -60 -67.5t-66 -45.5t-86 -16q-45 0 -71 15.5t-37 41t-11 54.5q0 25 6 55t10 55l34 177q5 25 7 38t2 21q0 14 -6 20.5t-35 6.5h-25l11 61h271l-61 -299q-6 -28 -9.5 -53t-3.5 -42q0 -38 39 -38q24 0 49 30
t45 75.5t30 93.5l50 233h194l-71 -336l-7 -39t-3 -38q0 -19 10.5 -29.5t26.5 -10.5q15 0 27 6t28 17l29 -37q-26 -30 -66 -54.5t-110 -24.5z" />
    <glyph glyph-name="v" unicode="v" horiz-adv-x="621" 
d="M166 -9l-72 431q-5 32 -22.5 42.5t-46.5 10.5h-10l15 61h230l46 -296q8 -50 9.5 -82t1.5 -57h3q43 47 80.5 99t61 102.5t23.5 91.5q0 33 -20.5 45t-48.5 12q0 39 22 67t67 28q35 0 60 -22t25 -69t-18 -98.5t-47.5 -103t-64.5 -99t-69.5 -87t-61.5 -66.5z" />
    <glyph glyph-name="w" unicode="w" horiz-adv-x="916" 
d="M487 -10v99t-1.5 106t-3.5 99.5t-5 78.5q-21 -53 -41.5 -96.5t-44 -85.5t-53 -87l-68.5 -101l-147 -7l-12 405q-1 46 -20.5 60t-45.5 14h-7l16 61h225q3 -50 5 -91.5t3 -82.5t2 -89.5t3 -114.5h9q51 77 93 168.5t82 200.5l151 4q4 -30 7.5 -73.5t6.5 -92t5 -94.5
l3.5 -81.5t1.5 -52.5h7q61 75 86 126t30 81.5t5 41.5q0 38 -19 57.5t-37 22.5q3 49 29.5 64.5t56.5 15.5q39 0 60.5 -25t21.5 -67q0 -57 -24.5 -120t-64.5 -124.5t-87.5 -115.5t-93.5 -93z" />
    <glyph glyph-name="x" unicode="x" horiz-adv-x="647" 
d="M-23 0l12 61h13q19 0 33.5 4t31.5 17t43 39l124 128l-72 173q-13 34 -31.5 43.5t-47.5 9.5h-11l12 61h228l66 -181l143 181h122l-10 -61h-22q-19 0 -33 -6t-29.5 -21t-41.5 -43l-101 -109l76 -165q20 -40 37.5 -55t46.5 -15h13l-11 -61h-239l-70 189l-161 -189h-121z" />
    <glyph glyph-name="y" unicode="y" horiz-adv-x="629" 
d="M-61 -240q-31 0 -60 5t-52 13l15 62q12 -4 35.5 -9t54.5 -5q58 0 102.5 14t83.5 43t78 73l-120 466q-7 30 -23.5 41.5t-45.5 11.5h-10l15 61h233l57 -251q6 -26 11.5 -62.5t9.5 -70t5 -50.5h3q41 51 76 100.5t56 93.5t21 76q0 43 -20.5 61.5t-51.5 18.5q0 41 25.5 67.5
t65.5 26.5q47 0 70 -23.5t23 -61.5q0 -78 -53 -171.5t-146 -215.5l-106.5 -134.5t-98.5 -98.5t-110.5 -60.5t-142.5 -20.5z" />
    <glyph glyph-name="z" unicode="z" horiz-adv-x="593" 
d="M1 0l13 59l330 401h-107q-26 0 -42.5 -13.5t-28.5 -35.5l-25 -48l-2 -4h-75l47 177h467l-13 -60l-331 -400h151q23 0 39 15t27 37.5t20 43.5l10 23h70l-46 -195h-504z" />
    <glyph glyph-name="braceleft" unicode="{" horiz-adv-x="452" 
d="M243 -123q-81 0 -121 31.5t-40 83.5q0 8 2 25t12 66l25 114q1 6 1.5 12.5t0.5 10.5q0 39 -28.5 50t-70.5 12l16 75q50 1 86 16.5t47 67.5l35 172q17 81 71 114t151 33h117l-13 -60h-46q-41 0 -55.5 -23.5t-24.5 -67.5l-37 -169q-10 -42 -40 -69.5t-92 -43.5l-4 -11
q46 -16 67 -37t21 -53q0 -11 -3 -25l-37 -171q-3 -13 -4 -24.5t-1 -22.5q0 -22 11 -33.5t39 -11.5h45l-14 -61h-116z" />
    <glyph glyph-name="bar" unicode="|" horiz-adv-x="569" 
d="M244 -240v1000h81v-1000h-81z" />
    <glyph glyph-name="braceright" unicode="}" horiz-adv-x="452" 
d="M-57 -121l13 60h45q42 0 56.5 23.5t24.5 67.5l37 168q9 42 39.5 69.5t92.5 43.5l3 11q-46 15 -66.5 37t-20.5 53q0 6 0.5 12.5t1.5 13.5l37 171q4 13 4.5 25t0.5 22q0 22 -10 33.5t-39 11.5h-46l14 61h117q80 0 120 -31t40 -84q0 -8 -1.5 -24.5t-11.5 -66.5l-25 -115
q-1 -6 -1.5 -12t-0.5 -11q0 -39 28.5 -50t70.5 -13l-16 -75q-49 -1 -85.5 -15.5t-47.5 -67.5l-36 -171q-16 -81 -70.5 -114t-151.5 -33h-116z" />
    <glyph glyph-name="asciitilde" unicode="~" horiz-adv-x="569" 
d="M35 257q0 92 32 145.5t112 53.5q24 0 41.5 -5.5t38.5 -20t55 -41.5q32 -25 50.5 -37t37.5 -12q24 0 35 26t11 90h85q-2 -100 -29 -149.5t-104 -49.5q-28 0 -49.5 6.5t-43.5 21t-52 38.5q-31 26 -47 38t-36 12q-25 0 -39.5 -25.5t-14.5 -90.5h-83z" />
    <glyph glyph-name="uni00A0" unicode="&#xa0;" horiz-adv-x="260" 
 />
    <glyph glyph-name="exclamdown" unicode="&#xa1;" horiz-adv-x="441" 
d="M255 363q-40 0 -67.5 20t-27.5 60q0 38 15.5 59.5t39 31t47.5 9.5q43 0 69 -19.5t26 -60.5q0 -45 -27.5 -72.5t-74.5 -27.5zM13 -179l194 466h67l-44 -466h-217z" />
    <glyph glyph-name="cent" unicode="&#xa2;" horiz-adv-x="559" 
d="M243 0l18 82q-59 8 -106 33t-74 68t-27 103q0 51 20.5 108t61.5 108.5t101.5 87.5t140.5 46l16 78h71l-16 -74q85 -4 122.5 -36t37.5 -77q0 -22 -13.5 -43.5t-45 -36t-87.5 -14.5q0 36 -8 66.5t-25 49.5l-81 -386q50 0 82.5 13t53.5 33.5t38 44.5q8 -8 14.5 -23t6.5 -35
q0 -27 -22.5 -53.5t-70 -44t-121.5 -19.5l-16 -79h-71zM284 187l80 382q-28 -9 -50.5 -40t-38 -74t-23.5 -87.5t-8 -79.5q0 -66 40 -101z" />
    <glyph glyph-name="sterling" unicode="&#xa3;" horiz-adv-x="559" 
d="M395 -10q-33 0 -66 12t-70 23.5t-82 11.5q-43 0 -75 -7t-69 -24l-17 -7l-25 63l33 21q32 21 64 50t53.5 67.5t21.5 86.5q0 17 -2 33.5l-4 32.5h-118l17 69h95q-1 17 -4.5 42t-3.5 48q0 68 34 115t95 72t143 25q88 0 135 -34.5t47 -82.5q0 -46 -40.5 -70.5t-115.5 -24.5
q0 71 -14.5 107t-40.5 36q-37 0 -56.5 -38.5t-19.5 -108.5q0 -26 2 -48t3 -38h184l-16 -69l-165 1q1 -3 2 -19t1 -28q0 -58 -41.5 -97t-117.5 -71l1 -4q29 10 52.5 14t43.5 4q33 0 66 -8.5t62.5 -17t49.5 -8.5q35 0 55 7.5t48 26.5l36 -62q-15 -16 -45 -40t-66 -42.5
t-70 -18.5z" />
    <glyph glyph-name="currency" unicode="&#xa4;" horiz-adv-x="559" 
d="M147 148l-58 58l53 52q-26 40 -26 97q0 27 7.5 53.5t22.5 47.5l-55 56l56 56l56 -56q21 13 45 20t51 7q54 0 97 -29l58 59l56 -57l-57 -59q30 -44 30 -98q0 -28 -7 -52t-20 -45l54 -54l-56 -56l-53 54q-47 -30 -102 -30q-56 0 -100 28zM299 247q47 0 76.5 31.5t29.5 76.5
q0 46 -29.5 77t-76.5 31q-44 0 -75 -31t-31 -77q0 -45 31 -76.5t75 -31.5z" />
    <glyph glyph-name="yen" unicode="&#xa5;" horiz-adv-x="559" 
d="M25 0l13 61h30q30 0 55 11.5t32 45.5l9 38h-140l13 68h140l12 49h-140l13 68h141l-50 259q-5 31 -13 42t-37 11h-20l13 61h292l-13 -61h-36q-13 0 -18 -8.5t-5 -16.5q0 -7 3 -24l9 -49l12 -86q5 -31 8.5 -55.5t2.5 -47.5q7 26 29 66l73 136q5 10 12 26.5t7 32.5
q0 13 -8.5 19.5t-20.5 6.5h-22l14 61h208l-12 -61h-3q-20 0 -44 -21.5t-44 -56.5l-141 -234h131l-14 -68h-140l-11 -49h140l-14 -68h-140l-8 -34q-6 -27 -6 -31q0 -19 20.5 -24.5t51.5 -5.5h25l-13 -61h-396z" />
    <glyph glyph-name="brokenbar" unicode="&#xa6;" horiz-adv-x="569" 
d="M244 360v400h81v-400h-81zM244 -240v400h81v-400h-81z" />
    <glyph glyph-name="section" unicode="&#xa7;" horiz-adv-x="544" 
d="M225 -115q-95 0 -148.5 35.5t-53.5 89.5q0 39 19.5 60t46.5 28.5t51 7.5q0 -71 29.5 -115.5t74.5 -44.5t69.5 29.5t24.5 67.5q0 32 -11.5 53.5t-38.5 40t-72 41.5q-57 30 -88 57.5t-42.5 55t-11.5 55.5q0 54 31 88t67 55q-9 14 -16.5 37t-7.5 53q0 58 30.5 98t80 61.5
t106.5 21.5q104 0 146.5 -33t42.5 -81q0 -46 -32.5 -62.5t-79.5 -16.5q0 56 -22 94t-63 38q-35 0 -58.5 -23.5t-23.5 -73.5q0 -28 11 -47.5t36 -36t66 -38.5q80 -41 110.5 -75.5t30.5 -80.5t-30.5 -83.5t-71.5 -60.5q11 -16 18 -40t7 -50q0 -56 -28 -103t-79 -74.5
t-120 -27.5zM385 227q16 11 23.5 27t7.5 34q0 20 -18.5 40.5t-80.5 50.5l-59 29t-50 29q-14 -11 -23.5 -24t-9.5 -32q0 -29 22.5 -50.5t88.5 -50.5q29 -12 55.5 -26t43.5 -27z" />
    <glyph glyph-name="dieresis" unicode="&#xa8;" horiz-adv-x="577" 
d="M470 612q-32 0 -51 17.5t-19 51.5q0 41 20 65.5t56 24.5q31 0 50.5 -17t19.5 -52q0 -50 -24 -70t-52 -20zM224 612q-32 0 -51 17.5t-19 51.5q0 41 20.5 65.5t55.5 24.5q32 0 51 -17t19 -52q0 -50 -24 -70t-52 -20z" />
    <glyph glyph-name="copyright" unicode="&#xa9;" horiz-adv-x="845" 
d="M422 -10q-106 0 -189 45.5t-130.5 128t-47.5 194.5q0 111 47 193.5t130 128t190 45.5t190 -45.5t130.5 -128t47.5 -194.5q0 -111 -47.5 -193.5t-130.5 -128t-190 -45.5zM423 55q89 0 155.5 37.5t103 105.5t36.5 160q0 93 -37.5 160.5t-103.5 104.5t-154 37
q-87 0 -153.5 -37t-104 -104.5t-37.5 -161.5q0 -95 38 -162.5t105 -103.5t152 -36zM428 124q-105 0 -158 64t-53 170q0 103 57.5 167.5t167.5 64.5q71 0 106 -23.5t35 -58.5q0 -25 -20.5 -39t-49.5 -14q0 32 -16 55.5t-57 23.5q-68 0 -97 -45.5t-29 -130.5q0 -84 33 -130
t94 -46q53 0 83 19t43 48q18 -10 18 -38q0 -20 -17.5 -40t-52.5 -33.5t-87 -13.5z" />
    <glyph glyph-name="ordfeminine" unicode="&#xaa;" horiz-adv-x="459" 
d="M192 381q-54 0 -79 33.5t-25 79.5q0 36 13 75t41 73t72.5 55.5t108.5 21.5q32 0 50.5 -6t34.5 -15l38 14h43l-33 -179q-5 -28 -7 -41t-2 -27q0 -23 22 -23q10 0 21 4.5t22 11.5l14 -28q-13 -13 -42.5 -31t-70.5 -18q-38 0 -59.5 16.5t-21.5 47.5q0 10 1.5 21.5t2.5 21.5
h-4q-27 -46 -60 -76.5t-80 -30.5zM256 450q17 0 34 18.5t30 45t18 49.5l23 93q-5 8 -18 13t-24 5q-23 0 -40 -17.5t-28.5 -45t-17.5 -56.5t-6 -52q0 -32 8.5 -42.5t20.5 -10.5z" />
    <glyph glyph-name="guillemotleft" unicode="&#xab;" horiz-adv-x="583" 
d="M389 63l-116 186l14 67l190 161h85l-143 -203l55 -211h-85zM174 63l-116 186l14 67l190 161h85l-143 -203l55 -211h-85z" />
    <glyph glyph-name="logicalnot" unicode="&#xac;" horiz-adv-x="569" 
d="M428 148v180h-368v79h449v-259h-81z" />
    <glyph glyph-name="uni00AD" unicode="&#xad;" horiz-adv-x="310" 
d="M7 209l28 127h260l-28 -127h-260z" />
    <glyph glyph-name="registered" unicode="&#xae;" horiz-adv-x="845" 
d="M422 -10q-106 0 -189 45.5t-130.5 128t-47.5 194.5q0 111 47 193.5t130 128t190 45.5t190 -45.5t130.5 -128t47.5 -194.5q0 -111 -47.5 -193.5t-130.5 -128t-190 -45.5zM423 50q91 0 158 38t104.5 107.5t37.5 162.5q0 94 -38 163t-105.5 106.5t-156.5 37.5t-157 -37.5
t-106 -106.5t-38 -164q0 -96 39 -165t107 -105.5t155 -36.5zM232 141v39h13q17 0 30.5 6t13.5 29v283q0 23 -13.5 29t-30.5 6h-13v46h183q176 0 176 -125q0 -49 -29.5 -75.5t-65.5 -38.5l89 -133q11 -16 20 -21.5t31 -5.5v-39h-105l-115 183h-44v-109q0 -23 15 -29t34 -6h14
v-39h-203zM372 373h42q51 0 70 19.5t19 60.5q0 40 -21 57t-71 17h-39v-154z" />
    <glyph glyph-name="overscore" unicode="&#xaf;" horiz-adv-x="459" 
d="M101 760l13 59h468l-13 -59h-468z" />
    <glyph glyph-name="degree" unicode="&#xb0;" horiz-adv-x="400" 
d="M279 403q-73 0 -119.5 45t-46.5 116q0 48 21 84.5t58.5 57t86.5 20.5t86.5 -20.5t59 -57t21.5 -84.5q0 -47 -21.5 -83.5t-59 -57t-86.5 -20.5zM280 487q35 0 55 21.5t20 56.5q0 36 -20 57t-55 21q-34 0 -54.5 -21t-20.5 -57q0 -35 20 -56.5t55 -21.5z" />
    <glyph glyph-name="plusminus" unicode="&#xb1;" horiz-adv-x="569" 
d="M244 135v183h-184v79h184v183h80v-183h185v-79h-185v-183h-80zM60 0v79h449v-79h-449z" />
    <glyph glyph-name="uni00B2" unicode="&#xb2;" horiz-adv-x="401" 
d="M59 386l21 103l142 93q60 39 82.5 74.5t22.5 72.5q0 18 -8 32t-28 14q-23 0 -38 -30.5t-19 -71.5q-39 0 -62 15t-23 39q0 43 43 70t116 27q65 0 102.5 -24t37.5 -62q0 -27 -14.5 -51.5t-48.5 -53t-92 -67.5l-129 -87h154q23 0 35 12.5t18 28.5l8 21h42l-28 -155h-334z
" />
    <glyph glyph-name="uni00B3" unicode="&#xb3;" horiz-adv-x="401" 
d="M223 380q-80 0 -119.5 22.5t-39.5 61.5q0 27 25 43t62 16q0 -18 8 -38t26 -34t48 -14q33 0 57 18t24 59q0 26 -22 45.5t-69 19.5h-33l8 51h35q41 0 71 26.5t30 75.5q0 19 -8 31t-24 12q-28 0 -42 -26t-18 -61q-42 0 -67 12.5t-25 36.5q0 35 42.5 61t117.5 26
q73 0 107.5 -26.5t34.5 -64.5q0 -52 -35 -79.5t-90 -38.5l-1 -5q46 -5 73.5 -28t27.5 -64q0 -45 -27 -75.5t-73 -46.5t-104 -16z" />
    <glyph glyph-name="acute" unicode="&#xb4;" horiz-adv-x="371" 
d="M112 606l3 13l43 45t46.5 53.5l38.5 48.5h194l-3 -10q-12 -12 -38.5 -31.5t-60.5 -41.5t-69.5 -42.5t-64.5 -34.5h-89z" />
    <glyph glyph-name="uni00B5" unicode="&#xb5;" horiz-adv-x="731" 
d="M83 -240q-36 0 -60.5 17t-24.5 65q0 35 14 86l35 124t42 173l66 311h195l-68 -315l-8 -39.5t-3 -31.5q0 -23 11.5 -41.5t31.5 -18.5q42 0 67.5 45t50.5 157l52 244h195l-61 -289q-7 -32 -11 -59.5t-4 -50.5q0 -54 39 -54q18 0 30 6.5t32 20.5l29 -34q-26 -34 -69.5 -60
t-120.5 -26q-54 0 -81.5 16t-37 40.5t-9.5 49.5h-5q-31 -47 -67.5 -76.5t-89.5 -29.5q-46 0 -78.5 23t-53.5 59q-7 -39 -9.5 -79t-2.5 -65q0 -22 7 -39t28.5 -27.5t64.5 -14.5q-6 -29 -27 -48.5t-47.5 -29t-51.5 -9.5z" />
    <glyph glyph-name="paragraph" unicode="&#xb6;" horiz-adv-x="634" 
d="M205 -111v61h13q23 0 41.5 4.5t29.5 19.5t11 46v366h-71q-58 0 -91.5 27.5t-47.5 72t-14 96.5q0 80 35 129t120 49h400v-61h-13q-34 0 -58 -12.5t-24 -59.5v-607q0 -31 11 -46t30 -19.5t41 -4.5h13v-61h-175v801h-76v-801h-175z" />
    <glyph glyph-name="periodcentered" unicode="&#xb7;" horiz-adv-x="317" 
d="M181 264q-42 0 -68.5 20t-26.5 61q0 44 28 71.5t74 27.5q41 0 68 -19.5t27 -60.5q0 -37 -15.5 -59t-38.5 -31.5t-48 -9.5z" />
    <glyph glyph-name="cedilla" unicode="&#xb8;" horiz-adv-x="333" 
d="M119 -240q-35 0 -58 4t-43 10l14 65q37 -8 64 -8q31 0 52.5 10.5t21.5 33.5q0 17 -20 27.5t-47 11.5l41 95h64l-19 -43q43 -5 69.5 -28t26.5 -55q0 -43 -23 -70t-60.5 -40t-82.5 -13z" />
    <glyph glyph-name="uni00B9" unicode="&#xb9;" horiz-adv-x="401" 
d="M82 387l10 51h55q20 0 35.5 6.5t20.5 31.5l59 281h-2q-22 -31 -40.5 -53t-41.5 -22q-19 0 -26.5 16.5t-8.5 38.5q20 5 37 12t42 23.5l68 46.5h91l-69 -331q-1 -7 -2.5 -12.5t-1.5 -10.5q0 -18 12.5 -22.5t29.5 -4.5h37l-10 -51h-295z" />
    <glyph glyph-name="ordmasculine" unicode="&#xba;" horiz-adv-x="414" 
d="M240 381q-74 0 -119 32.5t-45 94.5q0 34 15.5 71t46.5 69t76 52t105 20q45 0 81.5 -13t58.5 -40.5t22 -70.5q0 -31 -14.5 -68.5t-44 -70.5t-75 -54.5t-107.5 -21.5zM248 438q35 0 59 25.5t36.5 61.5t12.5 67q0 32 -10 49t-33 17q-32 0 -56 -24.5t-37 -59.5t-13 -67
q0 -31 9.5 -50t31.5 -19z" />
    <glyph glyph-name="guillemotright" unicode="&#xbb;" horiz-adv-x="583" 
d="M236 63l143 203l-55 211h85l114 -184l-14 -67l-188 -163h-85zM21 63l143 203l-55 211h85l114 -184l-14 -67l-188 -163h-85z" />
    <glyph glyph-name="onequarter" unicode="&#xbc;" horiz-adv-x="892" 
d="M68 287l10 51h55q20 0 35.5 6.5t20.5 31.5l59 281h-2q-22 -31 -40.5 -53t-41.5 -22q-19 0 -26.5 16.5t-8.5 38.5q20 5 37 12t42 23.5l68 46.5h91l-69 -331q-1 -7 -2.5 -12.5t-1.5 -10.5q0 -18 12.5 -22.5t29.5 -4.5h37l-10 -51h-295zM187 0l509 714h96l-509 -714h-96z
M579 0l11 51h28q17 0 30.5 6.5t18.5 31.5l3 21h-198l10 44l268 278h95l-55 -262h65l-14 -60h-65l-1 -5q-2 -12 -2.5 -19.5t-0.5 -9.5q0 -16 10.5 -20.5t24.5 -4.5h20l-11 -51h-237zM565 170h119l22 114q2 11 7.5 23t10.5 31l-8.5 -10.5t-6.5 -7.5z" />
    <glyph glyph-name="onehalf" unicode="&#xbd;" horiz-adv-x="892" 
d="M68 287l10 51h55q20 0 35.5 6.5t20.5 31.5l59 281h-2q-22 -31 -40.5 -53t-41.5 -22q-19 0 -26.5 16.5t-8.5 38.5q20 5 37 12t42 23.5l68 46.5h91l-69 -331q-1 -7 -2.5 -12.5t-1.5 -10.5q0 -18 12.5 -22.5t29.5 -4.5h37l-10 -51h-295zM167 0l509 714h96l-509 -714h-96z
M466 -1l21 103l142 93q60 39 82.5 74.5t22.5 72.5q0 18 -8 32t-28 14q-23 0 -38 -30.5t-19 -71.5q-39 0 -62 15t-23 39q0 43 43 70t116 27q65 0 102.5 -24t37.5 -62q0 -27 -14.5 -51.5t-48.5 -53t-92 -67.5l-129 -87h154q23 0 35 12.5t18 28.5l8 21h42l-28 -155h-334z" />
    <glyph glyph-name="threequarters" unicode="&#xbe;" horiz-adv-x="892" 
d="M202 280q-80 0 -119.5 22.5t-39.5 61.5q0 27 25 43t62 16q0 -18 8 -38t26 -34t48 -14q33 0 57 18t24 59q0 26 -22 45.5t-69 19.5h-33l8 51h35q41 0 71 26.5t30 75.5q0 19 -8 31t-24 12q-28 0 -42 -26t-18 -61q-42 0 -67 12.5t-25 36.5q0 35 42.5 61t117.5 26
q73 0 107.5 -26.5t34.5 -64.5q0 -52 -35 -79.5t-90 -38.5l-1 -5q46 -5 73.5 -28t27.5 -64q0 -45 -27 -75.5t-73 -46.5t-104 -16zM197 0l509 714h96l-509 -714h-96zM579 0l11 51h28q17 0 30.5 6.5t18.5 31.5l3 21h-198l10 44l268 278h95l-55 -262h65l-14 -60h-65l-1 -5
q-2 -12 -2.5 -19.5t-0.5 -9.5q0 -16 10.5 -20.5t24.5 -4.5h20l-11 -51h-237zM565 170h119l22 114q2 11 7.5 23t10.5 31l-8.5 -10.5t-6.5 -7.5z" />
    <glyph glyph-name="questiondown" unicode="&#xbf;" horiz-adv-x="561" 
d="M349 362q-40 0 -67.5 20t-27.5 60q0 38 15.5 59.5t39 31t47.5 9.5q43 0 69 -19.5t26 -60.5q0 -45 -27.5 -72.5t-74.5 -27.5zM239 -190q-109 0 -172.5 40t-63.5 126q0 58 33 103t90 79t128 59l35 79h86l16 -116q-57 -21 -99.5 -46.5t-66 -62.5t-23.5 -93q0 -47 15.5 -73
t37.5 -26q24 0 39.5 21.5t24.5 55.5t12 72q160 0 160 -89q0 -37 -31 -66t-87.5 -46t-133.5 -17z" />
    <glyph glyph-name="Agrave" unicode="&#xc0;" horiz-adv-x="788" 
d="M-44 0l14 61h22q27 0 43 16t43 62l332 575h181l76 -567q5 -31 18 -58.5t44 -27.5h22l-13 -61h-373l13 61h23q32 0 50.5 8t18.5 27q0 8 -0.5 15.5t-1.5 15.5l-11 105h-231l-42 -79q-19 -35 -19 -56q0 -36 56 -36h18l-13 -61h-270zM355 473l-92 -172h187l-16 163l-7 75
t-4 67q-9 -24 -18 -42.5t-20.5 -39zM505 771q-26 11 -54.5 30.5t-55.5 42.5t-47.5 43.5t-30.5 33.5l3 10h182q8 -26 23 -56t31 -54.5t27 -36.5l-3 -13h-75z" />
    <glyph glyph-name="Aacute" unicode="&#xc1;" horiz-adv-x="788" 
d="M-44 0l14 61h22q27 0 43 16t43 62l332 575h181l76 -567q5 -31 18 -58.5t44 -27.5h22l-13 -61h-373l13 61h23q32 0 50.5 8t18.5 27q0 8 -0.5 15.5t-1.5 15.5l-11 105h-231l-42 -79q-19 -35 -19 -56q0 -36 56 -36h18l-13 -61h-270zM355 473l-92 -172h187l-16 163l-7 75
t-4 67q-9 -24 -18 -42.5t-20.5 -39zM429 771l3 13l43 45t46.5 53.5l38.5 48.5h194l-3 -10q-12 -12 -38.5 -31.5t-60.5 -41.5t-69.5 -42.5t-64.5 -34.5h-89z" />
    <glyph glyph-name="Acircumflex" unicode="&#xc2;" horiz-adv-x="788" 
d="M-44 0l14 61h22q27 0 43 16t43 62l332 575h181l76 -567q5 -31 18 -58.5t44 -27.5h22l-13 -61h-373l13 61h23q32 0 50.5 8t18.5 27q0 8 -0.5 15.5t-1.5 15.5l-11 105h-231l-42 -79q-19 -35 -19 -56q0 -36 56 -36h18l-13 -61h-270zM355 473l-92 -172h187l-16 163l-7 75
t-4 67q-9 -24 -18 -42.5t-20.5 -39zM300 771l3 13l46.5 44l54 52t48.5 51h165l26.5 -46l31.5 -54.5l27 -46.5l-3 -13h-83q-8 11 -24.5 28l-34.5 34l-30 28q-18 -11 -42 -28l-46 -34t-35 -28h-104z" />
    <glyph glyph-name="Atilde" unicode="&#xc3;" horiz-adv-x="788" 
d="M-44 0l14 61h22q27 0 43 16t43 62l332 575h181l76 -567q5 -31 18 -58.5t44 -27.5h22l-13 -61h-373l13 61h23q32 0 50.5 8t18.5 27q0 8 -0.5 15.5t-1.5 15.5l-11 105h-231l-42 -79q-19 -35 -19 -56q0 -36 56 -36h18l-13 -61h-270zM355 473l-92 -172h187l-16 163l-7 75
t-4 67q-9 -24 -18 -42.5t-20.5 -39zM602 776q-36 0 -64.5 14.5t-52 29t-45.5 14.5q-24 0 -34.5 -16.5t-16.5 -36.5h-71q7 41 24 76.5t45.5 58.5t68.5 25q36 0 62.5 -14.5t48.5 -29t44 -14.5q26 0 36 16.5t14 36.5h71q-6 -39 -21 -76t-41.5 -60.5t-67.5 -23.5z" />
    <glyph glyph-name="Adieresis" unicode="&#xc4;" horiz-adv-x="788" 
d="M-44 0l14 61h22q27 0 43 16t43 62l332 575h181l76 -567q5 -31 18 -58.5t44 -27.5h22l-13 -61h-373l13 61h23q32 0 50.5 8t18.5 27q0 8 -0.5 15.5t-1.5 15.5l-11 105h-231l-42 -79q-19 -35 -19 -56q0 -36 56 -36h18l-13 -61h-270zM355 473l-92 -172h187l-16 163l-7 75
t-4 67q-9 -24 -18 -42.5t-20.5 -39zM635 777q-32 0 -51 17.5t-19 51.5q0 41 20 65.5t56 24.5q31 0 50.5 -17t19.5 -52q0 -50 -24 -70t-52 -20zM389 777q-32 0 -51 17.5t-19 51.5q0 41 20.5 65.5t55.5 24.5q32 0 51 -17t19 -52q0 -50 -24 -70t-52 -20z" />
    <glyph glyph-name="Aring" unicode="&#xc5;" horiz-adv-x="788" 
d="M-44 0l14 61h22q27 0 43 16t43 62l332 575h181l76 -567q5 -31 18 -58.5t44 -27.5h22l-13 -61h-373l13 61h23q32 0 50.5 8t18.5 27q0 8 -0.5 15.5t-1.5 15.5l-11 105h-231l-42 -79q-19 -35 -19 -56q0 -36 56 -36h18l-13 -61h-270zM355 473l-92 -172h187l-16 163l-7 75
t-4 67q-9 -24 -18 -42.5t-20.5 -39zM496 655q-50 0 -85 28.5t-35 85.5t35 85.5t85 28.5t85 -28.5t35 -85.5t-35 -85.5t-85 -28.5zM496 714q22 0 38 12t16 43t-16 42.5t-38 11.5t-38 -11.5t-16 -42.5t16 -43t38 -12z" />
    <glyph glyph-name="AE" unicode="&#xc6;" horiz-adv-x="1024" 
d="M-33 0l11 61h7q25 0 52 21.5t53 56.5l389 510l-50 4l12 61h617l-37 -194h-85q1 5 2 18l2 25.5t1 14.5q0 28 -16 47.5t-55 19.5h-108l-50 -238h217l-15 -68h-217l-57 -270h132q47 0 74 24.5t39 57.5l16 43h85l-47 -194h-602l13 61h13q31 0 56 10.5t32 44.5l22 106h-229
l-48 -69q-16 -24 -22 -41.5t-6 -22.5q0 -15 15.5 -21.5t38.5 -6.5h14l-13 -61h-256zM294 289h193l76 356h-12l-70 -94.5l-63 -87.5z" />
    <glyph glyph-name="Ccedilla" unicode="&#xc7;" horiz-adv-x="698" 
d="M394 -10q-153 0 -238 71t-85 199q0 90 33 174.5t94 151.5t146.5 106t190.5 39q108 0 158 -33t50 -83q0 -55 -49.5 -81.5t-123.5 -26.5q0 21 -2.5 47.5t-10.5 50t-22.5 39t-38.5 15.5q-41 0 -75 -24.5t-60.5 -65.5t-44.5 -91t-27.5 -102.5t-9.5 -99.5q0 -188 169 -188
q68 0 110 28.5t67 62.5q6 -4 13 -14t7 -21q0 -38 -30.5 -73.5t-87 -58t-133.5 -22.5zM277 -240q-35 0 -58 4t-43 10l14 65q37 -8 64 -8q31 0 52.5 10.5t21.5 33.5q0 17 -20 27.5t-47 11.5l41 95h64l-19 -43q43 -5 69.5 -28t26.5 -55q0 -43 -23 -70t-60.5 -40t-82.5 -13z" />
    <glyph glyph-name="Egrave" unicode="&#xc8;" horiz-adv-x="661" 
d="M-25 0l13 61h13q31 0 56.5 10.5t32.5 44.5l102 478q2 8 3.5 16t1.5 14q0 17 -20 23t-52 6h-13l12 61h572l-37 -194h-85q1 5 2 18l2 25.5t1 14.5q0 28 -16 47.5t-55 19.5h-107l-50 -238h216l-15 -68h-217l-57 -270h133q47 0 74 24.5t39 57.5l16 43h85l-48 -194h-602z
M433 771q-26 11 -54.5 30.5t-55.5 42.5t-47.5 43.5t-30.5 33.5l3 10h182q8 -26 23 -56t31 -54.5t27 -36.5l-3 -13h-75z" />
    <glyph glyph-name="Eacute" unicode="&#xc9;" horiz-adv-x="661" 
d="M-25 0l13 61h13q31 0 56.5 10.5t32.5 44.5l102 478q2 8 3.5 16t1.5 14q0 17 -20 23t-52 6h-13l12 61h572l-37 -194h-85q1 5 2 18l2 25.5t1 14.5q0 28 -16 47.5t-55 19.5h-107l-50 -238h216l-15 -68h-217l-57 -270h133q47 0 74 24.5t39 57.5l16 43h85l-48 -194h-602z
M371 771l3 13l43 45t46.5 53.5l38.5 48.5h194l-3 -10q-12 -12 -38.5 -31.5t-60.5 -41.5t-69.5 -42.5t-64.5 -34.5h-89z" />
    <glyph glyph-name="Ecircumflex" unicode="&#xca;" horiz-adv-x="661" 
d="M-25 0l13 61h13q31 0 56.5 10.5t32.5 44.5l102 478q2 8 3.5 16t1.5 14q0 17 -20 23t-52 6h-13l12 61h572l-37 -194h-85q1 5 2 18l2 25.5t1 14.5q0 28 -16 47.5t-55 19.5h-107l-50 -238h216l-15 -68h-217l-57 -270h133q47 0 74 24.5t39 57.5l16 43h85l-48 -194h-602z
M272 771l3 13l46.5 44l54 52t48.5 51h165l26.5 -46l31.5 -54.5l27 -46.5l-3 -13h-83q-8 11 -24.5 28l-34.5 34l-30 28q-18 -11 -42 -28l-46 -34t-35 -28h-104z" />
    <glyph glyph-name="Edieresis" unicode="&#xcb;" horiz-adv-x="661" 
d="M-25 0l13 61h13q31 0 56.5 10.5t32.5 44.5l102 478q2 8 3.5 16t1.5 14q0 17 -20 23t-52 6h-13l12 61h572l-37 -194h-85q1 5 2 18l2 25.5t1 14.5q0 28 -16 47.5t-55 19.5h-107l-50 -238h216l-15 -68h-217l-57 -270h133q47 0 74 24.5t39 57.5l16 43h85l-48 -194h-602z
M589 777q-32 0 -51 17.5t-19 51.5q0 41 20 65.5t56 24.5q31 0 50.5 -17t19.5 -52q0 -50 -24 -70t-52 -20zM343 777q-32 0 -51 17.5t-19 51.5q0 41 20.5 65.5t55.5 24.5q32 0 51 -17t19 -52q0 -50 -24 -70t-52 -20z" />
    <glyph glyph-name="Igrave" unicode="&#xcc;" horiz-adv-x="426" 
d="M-25 0l13 61h13q30 0 55.5 9t32.5 42l103 473q4 18 4.5 26.5t0.5 11.5q0 20 -20 25t-52 5h-13l12 61h385l-12 -61h-13q-33 0 -58.5 -9t-33.5 -44l-98 -457q-4 -19 -7 -31t-3 -21q0 -19 21.5 -24.5t52.5 -5.5h13l-13 -61h-383zM315 771q-26 11 -54.5 30.5t-55.5 42.5
t-47.5 43.5t-30.5 33.5l3 10h182q8 -26 23 -56t31 -54.5t27 -36.5l-3 -13h-75z" />
    <glyph glyph-name="Iacute" unicode="&#xcd;" horiz-adv-x="426" 
d="M-25 0l13 61h13q30 0 55.5 9t32.5 42l103 473q4 18 4.5 26.5t0.5 11.5q0 20 -20 25t-52 5h-13l12 61h385l-12 -61h-13q-33 0 -58.5 -9t-33.5 -44l-98 -457q-4 -19 -7 -31t-3 -21q0 -19 21.5 -24.5t52.5 -5.5h13l-13 -61h-383zM250 771l3 13l43 45t46.5 53.5l38.5 48.5
h194l-3 -10q-12 -12 -38.5 -31.5t-60.5 -41.5t-69.5 -42.5t-64.5 -34.5h-89z" />
    <glyph glyph-name="Icircumflex" unicode="&#xce;" horiz-adv-x="426" 
d="M-25 0l13 61h13q30 0 55.5 9t32.5 42l103 473q4 18 4.5 26.5t0.5 11.5q0 20 -20 25t-52 5h-13l12 61h385l-12 -61h-13q-33 0 -58.5 -9t-33.5 -44l-98 -457q-4 -19 -7 -31t-3 -21q0 -19 21.5 -24.5t52.5 -5.5h13l-13 -61h-383zM126 771l3 13l46.5 44l54 52t48.5 51h165
l26.5 -46l31.5 -54.5l27 -46.5l-3 -13h-83q-8 11 -24.5 28l-34.5 34l-30 28q-18 -11 -42 -28l-46 -34t-35 -28h-104z" />
    <glyph glyph-name="Idieresis" unicode="&#xcf;" horiz-adv-x="426" 
d="M-25 0l13 61h13q30 0 55.5 9t32.5 42l103 473q4 18 4.5 26.5t0.5 11.5q0 20 -20 25t-52 5h-13l12 61h385l-12 -61h-13q-33 0 -58.5 -9t-33.5 -44l-98 -457q-4 -19 -7 -31t-3 -21q0 -19 21.5 -24.5t52.5 -5.5h13l-13 -61h-383zM458 777q-32 0 -51 17.5t-19 51.5
q0 41 20 65.5t56 24.5q31 0 50.5 -17t19.5 -52q0 -50 -24 -70t-52 -20zM212 777q-32 0 -51 17.5t-19 51.5q0 41 20.5 65.5t55.5 24.5q32 0 51 -17t19 -52q0 -50 -24 -70t-52 -20z" />
    <glyph glyph-name="Eth" unicode="&#xd0;" horiz-adv-x="800" 
d="M-26 0l13 61h15q29 0 54.5 9t32.5 42l48 227h-72l14 69h72l36 170q4 16 6.5 27.5t2.5 17.5q0 18 -18 24t-53 6h-13l13 61h349q149 0 233 -69.5t84 -202.5q0 -89 -29 -169t-85 -141.5t-137.5 -96.5t-186.5 -35h-379zM279 70h16q90 0 154 48.5t97.5 133.5t33.5 196
q0 101 -44 149t-120 48h-17l-49 -237h95l-14 -69h-96z" />
    <glyph glyph-name="Ntilde" unicode="&#xd1;" horiz-adv-x="806" 
d="M-25 0l12 61h13q31 0 56.5 9t32.5 42l101 473q3 15 5 24t2 14q0 20 -20 25t-52 5h-13l13 61h251l246 -484l76 360l4 18.5t2 14.5q0 20 -19.5 25t-43.5 5h-6l12 61h253l-13 -61h-13q-30 0 -55.5 -9t-32.5 -42l-127 -602h-112l-281 551l-89 -427q-6 -30 -6 -33
q0 -19 20 -24.5t44 -5.5h6l-13 -61h-253zM610 776q-36 0 -64.5 14.5t-52 29t-45.5 14.5q-24 0 -34.5 -16.5t-16.5 -36.5h-71q7 41 24 76.5t45.5 58.5t68.5 25q36 0 62.5 -14.5t48.5 -29t44 -14.5q26 0 36 16.5t14 36.5h71q-6 -39 -21 -76t-41.5 -60.5t-67.5 -23.5z" />
    <glyph glyph-name="Ograve" unicode="&#xd2;" horiz-adv-x="829" 
d="M363 -11q-83 0 -149 31.5t-104.5 93.5t-38.5 152q0 58 18 121t54 123t89.5 108.5t124.5 77.5t159 29q77 0 143 -29t106 -89.5t40 -156.5q0 -55 -17.5 -118t-52 -123.5t-87.5 -110.5t-124 -79.5t-161 -29.5zM393 63q44 0 78 27t59.5 72t42 99t24.5 108.5t8 100.5
q0 95 -34 138.5t-85 43.5q-44 0 -78 -27t-59.5 -72t-42 -99t-24.5 -108.5t-8 -100.5q0 -95 35 -138.5t84 -43.5zM486 771q-26 11 -54.5 30.5t-55.5 42.5t-47.5 43.5t-30.5 33.5l3 10h182q8 -26 23 -56t31 -54.5t27 -36.5l-3 -13h-75z" />
    <glyph glyph-name="Oacute" unicode="&#xd3;" horiz-adv-x="829" 
d="M363 -11q-83 0 -149 31.5t-104.5 93.5t-38.5 152q0 58 18 121t54 123t89.5 108.5t124.5 77.5t159 29q77 0 143 -29t106 -89.5t40 -156.5q0 -55 -17.5 -118t-52 -123.5t-87.5 -110.5t-124 -79.5t-161 -29.5zM393 63q44 0 78 27t59.5 72t42 99t24.5 108.5t8 100.5
q0 95 -34 138.5t-85 43.5q-44 0 -78 -27t-59.5 -72t-42 -99t-24.5 -108.5t-8 -100.5q0 -95 35 -138.5t84 -43.5zM447 771l3 13l43 45t46.5 53.5l38.5 48.5h194l-3 -10q-12 -12 -38.5 -31.5t-60.5 -41.5t-69.5 -42.5t-64.5 -34.5h-89z" />
    <glyph glyph-name="Ocircumflex" unicode="&#xd4;" horiz-adv-x="829" 
d="M363 -11q-83 0 -149 31.5t-104.5 93.5t-38.5 152q0 58 18 121t54 123t89.5 108.5t124.5 77.5t159 29q77 0 143 -29t106 -89.5t40 -156.5q0 -55 -17.5 -118t-52 -123.5t-87.5 -110.5t-124 -79.5t-161 -29.5zM393 63q44 0 78 27t59.5 72t42 99t24.5 108.5t8 100.5
q0 95 -34 138.5t-85 43.5q-44 0 -78 -27t-59.5 -72t-42 -99t-24.5 -108.5t-8 -100.5q0 -95 35 -138.5t84 -43.5zM320 771l3 13l46.5 44l54 52t48.5 51h165l26.5 -46l31.5 -54.5l27 -46.5l-3 -13h-83q-8 11 -24.5 28l-34.5 34l-30 28q-18 -11 -42 -28l-46 -34t-35 -28h-104z
" />
    <glyph glyph-name="Otilde" unicode="&#xd5;" horiz-adv-x="829" 
d="M363 -11q-83 0 -149 31.5t-104.5 93.5t-38.5 152q0 58 18 121t54 123t89.5 108.5t124.5 77.5t159 29q77 0 143 -29t106 -89.5t40 -156.5q0 -55 -17.5 -118t-52 -123.5t-87.5 -110.5t-124 -79.5t-161 -29.5zM393 63q44 0 78 27t59.5 72t42 99t24.5 108.5t8 100.5
q0 95 -34 138.5t-85 43.5q-44 0 -78 -27t-59.5 -72t-42 -99t-24.5 -108.5t-8 -100.5q0 -95 35 -138.5t84 -43.5zM589 776q-36 0 -64.5 14.5t-52 29t-45.5 14.5q-24 0 -34.5 -16.5t-16.5 -36.5h-71q7 41 24 76.5t45.5 58.5t68.5 25q36 0 62.5 -14.5t48.5 -29t44 -14.5
q26 0 36 16.5t14 36.5h71q-6 -39 -21 -76t-41.5 -60.5t-67.5 -23.5z" />
    <glyph glyph-name="Odieresis" unicode="&#xd6;" horiz-adv-x="829" 
d="M363 -11q-83 0 -149 31.5t-104.5 93.5t-38.5 152q0 58 18 121t54 123t89.5 108.5t124.5 77.5t159 29q77 0 143 -29t106 -89.5t40 -156.5q0 -55 -17.5 -118t-52 -123.5t-87.5 -110.5t-124 -79.5t-161 -29.5zM393 63q44 0 78 27t59.5 72t42 99t24.5 108.5t8 100.5
q0 95 -34 138.5t-85 43.5q-44 0 -78 -27t-59.5 -72t-42 -99t-24.5 -108.5t-8 -100.5q0 -95 35 -138.5t84 -43.5zM650 777q-32 0 -51 17.5t-19 51.5q0 41 20 65.5t56 24.5q31 0 50.5 -17t19.5 -52q0 -50 -24 -70t-52 -20zM404 777q-32 0 -51 17.5t-19 51.5q0 41 20.5 65.5
t55.5 24.5q32 0 51 -17t19 -52q0 -50 -24 -70t-52 -20z" />
    <glyph glyph-name="multiply" unicode="&#xd7;" horiz-adv-x="569" 
d="M141 157l-58 57l143 145l-143 144l58 56l143 -143l143 144l57 -57l-144 -145l144 -145l-56 -56l-144 145z" />
    <glyph glyph-name="Oslash" unicode="&#xd8;" horiz-adv-x="829" 
d="M95 -50l74 98q-46 35 -72 89.5t-26 128.5q0 58 18 121t54 123t89.5 108.5t124.5 77.5t159 29q77 0 139 -27l50 67h79l-74 -99q43 -34 69 -87.5t26 -128.5q0 -55 -17.5 -118t-52 -123.5t-87.5 -110.5t-124 -79.5t-161 -29.5q-77 0 -139 27l-49 -66h-80zM274 245
q0 -28 3 -51l302 402q-16 29 -40 42.5t-53 13.5q-44 0 -78 -27t-59.5 -72t-42 -99t-24.5 -108.5t-8 -100.5zM393 63q44 0 78 27t59.5 72t42 99t24.5 108.5t8 100.5q0 28 -3 51l-301 -402q16 -29 40 -42.5t52 -13.5z" />
    <glyph glyph-name="Ugrave" unicode="&#xd9;" horiz-adv-x="760" 
d="M354 -10q-122 0 -187.5 45.5t-65.5 127.5q0 16 3.5 44t7.5 45l72 333q5 19 6.5 27t1.5 11q0 20 -20 25t-52 5h-13l12 61h387l-13 -61h-13q-33 0 -59.5 -9t-33.5 -41l-77 -351q-3 -11 -7.5 -36t-4.5 -46q0 -101 108 -101q57 0 91 24.5t53 67t30 97.5l72 334q2 10 3 19
t1 12q0 20 -20 25t-52 5h-13l12 61h272l-13 -61h-13q-32 0 -58.5 -9t-32.5 -44l-77 -368q-26 -121 -100.5 -181.5t-206.5 -60.5zM509 771q-26 11 -54.5 30.5t-55.5 42.5t-47.5 43.5t-30.5 33.5l3 10h182q8 -26 23 -56t31 -54.5t27 -36.5l-3 -13h-75z" />
    <glyph glyph-name="Uacute" unicode="&#xda;" horiz-adv-x="760" 
d="M354 -10q-122 0 -187.5 45.5t-65.5 127.5q0 16 3.5 44t7.5 45l72 333q5 19 6.5 27t1.5 11q0 20 -20 25t-52 5h-13l12 61h387l-13 -61h-13q-33 0 -59.5 -9t-33.5 -41l-77 -351q-3 -11 -7.5 -36t-4.5 -46q0 -101 108 -101q57 0 91 24.5t53 67t30 97.5l72 334q2 10 3 19
t1 12q0 20 -20 25t-52 5h-13l12 61h272l-13 -61h-13q-32 0 -58.5 -9t-32.5 -44l-77 -368q-26 -121 -100.5 -181.5t-206.5 -60.5zM461 771l3 13l43 45t46.5 53.5l38.5 48.5h194l-3 -10q-12 -12 -38.5 -31.5t-60.5 -41.5t-69.5 -42.5t-64.5 -34.5h-89z" />
    <glyph glyph-name="Ucircumflex" unicode="&#xdb;" horiz-adv-x="760" 
d="M354 -10q-122 0 -187.5 45.5t-65.5 127.5q0 16 3.5 44t7.5 45l72 333q5 19 6.5 27t1.5 11q0 20 -20 25t-52 5h-13l12 61h387l-13 -61h-13q-33 0 -59.5 -9t-33.5 -41l-77 -351q-3 -11 -7.5 -36t-4.5 -46q0 -101 108 -101q57 0 91 24.5t53 67t30 97.5l72 334q2 10 3 19
t1 12q0 20 -20 25t-52 5h-13l12 61h272l-13 -61h-13q-32 0 -58.5 -9t-32.5 -44l-77 -368q-26 -121 -100.5 -181.5t-206.5 -60.5zM343 771l3 13l46.5 44l54 52t48.5 51h165l26.5 -46l31.5 -54.5l27 -46.5l-3 -13h-83q-8 11 -24.5 28l-34.5 34l-30 28q-18 -11 -42 -28l-46 -34
t-35 -28h-104z" />
    <glyph glyph-name="Udieresis" unicode="&#xdc;" horiz-adv-x="760" 
d="M354 -10q-122 0 -187.5 45.5t-65.5 127.5q0 16 3.5 44t7.5 45l72 333q5 19 6.5 27t1.5 11q0 20 -20 25t-52 5h-13l12 61h387l-13 -61h-13q-33 0 -59.5 -9t-33.5 -41l-77 -351q-3 -11 -7.5 -36t-4.5 -46q0 -101 108 -101q57 0 91 24.5t53 67t30 97.5l72 334q2 10 3 19
t1 12q0 20 -20 25t-52 5h-13l12 61h272l-13 -61h-13q-32 0 -58.5 -9t-32.5 -44l-77 -368q-26 -121 -100.5 -181.5t-206.5 -60.5zM665 777q-32 0 -51 17.5t-19 51.5q0 41 20 65.5t56 24.5q31 0 50.5 -17t19.5 -52q0 -50 -24 -70t-52 -20zM419 777q-32 0 -51 17.5t-19 51.5
q0 41 20.5 65.5t55.5 24.5q32 0 51 -17t19 -52q0 -50 -24 -70t-52 -20z" />
    <glyph glyph-name="Yacute" unicode="&#xdd;" horiz-adv-x="743" 
d="M115 0l12 61h30q31 0 55.5 11.5t31.5 45.5l22 106l-102 376q-8 30 -19.5 41.5t-40.5 11.5h-13l12 61h366l-12 -61h-42q-24 0 -33.5 -8.5t-9.5 -22.5q0 -6 3 -25t9 -45l29 -146l12 -66t8 -63q7 19 27 55t45 73l102 151q6 11 15 31.5t9 37.5q0 14 -16 21t-54 7h-9l14 61
h273l-13 -61h-19q-15 0 -26.5 -3.5t-23.5 -15.5t-30 -38l-259 -373l-23 -105q-3 -13 -4 -18.5t-1 -8.5q0 -19 21.5 -24.5t52.5 -5.5h25l-13 -61h-411zM426 771l3 13l43 45t46.5 53.5l38.5 48.5h194l-3 -10q-12 -12 -38.5 -31.5t-60.5 -41.5t-69.5 -42.5t-64.5 -34.5h-89z
" />
    <glyph glyph-name="Thorn" unicode="&#xde;" horiz-adv-x="663" 
d="M-25 0l12 61h13q31 0 56.5 9t32.5 42l101 480l4.5 20t1.5 11q0 20 -19.5 25t-51.5 5h-13l13 61h377l-12 -61h-6q-32 0 -59.5 -9.5t-34.5 -43.5l-4 -19h13q128 0 202 -49.5t74 -146.5q0 -39 -12 -82t-44.5 -80.5t-93 -61.5t-156.5 -24h-76l-6 -27q-3 -10 -3 -19
q0 -19 21.5 -24.5t52.5 -5.5h5l-12 -61h-376zM307 203h32q72 0 101.5 50t29.5 127q0 73 -29 103.5t-64 30.5h-4z" />
    <glyph glyph-name="germandbls" unicode="&#xdf;" horiz-adv-x="745" 
d="M-85 -240q-23 0 -41 3.5t-28 7.5l18 62q8 -2 17.5 -3.5t24.5 -1.5q45 0 72.5 37.5t48.5 125.5l98 462h-81l18 83h81l9 32q19 77 63.5 122.5t108 65t139.5 19.5q118 0 179.5 -43t61.5 -115q0 -26 -7 -63.5t-14 -62.5h-36q-61 0 -89 -22t-28 -57q0 -25 22 -45t51 -41
q25 -18 48.5 -39t39.5 -48.5t16 -66.5q0 -52 -31.5 -93.5t-86 -65t-123.5 -23.5q-79 0 -128.5 30t-49.5 84q0 47 32.5 71t90.5 24q0 -33 8 -64.5t23.5 -52t37.5 -20.5q26 0 36 17.5t10 45.5q0 41 -22 66t-51 47q-24 18 -47.5 38t-39 48t-15.5 69q0 42 17 72t43 49t53.5 27.5
t49.5 8.5q4 22 6.5 39.5t2.5 33.5q0 38 -17 61.5t-53 23.5q-46 0 -72 -36.5t-36 -101.5l-125 -578q-15 -70 -50.5 -115.5t-81 -71t-91.5 -35.5t-82 -10z" />
    <glyph glyph-name="agrave" unicode="&#xe0;" horiz-adv-x="728" 
d="M191 -10q-49 0 -83.5 24t-52 65.5t-17.5 93.5q0 47 13.5 98.5t40 100t66 88t91 63t115.5 23.5q28 0 58.5 -5.5t57 -13.5t42.5 -15l60 23h69l-65 -306q-2 -11 -6.5 -30t-8 -38.5t-3.5 -32.5q0 -24 10.5 -35.5t25.5 -11.5q13 0 22 5l22 12l25 -48q-18 -13 -41 -27
t-54 -23.5t-75 -9.5q-50 0 -81.5 20.5t-31.5 64.5q0 7 1 19.5t4 28.5h-8q-25 -42 -49 -72t-57.5 -45.5t-89.5 -15.5zM274 83q26 0 52.5 30t48 77.5t31.5 97.5l34 158q-9 11 -23.5 16.5t-31.5 5.5q-31 0 -56.5 -20t-44.5 -53t-31.5 -72.5t-19 -78.5t-6.5 -70
q0 -54 13.5 -72.5t33.5 -18.5zM389 606q-26 11 -54.5 30.5t-55.5 42.5t-47.5 43.5t-30.5 33.5l3 10h182q8 -26 23 -56t31 -54.5t27 -36.5l-3 -13h-75z" />
    <glyph glyph-name="aacute" unicode="&#xe1;" horiz-adv-x="728" 
d="M191 -10q-49 0 -83.5 24t-52 65.5t-17.5 93.5q0 47 13.5 98.5t40 100t66 88t91 63t115.5 23.5q28 0 58.5 -5.5t57 -13.5t42.5 -15l60 23h69l-65 -306q-2 -11 -6.5 -30t-8 -38.5t-3.5 -32.5q0 -24 10.5 -35.5t25.5 -11.5q13 0 22 5l22 12l25 -48q-18 -13 -41 -27
t-54 -23.5t-75 -9.5q-50 0 -81.5 20.5t-31.5 64.5q0 7 1 19.5t4 28.5h-8q-25 -42 -49 -72t-57.5 -45.5t-89.5 -15.5zM274 83q26 0 52.5 30t48 77.5t31.5 97.5l34 158q-9 11 -23.5 16.5t-31.5 5.5q-31 0 -56.5 -20t-44.5 -53t-31.5 -72.5t-19 -78.5t-6.5 -70
q0 -54 13.5 -72.5t33.5 -18.5zM308 606l3 13l43 45t46.5 53.5l38.5 48.5h194l-3 -10q-12 -12 -38.5 -31.5t-60.5 -41.5t-69.5 -42.5t-64.5 -34.5h-89z" />
    <glyph glyph-name="acircumflex" unicode="&#xe2;" horiz-adv-x="728" 
d="M191 -10q-49 0 -83.5 24t-52 65.5t-17.5 93.5q0 47 13.5 98.5t40 100t66 88t91 63t115.5 23.5q28 0 58.5 -5.5t57 -13.5t42.5 -15l60 23h69l-65 -306q-2 -11 -6.5 -30t-8 -38.5t-3.5 -32.5q0 -24 10.5 -35.5t25.5 -11.5q13 0 22 5l22 12l25 -48q-18 -13 -41 -27
t-54 -23.5t-75 -9.5q-50 0 -81.5 20.5t-31.5 64.5q0 7 1 19.5t4 28.5h-8q-25 -42 -49 -72t-57.5 -45.5t-89.5 -15.5zM274 83q26 0 52.5 30t48 77.5t31.5 97.5l34 158q-9 11 -23.5 16.5t-31.5 5.5q-31 0 -56.5 -20t-44.5 -53t-31.5 -72.5t-19 -78.5t-6.5 -70
q0 -54 13.5 -72.5t33.5 -18.5zM180 606l3 13l46.5 44l54 52t48.5 51h165l26.5 -46l31.5 -54.5l27 -46.5l-3 -13h-83q-8 11 -24.5 28l-34.5 34l-30 28q-18 -11 -42 -28l-46 -34t-35 -28h-104z" />
    <glyph glyph-name="atilde" unicode="&#xe3;" horiz-adv-x="728" 
d="M191 -10q-49 0 -83.5 24t-52 65.5t-17.5 93.5q0 47 13.5 98.5t40 100t66 88t91 63t115.5 23.5q28 0 58.5 -5.5t57 -13.5t42.5 -15l60 23h69l-65 -306q-2 -11 -6.5 -30t-8 -38.5t-3.5 -32.5q0 -24 10.5 -35.5t25.5 -11.5q13 0 22 5l22 12l25 -48q-18 -13 -41 -27
t-54 -23.5t-75 -9.5q-50 0 -81.5 20.5t-31.5 64.5q0 7 1 19.5t4 28.5h-8q-25 -42 -49 -72t-57.5 -45.5t-89.5 -15.5zM274 83q26 0 52.5 30t48 77.5t31.5 97.5l34 158q-9 11 -23.5 16.5t-31.5 5.5q-31 0 -56.5 -20t-44.5 -53t-31.5 -72.5t-19 -78.5t-6.5 -70
q0 -54 13.5 -72.5t33.5 -18.5zM499 611q-36 0 -64.5 14.5t-52 29t-45.5 14.5q-24 0 -34.5 -16.5t-16.5 -36.5h-71q7 41 24 76.5t45.5 58.5t68.5 25q36 0 62.5 -14.5t48.5 -29t44 -14.5q26 0 36 16.5t14 36.5h71q-6 -39 -21 -76t-41.5 -60.5t-67.5 -23.5z" />
    <glyph glyph-name="adieresis" unicode="&#xe4;" horiz-adv-x="728" 
d="M191 -10q-49 0 -83.5 24t-52 65.5t-17.5 93.5q0 47 13.5 98.5t40 100t66 88t91 63t115.5 23.5q28 0 58.5 -5.5t57 -13.5t42.5 -15l60 23h69l-65 -306q-2 -11 -6.5 -30t-8 -38.5t-3.5 -32.5q0 -24 10.5 -35.5t25.5 -11.5q13 0 22 5l22 12l25 -48q-18 -13 -41 -27
t-54 -23.5t-75 -9.5q-50 0 -81.5 20.5t-31.5 64.5q0 7 1 19.5t4 28.5h-8q-25 -42 -49 -72t-57.5 -45.5t-89.5 -15.5zM274 83q26 0 52.5 30t48 77.5t31.5 97.5l34 158q-9 11 -23.5 16.5t-31.5 5.5q-31 0 -56.5 -20t-44.5 -53t-31.5 -72.5t-19 -78.5t-6.5 -70
q0 -54 13.5 -72.5t33.5 -18.5zM510 612q-32 0 -51 17.5t-19 51.5q0 41 20 65.5t56 24.5q31 0 50.5 -17t19.5 -52q0 -50 -24 -70t-52 -20zM264 612q-32 0 -51 17.5t-19 51.5q0 41 20.5 65.5t55.5 24.5q32 0 51 -17t19 -52q0 -50 -24 -70t-52 -20z" />
    <glyph glyph-name="aring" unicode="&#xe5;" horiz-adv-x="728" 
d="M191 -10q-49 0 -83.5 24t-52 65.5t-17.5 93.5q0 47 13.5 98.5t40 100t66 88t91 63t115.5 23.5q28 0 58.5 -5.5t57 -13.5t42.5 -15l60 23h69l-65 -306q-2 -11 -6.5 -30t-8 -38.5t-3.5 -32.5q0 -24 10.5 -35.5t25.5 -11.5q13 0 22 5l22 12l25 -48q-18 -13 -41 -27
t-54 -23.5t-75 -9.5q-50 0 -81.5 20.5t-31.5 64.5q0 7 1 19.5t4 28.5h-8q-25 -42 -49 -72t-57.5 -45.5t-89.5 -15.5zM274 83q26 0 52.5 30t48 77.5t31.5 97.5l34 158q-9 11 -23.5 16.5t-31.5 5.5q-31 0 -56.5 -20t-44.5 -53t-31.5 -72.5t-19 -78.5t-6.5 -70
q0 -54 13.5 -72.5t33.5 -18.5zM416 581q-50 0 -85 28.5t-35 85.5t35 85.5t85 28.5t85 -28.5t35 -85.5t-35 -85.5t-85 -28.5zM416 640q22 0 38 12t16 43t-16 42.5t-38 11.5t-38 -11.5t-16 -42.5t16 -43t38 -12z" />
    <glyph glyph-name="ae" unicode="&#xe6;" horiz-adv-x="929" 
d="M189 -10q-59 0 -92 26t-46 65.5t-13 79.5q0 50 15 103t43 103.5t68.5 90.5t91.5 64t112 24q57 0 101.5 -16t74.5 -44q43 31 96.5 47t121.5 16q84 0 128.5 -31.5t44.5 -88.5q0 -55 -39.5 -102.5t-108 -76.5t-156.5 -29h-46q-1 -9 -1.5 -18.5t-0.5 -16.5q0 -53 28.5 -81.5
t87.5 -28.5q50 0 88 27.5t59 59.5q8 -10 11.5 -21t3.5 -27q0 -28 -22.5 -57t-70.5 -48.5t-123 -19.5q-110 0 -169 38.5t-79 117.5h-4q-28 -50 -56.5 -85t-63.5 -53t-84 -18zM591 286h8q45 0 81.5 16.5t58.5 46t22 68.5q0 29 -11.5 46.5t-31.5 17.5q-31 0 -57.5 -30
t-44.5 -74.5t-25 -90.5zM259 83q17 0 41.5 23t51 59t46.5 74q6 28 16 64t25.5 71t35.5 59q-8 7 -30.5 21t-55.5 14q-39 0 -69 -30.5t-51 -78t-31.5 -99t-10.5 -92.5q0 -54 9.5 -69.5t22.5 -15.5z" />
    <glyph glyph-name="ccedilla" unicode="&#xe7;" horiz-adv-x="558" 
d="M283 -10q-68 0 -123.5 23t-88.5 68.5t-33 115.5q0 56 22.5 116.5t66.5 113.5t110 86t153 33q89 0 128.5 -33t39.5 -80q0 -22 -13.5 -44t-45 -36.5t-87.5 -14.5q0 57 -18.5 98t-51.5 41q-26 0 -47.5 -28.5t-36.5 -73t-23 -91.5t-8 -85q0 -58 28 -90.5t82 -32.5t85 28
t52 61q8 -8 13.5 -23t5.5 -35q0 -29 -22.5 -56t-68.5 -44t-119 -17zM179 -240q-35 0 -58 4t-43 10l14 65q37 -8 64 -8q31 0 52.5 10.5t21.5 33.5q0 17 -20 27.5t-47 11.5l41 95h64l-19 -43q43 -5 69.5 -28t26.5 -55q0 -43 -23 -70t-60.5 -40t-82.5 -13z" />
    <glyph glyph-name="egrave" unicode="&#xe8;" horiz-adv-x="566" 
d="M282 -10q-66 0 -121.5 22.5t-89 68.5t-33.5 116q0 56 23.5 117t70.5 113.5t116 85.5t159 33q77 0 120.5 -32t43.5 -88q0 -55 -39.5 -101.5t-107.5 -75t-156 -28.5h-39q-1 -9 -1.5 -18.5t-0.5 -16.5q0 -53 26.5 -81.5t81.5 -28.5q50 0 88.5 27.5t59.5 59.5q15 -15 15 -48
q0 -28 -23 -57t-70.5 -48.5t-122.5 -19.5zM234 286h8q43 0 78 16t56 44.5t21 67.5q0 29 -11.5 46t-31.5 17q-28 0 -53.5 -29t-43 -72.5t-23.5 -89.5zM387 606q-26 11 -54.5 30.5t-55.5 42.5t-47.5 43.5t-30.5 33.5l3 10h182q8 -26 23 -56t31 -54.5t27 -36.5l-3 -13h-75z" />
    <glyph glyph-name="eacute" unicode="&#xe9;" horiz-adv-x="566" 
d="M282 -10q-66 0 -121.5 22.5t-89 68.5t-33.5 116q0 56 23.5 117t70.5 113.5t116 85.5t159 33q77 0 120.5 -32t43.5 -88q0 -55 -39.5 -101.5t-107.5 -75t-156 -28.5h-39q-1 -9 -1.5 -18.5t-0.5 -16.5q0 -53 26.5 -81.5t81.5 -28.5q50 0 88.5 27.5t59.5 59.5q15 -15 15 -48
q0 -28 -23 -57t-70.5 -48.5t-122.5 -19.5zM234 286h8q43 0 78 16t56 44.5t21 67.5q0 29 -11.5 46t-31.5 17q-28 0 -53.5 -29t-43 -72.5t-23.5 -89.5zM313 606l3 13l43 45t46.5 53.5l38.5 48.5h194l-3 -10q-12 -12 -38.5 -31.5t-60.5 -41.5t-69.5 -42.5t-64.5 -34.5h-89z" />
    <glyph glyph-name="ecircumflex" unicode="&#xea;" horiz-adv-x="566" 
d="M282 -10q-66 0 -121.5 22.5t-89 68.5t-33.5 116q0 56 23.5 117t70.5 113.5t116 85.5t159 33q77 0 120.5 -32t43.5 -88q0 -55 -39.5 -101.5t-107.5 -75t-156 -28.5h-39q-1 -9 -1.5 -18.5t-0.5 -16.5q0 -53 26.5 -81.5t81.5 -28.5q50 0 88.5 27.5t59.5 59.5q15 -15 15 -48
q0 -28 -23 -57t-70.5 -48.5t-122.5 -19.5zM234 286h8q43 0 78 16t56 44.5t21 67.5q0 29 -11.5 46t-31.5 17q-28 0 -53.5 -29t-43 -72.5t-23.5 -89.5zM173 606l3 13l46.5 44l54 52t48.5 51h165l26.5 -46l31.5 -54.5l27 -46.5l-3 -13h-83q-8 11 -24.5 28l-34.5 34l-30 28
q-18 -11 -42 -28l-46 -34t-35 -28h-104z" />
    <glyph glyph-name="edieresis" unicode="&#xeb;" horiz-adv-x="566" 
d="M282 -10q-66 0 -121.5 22.5t-89 68.5t-33.5 116q0 56 23.5 117t70.5 113.5t116 85.5t159 33q77 0 120.5 -32t43.5 -88q0 -55 -39.5 -101.5t-107.5 -75t-156 -28.5h-39q-1 -9 -1.5 -18.5t-0.5 -16.5q0 -53 26.5 -81.5t81.5 -28.5q50 0 88.5 27.5t59.5 59.5q15 -15 15 -48
q0 -28 -23 -57t-70.5 -48.5t-122.5 -19.5zM234 286h8q43 0 78 16t56 44.5t21 67.5q0 29 -11.5 46t-31.5 17q-28 0 -53.5 -29t-43 -72.5t-23.5 -89.5zM488 612q-32 0 -51 17.5t-19 51.5q0 41 20 65.5t56 24.5q31 0 50.5 -17t19.5 -52q0 -50 -24 -70t-52 -20zM242 612
q-32 0 -51 17.5t-19 51.5q0 41 20.5 65.5t55.5 24.5q32 0 51 -17t19 -52q0 -50 -24 -70t-52 -20z" />
    <glyph glyph-name="igrave" unicode="&#xec;" horiz-adv-x="391" 
d="M207 -10q-70 0 -108 27t-38 82q0 14 2 33.5t10 57.5l39 187q7 35 10 56.5t-6.5 31.5t-40.5 10h-22l11 61h278l-70 -328l-8 -36.5t-4 -23.5t-1 -25q0 -40 36 -40q16 0 25 4.5t25 15.5l28 -37q-25 -30 -61.5 -53t-104.5 -23zM224 606q-26 11 -54.5 30.5t-55.5 42.5
t-47.5 43.5t-30.5 33.5l3 10h182q8 -26 23 -56t31 -54.5t27 -36.5l-3 -13h-75z" />
    <glyph glyph-name="iacute" unicode="&#xed;" horiz-adv-x="391" 
d="M207 -10q-70 0 -108 27t-38 82q0 14 2 33.5t10 57.5l39 187q7 35 10 56.5t-6.5 31.5t-40.5 10h-22l11 61h278l-70 -328l-8 -36.5t-4 -23.5t-1 -25q0 -40 36 -40q16 0 25 4.5t25 15.5l28 -37q-25 -30 -61.5 -53t-104.5 -23zM170 606l3 13l43 45t46.5 53.5l38.5 48.5h194
l-3 -10q-12 -12 -38.5 -31.5t-60.5 -41.5t-69.5 -42.5t-64.5 -34.5h-89z" />
    <glyph glyph-name="icircumflex" unicode="&#xee;" horiz-adv-x="391" 
d="M207 -10q-70 0 -108 27t-38 82q0 14 2 33.5t10 57.5l39 187q7 35 10 56.5t-6.5 31.5t-40.5 10h-22l11 61h278l-70 -328l-8 -36.5t-4 -23.5t-1 -25q0 -40 36 -40q16 0 25 4.5t25 15.5l28 -37q-25 -30 -61.5 -53t-104.5 -23zM27 606l3 13l46.5 44l54 52t48.5 51h165
l26.5 -46l31.5 -54.5l27 -46.5l-3 -13h-83q-8 11 -24.5 28l-34.5 34l-30 28q-18 -11 -42 -28l-46 -34t-35 -28h-104z" />
    <glyph glyph-name="idieresis" unicode="&#xef;" horiz-adv-x="391" 
d="M207 -10q-70 0 -108 27t-38 82q0 14 2 33.5t10 57.5l39 187q7 35 10 56.5t-6.5 31.5t-40.5 10h-22l11 61h278l-70 -328l-8 -36.5t-4 -23.5t-1 -25q0 -40 36 -40q16 0 25 4.5t25 15.5l28 -37q-25 -30 -61.5 -53t-104.5 -23zM358 612q-32 0 -51 17.5t-19 51.5q0 41 20 65.5
t56 24.5q31 0 50.5 -17t19.5 -52q0 -50 -24 -70t-52 -20zM112 612q-32 0 -51 17.5t-19 51.5q0 41 20.5 65.5t55.5 24.5q32 0 51 -17t19 -52q0 -50 -24 -70t-52 -20z" />
    <glyph glyph-name="eth" unicode="&#xf0;" horiz-adv-x="645" 
d="M282 -10q-71 0 -126 23.5t-86.5 73.5t-31.5 128q0 42 17 93.5t51.5 99.5t89 78.5t129.5 30.5q67 0 100 -27q-4 34 -18.5 64t-37.5 55l-169 -72l15 80l94 40q-44 29 -101 45l20 69q47 -10 92.5 -28t87.5 -44l146 63l-17 -81l-66 -28q62 -54 100.5 -130t38.5 -174
q0 -63 -19.5 -126.5t-59.5 -116t-102 -84.5t-147 -32zM293 77q35 0 59 25.5t39 65.5t22 83t7 78q0 57 -17 83t-50 26q-35 0 -59.5 -24.5t-39.5 -62t-22 -77.5t-7 -72q0 -68 18 -96.5t50 -28.5z" />
    <glyph glyph-name="ntilde" unicode="&#xf1;" horiz-adv-x="726" 
d="M535 -10q-67 0 -103.5 30t-36.5 81q0 19 3.5 44t10.5 57l16 80q4 19 9.5 51t5.5 56q0 18 -5.5 37t-28.5 19q-22 0 -43 -24t-39 -60.5t-31.5 -76t-20.5 -70.5l-48 -214h-192l84 395q3 12 5.5 26.5t2.5 24.5q0 13 -6 21t-35 8h-25l11 61h247l1 -93h3q41 56 86.5 79.5
t109.5 23.5q49 0 77 -16.5t39.5 -43t11.5 -57.5q0 -26 -6.5 -57.5l-11.5 -57.5l-19 -99q-5 -27 -9.5 -48.5t-4.5 -41.5q0 -42 34 -42q23 0 55 23l29 -38q-24 -29 -67 -53.5t-109 -24.5zM493 611q-36 0 -64.5 14.5t-52 29t-45.5 14.5q-24 0 -34.5 -16.5t-16.5 -36.5h-71
q7 41 24 76.5t45.5 58.5t68.5 25q36 0 62.5 -14.5t48.5 -29t44 -14.5q26 0 36 16.5t14 36.5h71q-6 -39 -21 -76t-41.5 -60.5t-67.5 -23.5z" />
    <glyph glyph-name="ograve" unicode="&#xf2;" horiz-adv-x="650" 
d="M265 -10q-100 0 -163.5 53t-63.5 159q0 57 21 117.5t64.5 111.5t109 83t155.5 32q61 0 111.5 -22t81 -68.5t30.5 -121.5q0 -55 -20.5 -115t-62.5 -112t-107.5 -84.5t-155.5 -32.5zM288 77q27 0 48.5 21.5t38 56.5t27.5 75.5t16.5 79t5.5 67.5q0 47 -16 68.5t-44 21.5
q-31 0 -56 -30t-43 -76.5t-28 -96.5t-10 -90q0 -51 16 -74t45 -23zM379 606q-26 11 -54.5 30.5t-55.5 42.5t-47.5 43.5t-30.5 33.5l3 10h182q8 -26 23 -56t31 -54.5t27 -36.5l-3 -13h-75z" />
    <glyph glyph-name="oacute" unicode="&#xf3;" horiz-adv-x="650" 
d="M265 -10q-100 0 -163.5 53t-63.5 159q0 57 21 117.5t64.5 111.5t109 83t155.5 32q61 0 111.5 -22t81 -68.5t30.5 -121.5q0 -55 -20.5 -115t-62.5 -112t-107.5 -84.5t-155.5 -32.5zM288 77q27 0 48.5 21.5t38 56.5t27.5 75.5t16.5 79t5.5 67.5q0 47 -16 68.5t-44 21.5
q-31 0 -56 -30t-43 -76.5t-28 -96.5t-10 -90q0 -51 16 -74t45 -23zM343 606l3 13l43 45t46.5 53.5l38.5 48.5h194l-3 -10q-12 -12 -38.5 -31.5t-60.5 -41.5t-69.5 -42.5t-64.5 -34.5h-89z" />
    <glyph glyph-name="ocircumflex" unicode="&#xf4;" horiz-adv-x="650" 
d="M265 -10q-100 0 -163.5 53t-63.5 159q0 57 21 117.5t64.5 111.5t109 83t155.5 32q61 0 111.5 -22t81 -68.5t30.5 -121.5q0 -55 -20.5 -115t-62.5 -112t-107.5 -84.5t-155.5 -32.5zM288 77q27 0 48.5 21.5t38 56.5t27.5 75.5t16.5 79t5.5 67.5q0 47 -16 68.5t-44 21.5
q-31 0 -56 -30t-43 -76.5t-28 -96.5t-10 -90q0 -51 16 -74t45 -23zM199 606l3 13l46.5 44l54 52t48.5 51h165l26.5 -46l31.5 -54.5l27 -46.5l-3 -13h-83q-8 11 -24.5 28l-34.5 34l-30 28q-18 -11 -42 -28l-46 -34t-35 -28h-104z" />
    <glyph glyph-name="otilde" unicode="&#xf5;" horiz-adv-x="650" 
d="M265 -10q-100 0 -163.5 53t-63.5 159q0 57 21 117.5t64.5 111.5t109 83t155.5 32q61 0 111.5 -22t81 -68.5t30.5 -121.5q0 -55 -20.5 -115t-62.5 -112t-107.5 -84.5t-155.5 -32.5zM288 77q27 0 48.5 21.5t38 56.5t27.5 75.5t16.5 79t5.5 67.5q0 47 -16 68.5t-44 21.5
q-31 0 -56 -30t-43 -76.5t-28 -96.5t-10 -90q0 -51 16 -74t45 -23zM495 611q-36 0 -64.5 14.5t-52 29t-45.5 14.5q-24 0 -34.5 -16.5t-16.5 -36.5h-71q7 41 24 76.5t45.5 58.5t68.5 25q36 0 62.5 -14.5t48.5 -29t44 -14.5q26 0 36 16.5t14 36.5h71q-6 -39 -21 -76
t-41.5 -60.5t-67.5 -23.5z" />
    <glyph glyph-name="odieresis" unicode="&#xf6;" horiz-adv-x="650" 
d="M265 -10q-100 0 -163.5 53t-63.5 159q0 57 21 117.5t64.5 111.5t109 83t155.5 32q61 0 111.5 -22t81 -68.5t30.5 -121.5q0 -55 -20.5 -115t-62.5 -112t-107.5 -84.5t-155.5 -32.5zM288 77q27 0 48.5 21.5t38 56.5t27.5 75.5t16.5 79t5.5 67.5q0 47 -16 68.5t-44 21.5
q-31 0 -56 -30t-43 -76.5t-28 -96.5t-10 -90q0 -51 16 -74t45 -23zM531 612q-32 0 -51 17.5t-19 51.5q0 41 20 65.5t56 24.5q31 0 50.5 -17t19.5 -52q0 -50 -24 -70t-52 -20zM285 612q-32 0 -51 17.5t-19 51.5q0 41 20.5 65.5t55.5 24.5q32 0 51 -17t19 -52q0 -50 -24 -70
t-52 -20z" />
    <glyph glyph-name="divide" unicode="&#xf7;" horiz-adv-x="569" 
d="M285 492q-26 0 -43 14.5t-17 50.5q0 37 17 51t43 14q25 0 42 -14t17 -51q0 -36 -17 -50.5t-42 -14.5zM60 318v79h449v-79h-449zM285 93q-26 0 -43 14.5t-17 50.5q0 37 17 51t43 14q25 0 42 -14t17 -51q0 -36 -17 -50.5t-42 -14.5z" />
    <glyph glyph-name="oslash" unicode="&#xf8;" horiz-adv-x="650" 
d="M19 -50l77 98q-28 26 -43 64.5t-15 89.5q0 57 21 117.5t64.5 111.5t109 83t155.5 32q50 0 91 -13l42 53h88l-68 -86q32 -26 51 -67t19 -99q0 -55 -20.5 -115t-62.5 -112t-107.5 -84.5t-155.5 -32.5q-62 0 -110 20l-47 -60h-89zM364 467q-27 0 -49.5 -23.5t-40 -61.5
t-29 -81.5t-16.5 -83.5l180 227q-15 23 -45 23zM288 77q31 0 55 27.5t40.5 70.5t26.5 89.5t13 85.5l-187 -237q15 -36 52 -36z" />
    <glyph glyph-name="ugrave" unicode="&#xf9;" horiz-adv-x="728" 
d="M536 -10q-55 0 -85 13t-41.5 34t-11.5 46q0 20 5 37h-8q-30 -38 -60 -67.5t-66 -45.5t-86 -16q-45 0 -71 15.5t-37 41t-11 54.5q0 25 6 55t10 55l34 177q5 25 7 38t2 21q0 14 -6 20.5t-35 6.5h-25l11 61h271l-61 -299q-6 -28 -9.5 -53t-3.5 -42q0 -38 39 -38q24 0 49 30
t45 75.5t30 93.5l50 233h194l-71 -336l-7 -39t-3 -38q0 -19 10.5 -29.5t26.5 -10.5q15 0 27 6t28 17l29 -37q-26 -30 -66 -54.5t-110 -24.5zM398 606q-26 11 -54.5 30.5t-55.5 42.5t-47.5 43.5t-30.5 33.5l3 10h182q8 -26 23 -56t31 -54.5t27 -36.5l-3 -13h-75z" />
    <glyph glyph-name="uacute" unicode="&#xfa;" horiz-adv-x="728" 
d="M536 -10q-55 0 -85 13t-41.5 34t-11.5 46q0 20 5 37h-8q-30 -38 -60 -67.5t-66 -45.5t-86 -16q-45 0 -71 15.5t-37 41t-11 54.5q0 25 6 55t10 55l34 177q5 25 7 38t2 21q0 14 -6 20.5t-35 6.5h-25l11 61h271l-61 -299q-6 -28 -9.5 -53t-3.5 -42q0 -38 39 -38q24 0 49 30
t45 75.5t30 93.5l50 233h194l-71 -336l-7 -39t-3 -38q0 -19 10.5 -29.5t26.5 -10.5q15 0 27 6t28 17l29 -37q-26 -30 -66 -54.5t-110 -24.5zM348 606l3 13l43 45t46.5 53.5l38.5 48.5h194l-3 -10q-12 -12 -38.5 -31.5t-60.5 -41.5t-69.5 -42.5t-64.5 -34.5h-89z" />
    <glyph glyph-name="ucircumflex" unicode="&#xfb;" horiz-adv-x="728" 
d="M536 -10q-55 0 -85 13t-41.5 34t-11.5 46q0 20 5 37h-8q-30 -38 -60 -67.5t-66 -45.5t-86 -16q-45 0 -71 15.5t-37 41t-11 54.5q0 25 6 55t10 55l34 177q5 25 7 38t2 21q0 14 -6 20.5t-35 6.5h-25l11 61h271l-61 -299q-6 -28 -9.5 -53t-3.5 -42q0 -38 39 -38q24 0 49 30
t45 75.5t30 93.5l50 233h194l-71 -336l-7 -39t-3 -38q0 -19 10.5 -29.5t26.5 -10.5q15 0 27 6t28 17l29 -37q-26 -30 -66 -54.5t-110 -24.5zM223 606l3 13l46.5 44l54 52t48.5 51h165l26.5 -46l31.5 -54.5l27 -46.5l-3 -13h-83q-8 11 -24.5 28l-34.5 34l-30 28
q-18 -11 -42 -28l-46 -34t-35 -28h-104z" />
    <glyph glyph-name="udieresis" unicode="&#xfc;" horiz-adv-x="728" 
d="M536 -10q-55 0 -85 13t-41.5 34t-11.5 46q0 20 5 37h-8q-30 -38 -60 -67.5t-66 -45.5t-86 -16q-45 0 -71 15.5t-37 41t-11 54.5q0 25 6 55t10 55l34 177q5 25 7 38t2 21q0 14 -6 20.5t-35 6.5h-25l11 61h271l-61 -299q-6 -28 -9.5 -53t-3.5 -42q0 -38 39 -38q24 0 49 30
t45 75.5t30 93.5l50 233h194l-71 -336l-7 -39t-3 -38q0 -19 10.5 -29.5t26.5 -10.5q15 0 27 6t28 17l29 -37q-26 -30 -66 -54.5t-110 -24.5zM547 612q-32 0 -51 17.5t-19 51.5q0 41 20 65.5t56 24.5q31 0 50.5 -17t19.5 -52q0 -50 -24 -70t-52 -20zM301 612q-32 0 -51 17.5
t-19 51.5q0 41 20.5 65.5t55.5 24.5q32 0 51 -17t19 -52q0 -50 -24 -70t-52 -20z" />
    <glyph glyph-name="yacute" unicode="&#xfd;" horiz-adv-x="629" 
d="M-61 -240q-31 0 -60 5t-52 13l15 62q12 -4 35.5 -9t54.5 -5q58 0 102.5 14t83.5 43t78 73l-120 466q-7 30 -23.5 41.5t-45.5 11.5h-10l15 61h233l57 -251q6 -26 11.5 -62.5t9.5 -70t5 -50.5h3q41 51 76 100.5t56 93.5t21 76q0 43 -20.5 61.5t-51.5 18.5q0 41 25.5 67.5
t65.5 26.5q47 0 70 -23.5t23 -61.5q0 -78 -53 -171.5t-146 -215.5l-106.5 -134.5t-98.5 -98.5t-110.5 -60.5t-142.5 -20.5zM236 606l3 13l43 45t46.5 53.5l38.5 48.5h194l-3 -10q-12 -12 -38.5 -31.5t-60.5 -41.5t-69.5 -42.5t-64.5 -34.5h-89z" />
    <glyph glyph-name="thorn" unicode="&#xfe;" horiz-adv-x="668" 
d="M-35 -240l183 851q5 22 6.5 35.5t1.5 25.5q0 17 -10 22t-30 5h-28l12 61h277l-32 -153q-3 -15 -13.5 -44t-23.5 -61.5l-23.5 -59.5t-15.5 -38h8q27 44 51.5 76t58 49t84.5 17q70 0 114.5 -46.5t44.5 -134.5q0 -64 -19.5 -130.5t-59 -121.5t-99.5 -89t-140 -34
q-31 0 -58 6.5t-47 16.5l-2 -17.5t-6 -30.5l-14 -71l-3.5 -22t-1.5 -21q0 -21 14 -25.5t32 -4.5h51l-9 -61h-303zM295 68q35 0 62.5 29t46.5 73.5t29 93t10 88.5q0 38 -9 69.5t-37 31.5q-22 0 -43 -19t-39 -49t-31 -63t-19 -61l-36 -171q9 -7 28 -14.5t38 -7.5z" />
    <glyph glyph-name="ydieresis" unicode="&#xff;" horiz-adv-x="629" 
d="M-61 -240q-31 0 -60 5t-52 13l15 62q12 -4 35.5 -9t54.5 -5q58 0 102.5 14t83.5 43t78 73l-120 466q-7 30 -23.5 41.5t-45.5 11.5h-10l15 61h233l57 -251q6 -26 11.5 -62.5t9.5 -70t5 -50.5h3q41 51 76 100.5t56 93.5t21 76q0 43 -20.5 61.5t-51.5 18.5q0 41 25.5 67.5
t65.5 26.5q47 0 70 -23.5t23 -61.5q0 -78 -53 -171.5t-146 -215.5l-106.5 -134.5t-98.5 -98.5t-110.5 -60.5t-142.5 -20.5zM455 612q-32 0 -51 17.5t-19 51.5q0 41 20 65.5t56 24.5q31 0 50.5 -17t19.5 -52q0 -50 -24 -70t-52 -20zM209 612q-32 0 -51 17.5t-19 51.5
q0 41 20.5 65.5t55.5 24.5q32 0 51 -17t19 -52q0 -50 -24 -70t-52 -20z" />
    <glyph glyph-name="Amacron" unicode="&#x100;" horiz-adv-x="788" 
d="M-44 0l14 61h22q27 0 43 16t43 62l332 575h181l76 -567q5 -31 18 -58.5t44 -27.5h22l-13 -61h-373l13 61h23q32 0 50.5 8t18.5 27q0 8 -0.5 15.5t-1.5 15.5l-11 105h-231l-42 -79q-19 -35 -19 -56q0 -36 56 -36h18l-13 -61h-270zM355 473l-92 -172h187l-16 163l-7 75
t-4 67q-9 -24 -18 -42.5t-20.5 -39zM356 771l20 94h290l-20 -94h-290z" />
    <glyph glyph-name="amacron" unicode="&#x101;" horiz-adv-x="728" 
d="M191 -10q-49 0 -83.5 24t-52 65.5t-17.5 93.5q0 47 13.5 98.5t40 100t66 88t91 63t115.5 23.5q28 0 58.5 -5.5t57 -13.5t42.5 -15l60 23h69l-65 -306q-2 -11 -6.5 -30t-8 -38.5t-3.5 -32.5q0 -24 10.5 -35.5t25.5 -11.5q13 0 22 5l22 12l25 -48q-18 -13 -41 -27
t-54 -23.5t-75 -9.5q-50 0 -81.5 20.5t-31.5 64.5q0 7 1 19.5t4 28.5h-8q-25 -42 -49 -72t-57.5 -45.5t-89.5 -15.5zM274 83q26 0 52.5 30t48 77.5t31.5 97.5l34 158q-9 11 -23.5 16.5t-31.5 5.5q-31 0 -56.5 -20t-44.5 -53t-31.5 -72.5t-19 -78.5t-6.5 -70
q0 -54 13.5 -72.5t33.5 -18.5zM236 606l20 94h290l-20 -94h-290z" />
    <glyph glyph-name="Abreve" unicode="&#x102;" horiz-adv-x="788" 
d="M-44 0l14 61h22q27 0 43 16t43 62l332 575h181l76 -567q5 -31 18 -58.5t44 -27.5h22l-13 -61h-373l13 61h23q32 0 50.5 8t18.5 27q0 8 -0.5 15.5t-1.5 15.5l-11 105h-231l-42 -79q-19 -35 -19 -56q0 -36 56 -36h18l-13 -61h-270zM355 473l-92 -172h187l-16 163l-7 75
t-4 67q-9 -24 -18 -42.5t-20.5 -39zM504 771q-52 0 -83.5 22.5t-46.5 61.5t-19 88h81q4 -34 26 -51t56 -17q35 0 61.5 16t40.5 52h74q-7 -39 -29.5 -79t-62 -66.5t-98.5 -26.5z" />
    <glyph glyph-name="abreve" unicode="&#x103;" horiz-adv-x="728" 
d="M191 -10q-49 0 -83.5 24t-52 65.5t-17.5 93.5q0 47 13.5 98.5t40 100t66 88t91 63t115.5 23.5q28 0 58.5 -5.5t57 -13.5t42.5 -15l60 23h69l-65 -306q-2 -11 -6.5 -30t-8 -38.5t-3.5 -32.5q0 -24 10.5 -35.5t25.5 -11.5q13 0 22 5l22 12l25 -48q-18 -13 -41 -27
t-54 -23.5t-75 -9.5q-50 0 -81.5 20.5t-31.5 64.5q0 7 1 19.5t4 28.5h-8q-25 -42 -49 -72t-57.5 -45.5t-89.5 -15.5zM274 83q26 0 52.5 30t48 77.5t31.5 97.5l34 158q-9 11 -23.5 16.5t-31.5 5.5q-31 0 -56.5 -20t-44.5 -53t-31.5 -72.5t-19 -78.5t-6.5 -70
q0 -54 13.5 -72.5t33.5 -18.5zM377 606q-52 0 -83.5 22.5t-46.5 61.5t-19 88h81q4 -34 26 -51t56 -17q35 0 61.5 16t40.5 52h74q-7 -39 -29.5 -79t-62 -66.5t-98.5 -26.5z" />
    <glyph glyph-name="Aogonek" unicode="&#x104;" horiz-adv-x="788" 
d="M-44 0l14 61h22q27 0 43 16t43 62l332 575h181l76 -567q5 -31 18 -58.5t44 -27.5h22l-13 -61h-373l13 61h23q32 0 50.5 8t18.5 27q0 8 -0.5 15.5t-1.5 15.5l-11 105h-231l-42 -79q-19 -35 -19 -56q0 -36 56 -36h18l-13 -61h-270zM355 473l-92 -172h187l-16 163l-7 75
t-4 67q-9 -24 -18 -42.5t-20.5 -39zM510 -240q-64 0 -100 26.5t-36 75.5q0 54 41.5 88.5t105.5 49.5h92q-23 -6 -51 -20.5t-48 -37.5t-20 -54q0 -22 16 -35.5t41 -13.5q14 0 30 2t35 6l-14 -71q-42 -16 -92 -16z" />
    <glyph glyph-name="aogonek" unicode="&#x105;" horiz-adv-x="728" 
d="M191 -10q-49 0 -83.5 24t-52 65.5t-17.5 93.5q0 47 13.5 98.5t40 100t66 88t91 63t115.5 23.5q28 0 58.5 -5.5t57 -13.5t42.5 -15l60 23h69l-65 -306q-2 -11 -6.5 -30t-8 -38.5t-3.5 -32.5q0 -24 10.5 -35.5t25.5 -11.5q13 0 22 5l22 12l25 -48q-18 -13 -41 -27
t-54 -23.5t-75 -9.5q-50 0 -81.5 20.5t-31.5 64.5q0 7 1 19.5t4 28.5h-8q-25 -42 -49 -72t-57.5 -45.5t-89.5 -15.5zM274 83q26 0 52.5 30t48 77.5t31.5 97.5l34 158q-9 11 -23.5 16.5t-31.5 5.5q-31 0 -56.5 -20t-44.5 -53t-31.5 -72.5t-19 -78.5t-6.5 -70
q0 -54 13.5 -72.5t33.5 -18.5zM480 -240q-64 0 -100 26.5t-36 75.5q0 54 41.5 88.5t105.5 49.5h92q-23 -6 -51 -20.5t-48 -37.5t-20 -54q0 -22 16 -35.5t41 -13.5q14 0 30 2t35 6l-14 -71q-42 -16 -92 -16z" />
    <glyph glyph-name="Cacute" unicode="&#x106;" horiz-adv-x="698" 
d="M394 -10q-153 0 -238 71t-85 199q0 90 33 174.5t94 151.5t146.5 106t190.5 39q108 0 158 -33t50 -83q0 -55 -49.5 -81.5t-123.5 -26.5q0 21 -2.5 47.5t-10.5 50t-22.5 39t-38.5 15.5q-41 0 -75 -24.5t-60.5 -65.5t-44.5 -91t-27.5 -102.5t-9.5 -99.5q0 -188 169 -188
q68 0 110 28.5t67 62.5q6 -4 13 -14t7 -21q0 -38 -30.5 -73.5t-87 -58t-133.5 -22.5zM460 771l3 13l43 45t46.5 53.5l38.5 48.5h194l-3 -10q-12 -12 -38.5 -31.5t-60.5 -41.5t-69.5 -42.5t-64.5 -34.5h-89z" />
    <glyph glyph-name="cacute" unicode="&#x107;" horiz-adv-x="558" 
d="M283 -10q-68 0 -123.5 23t-88.5 68.5t-33 115.5q0 56 22.5 116.5t66.5 113.5t110 86t153 33q89 0 128.5 -33t39.5 -80q0 -22 -13.5 -44t-45 -36.5t-87.5 -14.5q0 57 -18.5 98t-51.5 41q-26 0 -47.5 -28.5t-36.5 -73t-23 -91.5t-8 -85q0 -58 28 -90.5t82 -32.5t85 28
t52 61q8 -8 13.5 -23t5.5 -35q0 -29 -22.5 -56t-68.5 -44t-119 -17zM331 606l3 13l43 45t46.5 53.5l38.5 48.5h194l-3 -10q-12 -12 -38.5 -31.5t-60.5 -41.5t-69.5 -42.5t-64.5 -34.5h-89z" />
    <glyph glyph-name="Ccircumflex" unicode="&#x108;" horiz-adv-x="698" 
d="M394 -10q-153 0 -238 71t-85 199q0 90 33 174.5t94 151.5t146.5 106t190.5 39q108 0 158 -33t50 -83q0 -55 -49.5 -81.5t-123.5 -26.5q0 21 -2.5 47.5t-10.5 50t-22.5 39t-38.5 15.5q-41 0 -75 -24.5t-60.5 -65.5t-44.5 -91t-27.5 -102.5t-9.5 -99.5q0 -188 169 -188
q68 0 110 28.5t67 62.5q6 -4 13 -14t7 -21q0 -38 -30.5 -73.5t-87 -58t-133.5 -22.5zM307 771l3 13l46.5 44l54 52t48.5 51h165l26.5 -46l31.5 -54.5l27 -46.5l-3 -13h-83q-8 11 -24.5 28l-34.5 34l-30 28q-18 -11 -42 -28l-46 -34t-35 -28h-104z" />
    <glyph glyph-name="ccircumflex" unicode="&#x109;" horiz-adv-x="558" 
d="M283 -10q-68 0 -123.5 23t-88.5 68.5t-33 115.5q0 56 22.5 116.5t66.5 113.5t110 86t153 33q89 0 128.5 -33t39.5 -80q0 -22 -13.5 -44t-45 -36.5t-87.5 -14.5q0 57 -18.5 98t-51.5 41q-26 0 -47.5 -28.5t-36.5 -73t-23 -91.5t-8 -85q0 -58 28 -90.5t82 -32.5t85 28
t52 61q8 -8 13.5 -23t5.5 -35q0 -29 -22.5 -56t-68.5 -44t-119 -17zM188 606l3 13l46.5 44l54 52t48.5 51h165l26.5 -46l31.5 -54.5l27 -46.5l-3 -13h-83q-8 11 -24.5 28l-34.5 34l-30 28q-18 -11 -42 -28l-46 -34t-35 -28h-104z" />
    <glyph glyph-name="Cdot" unicode="&#x10a;" horiz-adv-x="698" 
d="M394 -10q-153 0 -238 71t-85 199q0 90 33 174.5t94 151.5t146.5 106t190.5 39q108 0 158 -33t50 -83q0 -55 -49.5 -81.5t-123.5 -26.5q0 21 -2.5 47.5t-10.5 50t-22.5 39t-38.5 15.5q-41 0 -75 -24.5t-60.5 -65.5t-44.5 -91t-27.5 -102.5t-9.5 -99.5q0 -188 169 -188
q68 0 110 28.5t67 62.5q6 -4 13 -14t7 -21q0 -38 -30.5 -73.5t-87 -58t-133.5 -22.5zM520 784q-39 0 -66.5 16.5t-27.5 50.5q0 35 17 55t43.5 28t56.5 8q38 0 68 -15.5t30 -53.5q0 -28 -17.5 -48t-45 -30.5t-58.5 -10.5z" />
    <glyph glyph-name="cdot" unicode="&#x10b;" horiz-adv-x="558" 
d="M283 -10q-68 0 -123.5 23t-88.5 68.5t-33 115.5q0 56 22.5 116.5t66.5 113.5t110 86t153 33q89 0 128.5 -33t39.5 -80q0 -22 -13.5 -44t-45 -36.5t-87.5 -14.5q0 57 -18.5 98t-51.5 41q-26 0 -47.5 -28.5t-36.5 -73t-23 -91.5t-8 -85q0 -58 28 -90.5t82 -32.5t85 28
t52 61q8 -8 13.5 -23t5.5 -35q0 -29 -22.5 -56t-68.5 -44t-119 -17zM389 619q-39 0 -66.5 16.5t-27.5 50.5q0 35 17 55t43.5 28t56.5 8q38 0 68 -15.5t30 -53.5q0 -28 -17.5 -48t-45 -30.5t-58.5 -10.5z" />
    <glyph glyph-name="Ccaron" unicode="&#x10c;" horiz-adv-x="698" 
d="M394 -10q-153 0 -238 71t-85 199q0 90 33 174.5t94 151.5t146.5 106t190.5 39q108 0 158 -33t50 -83q0 -55 -49.5 -81.5t-123.5 -26.5q0 21 -2.5 47.5t-10.5 50t-22.5 39t-38.5 15.5q-41 0 -75 -24.5t-60.5 -65.5t-44.5 -91t-27.5 -102.5t-9.5 -99.5q0 -188 169 -188
q68 0 110 28.5t67 62.5q6 -4 13 -14t7 -21q0 -38 -30.5 -73.5t-87 -58t-133.5 -22.5zM440 771q-9 18 -24.5 45.5l-32 55l-28.5 46.5l3 13h83q9 -10 26 -27t35.5 -33.5t30.5 -28.5l41 28.5t44.5 33.5l34.5 27h104l-3 -13l-46.5 -44.5l-55 -52.5t-47.5 -50h-165z" />
    <glyph glyph-name="ccaron" unicode="&#x10d;" horiz-adv-x="558" 
d="M283 -10q-68 0 -123.5 23t-88.5 68.5t-33 115.5q0 56 22.5 116.5t66.5 113.5t110 86t153 33q89 0 128.5 -33t39.5 -80q0 -22 -13.5 -44t-45 -36.5t-87.5 -14.5q0 57 -18.5 98t-51.5 41q-26 0 -47.5 -28.5t-36.5 -73t-23 -91.5t-8 -85q0 -58 28 -90.5t82 -32.5t85 28
t52 61q8 -8 13.5 -23t5.5 -35q0 -29 -22.5 -56t-68.5 -44t-119 -17zM288 606q-9 18 -24.5 45.5l-32 55l-28.5 46.5l3 13h83q9 -10 26 -27t35.5 -33.5t30.5 -28.5l41 28.5t44.5 33.5l34.5 27h104l-3 -13l-46.5 -44.5l-55 -52.5t-47.5 -50h-165z" />
    <glyph glyph-name="Dcaron" unicode="&#x10e;" horiz-adv-x="800" 
d="M-26 0l13 61h15q29 0 54.5 9t32.5 42l98 466q4 16 6.5 27.5t2.5 17.5q0 18 -18 24t-53 6h-13l13 61h349q149 0 233 -69.5t84 -202.5q0 -89 -29 -169t-85 -141.5t-137.5 -96.5t-186.5 -35h-379zM279 70h16q90 0 154 48.5t97.5 133.5t33.5 196q0 101 -44 149t-120 48h-17z
M381 771q-9 18 -24.5 45.5l-32 55l-28.5 46.5l3 13h83q9 -10 26 -27t35.5 -33.5t30.5 -28.5l41 28.5t44.5 33.5l34.5 27h104l-3 -13l-46.5 -44.5l-55 -52.5t-47.5 -50h-165z" />
    <glyph glyph-name="dcaron" unicode="&#x10f;" horiz-adv-x="728" 
d="M197 -10q-57 0 -92 26t-51 68t-16 89t13.5 98.5t39.5 100t64 88t87.5 63t109.5 23.5q29 0 56 -7t46 -18q2 13 6 34t6 30l8 34q3 14 5 26.5t2 23.5q0 13 -7 21.5t-43 8.5h-24l11 61h281l-116 -545l-10 -52t-5 -42q0 -21 10 -30.5t26 -9.5q13 0 25 6.5l19 10.5l25 -46
q-29 -23 -68.5 -42.5t-101.5 -19.5q-49 0 -81 20t-32 67q0 17 2 29t3 17h-6q-40 -77 -84.5 -105t-107.5 -28zM274 83q26 0 52.5 30t47.5 77t32 98l34 158q-10 10 -27.5 16t-31.5 6q-30 0 -54 -20.5t-43 -53.5t-31.5 -72.5t-19 -78t-6.5 -69.5q0 -53 13.5 -72t33.5 -19z
M727 600l4 13l34 73t28 74h155l-4 -10q-21 -31 -59 -73t-79 -77h-79z" />
    <glyph glyph-name="Dcroat" unicode="&#x110;" horiz-adv-x="800" 
d="M-26 0l13 61h15q29 0 54.5 9t32.5 42l48 227h-72l14 69h72l36 170q4 16 6.5 27.5t2.5 17.5q0 18 -18 24t-53 6h-13l13 61h349q149 0 233 -69.5t84 -202.5q0 -89 -29 -169t-85 -141.5t-137.5 -96.5t-186.5 -35h-379zM279 70h16q90 0 154 48.5t97.5 133.5t33.5 196
q0 101 -44 149t-120 48h-17l-49 -237h95l-14 -69h-96z" />
    <glyph glyph-name="dcroat" unicode="&#x111;" horiz-adv-x="727" 
d="M196 -10q-57 0 -92 26t-51 68t-16 89q0 53 20 111t59 109.5t95 83.5t129 32q59 0 101 -24q4 20 11 46t10 36h-143l13 57h143l4 19q5 26 0 41t-39 15h-34l11 61h281l-29 -136h85l-13 -57h-84l-75 -352l-11 -56.5t-4 -37.5q0 -21 10.5 -30.5t25.5 -9.5q14 0 25.5 6.5
l18.5 10.5l25 -46q-29 -23 -68.5 -42.5t-101.5 -19.5q-49 0 -80.5 20.5t-31.5 69.5q0 11 1 19.5t4 23.5h-6q-40 -77 -85 -105t-108 -28zM273 83q26 0 53 30t48.5 77t30.5 98l25 121q-10 10 -28.5 16t-32.5 6q-34 0 -60.5 -27t-45 -68t-28 -85t-9.5 -77q0 -53 13.5 -72
t33.5 -19z" />
    <glyph glyph-name="Emacron" unicode="&#x112;" horiz-adv-x="661" 
d="M-25 0l13 61h13q31 0 56.5 10.5t32.5 44.5l102 478q2 8 3.5 16t1.5 14q0 17 -20 23t-52 6h-13l12 61h572l-37 -194h-85q1 5 2 18l2 25.5t1 14.5q0 28 -16 47.5t-55 19.5h-107l-50 -238h216l-15 -68h-217l-57 -270h133q47 0 74 24.5t39 57.5l16 43h85l-48 -194h-602z
M305 771l20 94h290l-20 -94h-290z" />
    <glyph glyph-name="emacron" unicode="&#x113;" horiz-adv-x="566" 
d="M282 -10q-66 0 -121.5 22.5t-89 68.5t-33.5 116q0 56 23.5 117t70.5 113.5t116 85.5t159 33q77 0 120.5 -32t43.5 -88q0 -55 -39.5 -101.5t-107.5 -75t-156 -28.5h-39q-1 -9 -1.5 -18.5t-0.5 -16.5q0 -53 26.5 -81.5t81.5 -28.5q50 0 88.5 27.5t59.5 59.5q15 -15 15 -48
q0 -28 -23 -57t-70.5 -48.5t-122.5 -19.5zM234 286h8q43 0 78 16t56 44.5t21 67.5q0 29 -11.5 46t-31.5 17q-28 0 -53.5 -29t-43 -72.5t-23.5 -89.5zM245 606l20 94h290l-20 -94h-290z" />
    <glyph glyph-name="Ebreve" unicode="&#x114;" horiz-adv-x="661" 
d="M-25 0l13 61h13q31 0 56.5 10.5t32.5 44.5l102 478q2 8 3.5 16t1.5 14q0 17 -20 23t-52 6h-13l12 61h572l-37 -194h-85q1 5 2 18l2 25.5t1 14.5q0 28 -16 47.5t-55 19.5h-107l-50 -238h216l-15 -68h-217l-57 -270h133q47 0 74 24.5t39 57.5l16 43h85l-48 -194h-602z
M435 771q-52 0 -83.5 22.5t-46.5 61.5t-19 88h81q4 -34 26 -51t56 -17q35 0 61.5 16t40.5 52h74q-7 -39 -29.5 -79t-62 -66.5t-98.5 -26.5z" />
    <glyph glyph-name="ebreve" unicode="&#x115;" horiz-adv-x="566" 
d="M282 -10q-66 0 -121.5 22.5t-89 68.5t-33.5 116q0 56 23.5 117t70.5 113.5t116 85.5t159 33q77 0 120.5 -32t43.5 -88q0 -55 -39.5 -101.5t-107.5 -75t-156 -28.5h-39q-1 -9 -1.5 -18.5t-0.5 -16.5q0 -53 26.5 -81.5t81.5 -28.5q50 0 88.5 27.5t59.5 59.5q15 -15 15 -48
q0 -28 -23 -57t-70.5 -48.5t-122.5 -19.5zM234 286h8q43 0 78 16t56 44.5t21 67.5q0 29 -11.5 46t-31.5 17q-28 0 -53.5 -29t-43 -72.5t-23.5 -89.5zM380 606q-52 0 -83.5 22.5t-46.5 61.5t-19 88h81q4 -34 26 -51t56 -17q35 0 61.5 16t40.5 52h74q-7 -39 -29.5 -79
t-62 -66.5t-98.5 -26.5z" />
    <glyph glyph-name="Edotaccent" unicode="&#x116;" horiz-adv-x="661" 
d="M-25 0l13 61h13q31 0 56.5 10.5t32.5 44.5l102 478q2 8 3.5 16t1.5 14q0 17 -20 23t-52 6h-13l12 61h572l-37 -194h-85q1 5 2 18l2 25.5t1 14.5q0 28 -16 47.5t-55 19.5h-107l-50 -238h216l-15 -68h-217l-57 -270h133q47 0 74 24.5t39 57.5l16 43h85l-48 -194h-602z
M428 770q-39 0 -66.5 16.5t-27.5 50.5q0 35 17 55t43.5 28t56.5 8q38 0 68 -15.5t30 -53.5q0 -28 -17.5 -48t-45 -30.5t-58.5 -10.5z" />
    <glyph glyph-name="edotaccent" unicode="&#x117;" horiz-adv-x="566" 
d="M282 -10q-66 0 -121.5 22.5t-89 68.5t-33.5 116q0 56 23.5 117t70.5 113.5t116 85.5t159 33q77 0 120.5 -32t43.5 -88q0 -55 -39.5 -101.5t-107.5 -75t-156 -28.5h-39q-1 -9 -1.5 -18.5t-0.5 -16.5q0 -53 26.5 -81.5t81.5 -28.5q50 0 88.5 27.5t59.5 59.5q15 -15 15 -48
q0 -28 -23 -57t-70.5 -48.5t-122.5 -19.5zM234 286h8q43 0 78 16t56 44.5t21 67.5q0 29 -11.5 46t-31.5 17q-28 0 -53.5 -29t-43 -72.5t-23.5 -89.5zM370 619q-39 0 -66.5 16.5t-27.5 50.5q0 35 17 55t43.5 28t56.5 8q38 0 68 -15.5t30 -53.5q0 -28 -17.5 -48t-45 -30.5
t-58.5 -10.5z" />
    <glyph glyph-name="Eogonek" unicode="&#x118;" horiz-adv-x="661" 
d="M-25 0l13 61h13q31 0 56.5 10.5t32.5 44.5l102 478q2 8 3.5 16t1.5 14q0 17 -20 23t-52 6h-13l12 61h572l-37 -194h-85q1 5 2 18l2 25.5t1 14.5q0 28 -16 47.5t-55 19.5h-107l-50 -238h216l-15 -68h-217l-57 -270h133q47 0 74 24.5t39 57.5l16 43h85l-48 -194h-602z
M461 -240q-64 0 -100 26.5t-36 75.5q0 54 41.5 88.5t105.5 49.5h92q-23 -6 -51 -20.5t-48 -37.5t-20 -54q0 -22 16 -35.5t41 -13.5q14 0 30 2t35 6l-14 -71q-42 -16 -92 -16z" />
    <glyph glyph-name="eogonek" unicode="&#x119;" horiz-adv-x="566" 
d="M282 -10q-66 0 -121.5 22.5t-89 68.5t-33.5 116q0 56 23.5 117t70.5 113.5t116 85.5t159 33q77 0 120.5 -32t43.5 -88q0 -55 -39.5 -101.5t-107.5 -75t-156 -28.5h-39q-1 -9 -1.5 -18.5t-0.5 -16.5q0 -53 26.5 -81.5t81.5 -28.5q50 0 88.5 27.5t59.5 59.5q15 -15 15 -48
q0 -28 -23 -57t-70.5 -48.5t-122.5 -19.5zM234 286h8q43 0 78 16t56 44.5t21 67.5q0 29 -11.5 46t-31.5 17q-28 0 -53.5 -29t-43 -72.5t-23.5 -89.5zM317 -225q-64 0 -100 26.5t-36 75.5q0 54 41.5 88.5t105.5 49.5h92q-23 -6 -51 -20.5t-48 -37.5t-20 -54q0 -22 16 -35.5
t41 -13.5q14 0 30 2t35 6l-14 -71q-42 -16 -92 -16z" />
    <glyph glyph-name="Ecaron" unicode="&#x11a;" horiz-adv-x="661" 
d="M-25 0l13 61h13q31 0 56.5 10.5t32.5 44.5l102 478q2 8 3.5 16t1.5 14q0 17 -20 23t-52 6h-13l12 61h572l-37 -194h-85q1 5 2 18l2 25.5t1 14.5q0 28 -16 47.5t-55 19.5h-107l-50 -238h216l-15 -68h-217l-57 -270h133q47 0 74 24.5t39 57.5l16 43h85l-48 -194h-602z
M356 771q-9 18 -24.5 45.5l-32 55l-28.5 46.5l3 13h83q9 -10 26 -27t35.5 -33.5t30.5 -28.5l41 28.5t44.5 33.5l34.5 27h104l-3 -13l-46.5 -44.5l-55 -52.5t-47.5 -50h-165z" />
    <glyph glyph-name="ecaron" unicode="&#x11b;" horiz-adv-x="566" 
d="M282 -10q-66 0 -121.5 22.5t-89 68.5t-33.5 116q0 56 23.5 117t70.5 113.5t116 85.5t159 33q77 0 120.5 -32t43.5 -88q0 -55 -39.5 -101.5t-107.5 -75t-156 -28.5h-39q-1 -9 -1.5 -18.5t-0.5 -16.5q0 -53 26.5 -81.5t81.5 -28.5q50 0 88.5 27.5t59.5 59.5q15 -15 15 -48
q0 -28 -23 -57t-70.5 -48.5t-122.5 -19.5zM234 286h8q43 0 78 16t56 44.5t21 67.5q0 29 -11.5 46t-31.5 17q-28 0 -53.5 -29t-43 -72.5t-23.5 -89.5zM301 606q-9 18 -24.5 45.5l-32 55l-28.5 46.5l3 13h83q9 -10 26 -27t35.5 -33.5t30.5 -28.5l41 28.5t44.5 33.5l34.5 27
h104l-3 -13l-46.5 -44.5l-55 -52.5t-47.5 -50h-165z" />
    <glyph glyph-name="Gcircumflex" unicode="&#x11c;" horiz-adv-x="849" 
d="M390 -10q-157 0 -238 72t-81 196q0 97 34 181.5t97.5 148.5t151.5 100t197 36q81 0 135.5 -19t82.5 -48t28 -60q0 -32 -23.5 -55t-62.5 -35.5t-88 -12.5q0 66 -25 112t-78 46q-52 0 -96.5 -32.5t-77.5 -89.5t-51.5 -129t-18.5 -152q0 -81 28 -132t92 -51q18 0 37 4t34 10
l33 140q4 16 5.5 25.5t1.5 12.5q0 19 -19 24.5t-53 5.5h-16l13 61h382l-12 -61h-5q-35 0 -62 -9t-34 -44l-42 -199q-67 -23 -129 -34.5t-140 -11.5zM317 771l3 13l46.5 44l54 52t48.5 51h165l26.5 -46l31.5 -54.5l27 -46.5l-3 -13h-83q-8 11 -24.5 28l-34.5 34l-30 28
q-18 -11 -42 -28l-46 -34t-35 -28h-104z" />
    <glyph glyph-name="gcircumflex" unicode="&#x11d;" horiz-adv-x="598" 
d="M170 -240q-90 0 -144 16.5t-77.5 44.5t-23.5 64q0 31 22.5 54.5t59 39t76.5 22.5q-19 11 -36 31.5t-17 52.5t29.5 62.5t87.5 64.5q-33 17 -51.5 47.5t-18.5 73.5q0 35 16 72t49 69t82.5 52t116.5 20q35 0 66 -7.5t54 -24.5q25 28 54 47t66 19q34 0 50.5 -17.5t16.5 -40.5
q0 -27 -14 -52.5t-53 -25.5q0 48 -40 48q-13 0 -23 -3t-21 -11q11 -13 19 -36.5t8 -45.5q0 -51 -26 -98.5t-81.5 -78t-142.5 -30.5q-6 0 -19.5 0.5t-26.5 1.5t-19 2q-24 -11 -33.5 -23t-9.5 -23q0 -17 16 -22.5t40 -7.5l124 -12q73 -6 114 -39.5t41 -99.5q0 -61 -40 -107.5
t-114 -72.5t-177 -26zM271 260q28 0 48 24t30.5 59.5t10.5 71.5q0 57 -43 57q-26 0 -46.5 -23.5t-31.5 -59t-11 -70.5q0 -31 11 -45t32 -14zM183 -172q80 0 119 23.5t39 53.5q0 26 -21.5 38.5t-75.5 16.5l-83 7q-37 -6 -63 -29t-26 -48q0 -15 9 -29.5t33 -23.5t69 -9z
M142 606l3 13l46.5 44l54 52t48.5 51h165l26.5 -46l31.5 -54.5l27 -46.5l-3 -13h-83q-8 11 -24.5 28l-34.5 34l-30 28q-18 -11 -42 -28l-46 -34t-35 -28h-104z" />
    <glyph glyph-name="Gbreve" unicode="&#x11e;" horiz-adv-x="849" 
d="M390 -10q-157 0 -238 72t-81 196q0 97 34 181.5t97.5 148.5t151.5 100t197 36q81 0 135.5 -19t82.5 -48t28 -60q0 -32 -23.5 -55t-62.5 -35.5t-88 -12.5q0 66 -25 112t-78 46q-52 0 -96.5 -32.5t-77.5 -89.5t-51.5 -129t-18.5 -152q0 -81 28 -132t92 -51q18 0 37 4t34 10
l33 140q4 16 5.5 25.5t1.5 12.5q0 19 -19 24.5t-53 5.5h-16l13 61h382l-12 -61h-5q-35 0 -62 -9t-34 -44l-42 -199q-67 -23 -129 -34.5t-140 -11.5zM549 771q-52 0 -83.5 22.5t-46.5 61.5t-19 88h81q4 -34 26 -51t56 -17q35 0 61.5 16t40.5 52h74q-7 -39 -29.5 -79
t-62 -66.5t-98.5 -26.5z" />
    <glyph glyph-name="gbreve" unicode="&#x11f;" horiz-adv-x="598" 
d="M170 -240q-90 0 -144 16.5t-77.5 44.5t-23.5 64q0 31 22.5 54.5t59 39t76.5 22.5q-19 11 -36 31.5t-17 52.5t29.5 62.5t87.5 64.5q-33 17 -51.5 47.5t-18.5 73.5q0 35 16 72t49 69t82.5 52t116.5 20q35 0 66 -7.5t54 -24.5q25 28 54 47t66 19q34 0 50.5 -17.5t16.5 -40.5
q0 -27 -14 -52.5t-53 -25.5q0 48 -40 48q-13 0 -23 -3t-21 -11q11 -13 19 -36.5t8 -45.5q0 -51 -26 -98.5t-81.5 -78t-142.5 -30.5q-6 0 -19.5 0.5t-26.5 1.5t-19 2q-24 -11 -33.5 -23t-9.5 -23q0 -17 16 -22.5t40 -7.5l124 -12q73 -6 114 -39.5t41 -99.5q0 -61 -40 -107.5
t-114 -72.5t-177 -26zM271 260q28 0 48 24t30.5 59.5t10.5 71.5q0 57 -43 57q-26 0 -46.5 -23.5t-31.5 -59t-11 -70.5q0 -31 11 -45t32 -14zM183 -172q80 0 119 23.5t39 53.5q0 26 -21.5 38.5t-75.5 16.5l-83 7q-37 -6 -63 -29t-26 -48q0 -15 9 -29.5t33 -23.5t69 -9z
M345 606q-52 0 -83.5 22.5t-46.5 61.5t-19 88h81q4 -34 26 -51t56 -17q35 0 61.5 16t40.5 52h74q-7 -39 -29.5 -79t-62 -66.5t-98.5 -26.5z" />
    <glyph glyph-name="Gdot" unicode="&#x120;" horiz-adv-x="849" 
d="M390 -10q-157 0 -238 72t-81 196q0 97 34 181.5t97.5 148.5t151.5 100t197 36q81 0 135.5 -19t82.5 -48t28 -60q0 -32 -23.5 -55t-62.5 -35.5t-88 -12.5q0 66 -25 112t-78 46q-52 0 -96.5 -32.5t-77.5 -89.5t-51.5 -129t-18.5 -152q0 -81 28 -132t92 -51q18 0 37 4t34 10
l33 140q4 16 5.5 25.5t1.5 12.5q0 19 -19 24.5t-53 5.5h-16l13 61h382l-12 -61h-5q-35 0 -62 -9t-34 -44l-42 -199q-67 -23 -129 -34.5t-140 -11.5zM518 784q-39 0 -66.5 16.5t-27.5 50.5q0 35 17 55t43.5 28t56.5 8q38 0 68 -15.5t30 -53.5q0 -28 -17.5 -48t-45 -30.5
t-58.5 -10.5z" />
    <glyph glyph-name="gdot" unicode="&#x121;" horiz-adv-x="598" 
d="M170 -240q-90 0 -144 16.5t-77.5 44.5t-23.5 64q0 31 22.5 54.5t59 39t76.5 22.5q-19 11 -36 31.5t-17 52.5t29.5 62.5t87.5 64.5q-33 17 -51.5 47.5t-18.5 73.5q0 35 16 72t49 69t82.5 52t116.5 20q35 0 66 -7.5t54 -24.5q25 28 54 47t66 19q34 0 50.5 -17.5t16.5 -40.5
q0 -27 -14 -52.5t-53 -25.5q0 48 -40 48q-13 0 -23 -3t-21 -11q11 -13 19 -36.5t8 -45.5q0 -51 -26 -98.5t-81.5 -78t-142.5 -30.5q-6 0 -19.5 0.5t-26.5 1.5t-19 2q-24 -11 -33.5 -23t-9.5 -23q0 -17 16 -22.5t40 -7.5l124 -12q73 -6 114 -39.5t41 -99.5q0 -61 -40 -107.5
t-114 -72.5t-177 -26zM271 260q28 0 48 24t30.5 59.5t10.5 71.5q0 57 -43 57q-26 0 -46.5 -23.5t-31.5 -59t-11 -70.5q0 -31 11 -45t32 -14zM183 -172q80 0 119 23.5t39 53.5q0 26 -21.5 38.5t-75.5 16.5l-83 7q-37 -6 -63 -29t-26 -48q0 -15 9 -29.5t33 -23.5t69 -9z
M359 619q-39 0 -66.5 16.5t-27.5 50.5q0 35 17 55t43.5 28t56.5 8q38 0 68 -15.5t30 -53.5q0 -28 -17.5 -48t-45 -30.5t-58.5 -10.5z" />
    <glyph glyph-name="uni0122" unicode="&#x122;" horiz-adv-x="849" 
d="M390 -10q-157 0 -238 72t-81 196q0 97 34 181.5t97.5 148.5t151.5 100t197 36q81 0 135.5 -19t82.5 -48t28 -60q0 -32 -23.5 -55t-62.5 -35.5t-88 -12.5q0 66 -25 112t-78 46q-52 0 -96.5 -32.5t-77.5 -89.5t-51.5 -129t-18.5 -152q0 -81 28 -132t92 -51q18 0 37 4t34 10
l33 140q4 16 5.5 25.5t1.5 12.5q0 19 -19 24.5t-53 5.5h-16l13 61h382l-12 -61h-5q-35 0 -62 -9t-34 -44l-42 -199q-67 -23 -129 -34.5t-140 -11.5zM228 -221l4 13l34 73t28 74h155l-4 -10q-21 -31 -59 -73t-79 -77h-79z" />
    <glyph glyph-name="uni0123" unicode="&#x123;" horiz-adv-x="598" 
d="M170 -240q-90 0 -144 16.5t-77.5 44.5t-23.5 64q0 31 22.5 54.5t59 39t76.5 22.5q-19 11 -36 31.5t-17 52.5t29.5 62.5t87.5 64.5q-33 17 -51.5 47.5t-18.5 73.5q0 35 16 72t49 69t82.5 52t116.5 20q35 0 66 -7.5t54 -24.5q25 28 54 47t66 19q34 0 50.5 -17.5t16.5 -40.5
q0 -27 -14 -52.5t-53 -25.5q0 48 -40 48q-13 0 -23 -3t-21 -11q11 -13 19 -36.5t8 -45.5q0 -51 -26 -98.5t-81.5 -78t-142.5 -30.5q-6 0 -19.5 0.5t-26.5 1.5t-19 2q-24 -11 -33.5 -23t-9.5 -23q0 -17 16 -22.5t40 -7.5l124 -12q73 -6 114 -39.5t41 -99.5q0 -61 -40 -107.5
t-114 -72.5t-177 -26zM271 260q28 0 48 24t30.5 59.5t10.5 71.5q0 57 -43 57q-26 0 -46.5 -23.5t-31.5 -59t-11 -70.5q0 -31 11 -45t32 -14zM183 -172q80 0 119 23.5t39 53.5q0 26 -21.5 38.5t-75.5 16.5l-83 7q-37 -6 -63 -29t-26 -48q0 -15 9 -29.5t33 -23.5t69 -9z
M279 606l4 10q20 32 58.5 73.5t79.5 76.5h79l-4 -13l-34 -73t-28 -74h-155z" />
    <glyph glyph-name="Hcircumflex" unicode="&#x124;" horiz-adv-x="838" 
d="M-25 0l13 61h13q30 0 55.5 9t32.5 42l100 473q5 19 6.5 28.5t1.5 11.5q0 8 -3.5 14t-18.5 10t-50 4h-13l12 61h375l-12 -61h-13q-29 0 -53 -9t-31 -44l-39 -193h213l41 185q6 27 6 33q0 10 -10 19t-54 9h-13l12 61h375l-12 -61h-13q-31 0 -58 -9t-34 -44l-101 -479
q-2 -13 -3.5 -20t-1.5 -10q0 -6 4 -13t19.5 -12t48.5 -5h13l-13 -61h-375l14 61h13q27 0 50.5 9.5t30.5 43.5l47 224h-214l-47 -220l-3.5 -17t-1.5 -10q0 -15 12 -22.5t52 -7.5h13l-13 -61h-373zM308 771l3 13l46.5 44l54 52t48.5 51h165l26.5 -46l31.5 -54.5l27 -46.5
l-3 -13h-83q-8 11 -24.5 28l-34.5 34l-30 28q-18 -11 -42 -28l-46 -34t-35 -28h-104z" />
    <glyph glyph-name="hcircumflex" unicode="&#x125;" horiz-adv-x="698" 
d="M507 -10q-67 0 -103.5 29t-36.5 80q0 19 3.5 45t10.5 58l17 80q5 19 10.5 51t5.5 56q0 18 -6 37t-28 19q-23 0 -43 -21.5t-37 -55t-29 -68.5t-18 -62l-57 -238h-192l133 625l4 20.5t2 18.5q0 15 -6.5 25t-39.5 10h-25l11 61h283l-53 -247q-3 -14 -8.5 -35t-10.5 -35h2
q41 54 89.5 79t105.5 25q48 0 75.5 -16.5t39 -43.5t11.5 -58q0 -26 -6.5 -57.5l-11.5 -57.5l-20 -99l-10.5 -48.5t-4.5 -41.5q0 -42 35 -42q16 0 27 6t28 17l29 -38q-24 -29 -67 -53.5t-109 -24.5zM205 798l3 13l46.5 44l54 52t48.5 51h165l26.5 -46l31.5 -54.5l27 -46.5
l-3 -13h-83q-8 11 -24.5 28l-34.5 34l-30 28q-18 -11 -42 -28l-46 -34t-35 -28h-104z" />
    <glyph glyph-name="Hbar" unicode="&#x126;" horiz-adv-x="838" 
d="M-25 0l13 61h13q30 0 55.5 9t32.5 42l82 387h-110l12 56h110l6 30q5 19 6.5 28.5t1.5 11.5q0 8 -3.5 14t-18.5 10t-50 4h-13l12 61h375l-12 -61h-13q-29 0 -53 -9t-31 -44l-9 -45h216l8 37q6 27 6 33q0 10 -10 19t-54 9h-13l12 61h375l-12 -61h-13q-31 0 -58 -9t-34 -44
l-9 -45h110l-12 -56h-110l-80 -378q-2 -13 -3.5 -20t-1.5 -10q0 -6 4 -13t19.5 -12t48.5 -5h13l-13 -61h-375l14 61h13q27 0 50.5 9.5t30.5 43.5l47 224h-214l-47 -220l-3.5 -17t-1.5 -10q0 -15 12 -22.5t52 -7.5h13l-13 -61h-373zM351 407h213l20 92h-214z" />
    <glyph glyph-name="hbar" unicode="&#x127;" horiz-adv-x="698" 
d="M507 -10q-67 0 -103.5 28.5t-36.5 79.5q0 19 3.5 45.5t10.5 58.5l11 58l10 52t6 55q0 19 -5 37.5t-27 18.5t-43.5 -25t-40 -62t-32 -76t-19.5 -67l-45 -193h-192l121 567h-82l14 57h81q2 11 3.5 23t1.5 19q0 20 -10 26.5t-41 6.5h-20l11 61h283l-30 -136h143l-14 -57
h-141l-20 -90q-3 -13 -7 -26l-9 -30h2q44 56 90 80t113 24q66 0 92.5 -35.5t26.5 -82.5q0 -26 -6.5 -57t-11.5 -58l-15 -77l-10.5 -48.5t-4.5 -41.5q0 -42 35 -42q16 0 27 6t28 17l29 -38q-24 -29 -67 -53.5t-109 -24.5z" />
    <glyph glyph-name="Itilde" unicode="&#x128;" horiz-adv-x="426" 
d="M-25 0l13 61h13q30 0 55.5 9t32.5 42l103 473q4 18 4.5 26.5t0.5 11.5q0 20 -20 25t-52 5h-13l12 61h385l-12 -61h-13q-33 0 -58.5 -9t-33.5 -44l-98 -457q-4 -19 -7 -31t-3 -21q0 -19 21.5 -24.5t52.5 -5.5h13l-13 -61h-383zM417 776q-36 0 -64.5 14.5t-52 29
t-45.5 14.5q-24 0 -34.5 -16.5t-16.5 -36.5h-71q7 41 24 76.5t45.5 58.5t68.5 25q36 0 62.5 -14.5t48.5 -29t44 -14.5q26 0 36 16.5t14 36.5h71q-6 -39 -21 -76t-41.5 -60.5t-67.5 -23.5z" />
    <glyph glyph-name="itilde" unicode="&#x129;" horiz-adv-x="391" 
d="M207 -10q-70 0 -108 27t-38 82q0 14 2 33.5t10 57.5l39 187q7 35 10 56.5t-6.5 31.5t-40.5 10h-22l11 61h278l-70 -328l-8 -36.5t-4 -23.5t-1 -25q0 -40 36 -40q16 0 25 4.5t25 15.5l28 -37q-25 -30 -61.5 -53t-104.5 -23zM316 611q-36 0 -64.5 14.5t-52 29t-45.5 14.5
q-24 0 -34.5 -16.5t-16.5 -36.5h-71q7 41 24 76.5t45.5 58.5t68.5 25q36 0 62.5 -14.5t48.5 -29t44 -14.5q26 0 36 16.5t14 36.5h71q-6 -39 -21 -76t-41.5 -60.5t-67.5 -23.5z" />
    <glyph glyph-name="Imacron" unicode="&#x12a;" horiz-adv-x="426" 
d="M-25 0l13 61h13q30 0 55.5 9t32.5 42l103 473q4 18 4.5 26.5t0.5 11.5q0 20 -20 25t-52 5h-13l12 61h385l-12 -61h-13q-33 0 -58.5 -9t-33.5 -44l-98 -457q-4 -19 -7 -31t-3 -21q0 -19 21.5 -24.5t52.5 -5.5h13l-13 -61h-383zM172 771l20 94h290l-20 -94h-290z" />
    <glyph glyph-name="imacron" unicode="&#x12b;" horiz-adv-x="391" 
d="M207 -10q-70 0 -108 27t-38 82q0 14 2 33.5t10 57.5l39 187q7 35 10 56.5t-6.5 31.5t-40.5 10h-22l11 61h278l-70 -328l-8 -36.5t-4 -23.5t-1 -25q0 -40 36 -40q16 0 25 4.5t25 15.5l28 -37q-25 -30 -61.5 -53t-104.5 -23zM74 606l20 94h290l-20 -94h-290z" />
    <glyph glyph-name="Ibreve" unicode="&#x12c;" horiz-adv-x="426" 
d="M-25 0l13 61h13q30 0 55.5 9t32.5 42l103 473q4 18 4.5 26.5t0.5 11.5q0 20 -20 25t-52 5h-13l12 61h385l-12 -61h-13q-33 0 -58.5 -9t-33.5 -44l-98 -457q-4 -19 -7 -31t-3 -21q0 -19 21.5 -24.5t52.5 -5.5h13l-13 -61h-383zM327 771q-52 0 -83.5 22.5t-46.5 61.5
t-19 88h81q4 -34 26 -51t56 -17q35 0 61.5 16t40.5 52h74q-7 -39 -29.5 -79t-62 -66.5t-98.5 -26.5z" />
    <glyph glyph-name="ibreve" unicode="&#x12d;" horiz-adv-x="391" 
d="M207 -10q-70 0 -108 27t-38 82q0 14 2 33.5t10 57.5l39 187q7 35 10 56.5t-6.5 31.5t-40.5 10h-22l11 61h278l-70 -328l-8 -36.5t-4 -23.5t-1 -25q0 -40 36 -40q16 0 25 4.5t25 15.5l28 -37q-25 -30 -61.5 -53t-104.5 -23zM242 606q-52 0 -83.5 22.5t-46.5 61.5t-19 88
h81q4 -34 26 -51t56 -17q35 0 61.5 16t40.5 52h74q-7 -39 -29.5 -79t-62 -66.5t-98.5 -26.5z" />
    <glyph glyph-name="Iogonek" unicode="&#x12e;" horiz-adv-x="426" 
d="M-25 0l13 61h13q30 0 55.5 9t32.5 42l103 473q4 18 4.5 26.5t0.5 11.5q0 20 -20 25t-52 5h-13l12 61h385l-12 -61h-13q-33 0 -58.5 -9t-33.5 -44l-98 -457q-4 -19 -7 -31t-3 -21q0 -19 21.5 -24.5t52.5 -5.5h13l-13 -61h-383zM145 -240q-64 0 -100 26.5t-36 75.5
q0 54 41.5 88.5t105.5 49.5h92q-23 -6 -51 -20.5t-48 -37.5t-20 -54q0 -22 16 -35.5t41 -13.5q14 0 30 2t35 6l-14 -71q-42 -16 -92 -16z" />
    <glyph glyph-name="iogonek" unicode="&#x12f;" horiz-adv-x="391" 
d="M241 619q-39 0 -66.5 16.5t-27.5 50.5q0 35 17 55t43.5 28t56.5 8q38 0 68 -15.5t30 -53.5q0 -28 -17.5 -48t-45 -30.5t-58.5 -10.5zM207 -10q-70 0 -108 27t-38 82q0 14 3 39t13 72l35 167q4 17 7 33.5t3 31.5q0 18 -9 25.5t-38 7.5h-22l11 61h278l-70 -328
q-7 -34 -10 -50.5t-3 -34.5q0 -40 36 -40q15 0 25.5 4.5t24.5 15.5l28 -37q-25 -30 -61.5 -53t-104.5 -23zM178 -240q-64 0 -100 26.5t-36 75.5q0 54 41.5 88.5t105.5 49.5h92q-23 -6 -51 -20.5t-48 -37.5t-20 -54q0 -22 16 -35.5t41 -13.5q14 0 30 2t35 6l-14 -71
q-42 -16 -92 -16z" />
    <glyph glyph-name="Idotaccent" unicode="&#x130;" horiz-adv-x="426" 
d="M-25 0l13 61h13q30 0 55.5 9t32.5 42l103 473q4 18 4.5 26.5t0.5 11.5q0 20 -20 25t-52 5h-13l12 61h385l-12 -61h-13q-33 0 -58.5 -9t-33.5 -44l-98 -457q-4 -19 -7 -31t-3 -21q0 -19 21.5 -24.5t52.5 -5.5h13l-13 -61h-383zM319 784q-39 0 -66.5 16.5t-27.5 50.5
q0 35 17 55t43.5 28t56.5 8q38 0 68 -15.5t30 -53.5q0 -28 -17.5 -48t-45 -30.5t-58.5 -10.5z" />
    <glyph glyph-name="dotlessi" unicode="&#x131;" horiz-adv-x="391" 
d="M207 -10q-70 0 -108 27t-38 82q0 14 2 33.5t10 57.5l39 187q7 35 10 56.5t-6.5 31.5t-40.5 10h-22l11 61h278l-70 -328l-8 -36.5t-4 -23.5t-1 -25q0 -40 36 -40q16 0 25 4.5t25 15.5l28 -37q-25 -30 -61.5 -53t-104.5 -23z" />
    <glyph glyph-name="IJ" unicode="&#x132;" horiz-adv-x="859" 
d="M-25 0l13 61h13q30 0 55.5 9t32.5 42l103 473q4 18 4.5 26.5t0.5 11.5q0 20 -20 25t-52 5h-13l12 61h385l-12 -61h-13q-33 0 -58.5 -9t-33.5 -44l-98 -457q-4 -19 -7 -31t-3 -21q0 -19 21.5 -24.5t52.5 -5.5h13l-13 -61h-383zM358 -240q-30 0 -51 3t-41 8l14 62
q14 -4 32 -6.5t33 -2.5q35 0 63 14.5t50 52.5t37 110l128 603q4 12 4 19q0 20 -20 25t-52 5h-13l12 61h385l-12 -61h-13q-33 0 -59.5 -9t-34.5 -44l-125 -599q-18 -91 -69 -144t-121 -75t-147 -22z" />
    <glyph glyph-name="ij" unicode="&#x133;" horiz-adv-x="764" 
d="M241 619q-39 0 -66.5 16.5t-27.5 50.5q0 35 17 55t43.5 28t56.5 8q38 0 68 -15.5t30 -53.5q0 -28 -17.5 -48t-45 -30.5t-58.5 -10.5zM207 -10q-70 0 -108 27t-38 82q0 14 3 39t13 72l35 167q4 17 7 33.5t3 31.5q0 18 -9 25.5t-38 7.5h-22l11 61h278l-70 -328
q-7 -34 -10 -50.5t-3 -34.5q0 -40 36 -40q15 0 25.5 4.5t24.5 15.5l28 -37q-25 -30 -61.5 -53t-104.5 -23zM631 619q-39 0 -66.5 16.5t-27.5 50.5q0 35 17 55t43.5 28t56.5 8q38 0 68 -15.5t30 -53.5q0 -43 -31 -66t-90 -23zM380 -240q-43 0 -71.5 4t-57.5 11l14 56
q7 -2 20.5 -4.5t23.5 -2.5q30 0 49.5 14.5t34 51t28.5 102.5l81 385l7 32t3 26q0 20 -9 30t-38 10h-21l11 61h277l-116 -544q-17 -89 -55 -139.5t-85.5 -71.5t-95.5 -21z" />
    <glyph glyph-name="Jcircumflex" unicode="&#x134;" horiz-adv-x="433" 
d="M-68 -240q-30 0 -51 3t-41 8l14 62q14 -4 32 -6.5t33 -2.5q35 0 63 14.5t50 52.5t37 110l128 603q4 12 4 19q0 20 -20 25t-52 5h-13l12 61h385l-12 -61h-13q-33 0 -59.5 -9t-34.5 -44l-125 -599q-18 -91 -69 -144t-121 -75t-147 -22zM122 771l3 13l46.5 44l54 52t48.5 51
h165l26.5 -46l31.5 -54.5l27 -46.5l-3 -13h-83q-8 11 -24.5 28l-34.5 34l-30 28q-18 -11 -42 -28l-46 -34t-35 -28h-104z" />
    <glyph glyph-name="jcircumflex" unicode="&#x135;" horiz-adv-x="373" 
d="M-11 -240q-43 0 -71.5 4t-57.5 11l14 56q7 -2 20.5 -4.5t23.5 -2.5q30 0 49.5 14.5t34 51t28.5 102.5l81 385q10 38 10 56q0 23 -9 32.5t-38 9.5h-21l11 61h277l-116 -544q-17 -89 -55 -139.5t-85.5 -71.5t-95.5 -21zM20 606l3 13l46.5 44l54 52t48.5 51h165l26.5 -46
l31.5 -54.5l27 -46.5l-3 -13h-83q-8 11 -24.5 28l-34.5 34l-30 28q-18 -11 -42 -28l-46 -34t-35 -28h-104z" />
    <glyph glyph-name="uni0136" unicode="&#x136;" horiz-adv-x="771" 
d="M-25 0l13 61h13q30 0 55.5 9t32.5 42l100 473q5 19 6.5 27t1.5 11q0 20 -20 25t-52 5h-13l12 61h375l-12 -61h-13q-29 0 -53 -9t-31 -44l-42 -208l163 136q41 35 51 59.5t10 37.5t-9.5 21t-34.5 8l13 60h306l-13 -60q-43 0 -80.5 -16.5t-85.5 -58.5l-147 -127l114 -273
q19 -45 31.5 -70.5t27 -36.5t36.5 -11h3l-11 -61h-80q-54 0 -89 7.5t-59.5 26t-43 52t-39.5 85.5l-56 149l-27 -19l-39 -184q-2 -10 -3.5 -16.5t-1.5 -9.5q0 -19 21.5 -24.5t52.5 -5.5h13l-13 -61h-383zM189 -221l4 13l34 73t28 74h155l-4 -10q-21 -31 -59 -73t-79 -77h-79z
" />
    <glyph glyph-name="uni0137" unicode="&#x137;" horiz-adv-x="618" 
d="M530 -5q-89 -1 -136 21t-72 77l-55 125l-27 -18l-44 -200h-192l133 625l4 22.5t2 19.5q0 20 -8 26t-32 6h-31l12 61h282l-64 -288l-13.5 -60.5l-7 -31.5l-4.5 -20.5t-6 -25.5l-12 -47l131 120q26 24 30.5 33.5t4.5 14.5q0 10 -10 17.5t-39 7.5l11 56h274l-10 -56
q-34 0 -72.5 -17.5t-85.5 -61.5l-74 -68l75 -162q24 -52 41.5 -76t32 -31.5t29.5 -7.5l-13 -61h-54zM112 -221l4 13l34 73t28 74h155l-4 -10q-21 -31 -59 -73t-79 -77h-79z" />
    <glyph glyph-name="kgreenlandic" unicode="&#x138;" horiz-adv-x="644" 
d="M538 -5q-71 -1 -118 22.5t-72 75.5l-55 125l-27 -18l-44 -200h-192l85 401q2 8 4.5 21.5t2.5 23.5q0 12 -5.5 20.5t-39.5 8.5h-21l11 61h276l-6 -30q-4 -20 -11.5 -51l-15 -64.5t-14.5 -61.5t-11 -42l134 126q14 14 23 24.5t9 19.5q0 14 -14 18.5t-34 4.5l10 56h275
l-11 -56q-34 0 -72 -17t-85 -61l-74 -68l64 -156q21 -50 40 -75.5t37.5 -34.5t35.5 -12l-13 -61h-72z" />
    <glyph glyph-name="Lacute" unicode="&#x139;" horiz-adv-x="677" 
d="M-25 0l12 61h13q31 0 56.5 9t32.5 42l101 473l5 22t2 16q0 20 -20 25t-52 5h-13l13 61h384l-12 -61h-13q-33 0 -60 -10t-34 -46l-110 -528h145q41 0 67 11t44 38t34 74l13 37h72l-57 -229h-623zM274 771l3 13l43 45t46.5 53.5l38.5 48.5h194l-3 -10q-12 -12 -38.5 -31.5
t-60.5 -41.5t-69.5 -42.5t-64.5 -34.5h-89z" />
    <glyph glyph-name="lacute" unicode="&#x13a;" horiz-adv-x="391" 
d="M178 -10q-70 0 -107.5 28.5t-37.5 83.5q0 19 3.5 43.5t13.5 71.5l85 402q3 13 5.5 26.5t2.5 22.5q0 14 -6 22.5t-35 8.5h-27l12 61h278l-122 -552q-7 -34 -9.5 -50.5t-2.5 -34.5q0 -40 36 -40q12 0 23 4.5t27 15.5l28 -37q-25 -30 -62 -53t-105 -23zM202 799l3 13l43 45
t46.5 53.5l38.5 48.5h194l-3 -10q-12 -12 -38.5 -31.5t-60.5 -41.5t-69.5 -42.5t-64.5 -34.5h-89z" />
    <glyph glyph-name="uni013B" unicode="&#x13b;" horiz-adv-x="677" 
d="M-25 0l12 61h13q31 0 56.5 9t32.5 42l101 473l5 22t2 16q0 20 -20 25t-52 5h-13l13 61h384l-12 -61h-13q-33 0 -60 -10t-34 -46l-110 -528h145q41 0 67 11t44 38t34 74l13 37h72l-57 -229h-623zM152 -221l4 13l34 73t28 74h155l-4 -10q-21 -31 -59 -73t-79 -77h-79z" />
    <glyph glyph-name="uni013C" unicode="&#x13c;" horiz-adv-x="391" 
d="M178 -10q-70 0 -107.5 28.5t-37.5 83.5q0 19 3.5 43.5t13.5 71.5l85 402q3 13 5.5 26.5t2.5 22.5q0 14 -6 22.5t-35 8.5h-27l12 61h278l-122 -552q-7 -34 -9.5 -50.5t-2.5 -34.5q0 -40 36 -40q12 0 23 4.5t27 15.5l28 -37q-25 -30 -62 -53t-105 -23zM7 -221l4 13l34 73
t28 74h155l-4 -10q-21 -31 -59 -73t-79 -77h-79z" />
    <glyph glyph-name="Lcaron" unicode="&#x13d;" horiz-adv-x="677" 
d="M-25 0l12 61h13q31 0 56.5 9t32.5 42l101 473l5 22t2 16q0 20 -20 25t-52 5h-13l13 61h384l-12 -61h-13q-33 0 -60 -10t-34 -46l-110 -528h145q41 0 67 11t44 38t34 74l13 37h72l-57 -229h-623zM508 554l4 13l34 73t28 74h155l-4 -10q-21 -31 -59 -73t-79 -77h-79z" />
    <glyph glyph-name="lcaron" unicode="&#x13e;" horiz-adv-x="391" 
d="M178 -10q-70 0 -107.5 28.5t-37.5 83.5q0 19 3.5 43.5t13.5 71.5l85 402q3 13 5.5 26.5t2.5 22.5q0 14 -6 22.5t-35 8.5h-27l12 61h278l-122 -552q-7 -34 -9.5 -50.5t-2.5 -34.5q0 -40 36 -40q12 0 23 4.5t27 15.5l28 -37q-25 -30 -62 -53t-105 -23zM384 600l4 13l34 73
t28 74h155l-4 -10q-21 -31 -59 -73t-79 -77h-79z" />
    <glyph glyph-name="Ldot" unicode="&#x13f;" horiz-adv-x="677" 
d="M-25 0l12 61h13q31 0 56.5 9t32.5 42l101 473l5 22t2 16q0 20 -20 25t-52 5h-13l13 61h384l-12 -61h-13q-33 0 -60 -10t-34 -46l-110 -528h145q41 0 67 11t44 38t34 74l13 37h72l-57 -229h-623zM557 304q-39 0 -66.5 16.5t-27.5 50.5q0 35 17 55t43.5 28t56.5 8
q38 0 68 -15.5t30 -53.5q0 -28 -17.5 -48t-45 -30.5t-58.5 -10.5z" />
    <glyph glyph-name="ldot" unicode="&#x140;" horiz-adv-x="521" 
d="M178 -10q-70 0 -107.5 28.5t-37.5 83.5q0 19 3.5 43.5t13.5 71.5l85 402q3 13 5.5 26.5t2.5 22.5q0 14 -6 22.5t-35 8.5h-27l12 61h278l-122 -552q-7 -34 -9.5 -50.5t-2.5 -34.5q0 -40 36 -40q12 0 23 4.5t27 15.5l28 -37q-25 -30 -62 -53t-105 -23zM424 271
q-39 0 -66.5 16.5t-27.5 50.5q0 35 17 55t43.5 28t56.5 8q38 0 68 -15.5t30 -53.5q0 -28 -17.5 -48t-45 -30.5t-58.5 -10.5z" />
    <glyph glyph-name="Lslash" unicode="&#x141;" horiz-adv-x="677" 
d="M-25 0l12 61h13q31 0 56.5 9t32.5 42l34 158h-1l-80 -41l19 84l80 41l49 231l5 22t2 16q0 20 -20 25t-52 5h-13l13 61h384l-12 -61h-13q-33 0 -60 -10t-34 -46l-27 -131l1 1l160 85l-19 -86l-159 -82v0l-66 -315h145q41 0 67 11t44 38t34 74l13 37h72l-57 -229h-623z" />
    <glyph glyph-name="lslash" unicode="&#x142;" horiz-adv-x="376" 
d="M178 -10q-70 0 -107.5 28.5t-37.5 83.5q0 19 3.5 43.5t13.5 71.5l8 37l-71 -35l18 87l71 36l59 277q3 13 5.5 26.5t2.5 22.5q0 14 -6 22.5t-35 8.5h-27l12 61h278l-67 -305l75 37l-19 -89l-76 -38v0l-35 -157q-7 -34 -9.5 -50.5t-2.5 -34.5q0 -40 36 -40q12 0 23 4.5
t27 15.5l28 -37q-25 -30 -62 -53t-105 -23z" />
    <glyph glyph-name="Nacute" unicode="&#x143;" horiz-adv-x="806" 
d="M-25 0l12 61h13q31 0 56.5 9t32.5 42l101 473q3 15 5 24t2 14q0 20 -20 25t-52 5h-13l13 61h251l246 -484l76 360l4 18.5t2 14.5q0 20 -19.5 25t-43.5 5h-6l12 61h253l-13 -61h-13q-30 0 -55.5 -9t-32.5 -42l-127 -602h-112l-281 551l-89 -427q-6 -30 -6 -33
q0 -19 20 -24.5t44 -5.5h6l-13 -61h-253zM440 771l3 13l43 45t46.5 53.5l38.5 48.5h194l-3 -10q-12 -12 -38.5 -31.5t-60.5 -41.5t-69.5 -42.5t-64.5 -34.5h-89z" />
    <glyph glyph-name="nacute" unicode="&#x144;" horiz-adv-x="726" 
d="M535 -10q-67 0 -103.5 30t-36.5 81q0 19 3.5 44t10.5 57l16 80q4 19 9.5 51t5.5 56q0 18 -5.5 37t-28.5 19q-22 0 -43 -24t-39 -60.5t-31.5 -76t-20.5 -70.5l-48 -214h-192l84 395q3 12 5.5 26.5t2.5 24.5q0 13 -6 21t-35 8h-25l11 61h247l1 -93h3q41 56 86.5 79.5
t109.5 23.5q49 0 77 -16.5t39.5 -43t11.5 -57.5q0 -26 -6.5 -57.5l-11.5 -57.5l-19 -99q-5 -27 -9.5 -48.5t-4.5 -41.5q0 -42 34 -42q23 0 55 23l29 -38q-24 -29 -67 -53.5t-109 -24.5zM329 606l3 13l43 45t46.5 53.5l38.5 48.5h194l-3 -10q-12 -12 -38.5 -31.5t-60.5 -41.5
t-69.5 -42.5t-64.5 -34.5h-89z" />
    <glyph glyph-name="uni0145" unicode="&#x145;" horiz-adv-x="806" 
d="M-25 0l12 61h13q31 0 56.5 9t32.5 42l101 473q3 15 5 24t2 14q0 20 -20 25t-52 5h-13l13 61h251l246 -484l76 360l4 18.5t2 14.5q0 20 -19.5 25t-43.5 5h-6l12 61h253l-13 -61h-13q-30 0 -55.5 -9t-32.5 -42l-127 -602h-112l-281 551l-89 -427q-6 -30 -6 -33
q0 -19 20 -24.5t44 -5.5h6l-13 -61h-253zM206 -221l4 13l34 73t28 74h155l-4 -10q-21 -31 -59 -73t-79 -77h-79z" />
    <glyph glyph-name="uni0146" unicode="&#x146;" horiz-adv-x="726" 
d="M535 -10q-67 0 -103.5 30t-36.5 81q0 19 3.5 44t10.5 57l16 80q4 19 9.5 51t5.5 56q0 18 -5.5 37t-28.5 19q-22 0 -43 -24t-39 -60.5t-31.5 -76t-20.5 -70.5l-48 -214h-192l84 395q3 12 5.5 26.5t2.5 24.5q0 13 -6 21t-35 8h-25l11 61h247l1 -93h3q41 56 86.5 79.5
t109.5 23.5q49 0 77 -16.5t39.5 -43t11.5 -57.5q0 -26 -6.5 -57.5l-11.5 -57.5l-19 -99q-5 -27 -9.5 -48.5t-4.5 -41.5q0 -42 34 -42q23 0 55 23l29 -38q-24 -29 -67 -53.5t-109 -24.5zM166 -221l4 13l34 73t28 74h155l-4 -10q-21 -31 -59 -73t-79 -77h-79z" />
    <glyph glyph-name="Ncaron" unicode="&#x147;" horiz-adv-x="806" 
d="M-25 0l12 61h13q31 0 56.5 9t32.5 42l101 473q3 15 5 24t2 14q0 20 -20 25t-52 5h-13l13 61h251l246 -484l76 360l4 18.5t2 14.5q0 20 -19.5 25t-43.5 5h-6l12 61h253l-13 -61h-13q-30 0 -55.5 -9t-32.5 -42l-127 -602h-112l-281 551l-89 -427q-6 -30 -6 -33
q0 -19 20 -24.5t44 -5.5h6l-13 -61h-253zM424 771q-9 18 -24.5 45.5l-32 55l-28.5 46.5l3 13h83q9 -10 26 -27t35.5 -33.5t30.5 -28.5l41 28.5t44.5 33.5l34.5 27h104l-3 -13l-46.5 -44.5l-55 -52.5t-47.5 -50h-165z" />
    <glyph glyph-name="ncaron" unicode="&#x148;" horiz-adv-x="726" 
d="M535 -10q-67 0 -103.5 30t-36.5 81q0 19 3.5 44t10.5 57l16 80q4 19 9.5 51t5.5 56q0 18 -5.5 37t-28.5 19q-22 0 -43 -24t-39 -60.5t-31.5 -76t-20.5 -70.5l-48 -214h-192l84 395q3 12 5.5 26.5t2.5 24.5q0 13 -6 21t-35 8h-25l11 61h247l1 -93h3q41 56 86.5 79.5
t109.5 23.5q49 0 77 -16.5t39.5 -43t11.5 -57.5q0 -26 -6.5 -57.5l-11.5 -57.5l-19 -99q-5 -27 -9.5 -48.5t-4.5 -41.5q0 -42 34 -42q23 0 55 23l29 -38q-24 -29 -67 -53.5t-109 -24.5zM328 606q-9 18 -24.5 45.5l-32 55l-28.5 46.5l3 13h83q9 -10 26 -27t35.5 -33.5
t30.5 -28.5l41 28.5t44.5 33.5l34.5 27h104l-3 -13l-46.5 -44.5l-55 -52.5t-47.5 -50h-165z" />
    <glyph glyph-name="napostrophe" unicode="&#x149;" horiz-adv-x="942" 
d="M751 -10q-67 0 -103.5 30t-36.5 81q0 19 3.5 44t10.5 57l16 80q4 19 9.5 51t5.5 56q0 18 -5.5 37t-28.5 19q-22 0 -43 -24t-39 -60.5t-31.5 -76t-20.5 -70.5l-48 -214h-192l84 395q3 12 5.5 26.5t2.5 24.5q0 13 -6 21t-35 8h-25l11 61h247l1 -93h3q41 56 86.5 79.5
t109.5 23.5q49 0 77 -16.5t39.5 -43t11.5 -57.5q0 -26 -6.5 -57.5l-11.5 -57.5l-19 -99q-5 -27 -9.5 -48.5t-4.5 -41.5q0 -42 34 -42q23 0 55 23l29 -38q-24 -29 -67 -53.5t-109 -24.5zM22 390l16 61q104 24 104 82q0 17 -7.5 27.5t-17 20t-17 22.5t-7.5 36q0 35 25.5 56
t58.5 21q40 0 67 -25.5t27 -72.5q0 -82 -63.5 -143.5t-185.5 -84.5z" />
    <glyph glyph-name="Eng" unicode="&#x14a;" horiz-adv-x="763" 
d="M394 -240q-43 0 -81 11l14 64q26 -9 53 -9q31 0 63.5 15t59.5 54t42 109l-279 547l-89 -427q-6 -30 -6 -33q0 -19 20 -24.5t44 -5.5h6l-13 -61h-253l12 61h13q31 0 56.5 9t32.5 42l102 479q4 16 5 22.5t1 9.5q0 20 -20 25t-52 5h-13l13 61h251l246 -483l78 367q4 23 4 25
q0 20 -18.5 25t-45.5 5h-5l12 61h253l-13 -61h-13q-30 0 -55.5 -9t-32.5 -42l-126 -596q-27 -130 -95 -188t-171 -58z" />
    <glyph glyph-name="eng" unicode="&#x14b;" horiz-adv-x="718" 
d="M323 -240q-43 0 -71.5 4t-57.5 11l14 56q7 -2 20.5 -4.5t23.5 -2.5q30 0 49.5 14.5t33.5 51t28 102.5l65 301q5 20 8.5 48.5t3.5 56.5q0 18 -7.5 32.5t-26.5 14.5q-21 0 -41.5 -23.5t-38.5 -59t-31.5 -73t-19.5 -66.5l-51 -223h-192l84 395q3 12 5.5 26t2.5 24
q0 17 -7.5 23.5t-42.5 6.5h-16l11 61h247l1 -93h3q40 56 86 79.5t110 23.5q50 0 77.5 -17.5t39 -42.5t11.5 -49q0 -25 -6 -55.5l-11 -57.5l-69 -332q-19 -89 -56 -139.5t-84 -71.5t-95 -21z" />
    <glyph glyph-name="Omacron" unicode="&#x14c;" horiz-adv-x="829" 
d="M363 -11q-83 0 -149 31.5t-104.5 93.5t-38.5 152q0 58 18 121t54 123t89.5 108.5t124.5 77.5t159 29q77 0 143 -29t106 -89.5t40 -156.5q0 -55 -17.5 -118t-52 -123.5t-87.5 -110.5t-124 -79.5t-161 -29.5zM393 63q44 0 78 27t59.5 72t42 99t24.5 108.5t8 100.5
q0 95 -34 138.5t-85 43.5q-44 0 -78 -27t-59.5 -72t-42 -99t-24.5 -108.5t-8 -100.5q0 -95 35 -138.5t84 -43.5zM358 771l20 94h290l-20 -94h-290z" />
    <glyph glyph-name="omacron" unicode="&#x14d;" horiz-adv-x="650" 
d="M265 -10q-100 0 -163.5 53t-63.5 159q0 57 21 117.5t64.5 111.5t109 83t155.5 32q61 0 111.5 -22t81 -68.5t30.5 -121.5q0 -55 -20.5 -115t-62.5 -112t-107.5 -84.5t-155.5 -32.5zM288 77q27 0 48.5 21.5t38 56.5t27.5 75.5t16.5 79t5.5 67.5q0 47 -16 68.5t-44 21.5
q-31 0 -56 -30t-43 -76.5t-28 -96.5t-10 -90q0 -51 16 -74t45 -23zM232 606l20 94h290l-20 -94h-290z" />
    <glyph glyph-name="Obreve" unicode="&#x14e;" horiz-adv-x="829" 
d="M363 -11q-83 0 -149 31.5t-104.5 93.5t-38.5 152q0 58 18 121t54 123t89.5 108.5t124.5 77.5t159 29q77 0 143 -29t106 -89.5t40 -156.5q0 -55 -17.5 -118t-52 -123.5t-87.5 -110.5t-124 -79.5t-161 -29.5zM393 63q44 0 78 27t59.5 72t42 99t24.5 108.5t8 100.5
q0 95 -34 138.5t-85 43.5q-44 0 -78 -27t-59.5 -72t-42 -99t-24.5 -108.5t-8 -100.5q0 -95 35 -138.5t84 -43.5zM514 771q-52 0 -83.5 22.5t-46.5 61.5t-19 88h81q4 -34 26 -51t56 -17q35 0 61.5 16t40.5 52h74q-7 -39 -29.5 -79t-62 -66.5t-98.5 -26.5z" />
    <glyph glyph-name="obreve" unicode="&#x14f;" horiz-adv-x="650" 
d="M265 -10q-100 0 -163.5 53t-63.5 159q0 57 21 117.5t64.5 111.5t109 83t155.5 32q61 0 111.5 -22t81 -68.5t30.5 -121.5q0 -55 -20.5 -115t-62.5 -112t-107.5 -84.5t-155.5 -32.5zM288 77q27 0 48.5 21.5t38 56.5t27.5 75.5t16.5 79t5.5 67.5q0 47 -16 68.5t-44 21.5
q-31 0 -56 -30t-43 -76.5t-28 -96.5t-10 -90q0 -51 16 -74t45 -23zM388 606q-52 0 -83.5 22.5t-46.5 61.5t-19 88h81q4 -34 26 -51t56 -17q35 0 61.5 16t40.5 52h74q-7 -39 -29.5 -79t-62 -66.5t-98.5 -26.5z" />
    <glyph glyph-name="Ohungarumlaut" unicode="&#x150;" horiz-adv-x="829" 
d="M363 -11q-83 0 -149 31.5t-104.5 93.5t-38.5 152q0 58 18 121t54 123t89.5 108.5t124.5 77.5t159 29q77 0 143 -29t106 -89.5t40 -156.5q0 -55 -17.5 -118t-52 -123.5t-87.5 -110.5t-124 -79.5t-161 -29.5zM393 63q44 0 78 27t59.5 72t42 99t24.5 108.5t8 100.5
q0 95 -34 138.5t-85 43.5q-44 0 -78 -27t-59.5 -72t-42 -99t-24.5 -108.5t-8 -100.5q0 -95 35 -138.5t84 -43.5zM550 771l3 13q28 32 56.5 71.5t50.5 75.5h142l-3 -10q-10 -13 -30.5 -33l-45 -42t-49.5 -41.5t-45 -33.5h-79zM353 771l3 13q28 32 56 71t51 76h142l-3 -10
q-10 -13 -30.5 -33l-45 -42t-49.5 -41.5t-45 -33.5h-79z" />
    <glyph glyph-name="ohungarumlaut" unicode="&#x151;" horiz-adv-x="650" 
d="M265 -10q-100 0 -163.5 53t-63.5 159q0 57 21 117.5t64.5 111.5t109 83t155.5 32q61 0 111.5 -22t81 -68.5t30.5 -121.5q0 -55 -20.5 -115t-62.5 -112t-107.5 -84.5t-155.5 -32.5zM288 77q27 0 48.5 21.5t38 56.5t27.5 75.5t16.5 79t5.5 67.5q0 47 -16 68.5t-44 21.5
q-31 0 -56 -30t-43 -76.5t-28 -96.5t-10 -90q0 -51 16 -74t45 -23zM419 606l3 13q28 32 56.5 71.5t50.5 75.5h142l-3 -10q-10 -13 -30.5 -33l-45 -42t-49.5 -41.5t-45 -33.5h-79zM222 606l3 13q28 32 56 71t51 76h142l-3 -10q-10 -13 -30.5 -33l-45 -42t-49.5 -41.5
t-45 -33.5h-79z" />
    <glyph glyph-name="OE" unicode="&#x152;" horiz-adv-x="1033" 
d="M363 -11q-83 0 -149 31.5t-104.5 93.5t-38.5 152q0 58 18 121t54 123t89.5 108.5t124.5 77.5t159 29q20 0 41.5 -2.5t40.5 -8.5h470l-37 -194h-85q1 5 2 18l2 25.5t1 14.5q0 28 -16 47.5t-55 19.5h-107l-50 -238h217l-16 -68h-216l-57 -270h132q47 0 74 24.5t39 57.5
l16 43h85l-48 -194h-504q-22 -5 -39 -8t-43 -3zM393 63q15 0 28.5 4t32.5 15l114 543q-18 14 -37.5 20.5t-44.5 6.5q-44 0 -78 -27t-59.5 -72t-42 -99t-24.5 -108.5t-8 -100.5q0 -95 35 -138.5t84 -43.5z" />
    <glyph glyph-name="oe" unicode="&#x153;" horiz-adv-x="929" 
d="M265 -10q-100 0 -163.5 50.5t-63.5 156.5q0 56 21.5 117t64.5 113.5t109.5 85.5t156.5 33q57 0 99.5 -15.5t66.5 -49.5q41 30 94 47.5t120 17.5q77 0 121 -30.5t44 -86.5q0 -55 -39.5 -102.5t-108 -76.5t-156.5 -29h-39q-1 -9 -1 -18.5v-16.5q0 -53 26 -81.5t81 -28.5
q50 0 88.5 27.5t59.5 59.5q15 -23 15 -56q0 -25 -23 -52.5t-70.5 -46t-122.5 -18.5q-59 0 -104.5 17.5t-74.5 52.5q-36 -31 -86 -50.5t-115 -19.5zM597 286h8q43 0 78 16.5t56 46t21 68.5q0 27 -11.5 43.5t-31.5 16.5q-28 0 -53.5 -29t-43 -73t-23.5 -89zM288 79q27 0 49 22
t38.5 57.5t27.5 76.5t16.5 80t5.5 67q0 49 -16 68t-43 19q-25 0 -46 -20.5t-38 -54t-29.5 -73t-19 -79t-6.5 -70.5q0 -52 16 -72.5t45 -20.5z" />
    <glyph glyph-name="Racute" unicode="&#x154;" horiz-adv-x="739" 
d="M-25 0l12 61h13q31 0 57 10.5t33 44.5l100 469q7 35 7 38q0 20 -20 25t-52 5h-13l13 61h364q245 0 245 -165q0 -66 -26.5 -107.5t-66.5 -64t-80 -32.5l67 -165q26 -69 47.5 -94t51.5 -25h6l-13 -61h-18q-75 0 -127.5 8t-84.5 32t-48 72l-66 194h-47l-36 -166
q-5 -22 -7 -33t-2 -16q0 -19 21.5 -24.5t52.5 -5.5h33l-13 -61h-403zM341 372h51q53 0 89 37t36 122q0 65 -18 90.5t-56 25.5h-38zM367 771l3 13l43 45t46.5 53.5l38.5 48.5h194l-3 -10q-12 -12 -38.5 -31.5t-60.5 -41.5t-69.5 -42.5t-64.5 -34.5h-89z" />
    <glyph glyph-name="racute" unicode="&#x155;" horiz-adv-x="612" 
d="M32 0l84 393l5.5 28t2.5 28q0 11 -6 18.5t-27 7.5h-29l12 61h254l-21 -132h1q39 80 82 111t107 31q122 0 122 -92q0 -60 -38 -88t-106 -28q0 53 -11 83.5t-37 30.5q-29 0 -60.5 -39t-59 -104t-45.5 -143l-38 -166h-192zM258 606l3 13l43 45t46.5 53.5l38.5 48.5h194
l-3 -10q-12 -12 -38.5 -31.5t-60.5 -41.5t-69.5 -42.5t-64.5 -34.5h-89z" />
    <glyph glyph-name="uni0156" unicode="&#x156;" horiz-adv-x="739" 
d="M-25 0l12 61h13q31 0 57 10.5t33 44.5l100 469q7 35 7 38q0 20 -20 25t-52 5h-13l13 61h364q245 0 245 -165q0 -66 -26.5 -107.5t-66.5 -64t-80 -32.5l67 -165q26 -69 47.5 -94t51.5 -25h6l-13 -61h-18q-75 0 -127.5 8t-84.5 32t-48 72l-66 194h-47l-36 -166
q-5 -22 -7 -33t-2 -16q0 -19 21.5 -24.5t52.5 -5.5h33l-13 -61h-403zM341 372h51q53 0 89 37t36 122q0 65 -18 90.5t-56 25.5h-38zM203 -221l4 13l34 73t28 74h155l-4 -10q-21 -31 -59 -73t-79 -77h-79z" />
    <glyph glyph-name="uni0157" unicode="&#x157;" horiz-adv-x="612" 
d="M32 0l84 393l5.5 28t2.5 28q0 11 -6 18.5t-27 7.5h-29l12 61h254l-21 -132h1q39 80 82 111t107 31q122 0 122 -92q0 -60 -38 -88t-106 -28q0 53 -11 83.5t-37 30.5q-29 0 -60.5 -39t-59 -104t-45.5 -143l-38 -166h-192zM-21 -221l4 13l34 73t28 74h155l-4 -10
q-21 -31 -59 -73t-79 -77h-79z" />
    <glyph glyph-name="Rcaron" unicode="&#x158;" horiz-adv-x="739" 
d="M-25 0l12 61h13q31 0 57 10.5t33 44.5l100 469q7 35 7 38q0 20 -20 25t-52 5h-13l13 61h364q245 0 245 -165q0 -66 -26.5 -107.5t-66.5 -64t-80 -32.5l67 -165q26 -69 47.5 -94t51.5 -25h6l-13 -61h-18q-75 0 -127.5 8t-84.5 32t-48 72l-66 194h-47l-36 -166
q-5 -22 -7 -33t-2 -16q0 -19 21.5 -24.5t52.5 -5.5h33l-13 -61h-403zM341 372h51q53 0 89 37t36 122q0 65 -18 90.5t-56 25.5h-38zM345 771q-9 18 -24.5 45.5l-32 55l-28.5 46.5l3 13h83q9 -10 26 -27t35.5 -33.5t30.5 -28.5l41 28.5t44.5 33.5l34.5 27h104l-3 -13
l-46.5 -44.5l-55 -52.5t-47.5 -50h-165z" />
    <glyph glyph-name="rcaron" unicode="&#x159;" horiz-adv-x="612" 
d="M32 0l84 393l5.5 28t2.5 28q0 11 -6 18.5t-27 7.5h-29l12 61h254l-21 -132h1q39 80 82 111t107 31q122 0 122 -92q0 -60 -38 -88t-106 -28q0 53 -11 83.5t-37 30.5q-29 0 -60.5 -39t-59 -104t-45.5 -143l-38 -166h-192zM256 606q-9 18 -24.5 45.5l-32 55l-28.5 46.5l3 13
h83q9 -10 26 -27t35.5 -33.5t30.5 -28.5l41 28.5t44.5 33.5l34.5 27h104l-3 -13l-46.5 -44.5l-55 -52.5t-47.5 -50h-165z" />
    <glyph glyph-name="Sacute" unicode="&#x15a;" horiz-adv-x="617" 
d="M284 -10q-134 0 -199.5 41.5t-65.5 106.5q0 54 43 80.5t116 26.5q0 -72 18.5 -112t48 -56.5t62.5 -16.5q46 0 70.5 26t24.5 58q0 27 -10.5 47.5t-37 41t-73.5 45.5q-89 48 -129.5 99.5t-40.5 127.5q0 66 34.5 115t96.5 76.5t146 27.5q125 0 181.5 -34t56.5 -81
q0 -48 -35 -74t-118 -26q0 32 -9 65.5t-31 57t-61 23.5q-37 0 -64 -21t-27 -65q0 -34 15.5 -55t47 -38.5l77.5 -42.5q77 -38 112.5 -91t35.5 -119q0 -74 -35.5 -126t-99.5 -79.5t-150 -27.5zM341 771l3 13l43 45t46.5 53.5l38.5 48.5h194l-3 -10q-12 -12 -38.5 -31.5
t-60.5 -41.5t-69.5 -42.5t-64.5 -34.5h-89z" />
    <glyph glyph-name="sacute" unicode="&#x15b;" horiz-adv-x="551" 
d="M218 -10q-94 0 -150.5 28.5t-56.5 79.5q0 34 19.5 56t51 32.5t68.5 10.5q0 -36 9 -67.5t29 -51t53 -19.5q38 0 61.5 17t23.5 45q0 34 -28.5 50t-78.5 40q-72 35 -110 73.5t-38 95.5q0 80 66.5 123t183.5 43q77 0 121.5 -12.5t63 -33.5t18.5 -47q0 -46 -38.5 -66
t-106.5 -20q0 27 -6 53.5t-22 44t-45 17.5q-34 0 -51.5 -17t-17.5 -40q0 -32 27.5 -47.5t78.5 -38.5q83 -37 113.5 -76t30.5 -92q0 -87 -66 -134t-203 -47zM269 606l3 13l43 45t46.5 53.5l38.5 48.5h194l-3 -10q-12 -12 -38.5 -31.5t-60.5 -41.5t-69.5 -42.5t-64.5 -34.5
h-89z" />
    <glyph glyph-name="Scircumflex" unicode="&#x15c;" horiz-adv-x="617" 
d="M284 -10q-134 0 -199.5 41.5t-65.5 106.5q0 54 43 80.5t116 26.5q0 -72 18.5 -112t48 -56.5t62.5 -16.5q46 0 70.5 26t24.5 58q0 27 -10.5 47.5t-37 41t-73.5 45.5q-89 48 -129.5 99.5t-40.5 127.5q0 66 34.5 115t96.5 76.5t146 27.5q125 0 181.5 -34t56.5 -81
q0 -48 -35 -74t-118 -26q0 32 -9 65.5t-31 57t-61 23.5q-37 0 -64 -21t-27 -65q0 -34 15.5 -55t47 -38.5l77.5 -42.5q77 -38 112.5 -91t35.5 -119q0 -74 -35.5 -126t-99.5 -79.5t-150 -27.5zM190 771l3 13l46.5 44l54 52t48.5 51h165l26.5 -46l31.5 -54.5l27 -46.5l-3 -13
h-83q-8 11 -24.5 28l-34.5 34l-30 28q-18 -11 -42 -28l-46 -34t-35 -28h-104z" />
    <glyph glyph-name="scircumflex" unicode="&#x15d;" horiz-adv-x="551" 
d="M218 -10q-94 0 -150.5 28.5t-56.5 79.5q0 34 19.5 56t51 32.5t68.5 10.5q0 -36 9 -67.5t29 -51t53 -19.5q38 0 61.5 17t23.5 45q0 34 -28.5 50t-78.5 40q-72 35 -110 73.5t-38 95.5q0 80 66.5 123t183.5 43q77 0 121.5 -12.5t63 -33.5t18.5 -47q0 -46 -38.5 -66
t-106.5 -20q0 27 -6 53.5t-22 44t-45 17.5q-34 0 -51.5 -17t-17.5 -40q0 -32 27.5 -47.5t78.5 -38.5q83 -37 113.5 -76t30.5 -92q0 -87 -66 -134t-203 -47zM131 606l3 13l46.5 44l54 52t48.5 51h165l26.5 -46l31.5 -54.5l27 -46.5l-3 -13h-83q-8 11 -24.5 28l-34.5 34
l-30 28q-18 -11 -42 -28l-46 -34t-35 -28h-104z" />
    <glyph glyph-name="Scedilla" unicode="&#x15e;" horiz-adv-x="617" 
d="M284 -10q-134 0 -199.5 41.5t-65.5 106.5q0 54 43 80.5t116 26.5q0 -72 18.5 -112t48 -56.5t62.5 -16.5q46 0 70.5 26t24.5 58q0 27 -10.5 47.5t-37 41t-73.5 45.5q-89 48 -129.5 99.5t-40.5 127.5q0 66 34.5 115t96.5 76.5t146 27.5q125 0 181.5 -34t56.5 -81
q0 -48 -35 -74t-118 -26q0 32 -9 65.5t-31 57t-61 23.5q-37 0 -64 -21t-27 -65q0 -34 15.5 -55t47 -38.5l77.5 -42.5q77 -38 112.5 -91t35.5 -119q0 -74 -35.5 -126t-99.5 -79.5t-150 -27.5zM239 -240q-35 0 -58 4t-43 10l14 65q37 -8 64 -8q31 0 52.5 10.5t21.5 33.5
q0 17 -20 27.5t-47 11.5l41 95h64l-19 -43q43 -5 69.5 -28t26.5 -55q0 -43 -23 -70t-60.5 -40t-82.5 -13z" />
    <glyph glyph-name="scedilla" unicode="&#x15f;" horiz-adv-x="551" 
d="M218 -10q-94 0 -150.5 28.5t-56.5 79.5q0 34 19.5 56t51 32.5t68.5 10.5q0 -36 9 -67.5t29 -51t53 -19.5q38 0 61.5 17t23.5 45q0 34 -28.5 50t-78.5 40q-72 35 -110 73.5t-38 95.5q0 80 66.5 123t183.5 43q77 0 121.5 -12.5t63 -33.5t18.5 -47q0 -46 -38.5 -66
t-106.5 -20q0 27 -6 53.5t-22 44t-45 17.5q-34 0 -51.5 -17t-17.5 -40q0 -32 27.5 -47.5t78.5 -38.5q83 -37 113.5 -76t30.5 -92q0 -87 -66 -134t-203 -47zM178 -240q-35 0 -58 4t-43 10l14 65q37 -8 64 -8q31 0 52.5 10.5t21.5 33.5q0 17 -20 27.5t-47 11.5l41 95h64
l-19 -43q43 -5 69.5 -28t26.5 -55q0 -43 -23 -70t-60.5 -40t-82.5 -13z" />
    <glyph glyph-name="Scaron" unicode="&#x160;" horiz-adv-x="617" 
d="M284 -10q-134 0 -199.5 41.5t-65.5 106.5q0 54 43 80.5t116 26.5q0 -72 18.5 -112t48 -56.5t62.5 -16.5q46 0 70.5 26t24.5 58q0 27 -10.5 47.5t-37 41t-73.5 45.5q-89 48 -129.5 99.5t-40.5 127.5q0 66 34.5 115t96.5 76.5t146 27.5q125 0 181.5 -34t56.5 -81
q0 -48 -35 -74t-118 -26q0 32 -9 65.5t-31 57t-61 23.5q-37 0 -64 -21t-27 -65q0 -34 15.5 -55t47 -38.5l77.5 -42.5q77 -38 112.5 -91t35.5 -119q0 -74 -35.5 -126t-99.5 -79.5t-150 -27.5zM301 771q-9 18 -24.5 45.5l-32 55l-28.5 46.5l3 13h83q9 -10 26 -27t35.5 -33.5
t30.5 -28.5l41 28.5t44.5 33.5l34.5 27h104l-3 -13l-46.5 -44.5l-55 -52.5t-47.5 -50h-165z" />
    <glyph glyph-name="scaron" unicode="&#x161;" horiz-adv-x="551" 
d="M218 -10q-94 0 -150.5 28.5t-56.5 79.5q0 34 19.5 56t51 32.5t68.5 10.5q0 -36 9 -67.5t29 -51t53 -19.5q38 0 61.5 17t23.5 45q0 34 -28.5 50t-78.5 40q-72 35 -110 73.5t-38 95.5q0 80 66.5 123t183.5 43q77 0 121.5 -12.5t63 -33.5t18.5 -47q0 -46 -38.5 -66
t-106.5 -20q0 27 -6 53.5t-22 44t-45 17.5q-34 0 -51.5 -17t-17.5 -40q0 -32 27.5 -47.5t78.5 -38.5q83 -37 113.5 -76t30.5 -92q0 -87 -66 -134t-203 -47zM231 606q-9 18 -24.5 45.5l-32 55l-28.5 46.5l3 13h83q9 -10 26 -27t35.5 -33.5t30.5 -28.5l41 28.5t44.5 33.5
l34.5 27h104l-3 -13l-46.5 -44.5l-55 -52.5t-47.5 -50h-165z" />
    <glyph glyph-name="uni0162" unicode="&#x162;" horiz-adv-x="682" 
d="M113 0l12 61h6q30 0 56 10.5t33 44.5l109 529h-68q-48 0 -69 -22.5t-38 -73.5l-14 -43h-78l49 208h665l-37 -208h-78q0 3 2 17t3.5 31t3 30.5t1.5 15.5q0 26 -17.5 35.5t-55.5 9.5h-67l-110 -517q-7 -31 -7 -37q0 -19 21.5 -24.5t52.5 -5.5h6l-13 -61h-368zM234 -240
q-35 0 -58 4t-43 10l14 65q37 -8 64 -8q31 0 52.5 10.5t21.5 33.5q0 17 -20 27.5t-47 11.5l41 95h64l-19 -43q43 -5 69.5 -28t26.5 -55q0 -43 -23 -70t-60.5 -40t-82.5 -13z" />
    <glyph glyph-name="uni0163" unicode="&#x163;" horiz-adv-x="453" 
d="M207 -10q-39 0 -72.5 13.5t-53.5 40t-20 65.5q0 18 3 40.5t7 41.5l60 269h-78l12 59q29 0 69.5 13.5t85 44.5t84.5 82h66l-26 -123h121l-15 -76h-123l-59 -260q-5 -24 -7 -39t-2 -29q0 -21 13.5 -33.5t34.5 -12.5q20 0 39.5 8.5t35.5 20.5l28 -39q-35 -34 -82.5 -60
t-120.5 -26zM132 -240q-35 0 -58 4t-43 10l14 65q37 -8 64 -8q31 0 52.5 10.5t21.5 33.5q0 17 -20 27.5t-47 11.5l41 95h64l-19 -43q43 -5 69.5 -28t26.5 -55q0 -43 -23 -70t-60.5 -40t-82.5 -13z" />
    <glyph glyph-name="Tcaron" unicode="&#x164;" horiz-adv-x="682" 
d="M113 0l12 61h6q30 0 56 10.5t33 44.5l109 529h-68q-48 0 -69 -22.5t-38 -73.5l-14 -43h-78l49 208h665l-37 -208h-78q0 3 2 17t3.5 31t3 30.5t1.5 15.5q0 26 -17.5 35.5t-55.5 9.5h-67l-110 -517q-7 -31 -7 -37q0 -19 21.5 -24.5t52.5 -5.5h6l-13 -61h-368zM359 771
q-9 18 -24.5 45.5l-32 55l-28.5 46.5l3 13h83q9 -10 26 -27t35.5 -33.5t30.5 -28.5l41 28.5t44.5 33.5l34.5 27h104l-3 -13l-46.5 -44.5l-55 -52.5t-47.5 -50h-165z" />
    <glyph glyph-name="tcaron" unicode="&#x165;" horiz-adv-x="453" 
d="M207 -10q-39 0 -72.5 13.5t-53.5 40t-20 65.5q0 18 3 40.5t7 41.5l60 269h-78l12 59q29 0 69.5 13.5t85 44.5t84.5 82h66l-26 -123h121l-15 -76h-123l-59 -260q-5 -24 -7 -39t-2 -29q0 -21 13.5 -33.5t34.5 -12.5q20 0 39.5 8.5t35.5 20.5l28 -39q-35 -34 -82.5 -60
t-120.5 -26zM381 600l4 13l34 73t28 74h155l-4 -10q-21 -31 -59 -73t-79 -77h-79z" />
    <glyph glyph-name="Tbar" unicode="&#x166;" horiz-adv-x="682" 
d="M113 0l12 61h6q30 0 56 10.5t33 44.5l44 214h-129l12 56h129l53 259h-68q-48 0 -69 -22.5t-38 -73.5l-14 -43h-78l49 208h665l-37 -208h-78q0 3 2 17t3.5 31t3 30.5t1.5 15.5q0 26 -17.5 35.5t-55.5 9.5h-67l-55 -259h126l-13 -56h-125l-43 -202q-7 -31 -7 -37
q0 -19 21.5 -24.5t52.5 -5.5h6l-13 -61h-368z" />
    <glyph glyph-name="tbar" unicode="&#x167;" horiz-adv-x="453" 
d="M207 -10q-39 0 -72.5 13.5t-53.5 40t-20 65.5q0 18 3 40.5t7 41.5l19 83h-69l12 57h69l29 129h-78l12 59q29 0 69.5 13.5t85 44.5t84.5 82h66l-26 -123h121l-15 -76h-123l-29 -129h105l-12 -57h-106l-17 -74q-5 -24 -7 -39t-2 -29q0 -21 13.5 -33.5t34.5 -12.5
q20 0 39.5 8.5t35.5 20.5l28 -39q-35 -34 -82.5 -60t-120.5 -26z" />
    <glyph glyph-name="Utilde" unicode="&#x168;" horiz-adv-x="760" 
d="M354 -10q-122 0 -187.5 45.5t-65.5 127.5q0 16 3.5 44t7.5 45l72 333q5 19 6.5 27t1.5 11q0 20 -20 25t-52 5h-13l12 61h387l-13 -61h-13q-33 0 -59.5 -9t-33.5 -41l-77 -351q-3 -11 -7.5 -36t-4.5 -46q0 -101 108 -101q57 0 91 24.5t53 67t30 97.5l72 334q2 10 3 19
t1 12q0 20 -20 25t-52 5h-13l12 61h272l-13 -61h-13q-32 0 -58.5 -9t-32.5 -44l-77 -368q-26 -121 -100.5 -181.5t-206.5 -60.5zM624 776q-36 0 -64.5 14.5t-52 29t-45.5 14.5q-24 0 -34.5 -16.5t-16.5 -36.5h-71q7 41 24 76.5t45.5 58.5t68.5 25q36 0 62.5 -14.5t48.5 -29
t44 -14.5q26 0 36 16.5t14 36.5h71q-6 -39 -21 -76t-41.5 -60.5t-67.5 -23.5z" />
    <glyph glyph-name="utilde" unicode="&#x169;" horiz-adv-x="728" 
d="M536 -10q-55 0 -85 13t-41.5 34t-11.5 46q0 20 5 37h-8q-30 -38 -60 -67.5t-66 -45.5t-86 -16q-45 0 -71 15.5t-37 41t-11 54.5q0 25 6 55t10 55l34 177q5 25 7 38t2 21q0 14 -6 20.5t-35 6.5h-25l11 61h271l-61 -299q-6 -28 -9.5 -53t-3.5 -42q0 -38 39 -38q24 0 49 30
t45 75.5t30 93.5l50 233h194l-71 -336l-7 -39t-3 -38q0 -19 10.5 -29.5t26.5 -10.5q15 0 27 6t28 17l29 -37q-26 -30 -66 -54.5t-110 -24.5zM510 611q-36 0 -64.5 14.5t-52 29t-45.5 14.5q-24 0 -34.5 -16.5t-16.5 -36.5h-71q7 41 24 76.5t45.5 58.5t68.5 25
q36 0 62.5 -14.5t48.5 -29t44 -14.5q26 0 36 16.5t14 36.5h71q-6 -39 -21 -76t-41.5 -60.5t-67.5 -23.5z" />
    <glyph glyph-name="Umacron" unicode="&#x16a;" horiz-adv-x="760" 
d="M354 -10q-122 0 -187.5 45.5t-65.5 127.5q0 16 3.5 44t7.5 45l72 333q5 19 6.5 27t1.5 11q0 20 -20 25t-52 5h-13l12 61h387l-13 -61h-13q-33 0 -59.5 -9t-33.5 -41l-77 -351q-3 -11 -7.5 -36t-4.5 -46q0 -101 108 -101q57 0 91 24.5t53 67t30 97.5l72 334q2 10 3 19
t1 12q0 20 -20 25t-52 5h-13l12 61h272l-13 -61h-13q-32 0 -58.5 -9t-32.5 -44l-77 -368q-26 -121 -100.5 -181.5t-206.5 -60.5zM348 771l20 94h290l-20 -94h-290z" />
    <glyph glyph-name="umacron" unicode="&#x16b;" horiz-adv-x="728" 
d="M536 -10q-55 0 -85 13t-41.5 34t-11.5 46q0 20 5 37h-8q-30 -38 -60 -67.5t-66 -45.5t-86 -16q-45 0 -71 15.5t-37 41t-11 54.5q0 25 6 55t10 55l34 177q5 25 7 38t2 21q0 14 -6 20.5t-35 6.5h-25l11 61h271l-61 -299q-6 -28 -9.5 -53t-3.5 -42q0 -38 39 -38q24 0 49 30
t45 75.5t30 93.5l50 233h194l-71 -336l-7 -39t-3 -38q0 -19 10.5 -29.5t26.5 -10.5q15 0 27 6t28 17l29 -37q-26 -30 -66 -54.5t-110 -24.5zM270 606l20 94h290l-20 -94h-290z" />
    <glyph glyph-name="Ubreve" unicode="&#x16c;" horiz-adv-x="760" 
d="M354 -10q-122 0 -187.5 45.5t-65.5 127.5q0 16 3.5 44t7.5 45l72 333q5 19 6.5 27t1.5 11q0 20 -20 25t-52 5h-13l12 61h387l-13 -61h-13q-33 0 -59.5 -9t-33.5 -41l-77 -351q-3 -11 -7.5 -36t-4.5 -46q0 -101 108 -101q57 0 91 24.5t53 67t30 97.5l72 334q2 10 3 19
t1 12q0 20 -20 25t-52 5h-13l12 61h272l-13 -61h-13q-32 0 -58.5 -9t-32.5 -44l-77 -368q-26 -121 -100.5 -181.5t-206.5 -60.5zM511 771q-52 0 -83.5 22.5t-46.5 61.5t-19 88h81q4 -34 26 -51t56 -17q35 0 61.5 16t40.5 52h74q-7 -39 -29.5 -79t-62 -66.5t-98.5 -26.5z" />
    <glyph glyph-name="ubreve" unicode="&#x16d;" horiz-adv-x="728" 
d="M536 -10q-55 0 -85 13t-41.5 34t-11.5 46q0 20 5 37h-8q-30 -38 -60 -67.5t-66 -45.5t-86 -16q-45 0 -71 15.5t-37 41t-11 54.5q0 25 6 55t10 55l34 177q5 25 7 38t2 21q0 14 -6 20.5t-35 6.5h-25l11 61h271l-61 -299q-6 -28 -9.5 -53t-3.5 -42q0 -38 39 -38q24 0 49 30
t45 75.5t30 93.5l50 233h194l-71 -336l-7 -39t-3 -38q0 -19 10.5 -29.5t26.5 -10.5q15 0 27 6t28 17l29 -37q-26 -30 -66 -54.5t-110 -24.5zM416 606q-52 0 -83.5 22.5t-46.5 61.5t-19 88h81q4 -34 26 -51t56 -17q35 0 61.5 16t40.5 52h74q-7 -39 -29.5 -79t-62 -66.5
t-98.5 -26.5z" />
    <glyph glyph-name="Uring" unicode="&#x16e;" horiz-adv-x="760" 
d="M354 -10q-122 0 -187.5 45.5t-65.5 127.5q0 16 3.5 44t7.5 45l72 333q5 19 6.5 27t1.5 11q0 20 -20 25t-52 5h-13l12 61h387l-13 -61h-13q-33 0 -59.5 -9t-33.5 -41l-77 -351q-3 -11 -7.5 -36t-4.5 -46q0 -101 108 -101q57 0 91 24.5t53 67t30 97.5l72 334q2 10 3 19
t1 12q0 20 -20 25t-52 5h-13l12 61h272l-13 -61h-13q-32 0 -58.5 -9t-32.5 -44l-77 -368q-26 -121 -100.5 -181.5t-206.5 -60.5zM490 746q-50 0 -85 28.5t-35 85.5t35 85.5t85 28.5t85 -28.5t35 -85.5t-35 -85.5t-85 -28.5zM490 805q22 0 38 12t16 43t-16 42.5t-38 11.5
t-38 -11.5t-16 -42.5t16 -43t38 -12z" />
    <glyph glyph-name="uring" unicode="&#x16f;" horiz-adv-x="728" 
d="M536 -10q-55 0 -85 13t-41.5 34t-11.5 46q0 20 5 37h-8q-30 -38 -60 -67.5t-66 -45.5t-86 -16q-45 0 -71 15.5t-37 41t-11 54.5q0 25 6 55t10 55l34 177q5 25 7 38t2 21q0 14 -6 20.5t-35 6.5h-25l11 61h271l-61 -299q-6 -28 -9.5 -53t-3.5 -42q0 -38 39 -38q24 0 49 30
t45 75.5t30 93.5l50 233h194l-71 -336l-7 -39t-3 -38q0 -19 10.5 -29.5t26.5 -10.5q15 0 27 6t28 17l29 -37q-26 -30 -66 -54.5t-110 -24.5zM412 581q-50 0 -85 28.5t-35 85.5t35 85.5t85 28.5t85 -28.5t35 -85.5t-35 -85.5t-85 -28.5zM412 640q22 0 38 12t16 43t-16 42.5
t-38 11.5t-38 -11.5t-16 -42.5t16 -43t38 -12z" />
    <glyph glyph-name="Uhungarumlaut" unicode="&#x170;" horiz-adv-x="760" 
d="M354 -10q-122 0 -187.5 45.5t-65.5 127.5q0 16 3.5 44t7.5 45l72 333q5 19 6.5 27t1.5 11q0 20 -20 25t-52 5h-13l12 61h387l-13 -61h-13q-33 0 -59.5 -9t-33.5 -41l-77 -351q-3 -11 -7.5 -36t-4.5 -46q0 -101 108 -101q57 0 91 24.5t53 67t30 97.5l72 334q2 10 3 19
t1 12q0 20 -20 25t-52 5h-13l12 61h272l-13 -61h-13q-32 0 -58.5 -9t-32.5 -44l-77 -368q-26 -121 -100.5 -181.5t-206.5 -60.5zM547 771l3 13q28 32 56.5 71.5t50.5 75.5h142l-3 -10q-10 -13 -30.5 -33l-45 -42t-49.5 -41.5t-45 -33.5h-79zM350 771l3 13q28 32 56 71t51 76
h142l-3 -10q-10 -13 -30.5 -33l-45 -42t-49.5 -41.5t-45 -33.5h-79z" />
    <glyph glyph-name="uhungarumlaut" unicode="&#x171;" horiz-adv-x="728" 
d="M536 -10q-55 0 -85 13t-41.5 34t-11.5 46q0 20 5 37h-8q-30 -38 -60 -67.5t-66 -45.5t-86 -16q-45 0 -71 15.5t-37 41t-11 54.5q0 25 6 55t10 55l34 177q5 25 7 38t2 21q0 14 -6 20.5t-35 6.5h-25l11 61h271l-61 -299q-6 -28 -9.5 -53t-3.5 -42q0 -38 39 -38q24 0 49 30
t45 75.5t30 93.5l50 233h194l-71 -336l-7 -39t-3 -38q0 -19 10.5 -29.5t26.5 -10.5q15 0 27 6t28 17l29 -37q-26 -30 -66 -54.5t-110 -24.5zM457 606l3 13q28 32 56.5 71.5t50.5 75.5h142l-3 -10q-10 -13 -30.5 -33l-45 -42t-49.5 -41.5t-45 -33.5h-79zM260 606l3 13
q28 32 56 71t51 76h142l-3 -10q-10 -13 -30.5 -33l-45 -42t-49.5 -41.5t-45 -33.5h-79z" />
    <glyph glyph-name="Uogonek" unicode="&#x172;" horiz-adv-x="760" 
d="M354 -10q-122 0 -187.5 45.5t-65.5 127.5q0 16 3.5 44t7.5 45l72 333q5 19 6.5 27t1.5 11q0 20 -20 25t-52 5h-13l12 61h387l-13 -61h-13q-33 0 -59.5 -9t-33.5 -41l-77 -351q-3 -11 -7.5 -36t-4.5 -46q0 -101 108 -101q57 0 91 24.5t53 67t30 97.5l72 334q2 10 3 19
t1 12q0 20 -20 25t-52 5h-13l12 61h272l-13 -61h-13q-32 0 -58.5 -9t-32.5 -44l-77 -368q-26 -121 -100.5 -181.5t-206.5 -60.5zM342 -240q-64 0 -100 26.5t-36 75.5q0 54 41.5 88.5t105.5 49.5h92q-23 -6 -51 -20.5t-48 -37.5t-20 -54q0 -22 16 -35.5t41 -13.5q14 0 30 2
t35 6l-14 -71q-42 -16 -92 -16z" />
    <glyph glyph-name="uogonek" unicode="&#x173;" horiz-adv-x="728" 
d="M536 -10q-55 0 -85 13t-41.5 34t-11.5 46q0 20 5 37h-8q-30 -38 -60 -67.5t-66 -45.5t-86 -16q-45 0 -71 15.5t-37 41t-11 54.5q0 25 6 55t10 55l34 177q5 25 7 38t2 21q0 14 -6 20.5t-35 6.5h-25l11 61h271l-61 -299q-6 -28 -9.5 -53t-3.5 -42q0 -38 39 -38q24 0 49 30
t45 75.5t30 93.5l50 233h194l-71 -336l-7 -39t-3 -38q0 -19 10.5 -29.5t26.5 -10.5q15 0 27 6t28 17l29 -37q-26 -30 -66 -54.5t-110 -24.5zM508 -240q-64 0 -100 26.5t-36 75.5q0 54 41.5 88.5t105.5 49.5h92q-23 -6 -51 -20.5t-48 -37.5t-20 -54q0 -22 16 -35.5t41 -13.5
q14 0 30 2t35 6l-14 -71q-42 -16 -92 -16z" />
    <glyph glyph-name="Wcircumflex" unicode="&#x174;" horiz-adv-x="1083" 
d="M218 0l-56 609q-3 30 -23 37t-42 7h-13l12 61h368l-12 -61h-23q-32 0 -50.5 -4t-18.5 -28q0 -8 0.5 -19.5t1.5 -31.5l15 -197q1 -6 2.5 -27t3 -47.5t2.5 -51.5t1 -40q6 23 16.5 43.5l29.5 55.5l218 401h74l75 -344l17 -87t9 -72q5 22 16 52l23.5 61.5t23.5 56.5l89 211
q12 26 12 51q0 12 -12.5 14.5t-41.5 2.5h-23l12 61h273l-12 -61h-28q-29 0 -45 -14t-36 -55l-269 -584h-130l-87 420l-224 -420h-148zM469 771l3 13l46.5 44l54 52t48.5 51h165l26.5 -46l31.5 -54.5l27 -46.5l-3 -13h-83q-8 11 -24.5 28l-34.5 34l-30 28q-18 -11 -42 -28
l-46 -34t-35 -28h-104z" />
    <glyph glyph-name="wcircumflex" unicode="&#x175;" horiz-adv-x="916" 
d="M487 -10v99t-1.5 106t-3.5 99.5t-5 78.5q-21 -53 -41.5 -96.5t-44 -85.5t-53 -87l-68.5 -101l-147 -7l-12 405q-1 46 -20.5 60t-45.5 14h-7l16 61h225q3 -50 5 -91.5t3 -82.5t2 -89.5t3 -114.5h9q51 77 93 168.5t82 200.5l151 4q4 -30 7.5 -73.5t6.5 -92t5 -94.5
l3.5 -81.5t1.5 -52.5h7q61 75 86 126t30 81.5t5 41.5q0 38 -19 57.5t-37 22.5q3 49 29.5 64.5t56.5 15.5q39 0 60.5 -25t21.5 -67q0 -57 -24.5 -120t-64.5 -124.5t-87.5 -115.5t-93.5 -93zM328 606l3 13l46.5 44l54 52t48.5 51h165l26.5 -46l31.5 -54.5l27 -46.5l-3 -13h-83
q-8 11 -24.5 28l-34.5 34l-30 28q-18 -11 -42 -28l-46 -34t-35 -28h-104z" />
    <glyph glyph-name="Ycircumflex" unicode="&#x176;" horiz-adv-x="743" 
d="M115 0l12 61h30q31 0 55.5 11.5t31.5 45.5l22 106l-102 376q-8 30 -19.5 41.5t-40.5 11.5h-13l12 61h366l-12 -61h-42q-24 0 -33.5 -8.5t-9.5 -22.5q0 -6 3 -25t9 -45l29 -146l12 -66t8 -63q7 19 27 55t45 73l102 151q6 11 15 31.5t9 37.5q0 14 -16 21t-54 7h-9l14 61
h273l-13 -61h-19q-15 0 -26.5 -3.5t-23.5 -15.5t-30 -38l-259 -373l-23 -105q-3 -13 -4 -18.5t-1 -8.5q0 -19 21.5 -24.5t52.5 -5.5h25l-13 -61h-411zM275 771l3 13l46.5 44l54 52t48.5 51h165l26.5 -46l31.5 -54.5l27 -46.5l-3 -13h-83q-8 11 -24.5 28l-34.5 34l-30 28
q-18 -11 -42 -28l-46 -34t-35 -28h-104z" />
    <glyph glyph-name="ycircumflex" unicode="&#x177;" horiz-adv-x="629" 
d="M-61 -240q-31 0 -60 5t-52 13l15 62q12 -4 35.5 -9t54.5 -5q58 0 102.5 14t83.5 43t78 73l-120 466q-7 30 -23.5 41.5t-45.5 11.5h-10l15 61h233l57 -251q6 -26 11.5 -62.5t9.5 -70t5 -50.5h3q41 51 76 100.5t56 93.5t21 76q0 43 -20.5 61.5t-51.5 18.5q0 41 25.5 67.5
t65.5 26.5q47 0 70 -23.5t23 -61.5q0 -78 -53 -171.5t-146 -215.5l-106.5 -134.5t-98.5 -98.5t-110.5 -60.5t-142.5 -20.5zM160 606l3 13l46.5 44l54 52t48.5 51h165l26.5 -46l31.5 -54.5l27 -46.5l-3 -13h-83q-8 11 -24.5 28l-34.5 34l-30 28q-18 -11 -42 -28l-46 -34
t-35 -28h-104z" />
    <glyph glyph-name="Ydieresis" unicode="&#x178;" horiz-adv-x="743" 
d="M115 0l12 61h30q31 0 55.5 11.5t31.5 45.5l22 106l-102 376q-8 30 -19.5 41.5t-40.5 11.5h-13l12 61h366l-12 -61h-42q-24 0 -33.5 -8.5t-9.5 -22.5q0 -6 3 -25t9 -45l29 -146l12 -66t8 -63q7 19 27 55t45 73l102 151q6 11 15 31.5t9 37.5q0 14 -16 21t-54 7h-9l14 61
h273l-13 -61h-19q-15 0 -26.5 -3.5t-23.5 -15.5t-30 -38l-259 -373l-23 -105q-3 -13 -4 -18.5t-1 -8.5q0 -19 21.5 -24.5t52.5 -5.5h25l-13 -61h-411zM666 777q-32 0 -51 17.5t-19 51.5q0 41 20 65.5t56 24.5q31 0 50.5 -17t19.5 -52q0 -50 -24 -70t-52 -20zM420 777
q-32 0 -51 17.5t-19 51.5q0 41 20.5 65.5t55.5 24.5q32 0 51 -17t19 -52q0 -50 -24 -70t-52 -20z" />
    <glyph glyph-name="Zacute" unicode="&#x179;" horiz-adv-x="711" 
d="M9 0l10 57l485 588h-150q-45 0 -77 -17.5t-46 -73.5l-19 -69h-87l54 229h580l-11 -58l-487 -587h161q31 0 60.5 10t54 38t39.5 81l8 31h87l-52 -229h-610zM404 771l3 13l43 45t46.5 53.5l38.5 48.5h194l-3 -10q-12 -12 -38.5 -31.5t-60.5 -41.5t-69.5 -42.5t-64.5 -34.5
h-89z" />
    <glyph glyph-name="zacute" unicode="&#x17a;" horiz-adv-x="593" 
d="M1 0l13 59l330 401h-107q-26 0 -42.5 -13.5t-28.5 -35.5l-25 -48l-2 -4h-75l47 177h467l-13 -60l-331 -400h151q23 0 39 15t27 37.5t20 43.5l10 23h70l-46 -195h-504zM277 606l3 13l43 45t46.5 53.5l38.5 48.5h194l-3 -10q-12 -12 -38.5 -31.5t-60.5 -41.5t-69.5 -42.5
t-64.5 -34.5h-89z" />
    <glyph glyph-name="Zdotaccent" unicode="&#x17b;" horiz-adv-x="711" 
d="M9 0l10 57l485 588h-150q-45 0 -77 -17.5t-46 -73.5l-19 -69h-87l54 229h580l-11 -58l-487 -587h161q31 0 60.5 10t54 38t39.5 81l8 31h87l-52 -229h-610zM494 784q-39 0 -66.5 16.5t-27.5 50.5q0 35 17 55t43.5 28t56.5 8q38 0 68 -15.5t30 -53.5q0 -28 -17.5 -48
t-45 -30.5t-58.5 -10.5z" />
    <glyph glyph-name="zdotaccent" unicode="&#x17c;" horiz-adv-x="593" 
d="M1 0l13 59l330 401h-107q-26 0 -42.5 -13.5t-28.5 -35.5l-25 -48l-2 -4h-75l47 177h467l-13 -60l-331 -400h151q23 0 39 15t27 37.5t20 43.5l10 23h70l-46 -195h-504zM352 619q-39 0 -66.5 16.5t-27.5 50.5q0 35 17 55t43.5 28t56.5 8q38 0 68 -15.5t30 -53.5
q0 -28 -17.5 -48t-45 -30.5t-58.5 -10.5z" />
    <glyph glyph-name="Zcaron" unicode="&#x17d;" horiz-adv-x="711" 
d="M9 0l10 57l485 588h-150q-45 0 -77 -17.5t-46 -73.5l-19 -69h-87l54 229h580l-11 -58l-487 -587h161q31 0 60.5 10t54 38t39.5 81l8 31h87l-52 -229h-610zM415 771q-9 18 -24.5 45.5l-32 55l-28.5 46.5l3 13h83q9 -10 26 -27t35.5 -33.5t30.5 -28.5l41 28.5t44.5 33.5
l34.5 27h104l-3 -13l-46.5 -44.5l-55 -52.5t-47.5 -50h-165z" />
    <glyph glyph-name="zcaron" unicode="&#x17e;" horiz-adv-x="593" 
d="M1 0l13 59l330 401h-107q-26 0 -42.5 -13.5t-28.5 -35.5l-25 -48l-2 -4h-75l47 177h467l-13 -60l-331 -400h151q23 0 39 15t27 37.5t20 43.5l10 23h70l-46 -195h-504zM252 606q-9 18 -24.5 45.5l-32 55l-28.5 46.5l3 13h83q9 -10 26 -27t35.5 -33.5t30.5 -28.5l41 28.5
t44.5 33.5l34.5 27h104l-3 -13l-46.5 -44.5l-55 -52.5t-47.5 -50h-165z" />
    <glyph glyph-name="longs" unicode="&#x17f;" horiz-adv-x="481" 
d="M-75 -240q-15 0 -34.5 2.5t-29.5 5.5l15 67q8 -2 21.5 -4.5t24.5 -2.5q33 0 55.5 13t39.5 48.5t31 101.5l121 569q23 110 90 160t182 50q87 0 132.5 -28.5t45.5 -68.5q0 -33 -35.5 -53t-103.5 -20q0 26 -2.5 49t-11.5 37.5t-28 14.5q-28 0 -42 -25t-25 -76l-121 -575
q-18 -83 -53.5 -135t-81 -80.5t-95 -39t-95.5 -10.5z" />
    <glyph glyph-name="uni0180" unicode="&#x180;" horiz-adv-x="668" 
d="M291 -10q-44 0 -79 11t-55 25l-66 -29h-74l128 603h-86l13 57h84q1 4 1 13q0 17 -6 23t-35 6h-34l12 61h280l-23 -103h143l-13 -57h-143l-3 -17q-3 -14 -12.5 -42l-21 -59.5l-21.5 -57.5l-14 -37h5q37 77 81.5 112t113.5 35q68 0 114 -46t46 -135q0 -61 -22.5 -124.5
t-65.5 -117.5t-105 -87.5t-142 -33.5zM284 68q39 0 67.5 28t47.5 71.5t28 90t9 82.5q0 56 -13.5 78.5t-31.5 22.5q-24 0 -45 -21t-38 -52t-28.5 -61t-15.5 -47l-35 -170q9 -9 23 -15.5t32 -6.5z" />
    <glyph glyph-name="uni0181" unicode="&#x181;" horiz-adv-x="868" 
d="M158 0l13 61h13q30 0 55.5 9t32.5 42l95 449q2 8 3 15t1 15q0 23 -16.5 37.5t-48.5 14.5q-55 0 -87.5 -27t-32.5 -70q0 -33 7 -49.5t16 -33.5q-11 -11 -26.5 -15.5t-32.5 -4.5q-35 0 -57 24.5t-22 71.5q0 80 56.5 127.5t183.5 47.5h344q116 0 175 -38t59 -112
q0 -55 -21.5 -92.5t-58.5 -60t-83 -33.5l-1 -4q54 -10 88 -46.5t34 -99.5q0 -109 -73 -168.5t-215 -59.5h-401zM534 409h41q54 0 77.5 35.5t23.5 99.5q0 101 -61 101h-33zM462 69h48q72 0 101.5 42.5t29.5 123.5q0 104 -74 104h-48z" />
    <glyph glyph-name="uni0182" unicode="&#x182;" horiz-adv-x="708" 
d="M-25 0l13 61h13q30 0 55.5 9t32.5 42l99 464q4 17 6.5 29t2.5 18q0 19 -19.5 24.5t-52.5 5.5h-13l12 61h575l-38 -208h-85q1 6 3 32t2 48q0 29 -17 44t-57 15h-108l-48 -233h54q63 0 115.5 -15t83.5 -55t31 -114q0 -109 -73 -168.5t-215 -59.5h-372zM279 69h28
q48 0 74.5 22.5t37 58t10.5 75.5q0 59 -18 86.5t-55 27.5h-19z" />
    <glyph glyph-name="uni0183" unicode="&#x183;" horiz-adv-x="668" 
d="M291 -10q-44 0 -79 11t-55 25l-66 -29h-74l134 628q2 8 3.5 18.5t1.5 17.5q0 20 -5.5 29t-34.5 9h-34l9 61h497l-25 -167h-77v49q1 26 -3 37t-16.5 13.5t-36.5 2.5h-70l-21 -103q-3 -16 -12.5 -43.5l-21 -58.5t-21.5 -55.5l-14 -34.5h5q37 77 81.5 111.5t114.5 34.5
q67 0 113.5 -46t46.5 -135q0 -61 -21.5 -126.5t-64 -122t-106 -91.5t-148.5 -35zM284 68q32 0 57 20t43.5 52.5t31.5 70.5t19 75t6 66q0 56 -13.5 78.5t-32.5 22.5q-24 0 -45 -21t-38 -52t-28 -60.5t-15 -47.5l-40 -182q9 -9 23 -15.5t32 -6.5z" />
    <glyph glyph-name="uni0184" unicode="&#x184;" horiz-adv-x="721" 
d="M353 -8q-109 0 -170 38.5t-61 138.5q0 42 12 93l69 327q3 16 4 23.5t1 10.5q0 19 -18.5 24.5t-51.5 5.5h-13l13 61h385l-14 -61h-13q-32 0 -59.5 -9t-34.5 -44l-37 -188h53q63 0 115.5 -15t84 -54t31.5 -111q0 -112 -78 -176t-218 -64zM358 72q41 0 62 37t21 121
q0 109 -73 109h-19l-32 -147q-5 -23 -6.5 -39.5t-1.5 -27.5q0 -19 9.5 -36t39.5 -17z" />
    <glyph glyph-name="uni0185" unicode="&#x185;" horiz-adv-x="679" 
d="M312 -10q-60 0 -114.5 20t-89 67t-34.5 129q0 10 2.5 29t5.5 33l79 357q6 29 6 36q0 20 -6 29t-35 9h-34l9 61h283l-34 -164q-3 -15 -12.5 -43l-21 -59.5l-21.5 -57t-14 -36.5h5q36 77 80.5 111.5t114.5 34.5q67 0 113.5 -46t46.5 -135q0 -61 -22.5 -126.5t-65 -122
t-103.5 -91.5t-138 -35zM315 62q32 0 55 20.5t38.5 54t25.5 72.5t14 76.5t4 66.5q0 56 -13.5 78.5t-32.5 22.5q-25 0 -49 -23t-44 -60.5t-35.5 -80.5t-24 -83t-8.5 -69q0 -25 17 -50t53 -25z" />
    <glyph glyph-name="uni0186" unicode="&#x186;" horiz-adv-x="698" 
d="M210 -10q-99 0 -155 26.5t-56 87.5q0 38 23.5 62.5t63.5 36t89 11.5q0 -21 2.5 -47.5t10 -50t22.5 -39t39 -15.5q43 0 78 28t61 74t43.5 102.5t26 113.5t8.5 106q0 70 -30.5 103t-78.5 33q-52 0 -79.5 -28t-27.5 -96q-38 0 -70.5 7t-52.5 25t-20 51q0 52 37 85t95.5 49
t121.5 16q146 0 229.5 -70.5t83.5 -196.5q0 -68 -21 -136t-61 -129t-97 -108t-128.5 -74t-156.5 -27z" />
    <glyph glyph-name="uni0187" unicode="&#x187;" horiz-adv-x="698" 
d="M394 -10q-153 0 -238 71t-85 199q0 90 33 174.5t94 151.5t146.5 106t190.5 39q44 0 78 -5.5t59 -15.5l2 6q29 86 65.5 119.5t96.5 33.5q44 0 78 -18.5t34 -56.5q0 -12 -5.5 -30.5t-17.5 -30.5q-13 11 -31.5 21t-47.5 10q-32 0 -56.5 -24.5t-34.5 -72.5l-14 -66
q-9 -43 -52.5 -68.5t-118.5 -25.5q0 21 -2.5 47.5t-10.5 50t-22.5 39t-38.5 15.5q-41 0 -75 -24.5t-60.5 -66t-44.5 -93.5t-27.5 -107.5t-9.5 -106.5q0 -82 42.5 -127.5t126.5 -45.5q68 0 110 28.5t67 62.5q6 -4 13 -14t7 -21q0 -38 -30.5 -73.5t-87 -58t-133.5 -22.5z" />
    <glyph glyph-name="uni0188" unicode="&#x188;" horiz-adv-x="547" 
d="M278 -10q-65 0 -120 23t-87.5 68.5t-32.5 115.5q0 56 22.5 116.5t66.5 113.5t110 86t153 33q29 0 53.5 -4t43.5 -11l22 76q17 59 37.5 92t48.5 47t68 14q30 0 57 -8t44.5 -24.5t17.5 -42.5q0 -12 -5.5 -30.5t-17.5 -30.5q-14 11 -36 20.5t-43 9.5q-31 0 -55 -21.5
t-36 -74.5l-31 -124q-5 -22 -18 -44t-42.5 -37t-85.5 -15q0 57 -18.5 98t-51.5 41q-26 0 -47.5 -28.5t-36.5 -73t-23 -91.5t-8 -85q0 -58 28 -90.5t82 -32.5t85 28t52 61q8 -8 13.5 -23t5.5 -35q0 -29 -22.5 -56t-70 -44t-122.5 -17z" />
    <glyph glyph-name="uni0189" unicode="&#x189;" horiz-adv-x="800" 
d="M-26 0l13 61h15q29 0 54.5 9t32.5 42l48 227h-72l14 69h72l36 170q4 16 6.5 27.5t2.5 17.5q0 18 -18 24t-53 6h-13l13 61h349q149 0 233 -69.5t84 -202.5q0 -89 -29 -169t-85 -141.5t-137.5 -96.5t-186.5 -35h-379zM279 70h16q90 0 154 48.5t97.5 133.5t33.5 196
q0 101 -44 149t-120 48h-17l-49 -237h95l-14 -69h-96z" />
    <glyph glyph-name="uni018A" unicode="&#x18a;" horiz-adv-x="984" 
d="M156 0l13 61h15q30 0 55.5 9t32.5 42l94 442q3 14 4 20.5t1 10.5q0 58 -65 58q-55 0 -87.5 -27t-32.5 -70q0 -33 7 -49.5t16 -33.5q-11 -11 -26.5 -15.5t-32.5 -4.5q-35 0 -57 24.5t-22 71.5q0 80 56.5 127.5t183.5 47.5h346q149 0 233 -69.5t84 -202.5q0 -89 -29 -169
t-85 -141.5t-137.5 -96.5t-186.5 -35h-380zM463 70h14q90 0 154 48.5t97.5 133.5t33.5 196q0 101 -44 149t-120 48h-14z" />
    <glyph glyph-name="uni018B" unicode="&#x18b;" horiz-adv-x="676" 
d="M275 0q-96 0 -151.5 24t-79 65.5t-23.5 92.5q0 66 25.5 110t70.5 69t103 35.5t124 10.5h58l49 232h-116q-47 0 -68 -17t-27 -40l-25 -76h-78l49 208h573l-12 -61h-64q-16 0 -25 -11.5t-17 -48.5l-99 -467q-4 -20 -4 -34q0 -13 1.5 -22t17.5 -9h63l-13 -61h-332zM293 67
h37l59 274h-31q-41 0 -69 -24.5t-42.5 -63.5t-14.5 -83q0 -25 4 -48.5t17.5 -39t39.5 -15.5z" />
    <glyph glyph-name="uni018C" unicode="&#x18c;" horiz-adv-x="728" 
d="M198 -10q-53 0 -88.5 24t-53.5 65.5t-18 93.5q0 47 13.5 98.5t40 100t66 88t91 63t115.5 23.5q20 0 43 -1.5t47 -5.5q4 17 6.5 29.5t5.5 25.5l24 105h-149q-52 0 -73 -18.5t-26 -41.5l-15 -56h-86l43 177h516l-114 -531q-2 -11 -6.5 -30t-8 -38.5t-3.5 -32.5
q0 -24 10.5 -35.5t25.5 -11.5q13 0 22 5l22 12l25 -48q-18 -13 -41 -27t-54 -23.5t-75 -9.5q-50 0 -81.5 20.5t-31.5 61.5q0 10 1 22.5t4 28.5h-8q-25 -42 -49.5 -72t-57 -45.5t-82.5 -15.5zM274 83q26 0 52.5 30t48 77.5t31.5 97.5l34 158q-9 11 -23.5 16.5t-31.5 5.5
q-31 0 -56.5 -20t-44.5 -53t-31.5 -72.5t-19 -78.5t-6.5 -70q0 -54 13.5 -72.5t33.5 -18.5z" />
    <glyph glyph-name="uni018D" unicode="&#x18d;" horiz-adv-x="643" 
d="M360 546q76 0 134 -23.5t90 -67.5t32 -105q0 -74 -31 -124.5t-85 -84t-122 -53.5q30 -29 53.5 -63.5t23.5 -82.5q0 -59 -34.5 -97t-90.5 -56t-121 -18q-71 0 -117 18t-68.5 43t-22.5 47q0 37 37 56.5t91 19.5q0 -52 18 -86.5t66 -34.5q36 0 58.5 25t22.5 66
q0 35 -33.5 63.5t-96.5 69.5q-59 37 -91 88.5t-32 111.5q0 87 42 151.5t114 100.5t163 36zM352 477q-34 0 -59.5 -25t-40 -68t-14.5 -97q0 -62 28 -95.5t65 -57.5q41 19 70 74t29 145q0 61 -21 92.5t-57 31.5z" />
    <glyph glyph-name="uni018E" unicode="&#x18e;" horiz-adv-x="675" 
d="M-21 0l32 191h82v-32q0 -37 3.5 -56.5t14.5 -26.5t36 -7h180l58 270h-235l16 68h234l50 238h-159q-25 0 -39 -16t-26 -56l-14 -50h-83l42 191h587l-13 -61h-63q-13 0 -23 -11.5t-19 -52.5l-100 -477q-3 -15 -3 -25q0 -16 5.5 -21t13.5 -5h64l-13 -61h-628z" />
    <glyph glyph-name="uni018F" unicode="&#x18f;" horiz-adv-x="727" 
d="M273 -10q-64 0 -114.5 15t-79 50t-28.5 93q0 59 32 100t83.5 66.5t110.5 39.5t113.5 19.5t92.5 5.5h14q3 11 3 28.5v29.5q0 35 -6 68.5t-23.5 61.5t-50 44.5t-85.5 16.5q-61 0 -104.5 -24t-88.5 -70q-4 4 -10 12.5t-6 18.5q0 39 31 75.5t89 60.5t140 24q62 0 118.5 -14.5
t101.5 -47.5t71 -87t26 -133q0 -97 -32.5 -180t-90.5 -144t-136.5 -95t-170.5 -34zM303 63q52 0 102 61.5t78 185.5h-35q-5 0 -28 -1.5t-54 -8.5t-60.5 -24.5t-49.5 -49t-20 -81.5q0 -28 15.5 -55t51.5 -27z" />
    <glyph glyph-name="uni0190" unicode="&#x190;" horiz-adv-x="635" 
d="M333 -11q-82 0 -148 18.5t-104 58.5t-38 105q0 47 21 83.5t55 63t74 42.5t79 22q-33 9 -62.5 26t-47.5 42.5t-18 63.5q0 56 28.5 96t75.5 65t104 37t115 12q113 0 168 -28.5t55 -81.5q0 -36 -27 -58t-67.5 -31.5t-79.5 -9.5q0 21 -1.5 45.5t-7.5 46.5t-20.5 36t-41.5 14
q-41 0 -66.5 -25t-36.5 -62t-11 -74q0 -52 27 -72t95 -20h94l-14 -70h-98q-29 0 -64.5 -6.5t-67.5 -22.5t-53 -43.5t-21 -70.5q0 -57 35 -84.5t90 -27.5q60 0 103.5 14t79.5 37.5t71 51.5q7 -7 10.5 -18t3.5 -22q0 -34 -24.5 -62t-65.5 -48.5t-93 -31.5t-106 -11z" />
    <glyph glyph-name="uni0191" unicode="&#x191;" horiz-adv-x="776" 
d="M159 -10q-94 0 -150.5 28.5t-56.5 79.5q0 34 19.5 56t51 32.5t68.5 10.5q0 -36 4 -67.5t19 -51t48 -19.5q26 0 41.5 22.5t25.5 68.5l93 435q4 19 6 27t2 11q0 20 -20 25t-52 5h-13l12 61h584l-37 -194h-85q2 17 3.5 35.5t1.5 22.5q0 29 -16.5 48t-58.5 19h-116l-55 -261
h234l-13 -67h-234l-23 -106q-17 -77 -50.5 -126t-89.5 -72t-143 -23z" />
    <glyph glyph-name="florin" unicode="&#x192;" horiz-adv-x="564" 
d="M112 -12q-82 0 -121.5 28.5t-39.5 68.5q0 33 29.5 53t92.5 20q0 -38 10 -69.5t35 -31.5q26 0 39.5 28.5t28.5 100.5l57 274h-91l13 55l96 21l9 35q26 101 89.5 150t178.5 49q87 0 132.5 -28.5t45.5 -68.5q0 -33 -35.5 -53t-103.5 -20q0 38 -9.5 69.5t-35.5 31.5
q-25 0 -39.5 -25t-24.5 -76l-13 -64h137l-16 -76h-138l-51 -245q-25 -121 -92.5 -174t-182.5 -53z" />
    <glyph glyph-name="uni0193" unicode="&#x193;" horiz-adv-x="856" 
d="M390 -10q-156 0 -237.5 72t-81.5 196q0 97 35 181.5t99.5 148.5t154 100t198.5 36q53 0 93.5 -8.5t70.5 -22.5l8 23q27 86 64 119.5t97 33.5q44 0 78.5 -18.5t34.5 -56.5q0 -12 -5.5 -30.5t-18.5 -30.5q-13 11 -31.5 21t-47.5 10q-32 0 -56 -24.5t-35 -72.5l-9 -41
q-28 -132 -178 -132q0 66 -25 112t-78 46q-52 0 -96.5 -32.5t-77.5 -89.5t-51.5 -129t-18.5 -152q0 -81 28 -132t92 -51q18 0 37 4t34 10l33 140q7 35 7 38q0 19 -19 24.5t-53 5.5h-16l13 61h382l-12 -61h-4q-37 0 -63.5 -9t-33.5 -44l-42 -199q-64 -23 -125.5 -34.5
t-143.5 -11.5z" />
    <glyph glyph-name="uni0194" unicode="&#x194;" horiz-adv-x="739" 
d="M250 -240q-54 0 -87 13t-51 33.5t-24.5 43.5t-6.5 43q0 51 22 98.5t54.5 89.5t66 76l57.5 58l-99 394q-7 29 -25.5 36.5t-40.5 7.5h-20l13 61h379l-13 -61h-23q-32 0 -50.5 -4t-18.5 -28q0 -8 2 -21.5t9 -43.5l38 -179l172 208q14 17 19.5 25.5t5.5 18.5q0 24 -58 24h-23
l11 61h279l-12 -61h-35q-19 0 -31.5 -4.5t-25 -17t-32.5 -37.5l-248 -307q4 -21 12 -55.5t15.5 -76t13 -83.5t5.5 -79q0 -75 -25.5 -121t-64.5 -70t-82 -33t-78 -9zM241 -169q40 0 60.5 24t20.5 76q0 38 -5.5 86t-14.5 98l-55.5 -70t-47.5 -73t-19 -72q0 -24 13.5 -46.5
t47.5 -22.5z" />
    <glyph glyph-name="uni0195" unicode="&#x195;" horiz-adv-x="1007" 
d="M609 -8q-112 0 -171 38.5t-59 125.5q0 32 4 55l8 45l15 81q5 22 6.5 35t1.5 29q0 18 -7 31t-29 13q-24 0 -45 -25t-38 -62t-29.5 -76t-18.5 -68l-51 -214h-192l133 625l4 21.5t2 14.5q0 19 -5.5 28.5t-34.5 9.5h-31l9 61h285l-53 -247q-4 -13 -8 -31.5t-11 -38.5h2
q37 56 80.5 80t106.5 24q53 0 82 -16.5t40.5 -43.5t11.5 -58q0 -26 -6.5 -57.5l-11.5 -57.5l-27 -135q-2 -10 -3 -19.5t-1 -17.5q0 -27 12 -45.5t41 -18.5q23 0 39 11.5t29.5 42.5t27.5 89l75 315h187l-60 -290q-6 -30 -15 -64.5t-27 -68t-50.5 -61t-85.5 -44t-132 -16.5z
" />
    <glyph glyph-name="uni0196" unicode="&#x196;" horiz-adv-x="517" 
d="M302 -10q-73 0 -114 19t-57 52.5t-16 76.5q0 22 3 44t9 52l74 354q7 31 7 35q0 20 -20 25t-52 5h-13l13 61h385l-13 -61h-13q-32 0 -59 -9t-34 -44l-77 -366q-6 -28 -9.5 -50.5t-3.5 -39.5q0 -40 15.5 -58.5t47.5 -18.5q11 0 28 3t30 7l10 -68q-40 -13 -76.5 -16
t-64.5 -3z" />
    <glyph glyph-name="uni0197" unicode="&#x197;" horiz-adv-x="426" 
d="M-25 0l13 61h13q30 0 55.5 9t32.5 42l49 225h-97l14 70h98l39 178q4 18 4.5 26.5t0.5 11.5q0 20 -20 25t-52 5h-13l12 61h385l-12 -61h-13q-33 0 -58.5 -9t-33.5 -44l-41 -193h110l-14 -70h-111l-42 -194q-4 -19 -7 -31t-3 -21q0 -19 21.5 -24.5t52.5 -5.5h13l-13 -61
h-383z" />
    <glyph glyph-name="uni0198" unicode="&#x198;" horiz-adv-x="771" 
d="M-25 0l13 61h13q30 0 55.5 9t32.5 42l100 473q5 19 6.5 27t1.5 11q0 20 -20 25t-52 5h-13l12 61h385l-12 -61h-13q-33 0 -59.5 -9t-34.5 -44l-46 -224l280 267q39 36 70.5 55t75.5 19q53 0 79 -21t26 -49q0 -41 -23.5 -56.5t-63.5 -16.5q2 18 -6 36t-32 18q-17 0 -30 -10
t-34 -30l-162 -145l107 -264q19 -45 32 -70.5t27.5 -36.5t36.5 -11h2l-11 -61h-80q-53 0 -88.5 7t-60 26t-43 52.5t-38.5 85.5l-50 140l-33 -24l-34 -161q-7 -31 -7 -35q0 -19 21.5 -24.5t52.5 -5.5h13l-13 -61h-383z" />
    <glyph glyph-name="uni0199" unicode="&#x199;" horiz-adv-x="618" 
d="M506 0q-77 0 -121 22.5t-63 70.5l-55 125l-27 -18l-44 -200h-192l122 560q18 73 49.5 119t84 68.5t131.5 22.5q91 0 126.5 -28.5t35.5 -68.5q0 -33 -35 -53t-103 -20q0 55 -3.5 78t-28.5 23q-22 0 -33 -22.5t-22 -78.5l-16 -81q-6 -33 -12.5 -62.5t-16 -68.5l-24.5 -101
l141 131q19 17 22.5 24.5t3.5 11.5q0 11 -14.5 18.5t-34.5 7.5l10 56h275l-11 -56q-34 0 -72 -17t-85 -61l-73 -68l64 -137q29 -65 52 -93.5t38.5 -35.5t21.5 -7l-13 -61h-78z" />
    <glyph glyph-name="uni019A" unicode="&#x19a;" horiz-adv-x="391" 
d="M178 -10q-70 0 -107.5 28.5t-37.5 83.5q0 19 3.5 43.5t13.5 71.5l29 136h-100l16 66h98l42 200q3 13 5.5 26.5t2.5 22.5q0 14 -6 22.5t-35 8.5h-27l12 61h278l-75 -341h124l-16 -66h-123l-32 -145q-7 -34 -9.5 -50.5t-2.5 -34.5q0 -40 36 -40q12 0 23 4.5t27 15.5l28 -37
q-25 -30 -62 -53t-105 -23z" />
    <glyph glyph-name="uni019B" unicode="&#x19b;" horiz-adv-x="603" 
d="M-20 0l376 569q-1 10 -2 18l-155 -77l12 78l125 63q-19 34 -61 34q-31 0 -51.5 -22t-34.5 -42q-13 13 -20.5 29t-7.5 38q0 38 29.5 60t80.5 22q53 0 86 -21.5t52 -60.5l153 77l-13 -80l-119 -60q5 -21 8 -45t5 -50l22 -285q5 -49 16.5 -91t29.5 -67.5t41 -25.5h5l-14 -61
h-23q-67 0 -101 32.5t-40 117.5q-4 61 -4.5 110.5t0.5 77.5h-5l-21 -48l-30 -65.5t-30 -57.5l-91 -167h-218z" />
    <glyph glyph-name="uni019C" unicode="&#x19c;" horiz-adv-x="1211" 
d="M263 -9q-25 0 -54 5t-54 19.5t-41 42t-16 72.5q0 24 3.5 52.5t11.5 67.5l71 335q5 19 6.5 27t1.5 11q0 20 -20 25t-52 5h-13l12 61h369l-12 -61h-3q-32 0 -56 -9t-31 -44l-72 -350l-9 -40t-6 -45q0 -31 16 -44t46 -13q42 0 70 19t46 49.5t28.5 66t17.5 69.5l59 273
q7 35 7 38q0 20 -18.5 25t-50.5 5h-3l12 61h357l-12 -61h-3q-33 0 -57 -10t-32 -47l-72 -346l-8.5 -43.5t-4.5 -41.5q0 -26 16 -41.5t46 -15.5q58 0 93 36t48 95l78 353q6 27 6 31q0 20 -20.5 25t-47.5 5h-3l12 61h369l-12 -61h-13q-32 0 -58.5 -10t-34.5 -47l-103 -468
q-1 -8 -4 -18.5t-3 -18.5q0 -19 21.5 -24.5t52.5 -5.5h13l-13 -61h-283l15 98h-1q-42 -52 -97.5 -79.5t-126.5 -27.5q-63 0 -104 23.5t-41 87.5q0 5 0.5 10.5t1.5 14.5h-2q-45 -63 -105 -99.5t-134 -36.5z" />
    <glyph glyph-name="uni019D" unicode="&#x19d;" horiz-adv-x="817" 
d="M-61 -240q-34 0 -52.5 3t-38.5 8l16 62q13 -4 35 -6.5t37 -2.5q32 0 55 12.5t41 47.5t33 103l126 598q5 19 6.5 27t1.5 11q0 20 -20 25t-52 5h-13l12 61h252l245 -484l77 360q3 14 4 22t1 11q0 20 -19.5 25t-44.5 5h-5l12 61h253l-12 -61h-13q-30 0 -56 -9t-33 -42
l-127 -602h-111l-282 551l-113 -550q-16 -78 -37 -132t-62 -81.5t-116 -27.5z" />
    <glyph glyph-name="uni019E" unicode="&#x19e;" horiz-adv-x="661" 
d="M308 -240q-2 8 -3 18t-1 20q0 29 6 67.5t14 76.5l77 367q2 10 6 33.5t4 39.5q0 64 -49 64q-36 0 -59.5 -41.5t-38.5 -115.5l-61 -289h-195l72 339q7 30 11 67t5 72t-3 58h191q2 -20 2 -46t-3 -50h3q19 26 44.5 50t60.5 40t80 16q69 0 106 -33.5t37 -98.5q0 -15 -2.5 -37
t-9.5 -54l-85 -393q-7 -37 -13 -75t-6 -61q0 -16 1.5 -22.5t2.5 -11.5h-194z" />
    <glyph glyph-name="uni019F" unicode="&#x19f;" horiz-adv-x="829" 
d="M363 -11q-83 0 -149 31.5t-104.5 93.5t-38.5 152q0 58 18 121t54 123t89.5 108.5t124.5 77.5t159 29q77 0 143 -29t106 -89.5t40 -156.5q0 -55 -17.5 -118t-52 -123.5t-87.5 -110.5t-124 -79.5t-161 -29.5zM486 652q-50 0 -88 -35t-64 -91.5t-40 -118.5h308q3 33 3 63
q0 95 -34 138.5t-85 43.5zM393 63q41 0 73.5 24t57.5 64.5t42 90t26 100.5h-311q-7 -51 -7 -97q0 -95 35 -138.5t84 -43.5z" />
    <glyph glyph-name="Ohorn" unicode="&#x1a0;" horiz-adv-x="891" 
d="M363 -11q-83 0 -149 31.5t-104.5 93.5t-38.5 152q0 58 18 121t54 123t89.5 108.5t124.5 77.5t159 29q66 0 124 -21t100.5 -65t58.5 -113q38 16 54.5 28t21 22.5t4.5 21.5q0 17 -9.5 29t-19.5 26.5t-10 40.5q0 34 22.5 55t58.5 21q35 0 54.5 -20.5t19.5 -59.5
q0 -52 -25 -93.5t-68 -71.5t-97 -49v-26q0 -55 -17.5 -118t-52 -123.5t-87.5 -110.5t-124 -79.5t-161 -29.5zM393 63q44 0 78 27t59.5 72t42 99t24.5 108.5t8 100.5q0 95 -34 138.5t-85 43.5q-44 0 -78 -27t-59.5 -72t-42 -99t-24.5 -108.5t-8 -100.5q0 -95 35 -138.5
t84 -43.5z" />
    <glyph glyph-name="ohorn" unicode="&#x1a1;" horiz-adv-x="716" 
d="M265 -10q-100 0 -163.5 53t-63.5 159q0 57 21 117.5t64.5 111.5t109 83t155.5 32q77 0 136 -33.5t80 -110.5q32 18 36 31t4 18q0 20 -10 32.5t-20 27.5t-10 41q0 34 23 55t59 21q35 0 54.5 -20.5t19.5 -59.5q0 -68 -41 -118t-109 -79q1 -5 1 -9.5v-7.5q0 -55 -20.5 -115
t-62.5 -112t-107.5 -84.5t-155.5 -32.5zM288 77q27 0 48.5 21.5t38 56.5t27.5 75.5t16.5 79.5t5.5 68q0 47 -16 68t-44 21q-31 0 -56 -30t-43 -76t-28 -96t-10 -90q0 -51 16 -74.5t45 -23.5z" />
    <glyph glyph-name="uni01A2" unicode="&#x1a2;" horiz-adv-x="1268" 
d="M767 -240l12 61h4q32 0 55.5 9.5t30.5 43.5l119 570l12 58.5t6 51.5q0 52 -61 52q-44 0 -76.5 -22.5t-56 -57.5t-39 -75.5t-25.5 -76.5q-17 -68 -46.5 -136t-76 -124.5t-115.5 -90.5t-164 -34q-77 0 -139.5 31.5t-99 93.5t-36.5 152q0 58 16 121t48.5 123t81 108.5
t113.5 77.5t146 29q48 0 100.5 -15t96.5 -53.5t66 -108.5h1l44.5 56.5t56 57.5t79 44t111.5 17q92 0 137.5 -35.5t45.5 -97.5q0 -21 -4 -44.5t-11 -55.5l-128 -601q-4 -19 -5.5 -27t-1.5 -11q0 -19 20 -24.5t51 -5.5h13l-12 -61h-369zM380 63q36 0 64 27t48.5 72t34 99
t20 108.5t6.5 100.5q0 95 -26.5 138.5t-72.5 43.5q-36 0 -64.5 -27t-50 -72t-36 -99t-22 -108.5t-7.5 -100.5q0 -95 31 -138.5t75 -43.5z" />
    <glyph glyph-name="uni01A3" unicode="&#x1a3;" horiz-adv-x="993" 
d="M642 -240q-2 8 -3 18t-1 20q0 31 6 68.5t14 75.5l76 361q5 26 8 49.5t3 36.5q0 26 -6.5 41.5t-28.5 15.5q-31 0 -67.5 -43.5t-67.5 -151.5q-13 -40 -33.5 -85.5t-56 -85.5t-91 -65t-138.5 -25q-96 0 -157 53t-61 159q0 57 20 117.5t61 111.5t104 83t148 32q48 0 90 -14.5
t72.5 -47t43.5 -86.5q36 67 86.5 107.5t134.5 40.5q74 0 112 -35t38 -97q0 -15 -2 -35t-13 -67l-82 -382q-5 -24 -9.5 -51.5t-7 -50t-3.5 -34.5q0 -16 1.5 -22.5t2.5 -11.5h-193zM283 79q23 0 41 21.5t32 56t23.5 75t14 79.5t4.5 67q0 48 -15 69.5t-40 21.5q-26 0 -47 -30.5
t-36.5 -77t-24 -96.5t-8.5 -90q0 -51 14.5 -73.5t41.5 -22.5z" />
    <glyph glyph-name="uni01A4" unicode="&#x1a4;" horiz-adv-x="878" 
d="M157 0l13 61h13q30 0 56 9t33 42l90 429q5 20 7 32.5t2 22.5q0 57 -63 57q-55 0 -88.5 -32t-33.5 -75q0 -33 7 -49.5t16 -33.5q-11 -11 -26.5 -15.5t-32.5 -4.5q-35 0 -57 24.5t-22 71.5q0 80 56.5 127.5t183.5 47.5h304q128 0 201.5 -50t73.5 -146q0 -39 -12 -82
t-44.5 -81t-93 -62t-156.5 -24h-77l-34 -144q-4 -16 -5 -23.5t-1 -10.5q0 -19 21.5 -24.5t52.5 -5.5h33l-13 -61h-404zM517 335h34q72 0 101.5 50t29.5 128q0 72 -28.5 103t-63.5 31h-4z" />
    <glyph glyph-name="uni01A5" unicode="&#x1a5;" horiz-adv-x="657" 
d="M-47 -240l168 800q23 110 84 160t181 50q61 0 96 -13t50.5 -32.5t15.5 -41.5q0 -83 -138 -83q0 55 -3.5 78t-28.5 23q-22 0 -33 -22.5t-22 -78.5l-6 -32q-2 -12 -7.5 -35t-12 -45.5t-12.5 -35.5h9q15 21 32.5 42.5t48.5 36.5t84 15q70 0 115 -46.5t45 -134.5
q0 -61 -20 -126.5t-59.5 -122t-99.5 -91.5t-140 -35q-30 0 -57.5 6.5t-47.5 16.5q-1 -8 -3 -22t-5 -26l-14 -71q-3 -14 -4 -22.5t-1 -16.5q0 -13 7.5 -23.5t32.5 -10.5h57l-9 -61h-303zM283 68q35 0 63 29t47 73.5t29 93t10 88.5q0 38 -10 69.5t-38 31.5q-22 0 -43 -19
t-38.5 -49t-30 -63t-18.5 -61l-36 -171q9 -7 27.5 -14.5t37.5 -7.5z" />
    <glyph glyph-name="uni01A6" unicode="&#x1a6;" horiz-adv-x="751" 
d="M684 -130q-78 0 -132 8t-87.5 32t-51.5 71l-69 179h-47l-3 -20q-5 -27 -7 -36.5t-2 -12.5q0 -19 15.5 -24.5t37.5 -5.5h18l-12 -61h-369l13 61h13q31 0 56.5 10.5t32.5 44.5l96 461q5 25 6.5 34t1.5 12q0 20 -19 25t-51 5h-13l13 61h384l-12 -61h-13q-32 0 -59 -9
t-35 -44l-4 -16h75q124 0 184.5 -43.5t60.5 -126.5q0 -55 -16 -93t-42 -62t-57 -38t-61 -21l70 -150q28 -69 49 -94t55 -25h2l-14 -61h-7zM309 227h51q31 0 60 15.5t48.5 52.5t19.5 101q0 65 -18 92.5t-56 27.5h-38z" />
    <glyph glyph-name="uni01A7" unicode="&#x1a7;" horiz-adv-x="613" 
d="M255 -10q-71 0 -126.5 21t-87 61.5t-31.5 99.5q0 89 68 152.5t198 118.5q67 29 103.5 53.5t52 44.5t18.5 34t3 22q0 31 -23.5 44.5t-53.5 13.5q-40 0 -65.5 -19.5t-39.5 -51.5t-20 -69q-72 0 -102 23.5t-30 51.5q0 66 68.5 100t183.5 34q68 0 120 -19t81.5 -56.5
t29.5 -94.5q0 -59 -23.5 -105.5t-77 -85t-143.5 -76.5l-101.5 -43t-72 -43.5t-26.5 -60.5q0 -38 33 -60t82 -22q56 0 96.5 17.5t68.5 43t44.5 50.5t24.5 40q8 -6 18 -21.5t10 -35.5q0 -45 -33.5 -82t-96.5 -58.5t-150 -21.5z" />
    <glyph glyph-name="uni01A8" unicode="&#x1a8;" horiz-adv-x="512" 
d="M226 -10q-114 0 -169.5 40t-55.5 115q0 43 20 74.5t54 54t76 40t86 32.5q74 25 109 42.5t35 51.5q0 17 -17.5 31t-59.5 14q-48 0 -73.5 -23.5t-34.5 -74.5q-59 0 -81.5 17.5t-22.5 41.5q0 26 21.5 49.5t69 38.5t125.5 15q62 0 110 -13.5t75 -44.5t27 -84q0 -58 -32.5 -97
t-83 -64.5t-105.5 -43.5q-82 -27 -118.5 -48t-36.5 -54q0 -16 20.5 -31.5t64.5 -15.5q77 0 126.5 31t96.5 90q5 -7 8 -17.5t3 -26.5q0 -31 -26 -63.5t-78.5 -54.5t-132.5 -22z" />
    <glyph glyph-name="uni01A9" unicode="&#x1a9;" horiz-adv-x="657" 
d="M-13 0l25 115l231 224l-102 296l18 79h521l-35 -192h-70q2 12 3.5 22.5t3.5 26.5q5 37 -10 56t-64 19h-177l77 -232l-2 -15l-257 -255h283q47 0 74 26.5t40 68.5l9 30h70l-62 -269h-576z" />
    <glyph glyph-name="uni01AA" unicode="&#x1aa;" horiz-adv-x="410" 
d="M211 -240q-57 0 -92 13t-54 34.5t-25.5 47.5t-6.5 52q0 24 3.5 47.5t8.5 48.5l112 533q-10 -5 -26 -8t-30 -3q-50 0 -79.5 32t-29.5 81q0 48 22 76t60 39.5t85 11.5q75 0 118.5 -22t62.5 -61t19 -90q0 -49 -12 -106l-113 -522q-5 -26 -9 -42t-4 -32q0 -29 18 -42t43 -13
q19 0 34.5 5.5t33.5 14.5l17 -49q-32 -21 -66.5 -33.5t-89.5 -12.5zM120 594q26 0 39 16.5t13 44.5q0 21 -11.5 34t-32.5 13q-27 0 -42.5 -13.5t-15.5 -41.5q0 -29 13.5 -41t36.5 -12z" />
    <glyph glyph-name="uni01AB" unicode="&#x1ab;" horiz-adv-x="453" 
d="M248 -196q-39 0 -64 13.5t-25 41.5q0 20 9.5 35t22.5 21q13 -10 25 -15.5t32 -5.5q26 0 42.5 15.5t23.5 49.5l12 56q-25 -12 -54.5 -18.5t-64.5 -6.5q-37 0 -70.5 13t-54.5 39t-21 65q0 18 3 41.5t7 42.5l60 269h-78l12 59q29 0 69.5 13.5t85 44.5t84.5 82h66l-26 -123
h121l-15 -76h-123l-59 -266q-5 -19 -7 -33.5t-2 -28.5q0 -21 13.5 -33.5t34.5 -12.5q14 0 36.5 5t43 11.5t27.5 12.5l-25 -159q-14 -87 -49.5 -119.5t-91.5 -32.5z" />
    <glyph glyph-name="uni01AC" unicode="&#x1ac;" horiz-adv-x="682" 
d="M113 0l13 61h5q31 0 56.5 10.5t32.5 44.5l110 529h-44q-55 0 -87.5 -28t-32.5 -71q0 -33 7 -49.5t16 -33.5q-11 -11 -26.5 -15.5t-32.5 -4.5q-35 0 -57 24.5t-22 71.5q0 80 56.5 127.5t183.5 47.5h486l-37 -208h-78q0 3 2 17t3.5 31t3 30.5t1.5 15.5q0 26 -17.5 35.5
t-55.5 9.5h-68l-109 -514q-4 -20 -5.5 -28.5t-1.5 -11.5q0 -19 21 -24.5t52 -5.5h6l-12 -61h-369z" />
    <glyph glyph-name="uni01AD" unicode="&#x1ad;" horiz-adv-x="453" 
d="M207 -10q-37 0 -70.5 13t-54.5 39t-21 65q0 18 3 41.5t7 42.5l60 269h-78l12 59q65 0 107 21.5t58 56.5q31 69 58.5 104t55.5 47t60 12q50 0 83 -18.5t33 -56.5q0 -12 -5.5 -30.5t-18.5 -30.5q-14 11 -36 20.5t-43 9.5q-30 0 -43.5 -20t-24.5 -76l-5 -22h121l-15 -76
h-123l-59 -266q-5 -19 -7 -33.5t-2 -28.5q0 -21 13.5 -33.5t34.5 -12.5q25 0 42 8.5t33 20.5l28 -39q-35 -34 -82.5 -60t-120.5 -26z" />
    <glyph glyph-name="uni01AE" unicode="&#x1ae;" horiz-adv-x="682" 
d="M371 -242q-100 0 -145 41t-45 114q0 18 3 37l7 44l138 651h-68q-48 0 -69 -22.5t-38 -73.5l-14 -43h-78l49 208h665l-37 -208h-78q0 3 2 17t3.5 31t3 30.5t1.5 15.5q0 26 -17.5 35.5t-55.5 9.5h-67l-137 -643q-7 -28 -10.5 -50t-3.5 -39q0 -41 16 -59.5t52 -18.5
q8 0 26 3t32 7l10 -69q-46 -12 -82 -15t-63 -3z" />
    <glyph glyph-name="Uhorn" unicode="&#x1af;" horiz-adv-x="908" 
d="M354 -10q-122 0 -187.5 45.5t-65.5 127.5q0 16 3.5 44t7.5 45l72 333q5 19 6.5 27t1.5 11q0 20 -20 25t-52 5h-13l12 61h387l-13 -61h-13q-33 0 -59.5 -9t-33.5 -41l-77 -351q-3 -11 -7.5 -36t-4.5 -46q0 -101 108 -101q57 0 91 24.5t53 67t30 97.5l72 334q4 19 4 31
q0 20 -20 25t-52 5h-13l12 61h179l-42 -201q78 8 115.5 34.5t37.5 50.5q0 17 -10 29t-20 26.5t-10 40.5q0 34 23 55t59 21q35 0 54.5 -20.5t19.5 -59.5q0 -56 -28.5 -104t-90 -80t-162.5 -42l-47 -232q-26 -121 -100.5 -181.5t-206.5 -60.5z" />
    <glyph glyph-name="uhorn" unicode="&#x1b0;" horiz-adv-x="870" 
d="M539 -10q-56 0 -87 13t-42.5 35t-11.5 49q0 15 5 33h-8q-30 -38 -60 -67.5t-66 -45.5t-86 -16q-45 0 -71 15.5t-37 41t-11 54.5q0 25 6 55t10 55l34 177q5 25 7 39t2 24t-6 16.5t-35 6.5h-25l11 61h271l-61 -299q-4 -22 -8.5 -50t-4.5 -45q0 -38 39 -38q18 0 37 18.5
t37 49t32 67t21 72.5l47 225h194l-35 -165q79 8 116 34.5t37 50.5q0 17 -9.5 29t-19.5 26.5t-10 40.5q0 34 22.5 55t58.5 21q35 0 54.5 -20.5t19.5 -59.5q0 -56 -28.5 -104t-89.5 -80t-161 -42l-24 -114q-7 -34 -9.5 -50.5t-2.5 -34.5q0 -19 10.5 -29.5t26.5 -10.5
q15 0 27 6t28 17l29 -37q-26 -30 -65.5 -54.5t-107.5 -24.5z" />
    <glyph glyph-name="uni01B1" unicode="&#x1b1;" horiz-adv-x="829" 
d="M363 -11q-83 0 -149 31.5t-104.5 93.5t-38.5 152q0 63 14 118.5t35.5 99.5t43.5 72q24 31 34 47t10 29q0 21 -48 21h-30l13 61h290l-12 -61q-67 -92 -107 -194t-40 -214q0 -95 35 -138.5t84 -43.5q47 0 86 35t67 91.5t43.5 122.5t15.5 128q0 65 -8.5 114t-21.5 99l13 61
h282l-12 -61h-38q-44 0 -44 -27q0 -7 2.5 -20.5t9.5 -36.5q8 -28 12.5 -58.5t4.5 -88.5q0 -78 -30.5 -155t-88.5 -139.5t-139.5 -100.5t-183.5 -38z" />
    <glyph glyph-name="uni01B2" unicode="&#x1b2;" horiz-adv-x="797" 
d="M357 -8q-114 0 -181 52t-67 139q0 36 4 61.5t9 47.5l63 293q7 35 7 38q0 20 -20 25t-52 5h-13l12 61h387l-13 -61h-13q-33 0 -59.5 -9t-33.5 -41l-65 -301l-4.5 -26.5t-6.5 -45t-3 -44.5q0 -15 2.5 -33.5t11 -36t27 -29t50.5 -11.5q53 0 100 30t86 80.5t67.5 112.5
t44 126t15.5 120q0 31 -16.5 54t-57.5 23q-35 0 -65 -16q0 59 26.5 86.5t78.5 27.5q62 0 89 -37.5t27 -111.5t-20 -154.5t-58 -156t-92 -136t-121 -96.5t-146 -36z" />
    <glyph glyph-name="uni01B3" unicode="&#x1b3;" horiz-adv-x="769" 
d="M115 0l12 61h30q31 0 55.5 11.5t31.5 45.5l22 106l-102 376q-8 30 -19.5 41.5t-40.5 11.5h-13l12 61h366l-12 -61h-42q-24 0 -33.5 -8.5t-9.5 -22.5q0 -6 3 -25t9 -45l29 -146l12 -66t8 -63q7 19 23.5 57.5t38.5 79.5q54 101 93.5 162t72 92.5t63.5 42.5t67 11
q33 0 50.5 -10.5t24.5 -25t7 -27.5q0 -35 -25 -53t-58 -25q-2 17 -9 33t-30 16q-30 0 -69 -50t-92 -143l-125 -224l-20 -95q-3 -13 -4 -18.5t-1 -8.5q0 -19 21.5 -24.5t52.5 -5.5h25l-13 -61h-411z" />
    <glyph glyph-name="uni01B4" unicode="&#x1b4;" horiz-adv-x="676" 
d="M22 -207q-33 0 -61.5 5t-53.5 13l15 60q14 -4 43.5 -9t62.5 -5q54 0 89.5 19t58 51.5t37.5 72.5h-67l-42 422q-3 26 -19 39.5t-51 13.5h-14l15 61h233l29 -301q2 -24 3.5 -48t1.5 -50h2l53 84.5l89 145.5l57.5 95t51 57.5t71.5 19.5q43 0 59 -18t16 -40q0 -42 -47 -60
q-8 10 -18 14.5t-26 4.5q-22 0 -39 -16.5t-32 -40t-30 -44.5q-46 -80 -90 -147t-75 -121l-39 -71t-44 -74.5t-56.5 -66.5t-77 -48t-105.5 -18z" />
    <glyph glyph-name="uni01B5" unicode="&#x1b5;" horiz-adv-x="711" 
d="M9 0l10 57l230 279h-119l15 72h164l195 237h-150q-45 0 -77 -17.5t-46 -73.5l-19 -69h-87l54 229h580l-11 -58l-206 -248h114l-15 -72h-158l-222 -267h161q31 0 60.5 10t54 38t39.5 81l8 31h87l-52 -229h-610z" />
    <glyph glyph-name="uni01B6" unicode="&#x1b6;" horiz-adv-x="593" 
d="M1 0l13 59l159 193h-119l15 67h159l116 141h-107q-26 0 -42.5 -13.5t-28.5 -35.5l-25 -48l-2 -4h-75l47 177h467l-13 -60l-130 -157h112l-15 -67h-152l-146 -176h151q23 0 39 15t27 37.5t20 43.5l10 23h70l-46 -195h-504z" />
    <glyph glyph-name="uni01B7" unicode="&#x1b7;" horiz-adv-x="610" 
d="M275 -11q-100 0 -160 22.5t-87 57t-27 70.5q0 40 30 64.5t80 24.5q0 -36 19.5 -75t56.5 -65.5t88 -26.5q35 0 64.5 15t47.5 49t18 90q0 31 -11 61t-41.5 49.5t-90.5 19.5h-26l11 53l237 192h-170q-45 0 -67 -17t-36 -58l-13 -43h-82l56 242h480l-15 -81l-277 -224
q83 0 134 -24.5t74.5 -68.5t23.5 -101q0 -66 -29 -110t-75.5 -69.5t-102.5 -36t-110 -10.5z" />
    <glyph glyph-name="uni01B8" unicode="&#x1b8;" horiz-adv-x="654" 
d="M333 -11q-49 0 -100.5 8.5t-95.5 30t-71 59.5t-27 98q0 76 44 122.5t117.5 71t162.5 32.5l-163 210l20 93h473l-39 -225h-81q3 19 4.5 38t1.5 23q0 32 -14.5 36t-54.5 4h-178l150 -202l-10 -50h-26q-79 0 -126 -23.5t-67 -59t-20 -72.5q0 -63 38 -90.5t89 -27.5
q35 0 70.5 9t77 34.5t94.5 73.5q7 -6 9 -15t2 -17q0 -53 -40 -89t-103.5 -54t-136.5 -18z" />
    <glyph glyph-name="uni01B9" unicode="&#x1b9;" horiz-adv-x="588" 
d="M300 -239q-81 0 -149 22t-109.5 70.5t-41.5 127.5q0 103 65.5 170t206.5 93l-140 187l22 105h441l-32 -214h-71l-2 38q-1 17 -2.5 27.5t-11 16t-34.5 5.5h-182l141 -193l-10 -49h-14q-83 0 -136.5 -53t-53.5 -148q0 -67 33 -99.5t89 -32.5q30 0 58 7.5t57.5 30t61.5 66.5
q11 -9 18.5 -23.5t7.5 -35.5q0 -35 -30.5 -62t-78.5 -41.5t-103 -14.5z" />
    <glyph glyph-name="uni01BA" unicode="&#x1ba;" horiz-adv-x="631" 
d="M229 -240q-64 0 -118.5 11.5t-87.5 38t-33 69.5q0 40 20 64t68.5 39.5t131.5 30.5q73 14 102.5 35.5t29.5 72.5q0 48 -33.5 59.5t-110.5 11.5h-20l6 43l270 176h-201q-29 0 -47.5 -1t-31 -11.5t-23.5 -38.5l-13 -32h-75l49 208h502l-21 -102l-271 -164q41 -4 79 -11
t68 -21.5t48 -40t18 -66.5q0 -46 -24.5 -76.5t-80 -51.5t-149.5 -39q-72 -12 -104.5 -24t-40.5 -24.5t-8 -27.5q0 -58 127 -58q32 0 71.5 8.5t79.5 31.5t71 67q8 -6 16.5 -18.5t8.5 -32.5q0 -33 -35.5 -62t-97.5 -46.5t-140 -17.5z" />
    <glyph glyph-name="uni01BB" unicode="&#x1bb;" horiz-adv-x="550" 
d="M-28 0l21 119l258 232h-167l16 66h216q47 52 65.5 93t18.5 87q0 39 -14 66.5t-40 27.5q-38 0 -61 -47.5t-24 -140.5q-63 0 -105 25t-42 77q0 65 63 110t183 45q110 0 169.5 -39t59.5 -112q0 -52 -32.5 -95.5t-96.5 -96.5h107l-15 -66h-170l-272 -219h241q33 0 53.5 13
t33 33t21.5 41l7 20h71l-55 -239h-510z" />
    <glyph glyph-name="uni01BC" unicode="&#x1bc;" horiz-adv-x="585" 
d="M233 -10q-89 0 -143 21t-77.5 53.5t-23.5 66.5q0 50 34 74.5t88 24.5q0 -47 9.5 -85.5t37 -61t82.5 -22.5t89 36t34 109q0 81 -42.5 111.5t-131.5 30.5h-58l51 236q4 19 4.5 28t0.5 16q0 14 -7 19.5t-18 5.5h-31l13 61h525l-36 -191h-83q3 20 5 34.5t2 30.5q0 35 -15 46
t-32 11h-121l-47 -225h6q68 0 112.5 -28.5t66.5 -72.5t22 -93q0 -88 -43 -140t-114.5 -74t-158.5 -22z" />
    <glyph glyph-name="uni01BD" unicode="&#x1bd;" horiz-adv-x="506" 
d="M221 -10q-75 0 -119.5 17t-64 43.5t-19.5 53.5q0 22 8.5 42t34 33t75.5 13q0 -60 11.5 -89t30 -38.5t39.5 -9.5q35 0 58 24.5t23 72.5q0 42 -26 68.5t-91 26.5h-130l41 194q3 15 3 20q0 3 -1.5 6t-9.5 3h-15l12 66h434l-24 -141h-55q3 24 3 44q0 28 -29 28h-116l-33 -154
h44q92 0 137.5 -39t45.5 -105q0 -85 -66 -132t-201 -47z" />
    <glyph glyph-name="uni01BE" unicode="&#x1be;" horiz-adv-x="562" 
d="M218 -10q-94 0 -150.5 28.5t-56.5 79.5q0 34 19.5 56t51 32.5t68.5 10.5q0 -36 9 -67.5t32 -51t63 -19.5q35 0 53.5 13.5t18.5 35.5q0 23 -13 39t-31 29.5t-32 26.5q-21 18 -41.5 39t-34.5 50.5t-14 70.5q0 10 2.5 26.5l3.5 23.5l6 47h-78l13 59q29 0 69 13.5t84.5 44.5
t84.5 82h67l-26 -123h113l-15 -76h-116l-6 -41q-2 -14 -2 -29q0 -40 20 -61.5t42 -42.5l28 -28t26 -37t11 -57q0 -82 -66 -128t-203 -46z" />
    <glyph glyph-name="uni01BF" unicode="&#x1bf;" horiz-adv-x="657" 
d="M-13 -240q-4 17 -5 34t-1 33q0 33 5 72t12 68l93 434q2 8 4 19.5t2 20.5q0 17 -6 25.5t-35 8.5h-24l11 61h239l-27 -133h8q31 55 58 86t59.5 44t78.5 13q74 0 117 -49t43 -132q0 -123 -44.5 -210.5t-128 -134t-200.5 -46.5l-56 2l-7 -38q-4 -26 -7 -52.5t-3 -49.5
q0 -16 1 -35t3 -41h-190zM210 54q112 0 167 70.5t55 227.5q0 56 -14 78.5t-34 22.5q-23 0 -44.5 -19.5t-39 -49.5t-29.5 -63t-17 -60z" />
    <glyph glyph-name="uni01C0" unicode="&#x1c0;" horiz-adv-x="381" 
d="M80 0l161 760h108l-161 -760h-108z" />
    <glyph glyph-name="uni01C1" unicode="&#x1c1;" horiz-adv-x="606" 
d="M307 0l160 760h107l-160 -760h-107zM81 0l160 760h108l-160 -760h-108z" />
    <glyph glyph-name="uni01C2" unicode="&#x1c2;" horiz-adv-x="551" 
d="M166 0l50 232h-172l21 99h172l20 96h-172l21 99h172l50 234h107l-50 -234h172l-21 -99h-172l-20 -96h172l-21 -99h-172l-50 -232h-107z" />
    <glyph glyph-name="uni01C3" unicode="&#x1c3;" horiz-adv-x="441" 
d="M166 238l51 476h217l-183 -476h-85zM185 -8q-42 0 -68.5 19.5t-26.5 60.5q0 45 28 72.5t74 27.5q41 0 68 -19.5t27 -60.5q0 -37 -15.5 -59t-38.5 -31.5t-48 -9.5z" />
    <glyph glyph-name="uni01C4" unicode="&#x1c4;" horiz-adv-x="1511" 
d="M-26 0l13 61h15q29 0 54.5 9t32.5 42l98 466q4 16 6.5 27.5t2.5 17.5q0 18 -18 24t-53 6h-13l13 61h349q149 0 233 -69.5t84 -202.5q0 -89 -29 -169t-85 -141.5t-137.5 -96.5t-186.5 -35h-379zM279 70h16q90 0 154 48.5t97.5 133.5t33.5 196q0 101 -44 149t-120 48h-17z
M809 0l10 57l485 588h-150q-45 0 -77 -17.5t-46 -73.5l-19 -69h-87l54 229h580l-11 -58l-487 -587h161q31 0 60.5 10t54 38t39.5 81l8 31h87l-52 -229h-610zM1211 771q-9 18 -24.5 45.5l-32 55l-28.5 46.5l3 13h83q9 -10 26 -27t35.5 -33.5t30.5 -28.5l41 28.5t44.5 33.5
l34.5 27h104l-3 -13l-46.5 -44.5l-55 -52.5t-47.5 -50h-165z" />
    <glyph glyph-name="uni01C5" unicode="&#x1c5;" horiz-adv-x="1393" 
d="M-26 0l13 61h15q29 0 54.5 9t32.5 42l98 466q4 16 6.5 27.5t2.5 17.5q0 18 -18 24t-53 6h-13l13 61h349q149 0 233 -69.5t84 -202.5q0 -89 -29 -169t-85 -141.5t-137.5 -96.5t-186.5 -35h-379zM279 70h16q90 0 154 48.5t97.5 133.5t33.5 196q0 101 -44 149t-120 48h-17z
M801 0l13 59l330 401h-107q-26 0 -42.5 -13.5t-28.5 -35.5l-25 -48l-2 -4h-75l47 177h467l-13 -60l-331 -400h151q23 0 39 15t27 37.5t20 43.5l10 23h70l-46 -195h-504zM1055 606q-9 18 -24.5 45.5l-32 55l-28.5 46.5l3 13h83q9 -10 26 -27t35.5 -33.5t30.5 -28.5l41 28.5
t44.5 33.5l34.5 27h104l-3 -13l-46.5 -44.5l-55 -52.5t-47.5 -50h-165z" />
    <glyph glyph-name="uni01C6" unicode="&#x1c6;" horiz-adv-x="1321" 
d="M197 -10q-57 0 -92 26t-51 68t-16 89t13.5 98.5t39.5 100t64 88t87.5 63t109.5 23.5q29 0 56 -7t46 -18q2 13 6 34t6 30l8 34q3 14 5 26.5t2 23.5q0 13 -7 21.5t-43 8.5h-24l11 61h281l-116 -545l-10 -52t-5 -42q0 -21 10 -30.5t26 -9.5q13 0 25 6.5l19 10.5l25 -46
q-29 -23 -68.5 -42.5t-101.5 -19.5q-49 0 -81 20t-32 67q0 17 2 29t3 17h-6q-40 -77 -84.5 -105t-107.5 -28zM274 83q26 0 52.5 30t47.5 77t32 98l34 158q-10 10 -27.5 16t-31.5 6q-30 0 -54 -20.5t-43 -53.5t-31.5 -72.5t-19 -78t-6.5 -69.5q0 -53 13.5 -72t33.5 -19z
M729 0l13 59l330 401h-107q-26 0 -42.5 -13.5t-28.5 -35.5l-25 -48l-2 -4h-75l47 177h467l-13 -60l-331 -400h151q23 0 39 15t27 37.5t20 43.5l10 23h70l-46 -195h-504zM981 606q-9 18 -24.5 45.5l-32 55l-28.5 46.5l3 13h83q9 -10 26 -27t35.5 -33.5t30.5 -28.5l41 28.5
t44.5 33.5l34.5 27h104l-3 -13l-46.5 -44.5l-55 -52.5t-47.5 -50h-165z" />
    <glyph glyph-name="uni01C7" unicode="&#x1c7;" horiz-adv-x="1110" 
d="M-25 0l12 61h13q31 0 56.5 9t32.5 42l101 473l5 22t2 16q0 20 -20 25t-52 5h-13l13 61h384l-12 -61h-13q-33 0 -60 -10t-34 -46l-110 -528h145q41 0 67 11t44 38t34 74l13 37h72l-57 -229h-623zM609 -240q-30 0 -51 3t-41 8l14 62q14 -4 32 -6.5t33 -2.5q35 0 63 14.5
t50 52.5t37 110l128 603q4 12 4 19q0 20 -20 25t-52 5h-13l12 61h385l-12 -61h-13q-33 0 -59.5 -9t-34.5 -44l-125 -599q-18 -91 -69 -144t-121 -75t-147 -22z" />
    <glyph glyph-name="uni01C8" unicode="&#x1c8;" horiz-adv-x="1050" 
d="M-25 0l12 61h13q31 0 56.5 9t32.5 42l101 473l5 22t2 16q0 20 -20 25t-52 5h-13l13 61h384l-12 -61h-13q-33 0 -60 -10t-34 -46l-110 -528h145q41 0 67 11t44 38t34 74l13 37h72l-57 -229h-623zM917 619q-39 0 -66.5 16.5t-27.5 50.5q0 35 17 55t43.5 28t56.5 8
q38 0 68 -15.5t30 -53.5q0 -43 -31 -66t-90 -23zM666 -240q-43 0 -71.5 4t-57.5 11l14 56q7 -2 20.5 -4.5t23.5 -2.5q30 0 49.5 14.5t34 51t28.5 102.5l81 385l7 32t3 26q0 20 -9 30t-38 10h-21l11 61h277l-116 -544q-17 -89 -55 -139.5t-85.5 -71.5t-95.5 -21z" />
    <glyph glyph-name="uni01C9" unicode="&#x1c9;" horiz-adv-x="764" 
d="M178 -10q-70 0 -107.5 28.5t-37.5 83.5q0 19 3.5 43.5t13.5 71.5l85 402q3 13 5.5 26.5t2.5 22.5q0 14 -6 22.5t-35 8.5h-27l12 61h278l-122 -552q-7 -34 -9.5 -50.5t-2.5 -34.5q0 -40 36 -40q12 0 23 4.5t27 15.5l28 -37q-25 -30 -62 -53t-105 -23zM631 619
q-39 0 -66.5 16.5t-27.5 50.5q0 35 17 55t43.5 28t56.5 8q38 0 68 -15.5t30 -53.5q0 -43 -31 -66t-90 -23zM380 -240q-43 0 -71.5 4t-57.5 11l14 56q7 -2 20.5 -4.5t23.5 -2.5q30 0 49.5 14.5t34 51t28.5 102.5l81 385l7 32t3 26q0 20 -9 30t-38 10h-21l11 61h277l-116 -544
q-17 -89 -55 -139.5t-85.5 -71.5t-95.5 -21z" />
    <glyph glyph-name="uni01CA" unicode="&#x1ca;" horiz-adv-x="1239" 
d="M-25 0l12 61h13q31 0 56.5 9t32.5 42l101 473q3 15 5 24t2 14q0 20 -20 25t-52 5h-13l13 61h251l246 -484l76 360l4 18.5t2 14.5q0 20 -19.5 25t-43.5 5h-6l12 61h253l-13 -61h-13q-30 0 -55.5 -9t-32.5 -42l-127 -602h-112l-281 551l-89 -427q-6 -30 -6 -33
q0 -19 20 -24.5t44 -5.5h6l-13 -61h-253zM738 -240q-30 0 -51 3t-41 8l14 62q14 -4 32 -6.5t33 -2.5q35 0 63 14.5t50 52.5t37 110l128 603q4 12 4 19q0 20 -20 25t-52 5h-13l12 61h385l-12 -61h-13q-33 0 -59.5 -9t-34.5 -44l-125 -599q-18 -91 -69 -144t-121 -75t-147 -22
z" />
    <glyph glyph-name="uni01CB" unicode="&#x1cb;" horiz-adv-x="1179" 
d="M-25 0l12 61h13q31 0 56.5 9t32.5 42l101 473q3 15 5 24t2 14q0 20 -20 25t-52 5h-13l13 61h251l246 -484l76 360l4 18.5t2 14.5q0 20 -19.5 25t-43.5 5h-6l12 61h253l-13 -61h-13q-30 0 -55.5 -9t-32.5 -42l-127 -602h-112l-281 551l-89 -427q-6 -30 -6 -33
q0 -19 20 -24.5t44 -5.5h6l-13 -61h-253zM1046 619q-39 0 -66.5 16.5t-27.5 50.5q0 35 17 55t43.5 28t56.5 8q38 0 68 -15.5t30 -53.5q0 -43 -31 -66t-90 -23zM795 -240q-43 0 -71.5 4t-57.5 11l14 56q7 -2 20.5 -4.5t23.5 -2.5q30 0 49.5 14.5t34 51t28.5 102.5l81 385
l7 32t3 26q0 20 -9 30t-38 10h-21l11 61h277l-116 -544q-17 -89 -55 -139.5t-85.5 -71.5t-95.5 -21z" />
    <glyph glyph-name="uni01CC" unicode="&#x1cc;" horiz-adv-x="1099" 
d="M535 -10q-67 0 -103.5 30t-36.5 81q0 19 3.5 44t10.5 57l16 80q4 19 9.5 51t5.5 56q0 18 -5.5 37t-28.5 19q-22 0 -43 -24t-39 -60.5t-31.5 -76t-20.5 -70.5l-48 -214h-192l84 395q3 12 5.5 26.5t2.5 24.5q0 13 -6 21t-35 8h-25l11 61h247l1 -93h3q41 56 86.5 79.5
t109.5 23.5q49 0 77 -16.5t39.5 -43t11.5 -57.5q0 -26 -6.5 -57.5l-11.5 -57.5l-19 -99q-5 -27 -9.5 -48.5t-4.5 -41.5q0 -42 34 -42q23 0 55 23l29 -38q-24 -29 -67 -53.5t-109 -24.5zM966 619q-39 0 -66.5 16.5t-27.5 50.5q0 35 17 55t43.5 28t56.5 8q38 0 68 -15.5
t30 -53.5q0 -43 -31 -66t-90 -23zM715 -240q-43 0 -71.5 4t-57.5 11l14 56q7 -2 20.5 -4.5t23.5 -2.5q30 0 49.5 14.5t34 51t28.5 102.5l81 385l7 32t3 26q0 20 -9 30t-38 10h-21l11 61h277l-116 -544q-17 -89 -55 -139.5t-85.5 -71.5t-95.5 -21z" />
    <glyph glyph-name="uni01CD" unicode="&#x1cd;" horiz-adv-x="788" 
d="M-44 0l14 61h22q27 0 43 16t43 62l332 575h181l76 -567q5 -31 18 -58.5t44 -27.5h22l-13 -61h-373l13 61h23q32 0 50.5 8t18.5 27q0 8 -0.5 15.5t-1.5 15.5l-11 105h-231l-42 -79q-19 -35 -19 -56q0 -36 56 -36h18l-13 -61h-270zM355 473l-92 -172h187l-16 163l-7 75
t-4 67q-9 -24 -18 -42.5t-20.5 -39zM420 771q-9 18 -24.5 45.5l-32 55l-28.5 46.5l3 13h83q9 -10 26 -27t35.5 -33.5t30.5 -28.5l41 28.5t44.5 33.5l34.5 27h104l-3 -13l-46.5 -44.5l-55 -52.5t-47.5 -50h-165z" />
    <glyph glyph-name="uni01CE" unicode="&#x1ce;" horiz-adv-x="728" 
d="M191 -10q-49 0 -83.5 24t-52 65.5t-17.5 93.5q0 47 13.5 98.5t40 100t66 88t91 63t115.5 23.5q28 0 58.5 -5.5t57 -13.5t42.5 -15l60 23h69l-65 -306q-2 -11 -6.5 -30t-8 -38.5t-3.5 -32.5q0 -24 10.5 -35.5t25.5 -11.5q13 0 22 5l22 12l25 -48q-18 -13 -41 -27
t-54 -23.5t-75 -9.5q-50 0 -81.5 20.5t-31.5 64.5q0 7 1 19.5t4 28.5h-8q-25 -42 -49 -72t-57.5 -45.5t-89.5 -15.5zM274 83q26 0 52.5 30t48 77.5t31.5 97.5l34 158q-9 11 -23.5 16.5t-31.5 5.5q-31 0 -56.5 -20t-44.5 -53t-31.5 -72.5t-19 -78.5t-6.5 -70
q0 -54 13.5 -72.5t33.5 -18.5zM319 606q-9 18 -24.5 45.5l-32 55l-28.5 46.5l3 13h83q9 -10 26 -27t35.5 -33.5t30.5 -28.5l41 28.5t44.5 33.5l34.5 27h104l-3 -13l-46.5 -44.5l-55 -52.5t-47.5 -50h-165z" />
    <glyph glyph-name="uni01CF" unicode="&#x1cf;" horiz-adv-x="426" 
d="M-25 0l13 61h13q30 0 55.5 9t32.5 42l103 473q4 18 4.5 26.5t0.5 11.5q0 20 -20 25t-52 5h-13l12 61h385l-12 -61h-13q-33 0 -58.5 -9t-33.5 -44l-98 -457q-4 -19 -7 -31t-3 -21q0 -19 21.5 -24.5t52.5 -5.5h13l-13 -61h-383zM240 771q-9 18 -24.5 45.5l-32 55
l-28.5 46.5l3 13h83q9 -10 26 -27t35.5 -33.5t30.5 -28.5l41 28.5t44.5 33.5l34.5 27h104l-3 -13l-46.5 -44.5l-55 -52.5t-47.5 -50h-165z" />
    <glyph glyph-name="uni01D0" unicode="&#x1d0;" horiz-adv-x="391" 
d="M207 -10q-70 0 -108 27t-38 82q0 14 2 33.5t10 57.5l39 187q7 35 10 56.5t-6.5 31.5t-40.5 10h-22l11 61h278l-70 -328l-8 -36.5t-4 -23.5t-1 -25q0 -40 36 -40q16 0 25 4.5t25 15.5l28 -37q-25 -30 -61.5 -53t-104.5 -23zM130 606q-9 18 -24.5 45.5l-32 55l-28.5 46.5
l3 13h83q9 -10 26 -27t35.5 -33.5t30.5 -28.5l41 28.5t44.5 33.5l34.5 27h104l-3 -13l-46.5 -44.5l-55 -52.5t-47.5 -50h-165z" />
    <glyph glyph-name="uni01D1" unicode="&#x1d1;" horiz-adv-x="829" 
d="M363 -11q-83 0 -149 31.5t-104.5 93.5t-38.5 152q0 58 18 121t54 123t89.5 108.5t124.5 77.5t159 29q77 0 143 -29t106 -89.5t40 -156.5q0 -55 -17.5 -118t-52 -123.5t-87.5 -110.5t-124 -79.5t-161 -29.5zM393 63q44 0 78 27t59.5 72t42 99t24.5 108.5t8 100.5
q0 95 -34 138.5t-85 43.5q-44 0 -78 -27t-59.5 -72t-42 -99t-24.5 -108.5t-8 -100.5q0 -95 35 -138.5t84 -43.5zM448 771q-9 18 -24.5 45.5l-32 55l-28.5 46.5l3 13h83q9 -10 26 -27t35.5 -33.5t30.5 -28.5l41 28.5t44.5 33.5l34.5 27h104l-3 -13l-46.5 -44.5l-55 -52.5
t-47.5 -50h-165z" />
    <glyph glyph-name="uni01D2" unicode="&#x1d2;" horiz-adv-x="650" 
d="M265 -10q-100 0 -163.5 53t-63.5 159q0 57 21 117.5t64.5 111.5t109 83t155.5 32q61 0 111.5 -22t81 -68.5t30.5 -121.5q0 -55 -20.5 -115t-62.5 -112t-107.5 -84.5t-155.5 -32.5zM288 77q27 0 48.5 21.5t38 56.5t27.5 75.5t16.5 79t5.5 67.5q0 47 -16 68.5t-44 21.5
q-31 0 -56 -30t-43 -76.5t-28 -96.5t-10 -90q0 -51 16 -74t45 -23zM317 606q-9 18 -24.5 45.5l-32 55l-28.5 46.5l3 13h83q9 -10 26 -27t35.5 -33.5t30.5 -28.5l41 28.5t44.5 33.5l34.5 27h104l-3 -13l-46.5 -44.5l-55 -52.5t-47.5 -50h-165z" />
    <glyph glyph-name="uni01D3" unicode="&#x1d3;" horiz-adv-x="760" 
d="M354 -10q-122 0 -187.5 45.5t-65.5 127.5q0 16 3.5 44t7.5 45l72 333q5 19 6.5 27t1.5 11q0 20 -20 25t-52 5h-13l12 61h387l-13 -61h-13q-33 0 -59.5 -9t-33.5 -41l-77 -351q-3 -11 -7.5 -36t-4.5 -46q0 -101 108 -101q57 0 91 24.5t53 67t30 97.5l72 334q2 10 3 19
t1 12q0 20 -20 25t-52 5h-13l12 61h272l-13 -61h-13q-32 0 -58.5 -9t-32.5 -44l-77 -368q-26 -121 -100.5 -181.5t-206.5 -60.5zM441 771q-9 18 -24.5 45.5l-32 55l-28.5 46.5l3 13h83q9 -10 26 -27t35.5 -33.5t30.5 -28.5l41 28.5t44.5 33.5l34.5 27h104l-3 -13
l-46.5 -44.5l-55 -52.5t-47.5 -50h-165z" />
    <glyph glyph-name="uni01D4" unicode="&#x1d4;" horiz-adv-x="728" 
d="M536 -10q-55 0 -85 13t-41.5 34t-11.5 46q0 20 5 37h-8q-30 -38 -60 -67.5t-66 -45.5t-86 -16q-45 0 -71 15.5t-37 41t-11 54.5q0 25 6 55t10 55l34 177q5 25 7 38t2 21q0 14 -6 20.5t-35 6.5h-25l11 61h271l-61 -299q-6 -28 -9.5 -53t-3.5 -42q0 -38 39 -38q24 0 49 30
t45 75.5t30 93.5l50 233h194l-71 -336l-7 -39t-3 -38q0 -19 10.5 -29.5t26.5 -10.5q15 0 27 6t28 17l29 -37q-26 -30 -66 -54.5t-110 -24.5zM337 606q-9 18 -24.5 45.5l-32 55l-28.5 46.5l3 13h83q9 -10 26 -27t35.5 -33.5t30.5 -28.5l41 28.5t44.5 33.5l34.5 27h104l-3 -13
l-46.5 -44.5l-55 -52.5t-47.5 -50h-165z" />
    <glyph glyph-name="uni01D5" unicode="&#x1d5;" horiz-adv-x="760" 
d="M354 -10q-122 0 -187.5 45.5t-65.5 127.5q0 16 3.5 44t7.5 45l72 333q5 19 6.5 27t1.5 11q0 20 -20 25t-52 5h-13l12 61h387l-13 -61h-13q-33 0 -59.5 -9t-33.5 -41l-77 -351q-3 -11 -7.5 -36t-4.5 -46q0 -101 108 -101q57 0 91 24.5t53 67t30 97.5l72 334q2 10 3 19
t1 12q0 20 -20 25t-52 5h-13l12 61h272l-13 -61h-13q-32 0 -58.5 -9t-32.5 -44l-77 -368q-26 -121 -100.5 -181.5t-206.5 -60.5zM414 941l18 76h306l-18 -76h-306zM438 758q-27 0 -43 14.5t-16 44.5q0 34 17 54.5t47 20.5q26 0 42.5 -15t16.5 -44q0 -42 -20.5 -58.5
t-43.5 -16.5zM661 758q-27 0 -43 14.5t-16 44.5q0 34 17 54.5t47 20.5q26 0 42.5 -15t16.5 -44q0 -42 -20.5 -58.5t-43.5 -16.5z" />
    <glyph glyph-name="uni01D6" unicode="&#x1d6;" horiz-adv-x="728" 
d="M536 -10q-55 0 -85 13t-41.5 34t-11.5 46q0 20 5 37h-8q-30 -38 -60 -67.5t-66 -45.5t-86 -16q-45 0 -71 15.5t-37 41t-11 54.5q0 25 6 55t10 55l34 177q5 25 7 38t2 21q0 14 -6 20.5t-35 6.5h-25l11 61h271l-61 -299q-6 -28 -9.5 -53t-3.5 -42q0 -38 39 -38q24 0 49 30
t45 75.5t30 93.5l50 233h194l-71 -336l-7 -39t-3 -38q0 -19 10.5 -29.5t26.5 -10.5q15 0 27 6t28 17l29 -37q-26 -30 -66 -54.5t-110 -24.5zM280 776l18 76h306l-18 -76h-306zM304 593q-27 0 -43 14.5t-16 44.5q0 34 17 54.5t47 20.5q26 0 42.5 -15t16.5 -44
q0 -42 -20.5 -58.5t-43.5 -16.5zM527 593q-27 0 -43 14.5t-16 44.5q0 34 17 54.5t47 20.5q26 0 42.5 -15t16.5 -44q0 -42 -20.5 -58.5t-43.5 -16.5z" />
    <glyph glyph-name="uni01D7" unicode="&#x1d7;" horiz-adv-x="760" 
d="M354 -10q-122 0 -187.5 45.5t-65.5 127.5q0 16 3.5 44t7.5 45l72 333q5 19 6.5 27t1.5 11q0 20 -20 25t-52 5h-13l12 61h387l-13 -61h-13q-33 0 -59.5 -9t-33.5 -41l-77 -351q-3 -11 -7.5 -36t-4.5 -46q0 -101 108 -101q57 0 91 24.5t53 67t30 97.5l72 334q2 10 3 19
t1 12q0 20 -20 25t-52 5h-13l12 61h272l-13 -61h-13q-32 0 -58.5 -9t-32.5 -44l-77 -368q-26 -121 -100.5 -181.5t-206.5 -60.5zM519 891l-6 13l41 68.5t33 63.5h147l-1 -8q-11 -15 -37 -39.5t-57 -50.5t-59 -47h-61zM434 766q-27 0 -43 14.5t-16 44.5q0 34 17 54.5t47 20.5
q26 0 42.5 -15t16.5 -44q0 -42 -20.5 -58.5t-43.5 -16.5zM657 766q-27 0 -43 14.5t-16 44.5q0 34 17 54.5t47 20.5q26 0 42.5 -15t16.5 -44q0 -42 -20.5 -58.5t-43.5 -16.5z" />
    <glyph glyph-name="uni01D8" unicode="&#x1d8;" horiz-adv-x="728" 
d="M536 -10q-55 0 -85 13t-41.5 34t-11.5 46q0 20 5 37h-8q-30 -38 -60 -67.5t-66 -45.5t-86 -16q-45 0 -71 15.5t-37 41t-11 54.5q0 25 6 55t10 55l34 177q5 25 7 38t2 21q0 14 -6 20.5t-35 6.5h-25l11 61h271l-61 -299q-6 -28 -9.5 -53t-3.5 -42q0 -38 39 -38q24 0 49 30
t45 75.5t30 93.5l50 233h194l-71 -336l-7 -39t-3 -38q0 -19 10.5 -29.5t26.5 -10.5q15 0 27 6t28 17l29 -37q-26 -30 -66 -54.5t-110 -24.5zM394 726l-6 13l41 68.5t33 63.5h147l-1 -8q-11 -15 -37 -39.5t-57 -50.5t-59 -47h-61zM309 601q-27 0 -43 14.5t-16 44.5
q0 34 17 54.5t47 20.5q26 0 42.5 -15t16.5 -44q0 -42 -20.5 -58.5t-43.5 -16.5zM532 601q-27 0 -43 14.5t-16 44.5q0 34 17 54.5t47 20.5q26 0 42.5 -15t16.5 -44q0 -42 -20.5 -58.5t-43.5 -16.5z" />
    <glyph glyph-name="uni01D9" unicode="&#x1d9;" horiz-adv-x="760" 
d="M354 -10q-122 0 -187.5 45.5t-65.5 127.5q0 16 3.5 44t7.5 45l72 333q5 19 6.5 27t1.5 11q0 20 -20 25t-52 5h-13l12 61h387l-13 -61h-13q-33 0 -59.5 -9t-33.5 -41l-77 -351q-3 -11 -7.5 -36t-4.5 -46q0 -101 108 -101q57 0 91 24.5t53 67t30 97.5l72 334q2 10 3 19
t1 12q0 20 -20 25t-52 5h-13l12 61h272l-13 -61h-13q-32 0 -58.5 -9t-32.5 -44l-77 -368q-26 -121 -100.5 -181.5t-206.5 -60.5zM498 913q-8 17 -23 40.5l-30 46.5t-23 39l3 13h71q6 -10 19 -25t27.5 -29.5t24.5 -25.5l33 25.5l37.5 29.5t29.5 25h88l-3 -12
q-15 -16 -40.5 -37l-51.5 -44t-45 -46h-117zM434 766q-27 0 -43 14.5t-16 44.5q0 34 17 54.5t47 20.5q26 0 42.5 -15t16.5 -44q0 -42 -20.5 -58.5t-43.5 -16.5zM657 766q-27 0 -43 14.5t-16 44.5q0 34 17 54.5t47 20.5q26 0 42.5 -15t16.5 -44q0 -42 -20.5 -58.5
t-43.5 -16.5z" />
    <glyph glyph-name="uni01DA" unicode="&#x1da;" horiz-adv-x="728" 
d="M536 -10q-55 0 -85 13t-41.5 34t-11.5 46q0 20 5 37h-8q-30 -38 -60 -67.5t-66 -45.5t-86 -16q-45 0 -71 15.5t-37 41t-11 54.5q0 25 6 55t10 55l34 177q5 25 7 38t2 21q0 14 -6 20.5t-35 6.5h-25l11 61h271l-61 -299q-6 -28 -9.5 -53t-3.5 -42q0 -38 39 -38q24 0 49 30
t45 75.5t30 93.5l50 233h194l-71 -336l-7 -39t-3 -38q0 -19 10.5 -29.5t26.5 -10.5q15 0 27 6t28 17l29 -37q-26 -30 -66 -54.5t-110 -24.5zM373 748q-8 17 -23 40.5l-30 46.5t-23 39l3 13h71q6 -10 19 -25t27.5 -29.5t24.5 -25.5l33 25.5l37.5 29.5t29.5 25h88l-3 -12
q-15 -16 -40.5 -37l-51.5 -44t-45 -46h-117zM309 601q-27 0 -43 14.5t-16 44.5q0 34 17 54.5t47 20.5q26 0 42.5 -15t16.5 -44q0 -42 -20.5 -58.5t-43.5 -16.5zM532 601q-27 0 -43 14.5t-16 44.5q0 34 17 54.5t47 20.5q26 0 42.5 -15t16.5 -44q0 -42 -20.5 -58.5
t-43.5 -16.5z" />
    <glyph glyph-name="uni01DB" unicode="&#x1db;" horiz-adv-x="760" 
d="M354 -10q-122 0 -187.5 45.5t-65.5 127.5q0 16 3.5 44t7.5 45l72 333q5 19 6.5 27t1.5 11q0 20 -20 25t-52 5h-13l12 61h387l-13 -61h-13q-33 0 -59.5 -9t-33.5 -41l-77 -351q-3 -11 -7.5 -36t-4.5 -46q0 -101 108 -101q57 0 91 24.5t53 67t30 97.5l72 334q2 10 3 19
t1 12q0 20 -20 25t-52 5h-13l12 61h272l-13 -61h-13q-32 0 -58.5 -9t-32.5 -44l-77 -368q-26 -121 -100.5 -181.5t-206.5 -60.5zM527 892q-28 18 -57.5 45.5t-54 53l-36.5 37.5l-6 8h152q14 -33 29.5 -66t35.5 -65l-1 -13h-62zM434 766q-27 0 -43 14.5t-16 44.5
q0 34 17 54.5t47 20.5q26 0 42.5 -15t16.5 -44q0 -42 -20.5 -58.5t-43.5 -16.5zM657 766q-27 0 -43 14.5t-16 44.5q0 34 17 54.5t47 20.5q26 0 42.5 -15t16.5 -44q0 -42 -20.5 -58.5t-43.5 -16.5z" />
    <glyph glyph-name="uni01DC" unicode="&#x1dc;" horiz-adv-x="728" 
d="M536 -10q-55 0 -85 13t-41.5 34t-11.5 46q0 20 5 37h-8q-30 -38 -60 -67.5t-66 -45.5t-86 -16q-45 0 -71 15.5t-37 41t-11 54.5q0 25 6 55t10 55l34 177q5 25 7 38t2 21q0 14 -6 20.5t-35 6.5h-25l11 61h271l-61 -299q-6 -28 -9.5 -53t-3.5 -42q0 -38 39 -38q24 0 49 30
t45 75.5t30 93.5l50 233h194l-71 -336l-7 -39t-3 -38q0 -19 10.5 -29.5t26.5 -10.5q15 0 27 6t28 17l29 -37q-26 -30 -66 -54.5t-110 -24.5zM402 727q-28 18 -57.5 45.5t-54 53l-36.5 37.5l-6 8h152q14 -33 29.5 -66t35.5 -65l-1 -13h-62zM309 601q-27 0 -43 14.5t-16 44.5
q0 34 17 54.5t47 20.5q26 0 42.5 -15t16.5 -44q0 -42 -20.5 -58.5t-43.5 -16.5zM532 601q-27 0 -43 14.5t-16 44.5q0 34 17 54.5t47 20.5q26 0 42.5 -15t16.5 -44q0 -42 -20.5 -58.5t-43.5 -16.5z" />
    </font>
</defs>
</svg>
